<svg width="108" height="142" viewBox="0 0 108 142" fill="none" xmlns="http://www.w3.org/2000/svg">
<path d="M58.6195 31.0262C58.7588 31.3934 58.9126 31.7561 59.1788 32.0537C59.5954 32.5187 60.1693 32.7489 60.7892 32.6961C61.3821 32.6456 61.8977 32.1952 62.0863 31.6416C62.2256 31.2351 62.2065 30.7768 62.0975 30.3658C62.0268 30.0963 61.9414 29.8301 61.8505 29.5651C61.7864 29.1642 61.6921 28.7666 61.5517 28.3837C61.3889 27.9401 61.1564 27.4583 60.8319 27.1135C60.6915 26.9642 60.5264 26.8418 60.349 26.7474L60.2423 26.6554C59.7908 26.3353 59.1732 26.2466 58.6757 26.5195C58.1703 26.7968 57.9098 27.2988 57.8289 27.8536C57.7065 28.6869 57.9828 29.6493 58.3096 30.4063C58.3983 30.6084 58.5005 30.8229 58.6195 31.0262Z" fill="#EFF0F3"/>
<path d="M34.2488 39.0298C34.388 39.3971 34.5419 39.7598 34.8081 40.0574C35.2247 40.5223 35.7986 40.7525 36.4185 40.6998C37.0114 40.6492 37.5269 40.1989 37.7167 39.6453C37.8559 39.2387 37.8369 38.7794 37.7279 38.3695C37.6572 38.1011 37.5718 37.8338 37.4809 37.5688C37.4169 37.1679 37.3225 36.7703 37.1821 36.3874C37.0193 35.9438 36.7868 35.462 36.4623 35.1172C36.3219 34.9679 36.1568 34.8454 35.9794 34.7511L35.8727 34.659C35.4212 34.3389 34.8036 34.2502 34.3061 34.5231C33.8007 34.8005 33.5401 35.3025 33.4593 35.8573C33.3369 36.6906 33.6131 37.653 33.9399 38.4099C34.0275 38.6121 34.1297 38.8277 34.2488 39.0298Z" fill="#EFF0F3"/>
<path d="M48.2013 43.8039C49.2424 43.9959 50.3676 43.9342 51.384 43.6399C52.5935 43.2907 53.7457 42.6584 54.6037 41.7241C55.3123 40.9525 56.3421 39.8812 56.2253 38.7582C56.2006 38.5223 55.9457 38.4504 55.7571 38.5144C55.2596 38.6829 54.9451 39.031 54.5756 39.3893C54.2264 39.7284 53.8468 40.0384 53.438 40.3045C52.6822 40.7953 51.8882 41.258 51.0201 41.5208C50.2206 41.7634 49.3693 41.8083 48.5472 41.6657C47.7173 41.5208 47.1446 41.1064 46.4404 40.692C45.4308 40.0979 44.1944 41.3209 45.0254 42.2665C45.8014 43.1514 47.0749 43.595 48.2013 43.8039Z" fill="#EFF0F3"/>
<path d="M106.687 25.7827C106.541 25.5255 106.378 25.2807 106.203 25.046C106.372 24.8551 106.454 24.5878 106.37 24.2498C104.394 16.292 102.222 8.3702 99.6944 0.568542C99.5394 0.0901333 98.8813 -0.124375 98.4512 0.0732772C93.4638 2.37211 88.4765 4.65859 83.57 7.12026C82.2875 7.19326 81.4273 7.98614 80.8871 9.16195C80.2155 10.623 80.7804 12.3614 81.3587 13.7618C82.9108 17.5184 84.5987 21.2053 86.0451 25.0078C87.4702 28.7542 88.7819 32.5433 89.9712 36.3706C90.4508 37.9125 91.0875 39.3489 92.9506 38.6122C94.9316 37.8283 96.8554 36.8007 98.7847 35.8933C99.3417 37.6295 100.221 39.2613 101.379 40.6741C100.686 41.0941 99.9886 41.5085 99.2968 41.9285C96.633 43.5468 93.9557 45.1437 91.2638 46.7159C85.9665 49.8099 80.6175 52.8162 75.2203 55.7316C72.1533 57.388 69.0661 59.0075 65.9767 60.6224C64.2562 61.5208 62.5166 62.3866 60.8029 63.2974C61.2263 62.9785 61.6418 62.6505 62.0472 62.3148C68.6461 56.8535 72.8024 49.2135 72.8001 40.7437C72.8013 32.2738 68.6461 24.6328 62.0472 19.1726C55.4438 13.7035 46.3821 10.3568 36.3995 10.3557C26.4169 10.3568 17.3552 13.7035 10.753 19.1726C4.15405 24.6339 -0.00224514 32.2738 9.09862e-07 40.7437C-0.00224514 49.2135 4.15405 56.8535 10.753 62.3148C16.2232 66.845 23.3825 69.912 31.3537 70.8352C31.2549 70.952 31.1572 71.0699 31.0573 71.1856C30.297 72.0638 29.5547 72.9577 28.8169 73.855C27.3423 75.6484 25.8397 77.4183 24.3079 79.1646C22.7772 80.9098 21.2207 82.6337 19.6395 84.3351C18.3906 85.6793 16.4175 87.4312 17.5518 89.4403C18.0167 90.2635 18.896 90.6936 19.6597 91.1945C20.5974 91.8099 21.5172 92.4534 22.4167 93.125C24.0507 94.3446 25.9565 95.6574 27.0874 97.4026C24.9065 97.4217 23.04 98.7334 21.4565 100.192C19.8427 101.679 18.2907 103.483 18.4502 105.821C18.6085 108.141 20.4132 109.703 22.7267 109.564C24.884 109.435 26.9616 108.287 28.4036 106.71C29.3155 105.713 29.9174 104.575 30.2566 103.385C30.4025 105.61 30.8181 107.791 31.8962 109.768C33.5695 112.836 36.3332 115.126 39.4822 116.579C41.1712 117.359 42.9007 117.843 44.6515 118.115C45.1501 120.729 45.9385 123.319 46.4854 125.916C47.0312 128.509 47.4815 131.118 47.8735 133.737C45.2703 133.14 42.5503 133.245 39.982 134.08C37.8201 134.783 33.2539 136.993 35.4663 139.917C37.1284 142.115 40.9871 142.225 43.4398 141.808C46.4315 141.299 49.1144 139.729 50.9876 137.342C51.5401 136.638 51.0617 135.865 50.407 135.657C50.4474 135.511 50.4688 135.355 50.4418 135.185C49.9398 131.902 49.3278 128.632 48.5619 125.4C48.0116 123.077 47.4793 120.625 46.6561 118.334C51.603 118.641 56.6567 117.357 61.3981 115.702C60.4952 119.272 60.0954 122.974 59.5608 126.612C59.2576 128.674 58.9555 130.736 58.6523 132.798C58.5063 133.793 58.3603 134.789 58.2132 135.784C58.0941 136.592 57.8965 137.427 58.3558 138.163C59.1857 139.491 61.5609 139.921 62.9636 140.256C64.7694 140.687 66.6954 140.857 68.5484 140.682C70.033 140.541 71.5592 139.999 72.3869 138.683C73.164 137.447 73.0584 135.874 71.9972 134.843C70.836 133.716 69.111 133.593 67.5826 133.521C65.3624 133.417 63.1421 133.311 60.9219 133.207L60.9376 133.08C61.1926 131.084 61.4475 129.089 61.7024 127.094C62.2067 123.143 62.9097 119.15 62.913 115.161C63.2735 115.028 63.6329 114.896 63.9889 114.761C67.6837 113.363 71.2493 111.717 72.7451 107.777C74.2062 103.928 73.4695 99.6217 72.05 95.8798C71.1201 93.4282 69.8623 91.0844 68.728 88.7238C67.5691 86.3116 66.409 83.8982 65.2377 81.4916C64.035 79.0198 62.831 76.5469 61.6283 74.0751C60.5075 71.7729 58.9297 69.3483 58.759 66.7373C58.75 66.6036 58.7174 66.4868 58.6736 66.3779C61.7159 65.1774 64.6133 63.5928 67.523 62.1093C70.69 60.4955 73.8277 58.8222 76.9542 57.132C83.269 53.7169 89.5186 50.1794 95.6953 46.5217C98.6713 44.7596 101.666 43.0122 104.58 41.148C105.779 40.3809 106.794 39.4297 107.276 38.0574C107.754 36.6952 107.824 35.2027 107.918 33.7742C108.099 31.0812 108.053 28.1905 106.687 25.7827ZM48.8527 136.423L48.8595 136.424C47.5568 137.811 45.8554 138.82 44.0125 139.305C42.1528 139.795 39.7113 139.905 37.9605 138.97C37.5877 138.771 37.2092 138.569 37.3777 138.14C37.5315 137.75 38.357 137.39 38.6916 137.207C39.663 136.674 40.7142 136.267 41.7945 136.022C44.1563 135.484 46.5707 135.605 48.8527 136.423ZM66.2113 135.839C67.1008 135.873 69.8331 135.593 70.416 136.58C71.338 138.144 67.6814 138.258 66.9952 138.252C65.1928 138.234 63.3869 137.924 61.6912 137.315C61.4598 137.232 60.6816 137.061 60.4536 136.865C60.5569 136.878 60.5379 136.221 60.5569 136.07C60.576 135.921 60.5951 135.773 60.6142 135.625C62.4796 135.696 64.3449 135.767 66.2113 135.839ZM2.65821 40.7437C2.66045 33.1655 6.3552 26.2757 12.4487 21.2199C18.5389 16.1719 27.0121 13.0128 36.3984 13.015C45.7846 13.0139 54.259 16.1719 60.3481 21.2199C66.4416 26.2757 70.1363 33.1644 70.1386 40.7437C70.1375 48.3218 66.4416 55.2105 60.3481 60.2664C54.2579 65.3144 45.7846 68.4734 36.3984 68.4712C35.6392 68.4712 34.8879 68.4431 34.14 68.4027C33.9165 68.132 33.4313 68.0927 33.1787 68.342C25.0839 67.7109 17.8336 64.7293 12.4487 60.2664C6.3552 55.2105 2.66045 48.3218 2.65821 40.7437ZM54.204 84.8853C53.6425 85.4682 53.1023 86.0724 52.5845 86.6956C52.0803 87.3032 51.5952 87.9276 51.137 88.57C50.6799 89.2112 50.3104 89.9333 49.9432 90.6319C48.974 90.1501 47.9925 89.6279 47.2019 88.9698C46.6718 88.5284 46.7112 88.1365 46.6786 87.4672C46.6426 86.7237 46.6101 85.9803 46.5764 85.2357C47.0076 84.6866 47.3434 84.0521 47.7016 83.4569C48.1127 82.7752 48.5495 82.1081 49.0111 81.4601C49.4603 80.829 49.9342 80.2158 50.4272 79.6183C50.8562 79.0972 51.402 78.5986 51.7861 78.0315C51.9826 78.3516 52.1803 78.6717 52.3791 78.9839C53.3808 80.5561 54.4903 82.0295 55.674 83.4423C55.1338 83.8555 54.6565 84.4148 54.204 84.8853ZM56.0188 85.1908C56.2288 84.9954 56.4691 84.8067 56.6814 84.6001C57.427 85.439 58.1896 86.2656 58.9836 87.0674C58.2446 87.9815 57.5472 88.926 56.9408 89.9356C56.5668 90.5589 56.2198 91.1979 55.9031 91.8526C55.7706 92.1266 55.4898 92.5736 55.437 92.8745C55.4034 92.9543 55.3697 93.0351 55.336 93.1149L55.327 93.1115C54.0535 92.3782 52.5419 91.9245 51.2167 91.2619C51.1055 91.2057 50.9865 91.1485 50.8719 91.0923C51.3021 90.5364 51.7636 90.0075 52.1893 89.4493C52.6688 88.8204 53.1607 88.2039 53.6795 87.6076C54.1703 87.0438 54.679 86.4924 55.2091 85.9657C55.4752 85.704 55.7448 85.4457 56.0188 85.1908ZM51 77.0219C50.6597 77.2342 50.3992 77.5946 50.1375 77.8956C49.8758 78.1955 49.6209 78.5009 49.3704 78.812C48.8572 79.4499 48.3732 80.1125 47.915 80.7908C47.4636 81.459 47.0402 82.1463 46.6404 82.847C46.5865 82.9414 46.5337 83.0391 46.4809 83.1345C46.4304 82.0216 46.3798 80.9087 46.3282 79.7958C46.2855 78.8569 46.2485 77.917 46.2092 76.977L46.336 76.8142C46.4315 76.6075 46.5303 76.5098 46.6572 76.2875L46.7168 76.1819L46.7886 76.064C46.8437 75.9764 46.902 75.8899 46.9616 75.8045C47.2109 75.4508 47.4681 75.1117 47.76 74.7916L47.8577 74.6871L47.8858 74.6602L48.1183 74.4468C48.2766 74.3087 48.4428 74.1784 48.6158 74.0571C48.7101 73.9909 48.8067 73.9291 48.9033 73.8673L48.9066 73.8651L49.0313 73.7954C49.1436 73.7348 49.2604 73.682 49.3738 73.6248C49.914 74.7624 50.5126 75.8775 51.1426 76.9534L51 77.0219ZM48.7382 72.2008C48.6281 72.2502 48.5215 72.3063 48.4148 72.3681C48.1744 72.5062 47.9397 72.6511 47.7162 72.8151C47.303 73.1194 46.9268 73.4788 46.591 73.8662C46.4079 74.0773 46.2428 74.3132 46.0935 74.558C46.0104 73.0767 45.8857 71.5988 45.6959 70.1277C46.4135 69.9704 47.1199 69.7907 47.8196 69.5987C48.0824 70.4735 48.38 71.3439 48.7382 72.2008ZM23.5566 106.829C22.6099 107.101 21.4161 107.226 21.0556 106.097C20.7535 105.15 21.2039 104.206 21.7676 103.464C23.0265 101.804 25.3029 99.5633 27.5523 99.8339C27.7208 99.8541 27.8712 99.8395 28.0105 99.8047C28.4676 102.804 26.6573 105.941 23.5566 106.829ZM30.9933 82.7684C30.5777 87.6267 30.3161 92.4905 30.242 97.3655C30.2363 97.7518 30.2274 98.1427 30.2195 98.5346C29.7737 96.9848 28.9314 95.5249 27.7342 94.3367C25.9127 92.5298 23.7621 90.9991 21.6295 89.5863C21.1084 89.2415 20.5581 88.9327 20.0483 88.5722C19.4115 88.123 19.7237 87.7996 20.1819 87.2448C21.0376 86.2105 22.0068 85.2548 22.903 84.2542C24.9974 81.9172 27.0301 79.5229 29.0134 77.0904C29.9623 75.927 30.9079 74.7602 31.8063 73.5574C31.8614 73.4833 31.9198 73.408 31.9759 73.3339C31.4717 76.4627 31.2583 79.6745 30.9933 82.7684ZM60.6973 78.7222C62.6817 82.8268 64.6739 86.9259 66.6785 91.0204C68.4507 94.6388 70.7551 98.4852 71.0943 102.579C71.4087 106.378 69.668 109.603 66.2282 111.245C62.4975 113.025 58.3378 114.414 54.3017 115.286C51.4469 115.902 48.4496 116.214 45.541 115.836C45.3321 115.642 45.0367 115.615 44.793 115.709C44.099 115.589 43.4094 115.442 42.7311 115.233C39.654 114.285 36.7836 112.556 34.8834 109.912C32.5835 106.712 32.7227 102.731 32.7598 98.967C32.8103 93.8774 32.9844 88.7811 33.2977 83.6994C33.5549 79.5206 34.1692 75.2779 34.2635 71.0733C34.971 71.1069 35.6819 71.1294 36.3995 71.1294C39.1004 71.1294 41.7305 70.8756 44.2663 70.4095C44.0788 74.056 44.2865 77.7204 44.3831 81.3669C44.437 83.3614 44.4898 85.3559 44.5426 87.3504C44.5886 89.0888 44.7784 90.1658 46.3091 91.1563C47.8173 92.1334 49.3907 93.0329 51.0033 93.8269C51.8243 94.2312 52.6587 94.6074 53.5021 94.9611C54.1703 95.2408 54.9553 95.6934 55.7032 95.6496C57.3496 95.553 57.764 93.4574 58.3738 92.2647C59.2116 90.6274 60.2144 89.1057 61.3767 87.6806C61.7878 87.1763 61.5991 86.5014 61.1634 86.0993C58.5119 83.6511 56.2288 80.7481 54.3005 77.7047C53.3246 76.1662 52.4431 74.5703 51.6614 72.9251C51.0404 71.6179 50.5474 70.2635 50.005 68.9283C52.2881 68.1601 54.46 67.2078 56.4893 66.0848C56.3321 66.2577 56.2254 66.4834 56.2018 66.7619C56.0233 68.9069 56.8554 70.7712 57.7685 72.6623C58.7444 74.6838 59.7214 76.703 60.6973 78.7222ZM98.13 32.5456C98.1592 32.9577 98.212 33.3676 98.2771 33.7742C98.1749 33.7899 98.0705 33.8157 97.9605 33.8674C96.3961 34.603 94.835 35.3464 93.2718 36.0865C92.9978 36.2157 92.5913 36.5054 92.2678 36.5997C92.2353 36.5065 92.2016 36.4144 92.1735 36.3201C91.9376 35.598 91.7153 34.8714 91.4794 34.1493C90.4732 31.0632 89.3873 28.0018 88.2193 24.973C87.0761 22.0082 85.8587 19.0715 84.5672 16.1685C83.7878 14.4154 81.2161 10.3231 83.0388 8.5409C88.1553 6.56775 93.1864 4.40142 98.2232 2.23286C100.29 9.20012 102.25 16.1932 103.999 23.2481C102.861 22.7955 101.598 22.9381 100.434 24.0982C98.3411 26.1848 97.9278 29.7347 98.13 32.5456ZM105.462 36.6974C105.189 37.9428 104.458 38.7076 103.419 39.3916C103.337 39.4455 103.251 39.4949 103.169 39.5488C101.635 37.7385 100.638 35.5766 100.293 33.2149C99.9639 30.9644 100.126 28.1242 101.44 26.1791C103.444 23.2099 105.338 27.4628 105.649 29.3393C106.034 31.6561 105.965 34.3986 105.462 36.6974Z" fill="#EFF0F3"/>
</svg>
