<svg width="122" height="146" viewBox="0 0 122 146" fill="none" xmlns="http://www.w3.org/2000/svg">
<path d="M71.1837 39.0071C71.2033 39.4396 71.2399 39.8745 71.417 40.2777C71.6931 40.9093 72.2161 41.3479 72.8856 41.5055C73.5258 41.657 74.2197 41.3626 74.6094 40.847C74.8953 40.4683 75.0333 39.9808 75.0614 39.5129C75.0798 39.2062 75.0822 38.8971 75.0785 38.588C75.1494 38.1445 75.1885 37.6962 75.1726 37.2454C75.1555 36.7237 75.0761 36.1397 74.855 35.6644C74.7585 35.4592 74.6277 35.2747 74.475 35.1147L74.3944 34.9803C74.0315 34.4892 73.4133 34.1837 72.7976 34.2986C72.1721 34.4159 71.7261 34.8533 71.45 35.4055C71.0346 36.2375 70.9931 37.3419 71.0749 38.2484C71.0957 38.4928 71.1287 38.753 71.1837 39.0071Z" fill="#EFF0F3"/>
<path d="M46.153 35.1147L46.0723 34.9803C45.7095 34.4892 45.0913 34.1837 44.4756 34.2986C43.85 34.4159 43.4041 34.8533 43.128 35.4055C42.7126 36.2375 42.6711 37.3419 42.7529 38.2484C42.7749 38.4928 42.8079 38.753 42.8629 39.0071C42.8824 39.4396 42.9191 39.8745 43.095 40.2777C43.3711 40.9093 43.894 41.3479 44.5635 41.5055C45.2037 41.657 45.8976 41.3626 46.2886 40.847C46.5745 40.4683 46.7125 39.9808 46.7394 39.5129C46.7577 39.2062 46.7602 38.8971 46.7565 38.588C46.8273 38.1445 46.8653 37.6962 46.8506 37.2454C46.8335 36.7237 46.7541 36.1397 46.5329 35.6644C46.4376 35.4592 46.3057 35.2747 46.153 35.1147Z" fill="#EFF0F3"/>
<path d="M59.2472 49.7447C60.6363 49.7948 62.0633 49.5284 63.2838 48.8443C64.2929 48.2786 65.7419 47.5101 66.0058 46.2921C66.062 46.0355 65.8176 45.873 65.5989 45.8743C65.0198 45.8791 64.569 46.1369 64.0583 46.3849C63.5745 46.6207 63.07 46.815 62.5495 46.953C61.588 47.2072 60.5948 47.4185 59.5942 47.3965C58.673 47.3758 57.7628 47.1289 56.9504 46.6964C56.1294 46.2591 55.6712 45.6262 55.0762 44.9494C54.2222 43.9781 52.5033 44.8345 53.0494 46.1125C53.5601 47.3073 54.7427 48.2126 55.852 48.8174C56.8783 49.3806 58.0804 49.7031 59.2472 49.7447Z" fill="#EFF0F3"/>
<path d="M119.522 9.57587C117.313 15.3375 115.222 21.1431 113.223 26.9817C112.236 29.8662 111.298 32.7653 110.38 35.6718C109.56 38.268 108.576 40.902 108.179 43.6118C106.391 43.9881 104.926 45.2196 103.81 46.7027C102.042 49.0484 100.612 51.7008 99.0584 54.1906C97.4249 56.8076 95.7927 59.4257 94.1703 62.05C93.3798 63.3291 92.5894 64.607 91.7989 65.8862C91.3114 66.6742 90.3426 69.1201 89.2284 68.9698C88.3439 68.8501 87.3567 68.3406 86.5089 68.0474C85.7636 67.7909 85.0171 67.5343 84.2719 67.279L79.3496 65.5906C77.0906 64.816 74.883 63.9241 72.5727 63.5771C76.4578 61.9694 79.9959 59.857 83.0514 57.3268C90.3328 51.3013 94.9167 42.8726 94.9155 33.5277C94.9167 24.184 90.3341 15.7553 83.0514 9.72858C75.765 3.6945 65.7665 0.00122172 54.7502 0C43.7339 0.00122172 33.7354 3.6945 26.4491 9.72858C19.1676 15.7541 14.5837 24.1827 14.5849 33.5277C14.5837 42.8714 19.1676 51.3001 26.4491 57.3268C30.0873 60.3396 34.4012 62.7684 39.1806 64.4458C37.6974 65.7824 36.323 67.3168 34.9608 68.6619C32.8166 70.7792 30.6994 72.9233 28.5687 75.054C27.5596 76.0632 26.5504 77.0723 25.5401 78.0814C25.4472 78.1743 25.0001 78.5958 24.6714 78.8878L24.5175 78.6935C24.2267 78.3245 23.9359 77.9556 23.644 77.5866C21.8431 75.3179 19.9959 73.0834 18.1707 70.8342C15.0125 66.943 11.3974 61.8912 5.71521 62.43C1.48073 62.8307 -1.92542 67.9924 1.24006 71.6063C2.76354 73.346 5.16298 74.007 7.3975 74.1426C10.3101 74.3185 13.1799 73.8811 15.9325 72.9428C17.4047 74.7534 18.8768 76.564 20.349 78.3746C21.4571 79.7369 23.2958 83.0392 25.4595 81.8504C26.3318 81.3703 27.0233 80.2756 27.7123 79.5609C28.6469 78.5897 29.5815 77.6184 30.5174 76.6471C32.5515 74.5335 34.6004 72.4309 36.6223 70.3052C37.9662 68.8916 39.5068 67.4598 40.8336 65.9168C38.9778 70.0425 37.7292 74.4822 36.7139 78.8731C35.5777 83.7868 34.8191 88.7886 34.4538 93.8184C33.8808 101.707 34.3499 111.241 42.9044 114.618C44.8848 115.4 46.974 115.774 49.0912 115.954C48.8188 117.443 48.7564 118.98 48.6538 120.484C48.5133 122.539 48.4205 124.598 48.3069 126.656C48.1004 130.376 47.889 134.096 47.6752 137.816C44.2837 136.557 40.7053 135.507 37.078 135.837C34.1813 136.101 28.8668 138.111 30.4074 142.018C31.7379 145.391 37.359 145.136 40.2581 144.888C42.3155 144.712 44.357 144.232 46.2873 143.501C47.9122 142.886 50.016 142.206 50.0075 140.197C50.0674 140.073 50.1126 139.94 50.1187 139.786C50.2958 135.505 50.4791 131.225 50.666 126.944C50.7564 124.884 50.8676 122.823 50.9323 120.762C50.98 119.218 51.09 117.62 50.9629 116.061C52.319 116.111 53.6751 116.11 55.0129 116.099C58.5388 116.071 62.083 115.962 65.582 115.499C65.2851 117.148 65.2778 118.937 65.1214 120.53C64.9003 122.795 64.7036 125.062 64.4604 127.324C63.9669 131.928 63.3841 136.522 62.7158 141.103C62.6108 141.826 63.1617 142.37 63.8178 142.514C67.3461 143.29 71.2141 143.692 74.7986 143.051C77.5695 142.557 80.9977 141.015 81.3569 137.833C81.5071 136.503 80.8242 135.212 79.5732 134.685C78.1266 134.075 76.3038 134.444 74.8048 134.631C72.8915 134.869 70.9918 135.232 69.1262 135.719C68.0828 135.99 66.899 136.215 65.8618 136.661C66.2503 133.654 66.6119 130.642 66.9088 127.625C67.1324 125.361 67.3535 123.092 67.5038 120.822C67.6211 119.041 67.9363 117.003 67.7664 115.153C68.1782 115.08 68.5899 115.007 69.0004 114.921C73.1041 114.062 77.7919 112.615 80.9806 109.761C84.4783 106.629 84.0068 102.093 82.7056 98.0077C80.9293 92.4293 78.6935 86.9719 76.6312 81.4949C74.5751 76.0326 72.5189 70.5703 70.4628 65.108C72.8036 65.5795 75.1114 66.5863 77.335 67.3743C79.8615 68.2686 82.3856 69.1653 84.9121 70.0584C86.9133 70.7657 89.5668 72.3198 91.4812 70.6876C92.2546 70.0291 92.7384 69.0419 93.2699 68.1953L95.5374 64.5765C97.1122 62.0647 98.6723 59.5442 100.239 57.0263C102.092 57.8546 104.432 57.5247 106.297 56.9102C108.326 56.2432 110.175 54.9689 111.539 53.3294C112.913 51.68 113.946 49.393 113.718 47.2097C113.505 45.1829 111.934 43.8207 110.021 43.5446C111.09 41.2343 111.772 38.7286 112.59 36.3316C113.575 33.4507 114.583 30.5785 115.591 27.7062C117.608 21.9592 119.725 16.2477 121.906 10.5593C122.5 9.00898 120.116 8.0255 119.522 9.57587ZM7.95095 71.3742C6.40669 71.2947 4.40798 71.0431 3.36219 69.7566C2.22232 68.3553 3.26445 66.4054 4.71097 65.7139C6.64251 64.7915 8.95767 65.7591 10.5239 66.9577C11.8739 67.9912 12.9881 69.2911 14.0596 70.6192C12.0779 71.1921 10.0132 71.4792 7.95095 71.3742ZM46.9764 140.342C46.6637 140.496 46.3448 140.64 46.0235 140.776C45.3808 141.049 44.7248 141.292 44.0577 141.497C42.7016 141.915 41.2844 142.166 39.8709 142.287C38.7102 142.385 32.7153 142.729 32.8154 140.728C32.8704 139.617 34.7678 138.996 35.5961 138.769C36.9669 138.394 38.3962 138.34 39.8049 138.471C42.2984 138.702 44.6796 139.469 47.0228 140.32L46.9764 140.342ZM17.4779 33.5277C17.4792 25.154 21.5634 17.5427 28.2951 11.957C35.0231 6.37981 44.3827 2.89183 54.7502 2.89305C65.1177 2.89183 74.4774 6.37981 81.2054 11.957C87.9371 17.5415 92.0201 25.154 92.0225 33.5277C92.0201 41.9014 87.9371 49.5127 81.2054 55.0984C74.4774 60.6756 65.1177 64.1636 54.7502 64.1624C44.3827 64.1636 35.0231 60.6756 28.2951 55.0984C21.5622 49.5127 17.4792 41.9014 17.4779 33.5277ZM54.0428 83.4142C52.0966 84.4942 50.1235 85.5889 48.484 87.1075C48.2983 86.7532 48.1077 86.4013 47.9354 86.0409C47.2439 84.5907 47.9697 83.1455 48.3814 81.6916C48.5146 81.2188 48.6526 80.7448 48.7907 80.272C50.5206 79.4876 52.0942 78.3502 53.7533 77.429C55.3953 76.5176 57.0886 75.7052 58.8161 74.9685C59.2254 76.7913 59.6334 78.6153 60.0427 80.4393C57.9792 81.2628 55.9805 82.3379 54.0428 83.4142ZM60.4667 82.3379C60.5167 82.5627 60.568 82.7875 60.6181 83.0111C60.7489 83.5951 60.9847 84.2756 60.9211 84.8803C60.8539 85.5254 60.3897 86.03 60.0109 86.5235C59.1936 87.5864 58.3726 88.6457 57.5638 89.7147C56.1857 91.5363 54.8064 93.3578 53.4283 95.1794C52.1308 93.3615 50.914 91.4874 49.8145 89.5424C49.5542 89.083 49.2952 88.62 49.0387 88.1558C51.0533 87.2615 52.9042 86.0507 54.8504 85.0171C56.6891 84.041 58.584 83.2139 60.4667 82.3379ZM58.4117 73.1701C56.5339 74.0119 54.7038 74.9538 52.9323 76.0021C51.7118 76.7229 50.4546 77.473 49.3429 78.3795C50.451 74.6142 51.5749 70.8244 52.3336 66.9894C53.1339 67.0285 53.9378 67.0554 54.749 67.0554C55.5138 67.0554 56.2737 67.0334 57.0287 66.998C57.4893 69.0541 57.9499 71.1127 58.4117 73.1701ZM68.5349 138.53C69.924 138.127 71.3375 137.804 72.7596 137.545C74.0742 137.306 75.3973 137.126 76.7278 137.006C77.6465 136.923 79.2408 136.681 78.6532 138.076C77.776 140.163 74.6154 140.601 72.6619 140.739C70.2343 140.91 67.7787 140.68 65.3816 140.238C65.4232 139.94 65.4598 139.641 65.5014 139.343C66.5435 139.29 67.5294 138.822 68.5349 138.53ZM77.9116 92.9217C78.7558 95.0841 79.6721 97.2319 80.4015 99.4359C81.0111 101.278 81.5108 103.37 80.9708 105.29C80.3917 107.349 78.5726 108.565 76.7864 109.524C74.9844 110.49 73.065 111.251 71.1017 111.818C67.0273 112.996 62.7427 113.387 58.5204 113.541C54.6024 113.684 50.5377 113.84 46.6661 113.108C42.9496 112.406 39.7011 110.478 38.1031 106.938C36.5588 103.518 36.5075 99.5886 36.6846 95.9051C36.9339 90.7177 37.6022 85.5498 38.6724 80.4687C39.7414 75.3936 41.3565 70.5141 42.8421 65.5563C45.2953 66.1904 47.8499 66.6302 50.4766 66.8624C48.528 72.0547 47.1975 77.5512 45.6765 82.8644C45.3014 84.1741 45.1084 85.281 45.6117 86.5858C46.131 87.9346 46.8775 89.2443 47.5824 90.5039C49.0399 93.1086 50.6611 95.6144 52.435 98.0138C52.9103 98.6577 53.9194 98.621 54.3922 98.0016C56.2114 95.6205 58.0318 93.2405 59.8497 90.8582C61.3878 88.8423 63.6627 86.7251 63.2949 83.9823C62.9101 81.115 62.0317 78.2415 61.3988 75.4181C60.7562 72.5495 60.1123 69.6809 59.4697 66.8135C62.2565 66.541 64.9565 66.0303 67.5404 65.3071C67.5575 65.3999 67.5673 65.4916 67.604 65.5881C71.0321 74.7021 74.3723 83.8528 77.9116 92.9217ZM110.773 46.4364C111.635 47.2317 111.251 48.699 110.886 49.6422C110.149 51.5456 108.627 53.118 106.811 54.0306C105.033 54.9249 103.397 54.9713 101.562 54.898C102.436 53.4894 103.317 52.0832 104.192 50.6733C105.237 48.991 106.438 46.5586 108.54 46.0418C109.256 45.8671 110.202 45.9098 110.773 46.4364Z" fill="#EFF0F3"/>
</svg>
