<svg width="105" height="142" viewBox="0 0 105 142" fill="none" xmlns="http://www.w3.org/2000/svg">
<path d="M28.011 23.2998C27.418 23.1869 26.823 23.4887 26.473 23.9744L26.395 24.1068C26.248 24.2659 26.121 24.4477 26.029 24.6509C25.815 25.1201 25.74 25.6982 25.723 26.2136C25.708 26.6581 25.745 27.1027 25.813 27.5411C25.809 27.8471 25.812 28.153 25.829 28.4559C25.856 28.9189 25.988 29.4015 26.264 29.7762C26.639 30.2865 27.309 30.577 27.925 30.4281C28.57 30.2721 29.073 29.8378 29.339 29.2136C29.509 28.8152 29.545 28.3861 29.563 27.9569C29.616 27.7054 29.648 27.4487 29.669 27.2064C29.748 26.3101 29.708 25.2177 29.308 24.3953C29.043 23.848 28.614 23.4158 28.011 23.2998Z" fill="#EFF0F3"/>
<path d="M55.2889 23.2998C54.6959 23.1869 54.1009 23.4887 53.7509 23.9744L53.6729 24.1068C53.5259 24.2659 53.3989 24.4477 53.3069 24.6509C53.0929 25.1201 53.0179 25.6982 53.0009 26.2136C52.9859 26.6581 53.0229 27.1027 53.0909 27.5411C53.0869 27.8471 53.0899 28.153 53.1069 28.4559C53.1339 28.9189 53.2659 29.4015 53.5419 29.7762C53.9179 30.2865 54.5869 30.577 55.2029 30.4281C55.8479 30.2721 56.3509 29.8378 56.6169 29.2136C56.7869 28.8152 56.8229 28.3861 56.8409 27.9569C56.8939 27.7054 56.9259 27.4487 56.9469 27.2064C57.0259 26.3101 56.9859 25.2177 56.5859 24.3953C56.3209 23.848 55.8919 23.4158 55.2889 23.2998Z" fill="#EFF0F3"/>
<path d="M42.5209 37.3357C41.9469 38.0051 41.5059 38.6303 40.7159 39.0626C39.9329 39.4907 39.0579 39.734 38.1699 39.7546C37.2059 39.7772 36.2489 39.5677 35.3229 39.3162C34.8219 39.1796 34.3349 38.9876 33.8699 38.7546C33.3789 38.5082 32.9439 38.2536 32.3859 38.2494C32.1749 38.2474 31.9399 38.4086 31.9939 38.6622C32.2489 39.8665 33.6439 40.6273 34.6159 41.1858C35.7919 41.8624 37.1659 42.1252 38.5039 42.0759C39.6289 42.0349 40.7859 41.7156 41.7739 41.1612C42.8419 40.5616 43.9819 39.6673 44.4729 38.4856C44.9989 37.2217 43.3439 36.3747 42.5209 37.3357Z" fill="#EFF0F3"/>
<path d="M99.6749 97.3616C96.9889 95.9262 94.3809 94.3492 91.8589 92.6264C86.8169 89.1808 82.1189 85.1932 77.8899 80.7414C73.4419 76.0587 69.7129 70.8359 66.0369 65.5248C73.8229 64.302 80.8049 61.0884 86.2199 56.4837C93.2119 50.5422 97.6069 42.2403 97.6059 33.0391C97.6069 23.8378 93.2119 15.536 86.2199 9.59447C79.2239 3.6458 69.6189 0.00205339 59.0339 0C48.4489 0.0010267 38.8429 3.6458 31.8469 9.59447C24.8549 15.536 20.4599 23.8378 20.4609 33.0391C20.4589 42.2403 24.8549 50.5422 31.8469 56.4837C36.0259 60.0371 41.1409 62.7599 46.8349 64.3831C45.7519 64.2866 44.6689 64.1777 43.5879 64.0514C43.4669 63.6161 42.8759 63.4139 42.5189 63.8307L42.4559 63.9118C42.1079 63.8687 41.7599 63.8287 41.4129 63.7835C34.4839 62.8738 27.6309 61.4703 20.7239 60.4108C17.3439 59.8923 13.9499 59.4539 10.5399 59.2044C7.99194 59.0176 5.11594 58.7444 2.76194 60.0021C0.42694 61.2496 -0.621062 63.9282 0.376938 66.4642C1.37894 69.0083 3.83394 70.6295 6.35094 71.224C11.8429 72.5227 17.9309 69.1798 19.9819 63.8194C20.1089 63.4868 20.1029 63.1818 20.0149 62.917C21.2799 63.1048 22.5449 63.2999 23.8079 63.5052C29.4589 64.4211 35.0989 65.5032 40.7849 66.1716C40.0359 67.2989 39.3449 68.4693 38.6629 69.6357C37.5049 71.6172 36.3629 73.6079 35.2479 75.6151C33.0119 79.6408 30.9369 83.7661 29.1059 88.0032C27.7689 91.0967 26.5039 94.5443 27.0199 97.916C26.2709 97.3256 25.5149 96.7445 24.6189 96.4047C22.3439 95.5423 20.4069 96.4971 19.3699 98.6685C18.1619 101.199 17.2939 103.959 16.2919 106.582C15.3239 109.115 14.3559 111.648 13.3879 114.18C10.6889 113.182 7.72494 112.922 4.92094 113.614C3.60894 113.938 2.18694 114.433 1.42494 115.664C0.760938 116.737 0.923939 118.093 1.77094 119C3.44494 120.793 6.82494 120.541 9.01794 120.426C11.6939 120.286 14.3679 119.459 16.0439 117.186C16.6149 116.411 16.0199 115.549 15.3089 115.413C17.0969 110.752 18.8969 106.094 20.6569 101.421C21.0079 100.49 21.2849 99.2959 22.0149 98.5905C22.8649 97.7692 24.1329 98.3739 24.9739 98.916C25.6919 99.378 26.8999 100.537 28.0229 100.904C29.6199 103.984 32.5959 106.098 35.5509 107.667C39.2479 109.629 43.2719 110.951 47.3819 111.607C50.5939 112.119 54.0039 112.304 57.2709 111.845C57.4309 113.559 57.7359 115.268 58.0089 116.957C58.4129 119.45 58.8159 121.944 59.2199 124.437C59.7469 127.689 60.2979 130.94 60.8069 134.196C58.8059 133.333 56.6229 132.978 54.4229 133.173C51.8259 133.403 48.0269 134.581 46.8379 137.246C46.2229 138.623 46.6019 140.174 47.8129 141.056C49.0559 141.961 50.8369 141.946 52.2899 141.987C56.0049 142.095 59.7959 141.54 63.2799 140.184C63.7699 139.993 64.1329 139.348 64.0239 138.814C63.8789 138.104 63.7459 137.391 63.6079 136.68C63.6909 136.373 63.6479 136.042 63.4289 135.762C62.6959 131.887 62.0449 127.994 61.3589 124.111C60.9319 121.694 60.5039 119.278 60.0769 116.862C59.7649 115.095 59.4889 113.282 59.0539 111.526C59.1709 111.5 59.2909 111.482 59.4069 111.454C63.0019 110.594 66.2419 108.7 68.1029 105.332C70.0529 101.8 70.3229 97.5063 70.3979 93.532C70.5509 85.3995 69.1889 77.2845 66.3639 69.7055C68.3319 72.9406 70.6199 75.9796 73.0419 78.8564C76.2229 82.6346 79.7229 86.1326 83.4629 89.3287C83.3759 89.4858 83.3139 89.6706 83.2899 89.8872C82.5929 96.2281 85.5679 102.554 91.0029 105.721C93.4199 107.13 96.4449 108.093 99.2479 107.716C101.554 107.406 104.174 105.989 104.424 103.35C104.711 100.304 101.944 98.5741 99.6749 97.3616ZM17.5429 62.7876C15.9939 66.8708 11.5579 69.3862 7.35394 68.7188C5.38294 68.4057 3.01294 67.0956 2.58894 64.9005C2.12594 62.5011 4.88494 61.8235 6.61794 61.69C9.38394 61.4785 12.2819 61.9293 15.0269 62.2465C15.8999 62.3471 16.7699 62.4734 17.6399 62.5915L17.5429 62.7876ZM9.60794 118.103C7.91494 118.283 5.75094 118.398 4.11994 117.81C3.43894 117.565 2.91794 117.167 3.65694 116.572C4.45794 115.927 5.71894 115.782 6.69094 115.654C9.01794 115.351 11.3399 115.721 13.4859 116.675C12.4049 117.572 11.0259 117.952 9.60794 118.103ZM61.3819 138.069C59.0909 138.708 56.7819 139.143 54.3959 139.256C53.1109 139.316 51.8089 139.301 50.5289 139.153C49.5579 139.041 48.6149 138.766 49.5149 137.728C50.8569 136.183 53.4849 135.605 55.4049 135.531C57.4529 135.452 59.4949 136.007 61.2409 137.096C61.2889 137.419 61.3359 137.744 61.3819 138.069ZM23.0179 33.0401C23.0199 24.7198 26.9729 17.1592 33.4779 11.6181C39.9799 6.08421 49.0209 2.62629 59.0329 2.62834C69.0449 2.62731 78.0859 6.08524 84.5879 11.6181C91.0939 17.1592 95.0469 24.7198 95.0479 33.0401C95.0459 41.3604 91.0929 48.921 84.5879 54.4621C78.0859 59.996 69.0449 63.4539 59.0329 63.4529C49.0209 63.4539 39.9799 59.996 33.4779 54.4621C26.9729 48.921 23.0199 41.3604 23.0179 33.0401ZM67.5209 89.0802C67.7249 92.8431 67.7179 96.8215 66.8979 100.515C66.1289 103.98 64.1799 106.64 60.9329 107.967C57.7479 109.269 54.1079 109.35 50.7329 109.111C46.8179 108.834 42.9609 107.937 39.3179 106.438C36.1899 105.151 32.8539 103.47 30.7839 100.635C28.3369 97.2815 29.3879 93.3759 30.8449 89.8359C32.6259 85.5104 34.7299 81.3359 36.9029 77.2075C38.0339 75.0576 39.2009 72.9282 40.3869 70.8091C41.2009 69.3553 42.0399 67.9016 42.7529 66.3892C48.5829 66.9827 54.7269 67.2968 60.4969 66.0463C60.8409 66.035 61.1839 66.0207 61.5259 66.0011L61.5429 66.0484C65.0139 73.2291 67.0859 81.07 67.5209 89.0802ZM101.372 103.9C99.9029 105.544 96.9169 105.028 95.1349 104.454C89.5449 102.655 85.8419 97.3185 85.9769 91.3955C89.7489 94.3862 93.7399 97.0772 97.9299 99.4119C99.1519 100.093 103.142 101.918 101.372 103.9Z" fill="#EFF0F3"/>
</svg>
