<svg width="92" height="142" viewBox="0 0 92 142" fill="none" xmlns="http://www.w3.org/2000/svg">
<path d="M79.8789 9.94335C72.4317 3.77605 62.2124 0.00124869 50.9529 0C39.6934 0.00124869 29.4742 3.77605 22.0269 9.94335C14.5847 16.1019 9.89963 24.7167 9.90088 34.2679C9.89963 43.8179 14.5847 52.4327 22.0269 58.5925C26.2575 62.0963 31.3847 64.8247 37.0874 66.5304C33.7447 69.5835 30.6604 72.9287 27.6111 76.269C24.4369 79.7466 21.2964 83.2679 18.4382 87.014C15.6848 90.6202 13.1824 94.4525 11.2245 98.5532C10.2355 100.625 9.39138 102.926 9.65985 105.261C9.67733 105.411 9.70356 105.56 9.73603 105.707C9.1866 105.993 8.66839 106.374 8.17516 106.7C7.32979 107.257 6.49068 107.822 5.6578 108.397C3.99205 109.543 2.34751 110.722 0.726705 111.932L0.624311 112.025C0.303397 112.048 -0.0225035 112.325 0.00122169 112.713C0.233479 116.377 1.49217 120.069 2.68217 123.52C3.25782 125.188 3.88467 126.836 4.5777 128.458C4.94731 129.322 5.32567 130.184 5.73025 131.033C6.04242 131.69 6.36332 132.358 7.11753 132.578C7.88298 132.801 8.56351 132.466 9.22532 132.108C10.0757 131.647 10.916 131.165 11.7539 130.682C13.2948 129.796 14.8257 128.89 16.3441 127.965C17.9962 126.958 19.6419 125.938 21.2578 124.874C21.9283 124.434 22.5864 123.974 23.2444 123.516C23.458 123.602 23.7077 123.602 23.9724 123.468C25.532 122.68 26.9767 121.54 28.3753 120.5C29.8213 119.425 31.2111 118.281 32.5647 117.091C32.9106 116.787 33.0529 116.323 32.8731 115.886C30.2696 109.574 27.8808 103.1 24.7166 97.0435C24.4781 96.5877 23.9649 96.6702 23.7664 96.9986C23.5504 96.9511 23.3131 96.9923 23.1071 97.1284C22.4977 97.5317 21.7909 97.8264 21.1541 98.1898C20.4898 98.5694 19.833 98.9628 19.1849 99.3698C18.1872 99.9992 17.2082 100.652 16.2093 101.279C15.8309 100.318 15.2091 99.4572 14.3612 98.8129C14.0528 98.5781 13.7306 98.5432 13.4459 98.6269C14.039 97.3769 14.6959 96.1544 15.3914 94.9657C19.2436 88.3838 24.2858 82.5749 29.3405 76.8996C32.1026 73.7978 34.9659 70.781 37.6818 67.638C36.2221 71.5702 35.0845 75.6334 33.8595 79.6405C32.5135 84.0446 31.1674 88.4488 29.8338 92.8566C28.7561 96.4167 27.3002 100.359 28.3254 104.102C29.2594 107.509 32.215 109.498 35.4729 110.401C36.7778 110.763 38.1201 111.016 39.4787 111.201C39.0541 113.113 38.7919 115.071 38.4335 116.991C37.974 119.448 37.4558 121.893 36.9576 124.341C36.1447 128.332 35.4791 132.307 34.9322 136.322C32.6508 135.303 30.1897 134.793 27.6885 134.841C25.9016 134.875 22.8161 135.105 22.8935 137.574C22.9647 139.799 25.3772 141.129 27.3189 141.401C28.6213 141.583 29.9536 141.393 31.2385 141.174C32.7095 140.921 34.1867 140.682 35.6439 140.364C36.0348 140.28 36.4406 139.966 36.4606 139.528C36.6891 134.512 37.8117 129.481 38.7719 124.565C39.2514 122.115 39.7222 119.664 40.1317 117.2C40.4514 115.283 40.7973 113.319 40.8472 111.362C43.1573 111.595 45.4949 111.642 47.77 111.612C50.6233 111.573 53.5265 111.386 56.3573 110.873C56.2374 111.612 56.1924 112.369 56.1362 113.108C56.0438 114.338 55.9502 115.569 55.8603 116.799C55.683 119.263 55.5107 121.725 55.3209 124.188C54.9425 129.084 54.6591 133.986 54.95 138.895C54.9787 139.367 55.4108 139.638 55.8141 139.738C58.505 140.406 61.3021 140.519 64.0355 140.034C66.182 139.653 68.9166 138.816 68.9191 136.164C68.9216 133.654 66.1308 133.092 64.1716 133.283C61.7254 133.52 59.0657 133.765 56.7331 134.66C56.6545 131.113 56.7993 127.562 56.9791 124.018C57.0978 121.673 57.2488 119.33 57.3874 116.986C57.4599 115.754 57.5273 114.52 57.596 113.287C57.6447 112.411 57.7296 111.496 57.6672 110.608C58.4089 110.445 59.1456 110.263 59.8711 110.046C63.2051 109.045 66.197 107.122 67.8128 103.955C69.4211 100.803 69.2763 97.0123 68.582 93.6383C68.1824 91.6953 67.6092 89.7736 66.9499 87.8756C70.0005 86.8155 73.0585 85.6954 75.7345 83.8585C76.1653 83.5626 76.0767 82.9495 75.727 82.6473C70.053 77.7287 64.4313 72.7327 58.6649 67.9202C66.8401 66.6228 74.1724 63.3113 79.8739 58.5887C87.3161 52.4302 92.0012 43.8154 92 34.2642C92.0075 24.7179 87.3224 16.1019 79.8789 9.94335ZM27.5674 108.353L27.6073 108.312C28.6325 110.877 29.6902 113.428 30.7166 115.981C29.5815 116.938 28.424 117.868 27.2365 118.758C26.2837 119.474 25.2673 120.116 24.2846 120.796C23.7564 120.949 23.2993 121.289 22.8248 121.593C22.1106 122.05 21.3926 122.501 20.6733 122.951C19.2373 123.85 17.8138 124.767 16.3678 125.652C14.8931 126.556 13.406 127.44 11.9075 128.303C11.227 128.695 10.5427 129.084 9.85717 129.468C9.53001 129.652 8.12399 130.702 7.79184 130.563C7.38726 130.395 7.02139 129.085 6.8216 128.64C6.4857 127.889 6.16229 127.132 5.84762 126.373C5.34065 125.15 4.8649 123.917 4.41162 122.674C7.878 120.997 11.1583 118.876 14.4074 116.795C14.4561 116.895 14.511 116.993 14.5685 117.088C14.6784 117.265 14.8295 117.413 14.9843 117.552L15.1429 117.671C15.274 117.753 15.4113 117.841 15.5599 117.888C15.7135 117.938 15.8634 117.963 16.012 117.972L16.1568 118.009C16.2854 118.03 16.4091 118.018 16.5289 117.973C16.6725 117.932 16.7912 117.855 16.8986 117.759C17.0397 117.671 17.1683 117.565 17.2819 117.441L17.373 117.319C17.443 117.205 17.5179 117.086 17.5654 116.96C17.6328 116.779 17.6815 116.584 17.7027 116.391C17.7364 116.075 17.7227 115.738 17.6403 115.429C17.5878 115.234 17.5192 115.048 17.4355 114.872C18.8003 114.012 20.1639 113.152 21.5112 112.263C22.5139 111.601 23.5091 110.93 24.5018 110.255C25.1662 109.803 26.0327 109.368 26.6796 108.802L26.6821 108.801L26.6921 108.797L26.8719 108.753L26.963 108.72L27.1466 108.658C27.2502 108.624 27.3476 108.579 27.4338 108.509L27.5674 108.353ZM16.6176 104.011C16.6651 103.443 16.6239 102.877 16.5165 102.329C17.6603 101.886 18.7241 101.238 19.7793 100.614C20.4199 100.234 21.0704 99.8693 21.7272 99.5197C22.4228 99.1501 23.147 98.7093 23.895 98.457L23.9999 98.3871C24.9339 101.388 26.0327 104.342 27.1903 107.274C26.9967 107.071 26.6846 106.964 26.3537 107.061C25.3722 107.344 24.4843 108.289 23.6652 108.89C22.7474 109.564 21.8221 110.228 20.8944 110.889C19.4334 111.929 17.9662 112.963 16.4865 113.977C16.3891 113.943 16.2904 113.91 16.1943 113.9C15.8421 113.862 15.5325 113.956 15.2378 114.134C15.1354 114.143 15.0342 114.164 14.9368 114.206C14.7783 114.274 14.6459 114.378 14.541 114.515C14.4699 114.635 14.3924 114.755 14.3375 114.884C14.28 115.018 14.2476 115.171 14.2138 115.309L14.1876 115.51C10.8549 117.666 7.39474 119.636 4.11816 121.87L4.0807 121.769C3.13544 119.072 2.46864 116.28 1.56209 113.574C1.66823 113.541 1.77436 113.488 1.878 113.403C3.41514 112.138 4.9735 110.9 6.55934 109.697C7.33978 109.103 8.12523 108.519 8.91566 107.942C9.33272 107.637 9.80223 107.333 10.2343 106.994C10.8237 107.992 11.8251 108.654 13.1512 108.404C15.1829 108.02 16.4565 105.955 16.6176 104.011ZM14.3937 104.107C14.2426 105.014 12.6692 107.4 11.9575 105.656C11.2757 103.983 12.0724 101.802 12.7317 100.228C12.8003 100.348 12.8965 100.462 13.0301 100.564C14.1152 101.388 14.6172 102.765 14.3937 104.107ZM34.6425 138.566C32.923 138.829 31.2161 139.203 29.4866 139.375C28.0319 139.52 25.9228 139.4 25.075 137.948C24.5268 137.01 25.572 136.938 26.285 136.843C27.2065 136.722 28.1368 136.693 29.0646 136.756C30.9089 136.881 32.672 137.346 34.3553 138.106C34.4727 138.159 34.5851 138.182 34.6925 138.188C34.6762 138.315 34.6587 138.44 34.6425 138.566ZM56.9179 137.002C58.7922 136.377 60.634 135.889 62.5858 135.572C63.295 135.457 67.7953 134.489 66.9524 136.472C66.3031 138.001 63.3787 138.117 62.0114 138.23C60.2982 138.373 58.5687 138.242 56.8805 137.921C56.8605 137.621 56.8405 137.321 56.8243 137.023L56.9179 137.002ZM66.4155 99.9729C66.0172 103.228 64.043 105.709 61.1011 107.089C57.9693 108.559 54.3631 108.95 50.9529 109.211C46.8172 109.527 42.6216 109.406 38.5172 108.785C35.6452 108.352 32.1738 107.47 30.7141 104.676C29.0159 101.424 30.5168 97.3907 31.4883 94.1515C32.8481 89.6163 34.1967 85.0785 35.544 80.5408C36.8627 76.0979 38.3174 71.6601 39.3151 67.1323C41.3268 67.628 43.4033 67.9951 45.5298 68.2286C44.712 69.9768 44.3636 72.0284 43.8142 73.8715C43.2235 75.8519 42.4631 77.7986 41.9236 79.7903C41.4579 81.5085 42.7502 82.6648 43.7355 83.9235C45.0578 85.6142 46.4127 87.2812 47.765 88.947C47.7675 88.9495 47.7712 88.9507 47.7737 88.9532C47.8212 89.1505 47.8861 89.3503 47.9848 89.5538C48.5529 90.7301 49.884 91.1709 51.1053 91.2333C52.7298 91.3158 54.3943 91.1484 55.9976 90.9062C58.8384 90.4754 61.6118 89.685 64.3364 88.7772C64.52 89.2891 64.7085 89.7998 64.8846 90.3155C65.9285 93.3711 66.8139 96.7176 66.4155 99.9729ZM50.351 87.4885C52.2715 85.5056 55.9352 86.0001 56.7743 88.7397L56.7893 88.7772L56.5808 88.8184C54.99 89.0768 53.3542 89.2604 51.7396 89.2192C50.5858 89.188 49.0786 88.8021 50.351 87.4885ZM49.7454 83.9897C49.1898 84.8363 48.7115 85.7203 48.2982 86.6356C48.217 86.748 48.1446 86.8629 48.0772 86.9815C47.5552 86.3197 47.0308 85.6604 46.5076 84.9999C47.3692 84.4354 48.2308 83.8723 49.0774 83.2867C49.5494 82.9607 50.0227 82.6336 50.4947 82.3077C50.7819 82.1091 51.0815 81.9143 51.3725 81.7096C51.2551 82.1453 50.7569 82.5949 50.4997 82.9283C50.2349 83.2742 49.9839 83.6275 49.7454 83.9897ZM49.9665 81.5397L48.5604 82.5337C47.7038 83.1393 46.8634 83.7649 46.0231 84.3905C45.812 84.1245 45.6023 83.8561 45.39 83.5913C44.9492 83.0419 44.456 82.5087 44.0114 81.9505C44.5659 81.7857 45.1028 81.4948 45.6048 81.2475C46.2928 80.9079 46.9758 80.5583 47.6551 80.1999C48.3344 79.8403 49.0062 79.4694 49.6693 79.0836C49.9914 78.8962 50.4335 78.7014 50.7906 78.4417C50.8368 78.6652 50.883 78.8887 50.9292 79.1123C51.0216 79.5568 51.2052 80.0912 51.3163 80.6132C50.8443 80.8779 50.4073 81.2276 49.9665 81.5397ZM50.0938 77.5377C49.7617 77.73 49.4283 77.9198 49.0936 78.1071C48.4443 78.4704 47.7937 78.8313 47.1394 79.1847C46.4851 79.5381 45.8246 79.8815 45.1602 80.2161C44.6008 80.4983 43.9665 80.768 43.4533 81.1526C43.0437 80.3734 43.4408 79.6579 43.7118 78.8301C43.9415 78.1258 44.1625 77.419 44.381 76.711C45.4412 76.46 46.4164 76.0093 47.3879 75.5248C47.8612 75.2888 48.3332 75.0453 48.794 74.7843C49.1473 74.5845 49.5594 74.386 49.904 74.1337C50.1238 75.1976 50.3423 76.2602 50.5621 77.3241C50.3998 77.3728 50.2424 77.4515 50.0938 77.5377ZM48.739 68.4834C49.0462 69.9781 49.3558 71.4727 49.663 72.9674L49.5694 72.9849C49.3171 73.0598 49.0836 73.2509 48.8564 73.3845C48.6503 73.5056 48.4418 73.6243 48.2345 73.7429C47.775 74.0076 47.3117 74.2673 46.8422 74.5146C46.1355 74.8867 45.4162 75.2251 44.7182 75.6072C44.9292 74.9067 45.1378 74.2062 45.3376 73.5019C45.8083 71.8436 46.4589 70.0617 46.5238 68.3323C47.258 68.3997 47.996 68.4509 48.739 68.4834ZM73.9876 83.158C71.6351 84.5378 68.9029 85.3095 66.3356 86.1724C65.6438 84.3368 64.8883 82.5287 64.1304 80.7555C62.5458 77.0482 60.7739 73.4257 58.8497 69.8832C63.8344 74.3747 68.9329 78.7477 73.9876 83.158ZM55.1623 68.8468C58.4526 74.6719 61.3433 80.7668 63.7021 87.039C62.0638 87.5572 60.4105 88.0229 58.7348 88.3938C58.756 88.2427 58.7485 88.0816 58.6961 87.9106C57.8994 85.2771 55.1098 83.8448 52.4713 84.2344C51.9344 84.3143 51.3263 84.5016 50.7282 84.7726C50.8967 84.4829 51.0641 84.1919 51.2539 83.9122C51.6859 83.2754 52.3153 82.6635 52.5275 81.9043C52.7298 81.1813 52.4514 80.3784 52.3178 79.6667C51.6222 75.9493 50.918 72.2345 50.2124 68.5184C50.4597 68.5221 50.7044 68.5333 50.9529 68.5333C52.3315 68.5333 53.6926 68.4746 55.0362 68.3648C55.0412 68.5321 55.0773 68.6969 55.1623 68.8468ZM77.9922 56.3136C71.1156 62.0139 61.5493 65.5789 50.9529 65.5777C40.3565 65.5789 30.7903 62.0139 23.9137 56.3136C17.0334 50.6058 12.8603 42.8252 12.8578 34.2667C12.859 25.7081 17.0334 17.9287 23.9137 12.2197C30.7903 6.51943 40.3565 2.95442 50.9529 2.95566C61.5493 2.95442 71.1156 6.51943 77.9922 12.2197C84.8725 17.9287 89.0456 25.7081 89.0481 34.2667C89.0456 42.8265 84.8725 50.6058 77.9922 56.3136Z" fill="#EFF0F3"/>
<path d="M19.6906 23.2244C19.0612 23.107 18.4306 23.4192 18.0585 23.9212L17.9761 24.0585C17.82 24.2221 17.6851 24.4107 17.5877 24.6204C17.3617 25.1049 17.2806 25.7031 17.2631 26.2363C17.2469 26.6958 17.2868 27.1553 17.3593 27.6073C17.3555 27.9233 17.358 28.2392 17.3767 28.5526C17.4055 29.0308 17.5453 29.5303 17.8375 29.9174C18.2358 30.4444 18.9463 30.7453 19.6006 30.5905C20.2849 30.4294 20.8194 29.9798 21.1016 29.3355C21.2827 28.9234 21.3201 28.4802 21.3389 28.0369C21.3951 27.7772 21.4288 27.5112 21.4512 27.2614C21.5349 26.3349 21.4937 25.2061 21.0679 24.3557C20.7857 23.7913 20.3312 23.3443 19.6906 23.2244Z" fill="#EFF0F3"/>
<path d="M48.6354 23.2244C48.0061 23.107 47.3755 23.4192 47.0033 23.9212L46.921 24.0585C46.7649 24.2221 46.63 24.4107 46.5326 24.6204C46.3066 25.1049 46.2254 25.7031 46.2079 26.2363C46.1917 26.6958 46.2317 27.1553 46.3041 27.6073C46.3003 27.9233 46.3028 28.2392 46.3216 28.5526C46.3503 29.0308 46.4914 29.5303 46.7836 29.9174C47.1819 30.4444 47.8924 30.7453 48.5455 30.5905C49.2298 30.4294 49.7642 29.9798 50.0464 29.3355C50.2275 28.9234 50.265 28.4802 50.2849 28.0369C50.3411 27.7772 50.3748 27.5112 50.3973 27.2614C50.481 26.3349 50.4398 25.2061 50.014 24.3557C49.7305 23.7913 49.276 23.3443 48.6354 23.2244Z" fill="#EFF0F3"/>
<path d="M37.8005 34.1131C37.1924 34.8049 36.7241 35.4517 35.885 35.8987C35.0546 36.3408 34.1256 36.593 33.1829 36.6142C32.1589 36.6367 31.145 36.4219 30.1623 36.161C29.6303 36.0199 29.1146 35.8213 28.6201 35.5803C28.0994 35.3268 27.6374 35.0634 27.0455 35.0584C26.8207 35.0571 26.5723 35.2232 26.6297 35.4854C26.8994 36.7304 28.3804 37.5171 29.4118 38.0939C30.6593 38.7932 32.1177 39.0642 33.5375 39.0142C34.7312 38.9718 35.9587 38.6421 37.0076 38.069C38.1414 37.4496 39.3501 36.5243 39.8721 35.3044C40.4303 33.9957 38.6746 33.1204 37.8005 34.1131Z" fill="#EFF0F3"/>
</svg>
