<svg width="95" height="142" viewBox="0 0 95 142" fill="none" xmlns="http://www.w3.org/2000/svg">
<path d="M62.6489 43.178C62.6704 43.6573 62.7109 44.1379 62.9069 44.5843C63.213 45.2837 63.7922 45.7693 64.532 45.9438C65.2402 46.1108 66.0091 45.7858 66.4404 45.2141C66.7565 44.7955 66.9096 44.2555 66.9399 43.737C66.9601 43.3981 66.9627 43.0553 66.9589 42.7126C67.0373 42.2219 67.0803 41.7249 67.0626 41.2267C67.0423 40.65 66.9563 40.0025 66.711 39.4776C66.6048 39.25 66.4593 39.0464 66.2899 38.8693L66.2001 38.7214C65.7979 38.1776 65.115 37.8399 64.4333 37.9664C63.7403 38.0954 63.2471 38.5797 62.941 39.1918C62.4807 40.1125 62.4352 41.3354 62.5262 42.3383C62.5515 42.6089 62.5882 42.8973 62.6489 43.178Z" fill="#EFF0F3"/>
<path d="M34.9437 38.8693L34.8539 38.7214C34.4517 38.1776 33.7688 37.8399 33.0871 37.9664C32.3941 38.0954 31.9009 38.5797 31.5949 39.1918C31.1345 40.1125 31.089 41.3354 31.18 42.3383C31.2041 42.6089 31.2407 42.8973 31.3014 43.178C31.3229 43.6573 31.3634 44.1379 31.5594 44.5843C31.8655 45.2837 32.4434 45.7693 33.1845 45.9438C33.8927 46.1108 34.6616 45.7858 35.0929 45.2141C35.4091 44.7955 35.5621 44.2555 35.5924 43.737C35.6127 43.3981 35.6152 43.0553 35.6101 42.7126C35.6885 42.2219 35.7315 41.7249 35.7138 41.2267C35.6949 40.65 35.6076 40.0025 35.3623 39.4776C35.2573 39.25 35.1131 39.0464 34.9437 38.8693Z" fill="#EFF0F3"/>
<path d="M49.4381 55.0634C50.9759 55.119 52.5542 54.8243 53.9061 54.0668C55.0228 53.4408 56.6277 52.5897 56.9198 51.2415C56.9818 50.9583 56.7124 50.7774 56.4696 50.7799C55.8284 50.785 55.3289 51.0708 54.7648 51.3452C54.2299 51.6058 53.6709 51.8207 53.0942 51.9738C52.0294 52.2558 50.9304 52.4898 49.8225 52.4645C48.8019 52.4417 47.7953 52.1685 46.8961 51.6892C45.9881 51.2049 45.4809 50.5055 44.8208 49.7556C43.8748 48.6806 41.9728 49.6291 42.5773 51.043C43.1426 52.3658 44.4515 53.3674 45.6795 54.0377C46.8164 54.6599 48.1456 55.0166 49.4381 55.0634Z" fill="#EFF0F3"/>
<path d="M93.4635 49.3117C92.6251 49.8605 92.2078 50.8027 91.7866 51.6842C91.2782 52.7478 90.7711 53.8114 90.2627 54.8749C89.3142 56.8605 88.3708 58.8472 87.4374 60.8391C85.5164 64.9353 83.5094 68.9924 81.8691 73.2113C81.5454 73.6223 81.252 74.0459 80.9965 74.4519C79.8482 76.2856 79.1779 78.3294 79.0085 80.4856C78.9832 80.8068 79.1084 81.0496 79.2956 81.2204L79.0894 81.3746C77.4833 82.5103 75.838 83.5878 74.1231 84.5515C73.3554 84.9827 72.5764 85.3975 71.7885 85.7909C70.8995 86.236 69.7486 86.9581 68.7129 86.8165C66.9423 86.5749 66.0975 84.4731 65.4639 83.0693C65.0909 82.2435 64.6862 81.4594 64.1904 80.7398C67.1877 81.8287 70.1887 82.8973 73.2796 83.7029C73.5224 83.7661 73.6665 83.584 73.6855 83.3842C73.8499 83.2211 73.9207 82.9631 73.7361 82.7683C71.3016 80.2036 68.36 78.1751 65.1503 76.7245C65.1933 76.6246 65.2237 76.5196 65.2414 76.4083C65.2426 76.2958 65.2439 76.1832 65.2452 76.0707C65.23 75.8974 65.1743 75.7418 65.0782 75.6027C65.0087 75.4535 64.9062 75.3308 64.7709 75.2322C64.6432 75.1247 64.4977 75.0539 64.3371 75.0235C64.1791 74.9641 64.0134 74.9476 63.8426 74.9755C63.6175 75.0033 63.4139 75.0868 63.2331 75.2233L63.0042 75.4497C62.922 75.5559 62.8651 75.6723 62.8208 75.795C62.3807 75.6394 61.9355 75.4965 61.4878 75.3624C61.5561 75.1803 61.5625 74.9729 61.4866 74.7744C61.3374 74.3823 61.0768 74.0093 60.8593 73.6526C60.6532 73.315 60.4306 72.9912 60.1941 72.675C60.0221 72.4449 59.8387 72.2236 59.6553 72.001C65.7599 70.1495 71.2472 67.2117 75.7849 63.4544C83.8458 56.7846 88.9196 47.4539 88.9171 37.1115C88.9183 26.7691 83.8445 17.4384 75.7849 10.7686C67.7201 4.08865 56.6518 0.00126466 44.4592 0C32.2653 0.00126466 21.197 4.08991 13.1323 10.7686C5.07256 17.4384 -0.00252838 26.7691 9.44985e-07 37.1115C-0.00126372 47.4539 5.07256 56.7846 13.1323 63.4544C18.3566 67.7808 24.8455 71.0108 32.0794 72.756C31.6646 73.1999 31.2662 73.6615 30.9222 74.1623C30.1495 75.2891 29.5033 76.5082 29.0126 77.783C29.0088 77.7931 29.0101 77.8045 29.0075 77.8146C28.8899 77.8551 28.7698 77.8892 28.6522 77.9297C28.6079 77.807 28.551 77.6907 28.4688 77.5845L28.2399 77.3581C28.0591 77.2215 27.8554 77.138 27.6303 77.1102C27.4596 77.0824 27.2939 77.0988 27.1358 77.1583C26.9752 77.1899 26.8298 77.2594 26.7021 77.3669C26.5667 77.4656 26.4643 77.5883 26.3948 77.7375C26.2986 77.8766 26.243 78.0334 26.2278 78.2054C26.2291 78.318 26.2304 78.4305 26.2316 78.5431C26.2481 78.6544 26.2797 78.7593 26.3227 78.8592C23.113 80.3098 20.1713 82.3383 17.7369 84.9031C17.5522 85.0978 17.6218 85.3558 17.7875 85.519C17.8064 85.72 17.9519 85.9009 18.1934 85.8376C21.1679 85.0624 24.0577 84.0431 26.9424 82.9972C26.3416 83.7977 25.6992 84.5502 24.8544 85.1825C23.5202 86.1816 21.8508 86.9695 20.1789 87.1301C16.3559 87.4994 13.179 85.7516 10.441 83.2312C9.93265 82.7632 9.39391 82.2612 8.85263 81.7326L8.8893 81.6428C9.49254 78.538 8.77928 74.6138 6.53577 72.1818C5.84653 69.6007 5.15855 67.0195 4.38963 64.4598C3.93562 62.9485 3.48161 61.436 3.0276 59.9247C2.60647 58.5222 2.29157 56.7542 1.28363 55.6426C1.07243 55.4099 0.677861 55.4946 0.629804 55.8234C0.422399 57.2613 1.10151 58.8371 1.52265 60.1928C1.99057 61.6978 2.45976 63.204 2.92895 64.7089C3.58531 66.8171 4.29479 68.9076 5.01185 70.9956C3.93057 70.5542 2.71648 70.8527 2.12715 72.0313C1.32283 73.6374 1.9754 75.5888 2.67349 77.1102C4.30744 80.669 7.4223 83.8572 10.5283 86.1842C13.5799 88.4694 17.1109 89.6987 20.8732 88.7135C23.9894 87.8978 27.4773 85.892 28.7458 82.7481C28.6066 86.9341 28.6522 91.1442 28.8482 95.3378C28.7647 95.267 28.6813 95.1911 28.594 95.1304C28.1046 94.8054 27.5254 94.5853 26.8197 94.3792C24.7203 93.7822 21.4676 93.4269 17.7622 93.4231C14.7548 93.4244 12.0345 93.6646 10.0022 94.0693C8.98289 94.2755 8.14062 94.5145 7.46655 94.8294C7.12889 94.9913 6.82791 95.1683 6.55474 95.4314C6.41942 95.5642 6.28916 95.7223 6.18672 95.9233C6.08429 96.1219 6.01474 96.3697 6.016 96.6252C6.01474 96.8807 6.08429 97.1285 6.18672 97.3271C6.38401 97.704 6.65339 97.9316 6.92909 98.1213C6.9822 98.1567 7.04796 98.1795 7.10234 98.2111C6.96828 99.4049 7.06945 100.668 7.05301 101.838C7.03151 103.43 7.0391 105.023 7.0391 106.615C7.0391 109.864 7.06187 113.114 7.03404 116.363C7.03025 116.735 7.18453 117.196 7.59175 117.318C10.7686 118.269 14.0769 118.59 17.3575 118.329C17.2184 120.645 17.274 122.971 17.2297 125.296C17.2259 125.487 17.2196 125.68 17.2158 125.871L17.0641 125.9C16.71 126.042 16.4545 126.376 16.1915 126.642C15.138 127.703 14.1149 128.794 13.0829 129.877C12.5353 130.451 11.9599 131.009 11.4427 131.61C11.0633 132.051 10.694 132.501 10.3234 132.949L10.2185 132.95C9.91116 132.972 9.60509 132.994 9.29778 133.016L9.07521 133.032C8.93609 133.05 8.79318 133.112 8.65787 133.155C8.52508 133.197 8.41758 133.238 8.30123 133.331C8.19247 133.418 8.16718 133.451 8.11533 133.539C8.03059 133.652 7.97875 133.778 7.96104 133.919C7.9446 134.059 7.96358 134.195 8.01923 134.325L8.15201 134.549C8.23927 134.661 8.39483 134.786 8.52888 134.836L8.72743 134.898C8.87034 134.942 9.01324 134.994 9.16247 135.004L9.3686 135.019C9.65947 135.041 9.95162 135.061 10.2425 135.082C10.5384 135.104 10.7977 135.033 11.0367 134.862C11.1859 134.746 11.2959 134.599 11.3693 134.425C11.4313 134.288 11.4553 134.146 11.4401 134.001C11.4515 133.858 11.4249 133.72 11.3617 133.589L11.2315 133.407C12.0649 132.72 12.8882 132.024 13.6849 131.287C14.7649 130.287 15.8639 129.304 16.9224 128.282L17.1602 128.067C17.1475 128.566 17.1349 129.063 17.1248 129.561C17.1083 130.273 17.1083 130.986 17.0957 131.699C17.083 132.438 17.0059 133.144 17.2462 133.851C17.5181 134.646 18.7043 134.554 18.999 133.837C19.2836 133.145 19.2216 132.372 19.2444 131.634C19.2633 130.976 19.2861 130.32 19.2886 129.662C19.2911 129.099 19.2734 128.536 19.2671 127.974C19.5403 128.282 19.8147 128.59 20.1069 128.888C20.872 129.671 21.6409 130.449 22.4199 131.217C23.1711 131.959 23.9261 132.696 24.6849 133.429C25.1819 133.911 25.6789 134.413 26.1861 134.9L26.1633 134.918C26.0659 135.044 26.0229 135.199 26.0242 135.357C26.028 135.635 26.1949 135.895 26.4567 136.003C26.6704 136.091 26.8703 136.175 27.1042 136.204C27.3382 136.234 27.5696 136.229 27.8048 136.222C27.9794 136.217 28.1552 136.212 28.3297 136.207C28.4954 136.202 28.6193 136.203 28.785 136.131C29.1568 135.97 29.3971 135.611 29.392 135.209C29.392 135.192 29.3857 135.177 29.3844 135.161C33.9916 139.397 40.2415 142 47.1188 142C54.1781 142 60.5823 139.262 65.2211 134.824C69.8612 130.389 72.7446 124.235 72.7433 117.443C72.7433 115.097 72.393 112.831 71.7506 110.681C71.9188 110.735 72.0958 110.768 72.2805 110.753L75.6103 110.481C75.3738 111.718 75.4345 112.995 75.4308 114.26C75.4257 115.882 75.4206 117.506 75.4156 119.129L75.4017 123.818C75.4004 124.204 75.3953 124.589 75.3928 124.975C75.2246 125.013 75.0615 125.099 74.9312 125.282C73.9283 126.704 72.8622 128.084 71.7379 129.412C71.184 130.067 70.6073 130.702 70.0306 131.336C69.4413 131.984 68.8962 132.673 68.3107 133.323L68.2462 133.434L68.1463 133.46C68.0464 133.5 67.9503 133.558 67.8554 133.609C67.5051 133.795 67.5178 134.241 67.8617 134.423C67.9579 134.474 68.054 134.535 68.1551 134.574C68.2791 134.622 68.4296 134.642 68.5586 134.674C68.7849 134.727 68.9987 134.766 69.2301 134.784C69.4476 134.8 69.6664 134.817 69.8839 134.833C69.9927 134.842 70.1027 134.851 70.2115 134.856C70.4619 134.867 70.6478 134.829 70.8767 134.729C71.1638 134.603 71.3434 134.316 71.3396 134.006C71.3358 133.696 71.1511 133.422 70.8653 133.297L70.6276 133.212C70.5201 133.184 70.4189 133.188 70.3152 133.188C70.6048 132.936 70.8919 132.682 71.16 132.413C71.7885 131.78 72.3905 131.119 72.9811 130.45C73.8626 129.452 74.6884 128.41 75.4877 127.348C75.5547 127.712 75.6483 128.075 75.7456 128.497C75.8683 129.025 76.5525 129.002 76.6714 128.486C76.7308 128.227 76.7865 127.991 76.8383 127.764C76.9091 127.862 76.9711 127.967 77.0457 128.062C77.5326 128.681 78.0208 129.298 78.5077 129.916C79.4675 131.134 80.4477 132.335 81.4252 133.538L81.5757 133.662L81.5745 133.792L81.7098 134.02C81.7996 134.109 81.8894 134.141 82.012 134.17L82.1638 134.208L82.0108 134.168C82.3434 134.287 82.7228 134.316 83.0718 134.272C83.2008 134.255 83.3298 134.239 83.4588 134.222C83.5549 134.21 83.6422 134.197 83.737 134.169C83.885 134.127 84.0089 134.039 84.1392 133.961L84.2733 133.825L84.3706 133.657C84.4351 133.5 84.4377 133.329 84.3921 133.169C84.3555 133.04 84.2948 132.937 84.1999 132.844C84.076 132.721 83.9419 132.664 83.7699 132.629C83.6333 132.601 83.5132 132.578 83.3677 132.605L83.1768 132.647L82.9833 132.69L82.8455 132.427C81.8679 131.223 80.8916 130.019 79.8975 128.829C79.4081 128.243 78.9174 127.657 78.428 127.071C78.0005 126.56 77.506 126.098 77.0255 125.631C77.0179 125.033 77.0141 124.434 77.0128 123.834C77.0078 122.211 77.0027 120.585 76.9977 118.962C76.9926 117.397 76.9888 115.834 76.9838 114.27C76.98 112.971 77.0419 111.654 76.7827 110.385L78.5241 110.243C79.5257 110.161 80.5273 110.076 81.5302 109.991C82.3674 109.921 83.3071 109.91 84.0039 109.369C84.6742 108.848 84.9271 108.035 84.9423 107.214C84.9587 106.234 84.8866 105.248 84.8525 104.269C84.8183 103.255 84.7829 102.239 84.7488 101.225C84.7235 100.487 84.7817 99.5453 84.5983 98.7549C84.6906 98.6487 84.7791 98.5336 84.8512 98.3919C84.9536 98.1934 85.0232 97.9455 85.0219 97.69C85.0232 97.4346 84.9536 97.1867 84.8512 96.9882C84.6539 96.6113 84.3846 96.3837 84.1089 96.194C83.6194 95.8689 83.0402 95.6489 82.3345 95.4428C80.2352 94.8458 76.9825 94.4905 73.277 94.4867C70.2684 94.4879 67.5494 94.7282 65.5171 95.1329C64.4977 95.3391 63.6555 95.5781 62.9814 95.893C62.7904 95.984 62.6134 96.0865 62.4439 96.2015C62.7411 91.5147 62.8587 86.7963 62.7513 82.0993C63.9906 84.616 64.5496 87.641 67.4545 88.797C69.3642 89.557 71.1878 88.6262 72.8635 87.7422C74.6353 86.8076 76.3615 85.7795 78.0258 84.664C81.3494 82.4382 84.5452 79.7926 87.2288 76.8181C88.2645 75.671 89.3155 73.9486 88.63 72.3665C88.047 71.0221 86.4662 70.5137 85.113 70.8236C84.8942 70.8742 84.6817 70.945 84.4743 71.0323C86.1146 67.9123 87.6044 64.714 89.1397 61.5384C90.097 59.558 91.0468 57.5725 91.9902 55.5857C92.4619 54.5916 92.9337 53.5989 93.4066 52.6049C93.8594 51.6526 94.3577 50.6978 94.2451 49.6228C94.2122 49.232 93.7544 49.1207 93.4635 49.3117ZM7.44758 80.2833C5.75294 78.4116 4.28719 76.2578 3.98621 73.9056C3.95459 73.6552 3.87112 73.2049 4.01023 72.9634C4.3441 72.3867 4.77915 72.9912 5.12314 73.363C5.77697 74.07 6.30939 74.8971 6.70144 75.7747C7.35021 77.2304 7.57531 78.7416 7.44758 80.2833ZM15.1747 60.9883C7.72328 54.8066 3.20339 46.3815 3.20212 37.1115C3.20339 27.8428 7.72455 19.4176 15.1747 13.2347C22.621 7.06187 32.9824 3.20086 44.4579 3.20212C55.9334 3.20086 66.2936 7.06187 73.7399 13.2347C81.1913 19.4163 85.7112 27.8415 85.7124 37.1115C85.7099 46.3802 81.19 54.8054 73.7399 60.9883C66.2936 67.1611 55.9334 71.0221 44.4579 71.0209C32.9824 71.0221 22.6223 67.1611 15.1747 60.9883ZM32.3564 75.2562C32.8445 74.5392 33.3732 73.855 33.8904 73.1619C37.2797 73.8512 40.8169 74.223 44.4579 74.2243C49.2409 74.223 53.8455 73.5856 58.1681 72.4183C58.2136 72.4942 58.2541 72.5764 58.306 72.6485C58.5285 72.9621 58.7536 73.272 58.9636 73.5945C59.1672 73.9081 59.3569 74.2293 59.5542 74.5455L59.5592 74.5531L59.5706 74.5746L59.6389 74.6922L59.759 74.9059C56.992 74.2546 54.1338 73.9941 51.301 74.1699C50.7686 74.2028 50.6282 74.7238 50.7977 75.107C50.6788 75.3182 50.6889 75.5888 50.9406 75.7785C51.6753 76.3312 52.6036 76.55 53.461 76.8598C54.4146 77.2038 55.3669 77.5491 56.3204 77.893C58.0315 78.5115 59.7426 79.1299 61.455 79.7483C61.4297 79.938 61.4765 80.1391 61.6295 80.3199C61.6548 80.3503 61.6763 80.3832 61.7016 80.4135C61.4246 85.8237 61.116 91.2251 60.7012 96.6265C56.7605 94.2628 52.1066 92.8919 47.1226 92.8919C40.9042 92.8919 35.1968 95.0178 30.754 98.5563C30.3329 93.0348 30.018 87.5146 29.7372 81.9842C31.5407 81.3317 33.3453 80.6804 35.1487 80.0278C36.1023 79.6838 37.0546 79.3386 38.0081 78.9946C38.8656 78.6847 39.7951 78.4647 40.5286 77.9133C40.7803 77.7236 40.7917 77.4542 40.6728 77.2417C40.8422 76.8586 40.7031 76.3375 40.1694 76.3046C37.1912 76.1187 34.1838 76.4147 31.2852 77.1431C31.6026 76.4893 31.9466 75.8595 32.3564 75.2562ZM19.8501 84.2998C22.7323 81.9058 26.0078 80.1087 29.5033 78.9693L29.5071 78.9718C29.9042 79.1349 30.381 78.9693 30.6073 78.6088C32.9394 77.955 35.3612 77.6009 37.8298 77.5845C37.7071 77.6325 37.5845 77.6831 37.4618 77.7274C36.5095 78.0739 35.5572 78.4204 34.6049 78.7669L29.0948 80.7714C25.9926 81.8982 22.879 82.9922 19.8501 84.2998ZM8.94115 96.543C9.76065 96.2686 11.0278 96.0144 12.548 95.8399C14.0706 95.6641 15.8551 95.5616 17.7609 95.5616C20.6494 95.5604 23.2685 95.7981 25.101 96.1661C25.8092 96.3065 26.3973 96.4709 26.8172 96.629C26.74 96.6581 26.6679 96.6884 26.5794 96.715C25.7599 96.9894 24.4927 97.2436 22.9726 97.4182C21.4499 97.5939 19.6655 97.6964 17.7596 97.6964C14.8712 97.6976 12.252 97.4599 10.4195 97.0919C9.71134 96.9515 9.12328 96.7871 8.70341 96.629C8.78055 96.5999 8.85389 96.5708 8.94115 96.543ZM17.6458 116.322C14.7068 116.607 11.7525 116.399 8.83872 115.748C8.80078 112.65 8.80077 109.55 8.78307 106.45C8.77421 104.907 8.7717 103.363 8.74135 101.82C8.72364 100.873 8.76916 99.864 8.71605 98.8788C10.8167 99.4745 14.0618 99.8286 17.7609 99.8324C20.7683 99.8311 23.4886 99.5908 25.5196 99.1861C26.5389 98.98 27.3812 98.741 28.0552 98.4261C28.078 98.4147 28.0982 98.4008 28.121 98.3907C28.1185 98.4666 28.116 98.5424 28.1134 98.617C28.097 99.0015 28.0805 99.3847 28.0641 99.7692C28.0464 100.173 27.9832 100.632 28.0692 101.034C24.3662 104.977 21.976 110.091 21.5688 115.727C21.4588 115.711 21.3437 115.706 21.2109 115.738C20.2561 115.967 19.2987 116.134 18.3388 116.251C18.1163 116.124 17.8254 116.144 17.6458 116.322ZM28.2272 134.272C27.5216 133.541 26.716 132.888 25.9686 132.201C25.1718 131.468 24.3789 130.732 23.5897 129.991C22.8233 129.271 22.0532 128.554 21.2868 127.833C20.6266 127.212 19.9462 126.636 19.2469 126.067C19.2418 125.803 19.2431 125.54 19.2368 125.279C19.1799 122.904 19.1444 120.526 18.8409 118.178C19.7312 118.059 20.619 117.909 21.498 117.702C21.5005 117.702 21.5005 117.701 21.503 117.7C21.5688 124.111 24.2056 129.936 28.4561 134.267C28.3815 134.264 28.3044 134.265 28.2272 134.272ZM82.9441 99.7477C82.9403 100.108 82.9479 100.466 82.9479 100.785C82.9466 101.722 82.9454 102.659 82.9428 103.596C82.9416 104.494 82.9403 105.392 82.939 106.29C82.9378 106.703 83.087 107.565 82.6368 107.766C82.3712 107.884 81.9716 107.847 81.6895 107.863C81.2254 107.891 80.7613 107.916 80.2972 107.944C79.3689 107.998 78.4406 108.053 77.5136 108.11C75.6584 108.222 73.8019 108.335 71.9466 108.447C71.6191 108.468 71.3459 108.667 71.1676 108.937C69.8941 105.635 67.9009 102.67 65.3779 100.217C67.4318 100.646 70.195 100.896 73.2846 100.898C76.292 100.897 79.0123 100.657 81.0433 100.252C81.7654 100.108 82.3965 99.9437 82.9441 99.7477ZM64.4636 97.6104C65.2831 97.336 66.5503 97.0818 68.0704 96.9072C69.5931 96.7315 71.3788 96.629 73.2833 96.629C76.1718 96.6277 78.7909 96.8655 80.6234 97.2335C81.3316 97.3739 81.9197 97.5383 82.3396 97.6964C82.2624 97.7255 82.1904 97.7558 82.1018 97.7824C81.2823 98.0568 80.0164 98.311 78.495 98.4855C76.9724 98.6613 75.1879 98.7637 73.2821 98.7637C70.3923 98.765 67.7745 98.526 65.942 98.1592C65.2338 98.0189 64.6457 97.8545 64.2258 97.6964C64.303 97.6686 64.3763 97.6382 64.4636 97.6104ZM63.7503 101.612C67.9983 105.678 70.6124 111.269 70.6136 117.45C70.6124 123.631 67.9996 129.222 63.7503 133.289C59.5011 137.352 53.6267 139.873 47.1238 139.873C40.6197 139.873 34.7466 137.352 30.4973 133.289C26.2493 129.223 23.6353 123.632 23.634 117.45C23.6353 111.27 26.248 105.679 30.4973 101.612C34.7466 97.5484 40.6209 95.0279 47.1238 95.0279C53.6267 95.0279 59.5011 97.5471 63.7503 101.612ZM62.3756 78.6341L56.8655 76.6296C55.9132 76.2831 54.9609 75.9366 54.0086 75.5901C53.8872 75.5458 53.7633 75.4952 53.6406 75.4472C60.2523 75.494 66.5364 77.9411 71.6203 82.1625C68.5915 80.8574 65.4791 79.7635 62.3756 78.6341ZM87.0783 73.0456C87.7334 74.6871 84.5932 76.9294 83.5853 77.821C82.7228 78.5835 81.8287 79.3057 80.9181 80.0088C81.1204 78.3572 81.6086 76.7599 82.4875 75.3321C82.9934 74.5113 83.6346 73.6223 84.4035 73.0317C85.0649 72.5195 86.6103 71.8732 87.0783 73.0456Z" fill="#EFF0F3"/>
</svg>
