<svg width="78" height="142" viewBox="0 0 78 142" fill="none" xmlns="http://www.w3.org/2000/svg">
<path d="M54.402 38.4146C54.421 38.8422 54.456 39.2709 54.626 39.6698C54.892 40.2934 55.396 40.7272 56.04 40.883C56.656 41.0317 57.326 40.7415 57.701 40.2318C57.976 39.8575 58.109 39.3765 58.136 38.913C58.153 38.6105 58.156 38.3048 58.152 37.9992C58.22 37.5613 58.257 37.1183 58.242 36.6732C58.225 36.1584 58.15 35.58 57.936 35.1123C57.844 34.9093 57.717 34.7278 57.57 34.5688L57.492 34.4365C57.142 33.9514 56.547 33.6489 55.954 33.7627C55.351 33.8776 54.922 34.3104 54.656 34.856C54.256 35.6774 54.216 36.7686 54.295 37.6639C54.318 37.9069 54.35 38.1643 54.402 38.4146Z" fill="#EFF0F3"/>
<path d="M30.2931 34.5698L30.2151 34.4375C29.8651 33.9524 29.2701 33.6499 28.6771 33.7637C28.0741 33.8786 27.6451 34.3114 27.3791 34.8569C26.9791 35.6784 26.9391 36.7696 27.0181 37.6649C27.0391 37.9069 27.0711 38.1633 27.1241 38.4145C27.1431 38.8422 27.1781 39.2708 27.3481 39.6698C27.6141 40.2933 28.1181 40.7271 28.7621 40.883C29.3781 41.0317 30.0481 40.7415 30.4231 40.2318C30.6981 39.8575 30.8311 39.3765 30.8581 38.9129C30.8751 38.6104 30.8781 38.3048 30.8741 37.9992C30.9421 37.5613 30.9791 37.1182 30.9641 36.6732C30.9471 36.1583 30.8721 35.5799 30.6581 35.1123C30.5671 34.9103 30.4411 34.7277 30.2931 34.5698Z" fill="#EFF0F3"/>
<path d="M42.9059 49.0215C44.2439 49.0708 45.6179 48.8082 46.7939 48.1324C47.7659 47.5745 49.1619 46.8136 49.4159 45.6116C49.4699 45.3583 49.2349 45.1973 49.0239 45.1994C48.4659 45.2045 48.0319 45.4588 47.5399 45.7039C47.0739 45.9367 46.5879 46.1285 46.0859 46.2649C45.1599 46.5162 44.2039 46.7254 43.2389 46.7028C42.3509 46.6823 41.4749 46.4393 40.6929 46.0116C39.9029 45.5799 39.4609 44.9553 38.8879 44.2866C38.0649 43.3267 36.4099 44.1738 36.9359 45.4363C37.4279 46.6167 38.5669 47.5099 39.6349 48.1088C40.6249 48.6616 41.7819 48.9805 42.9059 49.0215Z" fill="#EFF0F3"/>
<path d="M67.387 96.1593C65.935 90.8963 63.942 85.7584 61.991 80.6727C60.839 77.671 59.669 74.6703 58.394 71.7208C57.166 68.8791 56.022 65.8886 54.431 63.2366C54.399 63.1843 54.359 63.1597 54.322 63.1268C58.597 61.4901 62.469 59.2134 65.759 56.4188C72.751 50.484 77.146 42.1916 77.145 33.0017C77.147 23.8109 72.751 15.5184 65.759 9.58363C58.763 3.64168 49.158 0.00205107 38.573 0C27.988 0.00102554 18.382 3.64065 11.386 9.58363C4.394 15.5184 -0.000999829 23.8109 1.70612e-07 33.0017C-0.000999829 42.1926 4.394 50.4851 11.386 56.4188C14.898 59.4021 19.068 61.8029 23.689 63.4571C22.48 65.543 21.592 67.9304 20.682 70.1282C19.612 72.7125 18.621 75.3317 17.71 77.9797C15.885 83.2899 14.33 88.6904 13.121 94.1831C12.503 96.989 11.974 99.8154 11.534 102.656C11.176 104.97 10.669 107.397 10.925 109.75C11.132 111.658 12.017 113.581 13.918 114.2C16.115 114.913 18.335 113.447 19.337 111.482C20.14 109.906 20.388 108.005 20.35 106.137C21.708 107.793 23.432 109.137 25.335 110.129C26.75 110.867 28.238 111.378 29.763 111.727C29.679 113.473 29.781 115.247 29.855 116.984C29.947 119.136 30.04 121.289 30.132 123.442C30.319 127.805 30.591 132.175 30.689 136.542C30.693 136.724 30.691 136.902 30.684 137.076C28.455 135.384 25.463 134.432 22.831 135.155C21.374 135.555 20.263 136.771 20.489 138.45C20.719 140.156 22.168 141.162 23.63 141.537C26.524 142.28 31.136 142.561 32.475 138.946C33.153 137.113 32.641 134.724 32.522 132.819C32.384 130.602 32.246 128.384 32.109 126.165C31.95 123.59 31.791 121.014 31.631 118.439C31.499 116.308 31.436 114.12 31.128 111.995C32.988 112.296 34.89 112.375 36.78 112.301C40.779 112.144 44.906 111.5 48.839 110.581C48.813 110.633 48.787 110.685 48.774 110.748C48.267 113.252 48.231 115.89 48.073 118.439C47.914 121.014 47.754 123.59 47.595 126.165C47.458 128.384 47.32 130.601 47.182 132.819C47.063 134.724 46.551 137.113 47.229 138.946C48.568 142.561 53.18 142.28 56.074 141.537C57.536 141.162 58.985 140.156 59.214 138.45C59.44 136.771 58.329 135.555 56.872 135.155C54.24 134.432 51.248 135.384 49.019 137.076C49.011 136.902 49.009 136.725 49.013 136.542C49.111 132.175 49.383 127.804 49.57 123.442C49.662 121.289 49.755 119.136 49.847 116.984C49.935 114.927 50.079 112.816 49.884 110.762C49.867 110.586 49.796 110.458 49.697 110.374C49.862 110.333 50.029 110.296 50.194 110.254C53.336 109.462 56.482 108.145 58.838 105.838C58.818 106.214 58.817 106.595 58.857 106.99C59.047 108.862 60.16 110.751 61.839 111.584C63.603 112.46 65.605 111.851 66.912 110.437C68.473 108.748 68.758 106.372 68.701 104.142C68.631 101.43 68.105 98.7632 67.387 96.1593ZM27.685 139.689C26.767 139.732 25.823 139.587 24.915 139.45C24.165 139.337 23.061 139.219 22.698 138.383C21.994 136.763 25.544 137.208 26.229 137.346C27.528 137.607 28.711 138.206 29.75 139.036C29.148 139.483 28.41 139.655 27.685 139.689ZM53.475 137.346C54.16 137.208 57.71 136.763 57.007 138.383C56.644 139.219 55.539 139.338 54.79 139.45C53.882 139.587 52.939 139.732 52.02 139.689C51.294 139.655 50.556 139.483 49.954 139.036C50.992 138.206 52.176 137.607 53.475 137.346ZM63.98 91.004C64.205 91.6572 64.428 92.3177 64.647 92.9812C64.38 93.0889 64.156 93.3083 64.099 93.6827C63.858 95.2599 63.155 96.6731 62.339 98.0432C62.488 96.3009 62.386 94.5134 62.183 92.7792C61.65 88.2125 60.793 83.6878 59.659 79.237C61.169 83.132 62.619 87.0516 63.98 91.004ZM2.558 33.0017C2.56 24.6908 6.51301 17.1388 13.018 11.6039C19.52 6.0763 28.561 2.6223 38.573 2.62435C48.585 2.62333 57.626 6.07733 64.128 11.6039C70.634 17.1388 74.587 24.6908 74.588 33.0017C74.587 41.3127 70.633 48.8647 64.128 54.3995C57.626 59.9272 48.585 63.3812 38.573 63.3802C28.561 63.3812 19.52 59.9272 13.018 54.3995C6.51201 48.8647 2.559 41.3127 2.558 33.0017ZM17.753 109.41C17.321 110.968 15.311 113.306 13.773 111.476C12.747 110.256 12.922 108.165 13.076 106.689C13.463 102.978 14.008 99.2759 14.705 95.6025C14.784 95.6568 14.861 95.7163 14.934 95.7778C14.96 95.9306 15.019 96.0855 15.118 96.2383C17.47 99.8697 18.951 105.086 17.753 109.41ZM17.591 90.0154C17.362 91.7495 17.183 93.5227 17.152 95.2917C17.058 95.1389 16.968 94.9841 16.871 94.8343C16.663 94.5133 16.39 94.377 16.114 94.3667L15.957 94.1616C15.778 93.9555 15.576 93.7001 15.309 93.6211L15.113 93.5822C16.187 88.3694 17.564 83.2201 19.269 78.2043C19.971 76.1399 20.734 74.098 21.533 72.0716C19.66 77.9069 18.391 83.9688 17.591 90.0154ZM59.945 100.409C58.739 103.974 55.522 106.168 52.181 107.347C48.412 108.677 44.241 109.205 40.297 109.686C36.397 110.161 32.33 110.261 28.562 108.963C25.478 107.901 22.543 105.957 20.917 102.989C19.058 99.5969 19.101 95.5553 19.465 91.7946C20.383 82.3095 22.837 73.1484 25.765 64.1339C29.776 65.341 34.085 66.0014 38.573 66.0024C43.307 66.0014 47.843 65.2692 52.039 63.9319C52.057 64.0252 52.082 64.1206 52.126 64.219C55.552 71.9013 58.068 79.9918 59.546 88.3037C60.224 92.1136 61.222 96.6311 59.945 100.409ZM66.889 104.901C66.832 106.865 66.313 109.521 64.116 110.054C62.282 110.499 60.892 108.517 60.689 106.859C60.396 104.47 61.869 102.196 63.072 100.291C64.011 98.8042 64.925 97.3131 65.481 95.6609C66.35 98.677 66.979 101.775 66.889 104.901Z" fill="#EFF0F3"/>
</svg>
