<svg width="279" height="99" viewBox="0 0 279 99" fill="none" xmlns="http://www.w3.org/2000/svg">
<path d="M118.695 11.9463C121.698 7.9017 126.015 4.48131 131.3 2.31385C135.125 0.7453 139.049 0 142.813 0C147.463 0.000633758 151.87 1.13758 155.538 3.27905C159.205 5.41926 162.133 8.57601 163.772 12.5757C164.711 14.8654 165.157 17.2572 165.157 19.6516C165.156 24.3274 163.463 29.0046 160.461 33.0486C158.089 36.2427 154.888 39.0351 151.048 41.141C153.512 45.8771 154.949 51.2888 155.571 56.542C155.921 59.4934 156.014 62.4746 155.866 65.4425C155.739 67.9877 155.556 70.8396 153.934 72.9361C152.726 74.4964 150.937 75.2829 149.072 75.7474C149.321 76.9135 149.165 78.2514 149.182 79.4181C149.202 80.8504 149.222 82.2834 149.234 83.7157C149.259 86.5422 149.148 89.4075 149.316 92.229C149.323 92.3335 149.341 92.4248 149.357 92.5186C150.491 92.2353 151.44 91.4526 152.561 91.1135C153.606 90.7973 154.749 90.8505 155.609 91.587C156.421 92.2816 156.665 93.3963 156.116 94.3305C155.527 95.3299 154.377 95.7083 153.273 95.7406C151.352 95.797 148.663 95.5733 148.071 93.3526C147.734 92.0851 147.917 90.63 147.917 89.3295C147.916 87.8947 147.915 86.4605 147.914 85.0256C147.913 83.3512 147.916 81.6775 147.924 80.0031C147.928 79.19 147.931 78.3762 147.935 77.5631C147.938 77.0371 147.919 76.5041 147.98 75.9832C147.726 76.0314 147.472 76.0782 147.22 76.1188C144.562 76.5485 141.853 76.6981 139.161 76.5738C139.527 77.8116 139.34 79.2958 139.359 80.5748C139.379 82.0071 139.399 83.4394 139.411 84.8723C139.436 87.6988 139.325 90.5641 139.493 93.3855C139.499 93.4901 139.518 93.5814 139.534 93.6752C140.668 93.3919 141.617 92.6092 142.738 92.2701C143.783 91.9539 144.926 92.0071 145.786 92.7436C146.597 93.4381 146.842 94.5529 146.293 95.4871C145.704 96.4872 144.554 96.8649 143.449 96.8972C141.529 96.9536 138.84 96.7299 138.248 94.5092C137.91 93.2417 138.094 91.7866 138.094 90.4861C138.093 89.0513 138.092 87.6171 138.091 86.1823C138.09 84.5079 138.092 82.8341 138.101 81.1597C138.104 80.3466 138.108 79.5329 138.112 78.7198C138.115 77.9833 138.071 77.233 138.279 76.5212C138.126 76.5105 137.973 76.5035 137.82 76.4908C135.242 76.283 132.536 75.575 131.076 73.2485C129.677 71.0177 129.612 68.2406 129.657 65.689C129.757 60.0385 131.153 54.5229 132.821 49.1334C132.428 50.0612 132.044 50.9928 131.675 51.9308C130.685 54.4443 129.79 56.9952 128.991 59.5765C128.369 61.588 127.809 63.6166 127.31 65.6605C127.372 65.71 127.429 65.7702 127.479 65.8526C128.813 68.0454 130.229 70.5392 129.513 73.1972C128.918 75.4065 126.657 76.9896 124.393 76.1448C124.101 76.0358 123.92 75.6828 123.968 75.3817C124.828 69.946 126.078 64.5698 127.72 59.3172C128.54 56.6973 129.458 54.109 130.475 51.5588C130.983 50.2837 131.518 49.0193 132.078 47.7664C132.483 46.8601 132.851 45.6661 133.507 44.8397C129.912 44.4714 126.53 43.4162 123.618 41.7159C119.951 39.5757 117.024 36.4189 115.385 32.4193C114.446 30.1295 113.999 27.7377 114 25.3434C113.999 20.6675 115.693 15.9904 118.695 11.9463ZM151.335 94.0795C152.291 94.2196 153.955 94.4959 154.678 93.7151C155.056 93.307 154.927 92.845 154.476 92.5503C153.873 92.1554 153.095 92.3906 152.488 92.6466C151.69 92.9825 150.964 93.4248 150.168 93.7157C150.49 93.9008 150.885 94.0136 151.335 94.0795ZM141.511 95.2355C142.467 95.3756 144.131 95.6519 144.855 94.8711C145.232 94.4629 145.103 94.0009 144.652 93.7062C144.049 93.3114 143.271 93.5465 142.664 93.8026C141.866 94.1384 141.14 94.5808 140.344 94.8717C140.665 95.0568 141.061 95.1696 141.511 95.2355ZM125.485 74.9438C127.003 75.0959 128.106 73.4855 128.212 72.0665C128.33 70.4942 127.625 69.0321 126.836 67.6904C126.301 70.0905 125.852 72.5095 125.485 74.9438ZM135.885 45.8106C134.081 51.2812 132.225 56.7733 131.606 62.5304C131.331 65.092 131.153 67.9116 131.81 70.4346C132.069 71.4303 132.51 72.4272 133.269 73.1439C134.167 73.9925 135.386 74.3703 136.578 74.5737C139.274 75.0332 142.115 74.9692 144.828 74.7011C147.162 74.4704 149.93 74.2201 151.832 72.6984C153.771 71.1476 153.983 68.3958 154.133 66.1016C154.308 63.4164 154.256 60.721 153.996 58.0427C153.703 55.0185 153.159 52.0246 152.373 49.0897C151.703 46.5838 150.803 44.1787 149.863 41.7729C149.21 42.0955 148.542 42.4003 147.855 42.6817C144.031 44.2503 140.106 44.9956 136.343 44.9956C136.156 44.9956 135.971 44.9823 135.784 44.9785C135.929 45.2047 135.99 45.4905 135.885 45.8106ZM116.988 31.7621C118.474 35.384 121.116 38.2454 124.491 40.2189C127.865 42.1906 131.974 43.2622 136.343 43.2616C139.877 43.2616 143.579 42.5613 147.197 41.0777C152.196 39.0281 156.261 35.7978 159.068 32.0156C161.877 28.2327 163.424 23.9047 163.423 19.6516C163.423 17.4714 163.019 15.3097 162.168 13.2335C160.681 9.61157 158.04 6.75015 154.664 4.77663C151.29 2.80501 147.181 1.73332 142.813 1.73396C139.278 1.73396 135.576 2.43427 131.958 3.9179C126.959 5.96747 122.894 9.19709 120.087 12.98C117.278 16.7629 115.731 21.0908 115.732 25.344C115.733 27.5235 116.137 29.6859 116.988 31.7621Z" fill="#242647"/>
<path d="M135.005 12.0617C135.102 11.6751 135.4 11.3373 135.8 11.2543C136.207 11.17 136.585 11.3233 136.889 11.5895C137.346 11.9894 137.644 12.646 137.82 13.2145C137.867 13.3678 137.912 13.5333 137.942 13.6999C138.037 13.9661 138.123 14.2374 138.116 14.5251C138.105 14.9751 137.898 15.3699 137.533 15.631C137.184 15.8807 136.692 15.875 136.328 15.6601C136.061 15.5023 135.857 15.2419 135.725 14.9655C135.638 14.7849 135.559 14.5986 135.486 14.411C135.333 14.1607 135.199 13.8989 135.097 13.6232C134.978 13.3038 134.88 12.9312 134.897 12.5896C134.904 12.4419 134.938 12.298 134.99 12.1631L135.005 12.0617Z" fill="#242647"/>
<path d="M153.848 8.51272C153.945 8.12613 154.242 7.78832 154.643 7.7053C155.05 7.62101 155.427 7.77437 155.732 8.04055C156.189 8.43982 156.488 9.09705 156.663 9.66553C156.71 9.8189 156.755 9.9843 156.784 10.151C156.88 10.4172 156.965 10.689 156.959 10.9761C156.948 11.4261 156.741 11.8209 156.376 12.082C156.026 12.3317 155.534 12.326 155.17 12.1112C154.903 11.9534 154.699 11.6929 154.567 11.4166C154.48 11.236 154.401 11.0497 154.327 10.8621C154.175 10.6117 154.04 10.35 153.938 10.0743C153.82 9.75488 153.722 9.38222 153.739 9.04063C153.745 8.89296 153.779 8.74909 153.832 8.6141L153.848 8.51272Z" fill="#242647"/>
<path d="M148.025 17.7966C147.97 17.5488 148.225 17.3143 148.473 17.4208C148.8 17.5615 149.044 17.8194 149.278 18.0818C149.508 18.3391 149.678 18.661 149.824 18.9716C150.108 19.573 150.24 20.2765 150.235 20.9387C150.233 21.1923 150.163 21.4065 149.929 21.5414C149.724 21.6587 149.435 21.6568 149.248 21.4971C148.352 20.7315 147.77 19.7023 147.542 18.5482C147.495 18.3093 147.628 18.0456 147.813 17.903C147.881 17.8511 147.952 17.8194 148.025 17.7966Z" fill="#242647"/>
<path d="M277 97L2 97" stroke="black" stroke-opacity="0.5" stroke-width="3" stroke-linecap="round"/>
</svg>
