<svg width="279" height="99" viewBox="0 0 279 99" fill="none" xmlns="http://www.w3.org/2000/svg">
<path d="M277 97L2 97" stroke="#242647" stroke-width="3" stroke-linecap="round"/>
<mask id="path-2-inside-1_102_59" fill="white">
<path d="M163.216 31.0235C163.149 30.8656 163.012 30.7419 162.78 30.7324C162.486 30.7204 162.192 30.722 161.899 30.7212C163.704 27.4872 164.618 23.8673 164.358 20.1014C163.526 8.06196 151.128 -0.921334 136.691 0.0755701C122.268 1.07327 111.211 11.6795 112.044 23.7189C112.673 32.8027 119.894 40.1408 129.596 42.771C129.154 43.2399 128.735 43.7328 128.326 44.1906C127.408 45.2146 126.548 46.2905 125.725 47.391C124.088 49.5802 122.628 51.8907 121.338 54.3C121.11 54.7267 121.424 55.2179 121.799 55.4086C123.245 56.1431 125.02 55.5537 126.501 55.2124C127.327 55.0217 128.148 54.8096 128.966 54.5831C128.917 54.8925 128.869 55.2012 128.821 55.5106L127.772 62.1963C127.46 64.1837 127.168 66.1384 127.936 68.0621C128.452 69.354 129.265 70.4131 130.26 71.2705C129.598 72.8568 129.32 74.6655 128.948 76.33C128.532 78.1858 128.14 80.0464 127.77 81.9118C127.411 83.727 127.075 85.5461 126.762 87.3693C126.597 88.3311 126.437 89.2945 126.285 90.2595C126.161 91.0443 126.09 91.8697 125.929 92.6585C124.347 92.3578 122.579 92.2773 121.047 92.6792C119.881 92.9855 117.872 94.3325 118.911 95.7497C119.842 97.0193 122.167 97.1956 123.551 96.8359C125.009 96.4571 126.183 95.4721 126.896 94.1714C127.088 94.0501 127.235 93.8555 127.235 93.6362C127.239 91.7732 127.723 89.8265 128.023 87.9898C128.33 86.114 128.659 84.2414 129.009 82.3736C129.35 80.556 129.713 78.7433 130.098 76.9345C130.444 75.3084 130.969 73.6264 131.163 71.9579C132.699 73.0043 134.531 73.6702 136.355 74.0299C138.337 74.4215 140.371 74.5324 142.388 74.4821C144.301 74.4343 146.358 74.3011 148.15 73.5705C148.334 73.4956 148.508 73.4063 148.682 73.3153C148.827 74.8761 149.16 76.4344 149.448 77.9673C149.804 79.8638 150.161 81.7595 150.517 83.656C151.219 87.3964 151.902 91.1416 152.607 94.882C152.651 95.1164 152.815 95.4043 153.067 95.4705C154.911 95.9554 156.763 95.9698 158.595 95.4131C160.077 94.9633 162.299 93.9879 162.235 92.1305C162.164 90.1136 159.935 90.2388 158.506 90.502C156.767 90.8218 155.136 91.4933 153.652 92.4415C153.034 89.3974 152.41 86.354 151.797 83.3091C151.426 81.4676 151.054 79.6269 150.683 77.7854C150.348 76.1178 150.048 74.408 149.526 72.7826C150.631 71.9516 151.44 70.7768 151.892 69.4338C152.634 67.2334 152.44 64.9126 152.262 62.6389C152.247 62.457 152.186 62.3151 152.098 62.2026C152.272 62.1811 152.447 62.1628 152.621 62.1412C154.606 61.8932 156.595 61.6444 158.574 61.3517C159.423 61.2265 161.024 61.0909 161.73 60.3955C162.048 60.3253 162.323 60.0804 162.386 59.6322C162.713 57.3154 162.791 54.9412 162.979 52.6092C163.087 51.2526 163.184 49.8961 163.283 48.5387L163.37 48.4805C163.72 48.2404 163.756 47.6957 163.505 47.3759L163.378 47.2674C163.419 46.7044 163.464 46.1413 163.504 45.5775C163.67 43.2854 163.838 40.9933 164.014 38.702C164.192 36.3868 164.366 34.0716 164.176 31.7516C164.137 31.2842 163.649 30.9804 163.216 31.0235ZM123.48 95.2879C122.95 95.4769 122.376 95.5296 121.819 95.4658C121.633 95.4442 120.268 95.2137 120.226 94.9186C120.184 94.6307 120.855 94.3468 121.057 94.2679C121.526 94.086 122.04 94.031 122.539 93.9991C123.409 93.9441 124.276 94.0031 125.138 94.1092C124.703 94.6387 124.141 95.0518 123.48 95.2879ZM154.188 93.9513C155.229 93.196 156.368 92.6066 157.595 92.2142C158.042 92.0707 161.444 91.1615 160.659 92.4958C160.096 93.4528 158.281 93.9489 157.276 94.1403C156.175 94.35 155.081 94.3309 153.993 94.1267L153.979 94.0589C154.05 94.0334 154.119 94.0015 154.188 93.9513ZM113.928 23.589C113.168 12.5887 123.438 2.88605 136.821 1.96093C137.512 1.91307 138.197 1.88993 138.878 1.88993C151.364 1.88993 161.751 9.80056 162.473 20.2322C162.735 24.018 161.679 27.6444 159.648 30.8169C157.323 31.0155 155.027 31.4932 152.754 32.0666C151.12 32.4782 149.495 32.9264 147.858 33.3291C146.239 33.7271 144.51 33.9121 142.934 34.4544C142.698 34.4177 142.446 34.5086 142.376 34.767C142.32 34.9696 142.273 35.1746 142.226 35.3795C142.008 35.5319 141.982 35.8046 142.09 36.02C141.745 37.7976 141.631 39.6319 141.437 41.4232C141.428 41.5045 141.42 41.5851 141.412 41.6656C140.808 41.747 140.199 41.8171 139.579 41.8594C136.934 42.0428 134.363 41.8642 131.932 41.3817C131.79 41.2724 131.603 41.2206 131.406 41.2732C121.805 39.179 114.528 32.2556 113.928 23.589ZM139.914 52.6914C139.61 52.8668 139.296 53.0136 138.978 53.1595C138.661 53.3047 138.348 53.4722 138.047 53.6484C137.762 53.8151 137.425 53.9626 137.16 54.1684C137.121 54.0105 137.192 53.8629 137.265 53.6444C137.373 53.3174 137.49 52.9929 137.615 52.6722C137.812 52.1658 138.106 51.649 138.243 51.1123C138.475 51.0014 138.712 50.9009 138.942 50.7869C139.458 50.5325 140.059 50.2964 140.558 49.9583C140.474 50.7917 140.39 51.6251 140.306 52.4585C140.173 52.5295 140.043 52.6172 139.914 52.6914ZM140.221 53.3079C140.097 54.5361 139.973 55.7642 139.85 56.9924C139.679 56.9039 139.536 56.813 139.384 56.6591C139.148 56.4198 138.93 56.159 138.705 55.9094C138.378 55.5457 138.037 55.194 137.701 54.8375C137.944 54.7378 138.179 54.6031 138.409 54.4874C138.742 54.3183 139.077 54.1237 139.38 53.9052C139.659 53.7034 139.934 53.4993 140.221 53.3079ZM140.556 48.3313C139.792 48.3831 139.1 48.8928 138.425 49.2246L138.386 49.2429L138.442 49.097C138.565 48.8003 138.689 48.5036 138.81 48.2061C138.934 47.9023 139.052 47.5952 139.172 47.289C139.332 47.2347 139.494 47.1789 139.642 47.1007C139.86 46.9859 140.075 46.8631 140.287 46.7363C140.48 46.6206 140.669 46.5002 140.855 46.3742L140.93 46.3192C140.862 46.9939 140.788 47.6686 140.721 48.3441C140.667 48.3345 140.613 48.3273 140.556 48.3313ZM140.426 45.7936C140.246 45.9268 140.062 46.0544 139.874 46.1764C139.752 46.2562 139.638 46.3224 139.524 46.3909C139.724 45.8781 139.92 45.3645 140.111 44.8485C140.251 44.4713 140.422 44.0757 140.517 43.6722C140.75 43.6491 140.981 43.6227 141.213 43.5948C141.147 44.2432 141.078 44.8908 141.011 45.5392C140.796 45.528 140.597 45.6684 140.426 45.7936ZM137.527 43.8205C138.142 43.8205 138.764 43.7982 139.388 43.7615C139.294 43.9888 139.208 44.2193 139.118 44.4394C138.894 44.9961 138.673 45.5535 138.46 46.115C138.248 46.6757 138.029 47.2347 137.823 47.7986C137.72 48.0809 137.619 48.3632 137.518 48.6455C137.407 48.9526 137.21 49.2923 137.295 49.6225L137.346 49.7246C136.971 49.8992 136.599 50.0811 136.219 50.247C134.734 50.8969 133.221 51.4839 131.686 52.0047C131.353 52.1172 131.016 52.2145 130.681 52.3213C130.829 51.3125 130.977 50.3044 131.125 49.2955C131.284 48.2061 131.447 47.1167 131.587 46.0241C131.701 45.1317 131.927 44.1858 131.832 43.2846C133.666 43.6323 135.572 43.8205 137.527 43.8205ZM127.088 53.3446C126.301 53.5368 125.509 53.7138 124.714 53.8717C124.277 53.9586 123.839 54.0536 123.408 54.0536C124.528 52.0574 125.758 50.1233 127.116 48.2795C127.877 47.2459 128.68 46.2458 129.5 45.2585C129.874 44.8087 130.287 44.3708 130.693 43.9258C130.566 44.4609 130.5 45.0168 130.404 45.5615C130.205 46.6988 130.024 47.8385 129.845 48.9797C129.647 50.2414 129.449 51.5031 129.251 52.7648C128.533 52.9721 127.813 53.1667 127.088 53.3446ZM147.587 71.9524C146.054 72.6191 144.242 72.718 142.593 72.7914C140.76 72.8727 138.902 72.7682 137.091 72.466C133.923 71.9364 130.513 70.4243 129.284 67.2206C128.593 65.4182 129.053 63.4372 129.323 61.5941C129.604 59.6737 129.885 57.7541 130.166 55.8336C130.248 55.2714 130.331 54.7099 130.413 54.1476C130.831 54.02 131.252 53.902 131.666 53.7649C133.341 53.2114 134.99 52.5797 136.607 51.8723C136.699 51.8324 136.787 51.7862 136.878 51.7463C136.744 52.0502 136.629 52.3588 136.515 52.6371C136.217 53.3669 135.765 54.2418 136.274 54.9707C136.746 55.6462 137.372 56.2451 137.928 56.8505C138.43 57.3976 138.953 58.0747 139.734 58.1337C139.594 59.527 139.454 60.9194 139.314 62.3127C139.251 62.9388 139.76 63.371 140.356 63.3303C143.784 63.0935 147.204 62.7721 150.616 62.3765C150.537 62.5201 150.495 62.6931 150.517 62.8957C150.844 66.0387 151.074 70.4363 147.587 71.9524ZM161.656 45.6644C161.592 46.3917 161.533 47.1199 161.47 47.8472C161.07 48.0785 160.655 48.2619 160.207 48.3217C160.14 48.3305 160.071 48.3353 160.002 48.3393L159.841 48.3329C159.758 48.3257 159.674 48.3146 159.592 48.2994L159.483 48.2763L159.446 48.2627C159.368 48.2332 159.292 48.2045 159.216 48.171L159.14 48.1335L159.116 48.1184C159.041 48.0633 158.967 48.0115 158.898 47.9493C159.002 48.0434 158.834 47.8624 158.808 47.8321L158.791 47.8057L158.748 47.7196C158.704 47.6215 158.697 47.6096 158.678 47.5202C158.635 47.3201 158.616 47.0601 158.614 46.8894C158.61 46.5544 158.631 46.0273 158.73 45.7418C158.807 45.5177 158.828 45.4666 158.926 45.3286C158.984 45.2465 159.049 45.1659 159.119 45.0934C159.056 45.158 159.228 45.0033 159.265 44.9745L159.358 44.906L159.448 44.8446L159.625 44.7504C159.706 44.7114 159.79 44.6755 159.876 44.6444L159.986 44.6053L160.029 44.5901L160.064 44.5845C160.616 44.4617 161.185 44.5271 161.743 44.6635C161.713 44.9969 161.685 45.331 161.656 45.6644ZM162.248 38.7985C162.123 40.3002 161.991 41.8012 161.86 43.3021L161.826 43.2886C161.26 43.0852 160.637 43.0254 160.04 43.098C158.954 43.2312 157.968 43.8628 157.462 44.8398C157.196 45.3542 157.115 45.9571 157.1 46.5289C157.085 47.1342 157.087 47.7611 157.335 48.3257C157.753 49.278 158.781 49.841 159.797 49.8801C160.335 49.9008 160.838 49.7964 161.319 49.6217C161.236 50.5915 161.148 51.5605 161.071 52.5311C160.907 54.5823 160.663 56.6503 160.581 58.7095L160.482 58.8475L160.465 58.869L160.469 58.8666L160.428 58.928L160.465 58.869L160.383 58.9129C160.259 58.9639 160.158 59.0405 160.022 59.0819C159.667 59.1904 159.255 59.2079 158.887 59.267C157.975 59.4121 157.063 59.5588 156.15 59.6992C154.373 59.9728 152.593 60.2128 150.81 60.4313C147.626 60.8221 144.432 61.1411 141.234 61.4139C141.593 57.5068 141.954 53.599 142.313 49.6919C143.39 50.7391 144.606 51.7734 146.137 51.9983C147.755 52.2368 149.496 51.3818 150.384 50.0205C150.85 49.3083 151.092 48.4773 150.879 47.6335C150.684 46.8663 150.222 46.1629 149.68 45.5942C149.108 44.9945 148.408 44.5598 147.566 44.4833C146.716 44.4059 145.869 44.6268 145.082 44.9291C144.257 45.2457 143.471 45.6963 142.773 46.2386C142.715 46.2833 142.667 46.3335 142.612 46.3798C142.75 44.8453 142.892 43.3109 143.022 41.7757C143.178 39.9318 143.433 38.0504 143.434 36.1874C146.635 35.6985 149.796 34.8588 152.983 34.2941C156.15 33.7335 159.328 33.2446 162.519 32.8458C162.596 34.8332 162.414 36.8175 162.248 38.7985ZM142.754 48.053C143.372 47.5035 144.054 46.9995 144.768 46.6374C145.684 46.1732 147.107 45.5591 148.092 46.1453C148.948 46.6541 149.838 47.9429 149.33 48.9342C148.824 49.9208 147.555 50.5636 146.469 50.4073C145.205 50.2254 144.163 49.1982 143.299 48.3369C143.124 48.1622 142.935 48.0769 142.754 48.053Z"/>
<path d="M136.411 24.0825C136.422 24.2843 136.438 24.4853 136.463 24.6847C136.503 24.9885 136.614 25.2996 136.818 25.5332C137.094 25.8515 137.56 26.0118 137.97 25.885C138.398 25.7518 138.72 25.4423 138.871 25.0189C138.968 24.7485 138.972 24.4638 138.965 24.1815C138.989 24.0132 139 23.8425 139.003 23.6822C139.016 23.088 138.939 22.3703 138.63 21.8479C138.425 21.5002 138.115 21.2354 137.703 21.1876C137.297 21.1405 136.908 21.3678 136.694 21.7035L136.648 21.7945C136.555 21.9061 136.478 22.0321 136.425 22.1701C136.302 22.4891 136.278 22.8735 136.29 23.2141C136.299 23.5059 136.345 23.797 136.411 24.0825Z"/>
<path d="M154.854 22.8072C154.865 23.009 154.881 23.21 154.906 23.4086C154.945 23.7124 155.057 24.0242 155.26 24.2579C155.538 24.5761 156.003 24.7364 156.413 24.6096C156.842 24.4765 157.163 24.167 157.315 23.7435C157.412 23.4732 157.416 23.1885 157.409 22.9053C157.433 22.7379 157.443 22.5664 157.446 22.4061C157.459 21.8119 157.382 21.095 157.075 20.5718C156.87 20.2241 156.559 19.9593 156.147 19.9114C155.741 19.8644 155.353 20.0917 155.138 20.4274L155.092 20.5183C154.999 20.63 154.922 20.756 154.869 20.894C154.747 21.213 154.722 21.5974 154.734 21.9379C154.742 22.2306 154.787 22.5217 154.854 22.8072Z"/>
<path d="M144.552 30.2316C145.378 30.6216 146.318 30.7309 147.221 30.636C147.98 30.5562 148.748 30.2922 149.391 29.8807C150.085 29.4365 150.815 28.7937 151.094 27.9922C151.392 27.1356 150.234 26.6547 149.722 27.3254C149.364 27.7928 149.095 28.2259 148.579 28.5473C148.07 28.8655 147.488 29.0672 146.889 29.1223C146.239 29.1821 145.582 29.0896 144.945 28.9668C144.6 28.9006 144.262 28.7969 143.937 28.6653C143.594 28.5265 143.289 28.379 142.911 28.4021C142.768 28.4109 142.616 28.5281 142.664 28.6924C142.891 29.4732 143.869 29.9094 144.552 30.2316Z"/>
</mask>
<path d="M163.216 31.0235C163.149 30.8656 163.012 30.7419 162.78 30.7324C162.486 30.7204 162.192 30.722 161.899 30.7212C163.704 27.4872 164.618 23.8673 164.358 20.1014C163.526 8.06196 151.128 -0.921334 136.691 0.0755701C122.268 1.07327 111.211 11.6795 112.044 23.7189C112.673 32.8027 119.894 40.1408 129.596 42.771C129.154 43.2399 128.735 43.7328 128.326 44.1906C127.408 45.2146 126.548 46.2905 125.725 47.391C124.088 49.5802 122.628 51.8907 121.338 54.3C121.11 54.7267 121.424 55.2179 121.799 55.4086C123.245 56.1431 125.02 55.5537 126.501 55.2124C127.327 55.0217 128.148 54.8096 128.966 54.5831C128.917 54.8925 128.869 55.2012 128.821 55.5106L127.772 62.1963C127.46 64.1837 127.168 66.1384 127.936 68.0621C128.452 69.354 129.265 70.4131 130.26 71.2705C129.598 72.8568 129.32 74.6655 128.948 76.33C128.532 78.1858 128.14 80.0464 127.77 81.9118C127.411 83.727 127.075 85.5461 126.762 87.3693C126.597 88.3311 126.437 89.2945 126.285 90.2595C126.161 91.0443 126.09 91.8697 125.929 92.6585C124.347 92.3578 122.579 92.2773 121.047 92.6792C119.881 92.9855 117.872 94.3325 118.911 95.7497C119.842 97.0193 122.167 97.1956 123.551 96.8359C125.009 96.4571 126.183 95.4721 126.896 94.1714C127.088 94.0501 127.235 93.8555 127.235 93.6362C127.239 91.7732 127.723 89.8265 128.023 87.9898C128.33 86.114 128.659 84.2414 129.009 82.3736C129.35 80.556 129.713 78.7433 130.098 76.9345C130.444 75.3084 130.969 73.6264 131.163 71.9579C132.699 73.0043 134.531 73.6702 136.355 74.0299C138.337 74.4215 140.371 74.5324 142.388 74.4821C144.301 74.4343 146.358 74.3011 148.15 73.5705C148.334 73.4956 148.508 73.4063 148.682 73.3153C148.827 74.8761 149.16 76.4344 149.448 77.9673C149.804 79.8638 150.161 81.7595 150.517 83.656C151.219 87.3964 151.902 91.1416 152.607 94.882C152.651 95.1164 152.815 95.4043 153.067 95.4705C154.911 95.9554 156.763 95.9698 158.595 95.4131C160.077 94.9633 162.299 93.9879 162.235 92.1305C162.164 90.1136 159.935 90.2388 158.506 90.502C156.767 90.8218 155.136 91.4933 153.652 92.4415C153.034 89.3974 152.41 86.354 151.797 83.3091C151.426 81.4676 151.054 79.6269 150.683 77.7854C150.348 76.1178 150.048 74.408 149.526 72.7826C150.631 71.9516 151.44 70.7768 151.892 69.4338C152.634 67.2334 152.44 64.9126 152.262 62.6389C152.247 62.457 152.186 62.3151 152.098 62.2026C152.272 62.1811 152.447 62.1628 152.621 62.1412C154.606 61.8932 156.595 61.6444 158.574 61.3517C159.423 61.2265 161.024 61.0909 161.73 60.3955C162.048 60.3253 162.323 60.0804 162.386 59.6322C162.713 57.3154 162.791 54.9412 162.979 52.6092C163.087 51.2526 163.184 49.8961 163.283 48.5387L163.37 48.4805C163.72 48.2404 163.756 47.6957 163.505 47.3759L163.378 47.2674C163.419 46.7044 163.464 46.1413 163.504 45.5775C163.67 43.2854 163.838 40.9933 164.014 38.702C164.192 36.3868 164.366 34.0716 164.176 31.7516C164.137 31.2842 163.649 30.9804 163.216 31.0235ZM123.48 95.2879C122.95 95.4769 122.376 95.5296 121.819 95.4658C121.633 95.4442 120.268 95.2137 120.226 94.9186C120.184 94.6307 120.855 94.3468 121.057 94.2679C121.526 94.086 122.04 94.031 122.539 93.9991C123.409 93.9441 124.276 94.0031 125.138 94.1092C124.703 94.6387 124.141 95.0518 123.48 95.2879ZM154.188 93.9513C155.229 93.196 156.368 92.6066 157.595 92.2142C158.042 92.0707 161.444 91.1615 160.659 92.4958C160.096 93.4528 158.281 93.9489 157.276 94.1403C156.175 94.35 155.081 94.3309 153.993 94.1267L153.979 94.0589C154.05 94.0334 154.119 94.0015 154.188 93.9513ZM113.928 23.589C113.168 12.5887 123.438 2.88605 136.821 1.96093C137.512 1.91307 138.197 1.88993 138.878 1.88993C151.364 1.88993 161.751 9.80056 162.473 20.2322C162.735 24.018 161.679 27.6444 159.648 30.8169C157.323 31.0155 155.027 31.4932 152.754 32.0666C151.12 32.4782 149.495 32.9264 147.858 33.3291C146.239 33.7271 144.51 33.9121 142.934 34.4544C142.698 34.4177 142.446 34.5086 142.376 34.767C142.32 34.9696 142.273 35.1746 142.226 35.3795C142.008 35.5319 141.982 35.8046 142.09 36.02C141.745 37.7976 141.631 39.6319 141.437 41.4232C141.428 41.5045 141.42 41.5851 141.412 41.6656C140.808 41.747 140.199 41.8171 139.579 41.8594C136.934 42.0428 134.363 41.8642 131.932 41.3817C131.79 41.2724 131.603 41.2206 131.406 41.2732C121.805 39.179 114.528 32.2556 113.928 23.589ZM139.914 52.6914C139.61 52.8668 139.296 53.0136 138.978 53.1595C138.661 53.3047 138.348 53.4722 138.047 53.6484C137.762 53.8151 137.425 53.9626 137.16 54.1684C137.121 54.0105 137.192 53.8629 137.265 53.6444C137.373 53.3174 137.49 52.9929 137.615 52.6722C137.812 52.1658 138.106 51.649 138.243 51.1123C138.475 51.0014 138.712 50.9009 138.942 50.7869C139.458 50.5325 140.059 50.2964 140.558 49.9583C140.474 50.7917 140.39 51.6251 140.306 52.4585C140.173 52.5295 140.043 52.6172 139.914 52.6914ZM140.221 53.3079C140.097 54.5361 139.973 55.7642 139.85 56.9924C139.679 56.9039 139.536 56.813 139.384 56.6591C139.148 56.4198 138.93 56.159 138.705 55.9094C138.378 55.5457 138.037 55.194 137.701 54.8375C137.944 54.7378 138.179 54.6031 138.409 54.4874C138.742 54.3183 139.077 54.1237 139.38 53.9052C139.659 53.7034 139.934 53.4993 140.221 53.3079ZM140.556 48.3313C139.792 48.3831 139.1 48.8928 138.425 49.2246L138.386 49.2429L138.442 49.097C138.565 48.8003 138.689 48.5036 138.81 48.2061C138.934 47.9023 139.052 47.5952 139.172 47.289C139.332 47.2347 139.494 47.1789 139.642 47.1007C139.86 46.9859 140.075 46.8631 140.287 46.7363C140.48 46.6206 140.669 46.5002 140.855 46.3742L140.93 46.3192C140.862 46.9939 140.788 47.6686 140.721 48.3441C140.667 48.3345 140.613 48.3273 140.556 48.3313ZM140.426 45.7936C140.246 45.9268 140.062 46.0544 139.874 46.1764C139.752 46.2562 139.638 46.3224 139.524 46.3909C139.724 45.8781 139.92 45.3645 140.111 44.8485C140.251 44.4713 140.422 44.0757 140.517 43.6722C140.75 43.6491 140.981 43.6227 141.213 43.5948C141.147 44.2432 141.078 44.8908 141.011 45.5392C140.796 45.528 140.597 45.6684 140.426 45.7936ZM137.527 43.8205C138.142 43.8205 138.764 43.7982 139.388 43.7615C139.294 43.9888 139.208 44.2193 139.118 44.4394C138.894 44.9961 138.673 45.5535 138.46 46.115C138.248 46.6757 138.029 47.2347 137.823 47.7986C137.72 48.0809 137.619 48.3632 137.518 48.6455C137.407 48.9526 137.21 49.2923 137.295 49.6225L137.346 49.7246C136.971 49.8992 136.599 50.0811 136.219 50.247C134.734 50.8969 133.221 51.4839 131.686 52.0047C131.353 52.1172 131.016 52.2145 130.681 52.3213C130.829 51.3125 130.977 50.3044 131.125 49.2955C131.284 48.2061 131.447 47.1167 131.587 46.0241C131.701 45.1317 131.927 44.1858 131.832 43.2846C133.666 43.6323 135.572 43.8205 137.527 43.8205ZM127.088 53.3446C126.301 53.5368 125.509 53.7138 124.714 53.8717C124.277 53.9586 123.839 54.0536 123.408 54.0536C124.528 52.0574 125.758 50.1233 127.116 48.2795C127.877 47.2459 128.68 46.2458 129.5 45.2585C129.874 44.8087 130.287 44.3708 130.693 43.9258C130.566 44.4609 130.5 45.0168 130.404 45.5615C130.205 46.6988 130.024 47.8385 129.845 48.9797C129.647 50.2414 129.449 51.5031 129.251 52.7648C128.533 52.9721 127.813 53.1667 127.088 53.3446ZM147.587 71.9524C146.054 72.6191 144.242 72.718 142.593 72.7914C140.76 72.8727 138.902 72.7682 137.091 72.466C133.923 71.9364 130.513 70.4243 129.284 67.2206C128.593 65.4182 129.053 63.4372 129.323 61.5941C129.604 59.6737 129.885 57.7541 130.166 55.8336C130.248 55.2714 130.331 54.7099 130.413 54.1476C130.831 54.02 131.252 53.902 131.666 53.7649C133.341 53.2114 134.99 52.5797 136.607 51.8723C136.699 51.8324 136.787 51.7862 136.878 51.7463C136.744 52.0502 136.629 52.3588 136.515 52.6371C136.217 53.3669 135.765 54.2418 136.274 54.9707C136.746 55.6462 137.372 56.2451 137.928 56.8505C138.43 57.3976 138.953 58.0747 139.734 58.1337C139.594 59.527 139.454 60.9194 139.314 62.3127C139.251 62.9388 139.76 63.371 140.356 63.3303C143.784 63.0935 147.204 62.7721 150.616 62.3765C150.537 62.5201 150.495 62.6931 150.517 62.8957C150.844 66.0387 151.074 70.4363 147.587 71.9524ZM161.656 45.6644C161.592 46.3917 161.533 47.1199 161.47 47.8472C161.07 48.0785 160.655 48.2619 160.207 48.3217C160.14 48.3305 160.071 48.3353 160.002 48.3393L159.841 48.3329C159.758 48.3257 159.674 48.3146 159.592 48.2994L159.483 48.2763L159.446 48.2627C159.368 48.2332 159.292 48.2045 159.216 48.171L159.14 48.1335L159.116 48.1184C159.041 48.0633 158.967 48.0115 158.898 47.9493C159.002 48.0434 158.834 47.8624 158.808 47.8321L158.791 47.8057L158.748 47.7196C158.704 47.6215 158.697 47.6096 158.678 47.5202C158.635 47.3201 158.616 47.0601 158.614 46.8894C158.61 46.5544 158.631 46.0273 158.73 45.7418C158.807 45.5177 158.828 45.4666 158.926 45.3286C158.984 45.2465 159.049 45.1659 159.119 45.0934C159.056 45.158 159.228 45.0033 159.265 44.9745L159.358 44.906L159.448 44.8446L159.625 44.7504C159.706 44.7114 159.79 44.6755 159.876 44.6444L159.986 44.6053L160.029 44.5901L160.064 44.5845C160.616 44.4617 161.185 44.5271 161.743 44.6635C161.713 44.9969 161.685 45.331 161.656 45.6644ZM162.248 38.7985C162.123 40.3002 161.991 41.8012 161.86 43.3021L161.826 43.2886C161.26 43.0852 160.637 43.0254 160.04 43.098C158.954 43.2312 157.968 43.8628 157.462 44.8398C157.196 45.3542 157.115 45.9571 157.1 46.5289C157.085 47.1342 157.087 47.7611 157.335 48.3257C157.753 49.278 158.781 49.841 159.797 49.8801C160.335 49.9008 160.838 49.7964 161.319 49.6217C161.236 50.5915 161.148 51.5605 161.071 52.5311C160.907 54.5823 160.663 56.6503 160.581 58.7095L160.482 58.8475L160.465 58.869L160.469 58.8666L160.428 58.928L160.465 58.869L160.383 58.9129C160.259 58.9639 160.158 59.0405 160.022 59.0819C159.667 59.1904 159.255 59.2079 158.887 59.267C157.975 59.4121 157.063 59.5588 156.15 59.6992C154.373 59.9728 152.593 60.2128 150.81 60.4313C147.626 60.8221 144.432 61.1411 141.234 61.4139C141.593 57.5068 141.954 53.599 142.313 49.6919C143.39 50.7391 144.606 51.7734 146.137 51.9983C147.755 52.2368 149.496 51.3818 150.384 50.0205C150.85 49.3083 151.092 48.4773 150.879 47.6335C150.684 46.8663 150.222 46.1629 149.68 45.5942C149.108 44.9945 148.408 44.5598 147.566 44.4833C146.716 44.4059 145.869 44.6268 145.082 44.9291C144.257 45.2457 143.471 45.6963 142.773 46.2386C142.715 46.2833 142.667 46.3335 142.612 46.3798C142.75 44.8453 142.892 43.3109 143.022 41.7757C143.178 39.9318 143.433 38.0504 143.434 36.1874C146.635 35.6985 149.796 34.8588 152.983 34.2941C156.15 33.7335 159.328 33.2446 162.519 32.8458C162.596 34.8332 162.414 36.8175 162.248 38.7985ZM142.754 48.053C143.372 47.5035 144.054 46.9995 144.768 46.6374C145.684 46.1732 147.107 45.5591 148.092 46.1453C148.948 46.6541 149.838 47.9429 149.33 48.9342C148.824 49.9208 147.555 50.5636 146.469 50.4073C145.205 50.2254 144.163 49.1982 143.299 48.3369C143.124 48.1622 142.935 48.0769 142.754 48.053Z" fill="#242647"/>
<path d="M136.411 24.0825C136.422 24.2843 136.438 24.4853 136.463 24.6847C136.503 24.9885 136.614 25.2996 136.818 25.5332C137.094 25.8515 137.56 26.0118 137.97 25.885C138.398 25.7518 138.72 25.4423 138.871 25.0189C138.968 24.7485 138.972 24.4638 138.965 24.1815C138.989 24.0132 139 23.8425 139.003 23.6822C139.016 23.088 138.939 22.3703 138.63 21.8479C138.425 21.5002 138.115 21.2354 137.703 21.1876C137.297 21.1405 136.908 21.3678 136.694 21.7035L136.648 21.7945C136.555 21.9061 136.478 22.0321 136.425 22.1701C136.302 22.4891 136.278 22.8735 136.29 23.2141C136.299 23.5059 136.345 23.797 136.411 24.0825Z" fill="#242647"/>
<path d="M154.854 22.8072C154.865 23.009 154.881 23.21 154.906 23.4086C154.945 23.7124 155.057 24.0242 155.26 24.2579C155.538 24.5761 156.003 24.7364 156.413 24.6096C156.842 24.4765 157.163 24.167 157.315 23.7435C157.412 23.4732 157.416 23.1885 157.409 22.9053C157.433 22.7379 157.443 22.5664 157.446 22.4061C157.459 21.8119 157.382 21.095 157.075 20.5718C156.87 20.2241 156.559 19.9593 156.147 19.9114C155.741 19.8644 155.353 20.0917 155.138 20.4274L155.092 20.5183C154.999 20.63 154.922 20.756 154.869 20.894C154.747 21.213 154.722 21.5974 154.734 21.9379C154.742 22.2306 154.787 22.5217 154.854 22.8072Z" fill="#242647"/>
<path d="M144.552 30.2316C145.378 30.6216 146.318 30.7309 147.221 30.636C147.98 30.5562 148.748 30.2922 149.391 29.8807C150.085 29.4365 150.815 28.7937 151.094 27.9922C151.392 27.1356 150.234 26.6547 149.722 27.3254C149.364 27.7928 149.095 28.2259 148.579 28.5473C148.07 28.8655 147.488 29.0672 146.889 29.1223C146.239 29.1821 145.582 29.0896 144.945 28.9668C144.6 28.9006 144.262 28.7969 143.937 28.6653C143.594 28.5265 143.289 28.379 142.911 28.4021C142.768 28.4109 142.616 28.5281 142.664 28.6924C142.891 29.4732 143.869 29.9094 144.552 30.2316Z" fill="#242647"/>
<path d="M163.216 31.0235L162.295 31.414L162.582 32.0914L163.315 32.0186L163.216 31.0235ZM162.78 30.7324L162.821 29.7332L162.821 29.7332L162.78 30.7324ZM161.899 30.7212L161.026 30.2337L160.198 31.7166L161.896 31.7212L161.899 30.7212ZM164.358 20.1014L165.355 20.0325L165.355 20.0324L164.358 20.1014ZM136.691 0.0755701L136.622 -0.922054L136.622 -0.922046L136.691 0.0755701ZM112.044 23.7189L111.046 23.7879L111.046 23.788L112.044 23.7189ZM129.596 42.771L130.324 43.4567L131.468 42.2424L129.858 41.8058L129.596 42.771ZM128.326 44.1906L129.07 44.8577L129.071 44.8577L128.326 44.1906ZM125.725 47.391L126.526 47.99L126.526 47.9899L125.725 47.391ZM121.338 54.3L120.456 53.8278L120.456 53.8285L121.338 54.3ZM121.799 55.4086L121.345 56.2999L121.346 56.3002L121.799 55.4086ZM126.501 55.2124L126.725 56.1868L126.726 56.1868L126.501 55.2124ZM128.966 54.5831L129.954 54.7384L130.195 53.2049L128.699 53.6194L128.966 54.5831ZM128.821 55.5106L127.833 55.3553L127.833 55.3557L128.821 55.5106ZM127.772 62.1963L128.76 62.3513L128.76 62.3512L127.772 62.1963ZM127.936 68.0621L127.008 68.4329L127.008 68.433L127.936 68.0621ZM130.26 71.2705L131.183 71.6552L131.461 70.9863L130.912 70.5131L130.26 71.2705ZM128.948 76.33L129.923 76.5485L129.923 76.5483L128.948 76.33ZM127.77 81.9118L128.751 82.1062L128.751 82.106L127.77 81.9118ZM126.762 87.3693L125.776 87.1999L125.776 87.2001L126.762 87.3693ZM126.285 90.2595L125.297 90.1036L125.297 90.1039L126.285 90.2595ZM125.929 92.6585L125.742 93.6409L126.711 93.825L126.909 92.8586L125.929 92.6585ZM121.047 92.6792L120.793 91.712L120.793 91.712L121.047 92.6792ZM118.911 95.7497L118.104 96.341L118.105 96.3412L118.911 95.7497ZM123.551 96.8359L123.299 95.868L123.299 95.868L123.551 96.8359ZM126.896 94.1714L126.362 93.3255L126.143 93.4637L126.019 93.6907L126.896 94.1714ZM127.235 93.6362L128.235 93.6399L128.235 93.6379L127.235 93.6362ZM128.023 87.9898L127.036 87.8286L128.023 87.9898ZM129.009 82.3736L128.026 82.189L128.026 82.1894L129.009 82.3736ZM130.098 76.9345L129.12 76.7263L129.119 76.7266L130.098 76.9345ZM131.163 71.9579L131.726 71.1315L130.361 70.2017L130.17 71.8421L131.163 71.9579ZM136.355 74.0299L136.549 73.0489L136.548 73.0488L136.355 74.0299ZM142.388 74.4821L142.413 75.4818L142.413 75.4818L142.388 74.4821ZM148.15 73.5705L147.773 72.6443L147.772 72.6445L148.15 73.5705ZM148.682 73.3153L149.678 73.2227L149.54 71.7384L148.219 72.4292L148.682 73.3153ZM149.448 77.9673L148.465 78.1519L148.465 78.152L149.448 77.9673ZM150.517 83.656L149.534 83.8404L149.534 83.8406L150.517 83.656ZM152.607 94.882L153.59 94.6981L153.59 94.6967L152.607 94.882ZM153.067 95.4705L153.321 94.5034L153.321 94.5033L153.067 95.4705ZM158.595 95.4131L158.304 94.4562L158.304 94.4563L158.595 95.4131ZM162.235 92.1305L163.234 92.0957L163.234 92.0957L162.235 92.1305ZM158.506 90.502L158.687 91.4855L158.687 91.4854L158.506 90.502ZM153.652 92.4415L152.672 92.6405L152.963 94.0694L154.191 93.2841L153.652 92.4415ZM151.797 83.3091L150.816 83.5065L150.816 83.5065L151.797 83.3091ZM150.683 77.7854L149.703 77.9828L149.703 77.9829L150.683 77.7854ZM149.526 72.7826L148.925 71.9833L148.357 72.4108L148.574 73.0882L149.526 72.7826ZM151.892 69.4338L150.945 69.1144L150.945 69.1147L151.892 69.4338ZM152.262 62.6389L153.259 62.5606L153.259 62.5602L152.262 62.6389ZM152.098 62.2026L151.975 61.2102L150.225 61.427L151.31 62.8177L152.098 62.2026ZM152.621 62.1412L152.743 63.1336L152.744 63.1335L152.621 62.1412ZM158.574 61.3517L158.428 60.3624L158.428 60.3624L158.574 61.3517ZM161.73 60.3955L161.514 59.4189L161.233 59.481L161.028 59.6831L161.73 60.3955ZM162.386 59.6322L161.396 59.4925L161.396 59.493L162.386 59.6322ZM162.979 52.6092L163.976 52.6893L163.976 52.6889L162.979 52.6092ZM163.283 48.5387L162.723 47.7102L162.322 47.9818L162.286 48.4654L163.283 48.5387ZM163.37 48.4805L163.93 49.309L163.934 49.3058L163.37 48.4805ZM163.505 47.3759L164.292 46.7594L164.231 46.6808L164.155 46.6159L163.505 47.3759ZM163.378 47.2674L162.381 47.1954L162.345 47.6991L162.728 48.0274L163.378 47.2674ZM163.504 45.5775L162.507 45.5053L162.507 45.5055L163.504 45.5775ZM164.014 38.702L163.017 38.6254L163.017 38.6257L164.014 38.702ZM164.176 31.7516L165.172 31.6701L165.172 31.6683L164.176 31.7516ZM123.48 95.2879L123.816 96.2297L123.816 96.2297L123.48 95.2879ZM121.819 95.4658L121.705 96.4592L121.705 96.4592L121.819 95.4658ZM120.226 94.9186L121.216 94.7769L121.216 94.7761L120.226 94.9186ZM121.057 94.2679L120.695 93.3355L120.693 93.3366L121.057 94.2679ZM122.539 93.9991L122.476 93.0011L122.475 93.0012L122.539 93.9991ZM125.138 94.1092L125.911 94.7436L127.064 93.3386L125.26 93.1167L125.138 94.1092ZM154.188 93.9513L153.601 93.1417L153.597 93.1446L154.188 93.9513ZM157.595 92.2142L157.899 93.1667L157.9 93.1664L157.595 92.2142ZM160.659 92.4958L161.521 93.0029L161.521 93.0027L160.659 92.4958ZM157.276 94.1403L157.089 93.1579L157.088 93.158L157.276 94.1403ZM153.993 94.1267L153.012 94.3228L153.145 94.985L153.809 95.1095L153.993 94.1267ZM153.979 94.0589L153.638 93.1191L152.83 93.4127L152.999 94.255L153.979 94.0589ZM113.928 23.589L112.93 23.6579L112.93 23.658L113.928 23.589ZM136.821 1.96093L136.89 2.95855L136.89 2.95854L136.821 1.96093ZM162.473 20.2322L163.471 20.1632L163.471 20.1631L162.473 20.2322ZM159.648 30.8169L159.733 31.8133L160.225 31.7713L160.491 31.356L159.648 30.8169ZM152.754 32.0666L152.998 33.0364L152.998 33.0363L152.754 32.0666ZM147.858 33.3291L148.097 34.3002L148.097 34.3001L147.858 33.3291ZM142.934 34.4544L142.78 35.4425L143.025 35.4806L143.259 35.4L142.934 34.4544ZM142.376 34.767L143.341 35.0292L143.341 35.0291L142.376 34.767ZM142.226 35.3795L142.799 36.1989L143.114 35.9783L143.2 35.6033L142.226 35.3795ZM142.09 36.02L143.072 36.2106L143.137 35.8752L142.983 35.5701L142.09 36.02ZM141.437 41.4232L140.443 41.3156L140.443 41.316L141.437 41.4232ZM141.412 41.6656L141.545 42.6567L142.329 42.5512L142.407 41.7641L141.412 41.6656ZM139.579 41.8594L139.511 40.8617L139.51 40.8618L139.579 41.8594ZM131.932 41.3817L131.322 42.1742L131.508 42.317L131.737 42.3626L131.932 41.3817ZM131.406 41.2732L131.192 42.2503L131.429 42.3018L131.663 42.2396L131.406 41.2732ZM139.914 52.6914L140.414 53.5574L140.415 53.5573L139.914 52.6914ZM138.978 53.1595L139.394 54.069L139.395 54.0685L138.978 53.1595ZM138.047 53.6484L137.542 52.7851L137.541 52.7854L138.047 53.6484ZM137.16 54.1684L136.189 54.4086L136.558 55.8996L137.772 54.9589L137.16 54.1684ZM137.265 53.6444L138.213 53.9627L138.214 53.9593L137.265 53.6444ZM137.615 52.6722L138.547 53.036L138.547 53.0348L137.615 52.6722ZM138.243 51.1123L137.812 50.2099L137.389 50.4119L137.274 50.866L138.243 51.1123ZM138.942 50.7869L138.5 49.89L138.499 49.8906L138.942 50.7869ZM140.558 49.9583L141.553 50.0582L141.767 47.9318L139.997 49.1303L140.558 49.9583ZM140.306 52.4585L140.776 53.341L141.247 53.0901L141.301 52.5594L140.306 52.4585ZM140.221 53.3079L141.216 53.408L141.428 51.2978L139.665 52.4765L140.221 53.3079ZM139.85 56.9924L139.389 57.8801L140.697 58.5585L140.845 57.0926L139.85 56.9924ZM139.384 56.6591L140.097 55.9575L140.096 55.9567L139.384 56.6591ZM138.705 55.9094L139.448 55.24L139.448 55.2399L138.705 55.9094ZM137.701 54.8375L137.322 53.9122L135.976 54.464L136.973 55.5231L137.701 54.8375ZM138.409 54.4874L138.858 55.3806L138.861 55.3793L138.409 54.4874ZM139.38 53.9052L139.965 54.7163L139.966 54.7156L139.38 53.9052ZM140.556 48.3313L140.624 49.329L140.627 49.3288L140.556 48.3313ZM138.425 49.2246L138.849 50.13L138.857 50.1261L138.865 50.1221L138.425 49.2246ZM138.386 49.2429L137.453 48.8811L136.55 51.2079L138.81 50.1483L138.386 49.2429ZM138.442 49.097L137.518 48.7145L137.514 48.7248L137.51 48.7352L138.442 49.097ZM138.81 48.2061L137.884 47.8272L137.884 47.8287L138.81 48.2061ZM139.172 47.289L138.851 46.3417L138.41 46.491L138.24 46.9251L139.172 47.289ZM139.642 47.1007L139.176 46.2155L139.173 46.2171L139.642 47.1007ZM140.287 46.7363L140.8 47.5946L140.801 47.5941L140.287 46.7363ZM140.855 46.3742L141.416 47.2019L141.429 47.1928L141.442 47.1833L140.855 46.3742ZM140.93 46.3192L141.925 46.4203L142.151 44.1964L140.343 45.5101L140.93 46.3192ZM140.721 48.3441L140.544 49.3284L141.608 49.5189L141.716 48.4439L140.721 48.3441ZM140.426 45.7936L139.835 44.9873L139.832 44.9894L140.426 45.7936ZM139.874 46.1764L139.329 45.3384L139.327 45.3393L139.874 46.1764ZM139.524 46.3909L138.592 46.0273L137.531 48.7458L140.036 47.2495L139.524 46.3909ZM140.111 44.8485L141.049 45.1963L141.049 45.1955L140.111 44.8485ZM140.517 43.6722L140.418 42.6771L139.707 42.7477L139.544 43.4433L140.517 43.6722ZM141.213 43.5948L142.208 43.6964L142.335 42.4522L141.093 42.602L141.213 43.5948ZM141.011 45.5392L140.959 46.5378L141.908 46.5872L142.006 45.642L141.011 45.5392ZM139.388 43.7615L140.312 44.1441L140.922 42.6696L139.329 42.7632L139.388 43.7615ZM139.118 44.4394L138.192 44.0634L138.191 44.0648L139.118 44.4394ZM138.46 46.115L139.395 46.4701L139.395 46.4696L138.46 46.115ZM137.823 47.7986L136.884 47.4558L136.884 47.4562L137.823 47.7986ZM137.518 48.6455L138.458 48.9851L138.459 48.9832L137.518 48.6455ZM137.295 49.6225L136.327 49.8727L136.354 49.9752L136.401 50.0698L137.295 49.6225ZM137.346 49.7246L137.768 50.6314L138.701 50.1976L138.241 49.2773L137.346 49.7246ZM136.219 50.247L135.819 49.3306L135.818 49.3309L136.219 50.247ZM131.686 52.0047L132.006 52.952L132.007 52.9517L131.686 52.0047ZM130.681 52.3213L129.692 52.1766L129.46 53.7618L130.986 53.2738L130.681 52.3213ZM131.125 49.2955L132.114 49.441L132.114 49.4404L131.125 49.2955ZM131.587 46.0241L130.595 45.8973L130.595 45.8974L131.587 46.0241ZM131.832 43.2846L132.019 42.3021L130.697 42.0514L130.838 43.3893L131.832 43.2846ZM127.088 53.3446L127.325 54.316L127.326 54.3158L127.088 53.3446ZM124.714 53.8717L124.909 54.8526L124.909 54.8526L124.714 53.8717ZM123.408 54.0536L122.536 53.5643L121.701 55.0536H123.408V54.0536ZM127.116 48.2795L127.922 48.8725L127.922 48.8723L127.116 48.2795ZM129.5 45.2585L128.731 44.6191L128.731 44.6196L129.5 45.2585ZM130.693 43.9258L131.666 44.1564L132.556 40.3992L129.954 43.2519L130.693 43.9258ZM130.404 45.5615L129.419 45.3885L129.419 45.3888L130.404 45.5615ZM129.845 48.9797L128.857 48.8244L128.857 48.8248L129.845 48.9797ZM129.251 52.7648L129.528 53.7255L130.14 53.5489L130.239 52.9202L129.251 52.7648ZM147.587 71.9524L147.189 71.0353L147.188 71.0354L147.587 71.9524ZM142.593 72.7914L142.638 73.7904L142.638 73.7904L142.593 72.7914ZM137.091 72.466L136.926 73.4523L136.927 73.4523L137.091 72.466ZM129.284 67.2206L130.218 66.8625L130.218 66.8625L129.284 67.2206ZM129.323 61.5941L130.313 61.7393L130.313 61.7388L129.323 61.5941ZM130.166 55.8336L131.156 55.9783L131.156 55.9782L130.166 55.8336ZM130.413 54.1476L130.121 53.1912L129.515 53.3762L129.423 54.0031L130.413 54.1476ZM131.666 53.7649L131.353 52.8154L131.352 52.8154L131.666 53.7649ZM136.607 51.8723L136.208 50.9552L136.206 50.9562L136.607 51.8723ZM136.878 51.7463L137.793 52.1498L138.83 49.7983L136.477 50.8305L136.878 51.7463ZM136.515 52.6371L135.589 52.258L135.589 52.2597L136.515 52.6371ZM136.274 54.9707L135.454 55.5431L135.454 55.5436L136.274 54.9707ZM137.928 56.8505L137.191 57.5268L137.191 57.5269L137.928 56.8505ZM139.734 58.1337L140.729 58.2339L140.832 57.2137L139.809 57.1365L139.734 58.1337ZM139.314 62.3127L138.319 62.2125L138.319 62.2126L139.314 62.3127ZM140.356 63.3303L140.424 64.328L140.425 64.328L140.356 63.3303ZM150.616 62.3765L151.49 62.8622L152.437 61.1588L150.501 61.3832L150.616 62.3765ZM150.517 62.8957L151.511 62.792L151.511 62.79L150.517 62.8957ZM161.656 45.6644L160.66 45.5762L160.659 45.577L161.656 45.6644ZM161.47 47.8472L161.971 48.7127L162.421 48.452L162.466 47.9335L161.47 47.8472ZM160.207 48.3217L160.336 49.3135L160.34 49.3129L160.207 48.3217ZM160.002 48.3393L159.963 49.3385L160.012 49.3404L160.06 49.3376L160.002 48.3393ZM159.841 48.3329L159.756 49.3293L159.779 49.3312L159.802 49.3321L159.841 48.3329ZM159.592 48.2994L159.383 49.2774L159.397 49.2803L159.41 49.2828L159.592 48.2994ZM159.483 48.2763L159.143 49.2166L159.207 49.24L159.274 49.2543L159.483 48.2763ZM159.446 48.2627L159.089 49.1971L159.097 49.2001L159.106 49.2031L159.446 48.2627ZM159.216 48.171L158.773 49.0673L158.792 49.0769L158.812 49.0856L159.216 48.171ZM159.14 48.1335L158.617 48.986L158.656 49.0097L158.697 49.0298L159.14 48.1335ZM159.116 48.1184L158.52 48.9215L158.555 48.9477L158.593 48.9708L159.116 48.1184ZM158.898 47.9493L159.565 47.2047L158.229 48.6923L158.898 47.9493ZM158.808 47.8321L157.976 48.3864L158.007 48.4332L158.044 48.4762L158.808 47.8321ZM158.791 47.8057L157.897 48.253L157.924 48.3085L157.959 48.3601L158.791 47.8057ZM158.748 47.7196L157.835 48.1278L157.844 48.1475L157.853 48.1668L158.748 47.7196ZM158.678 47.5202L159.655 47.3107L159.655 47.3099L158.678 47.5202ZM158.614 46.8894L157.614 46.9013L157.614 46.9034L158.614 46.8894ZM158.73 45.7418L159.674 46.0691L159.675 46.0681L158.73 45.7418ZM158.926 45.3286L159.741 45.9081L159.742 45.9069L158.926 45.3286ZM159.119 45.0934L159.838 45.7885L158.403 44.3952L159.119 45.0934ZM159.265 44.9745L158.67 44.1712L158.664 44.1759L158.657 44.1807L159.265 44.9745ZM159.358 44.906L158.795 44.0796L158.778 44.0908L158.762 44.1026L159.358 44.906ZM159.448 44.8446L158.979 43.9616L158.93 43.9873L158.885 44.0181L159.448 44.8446ZM159.625 44.7504L159.192 43.849L159.174 43.8579L159.156 43.8675L159.625 44.7504ZM159.876 44.6444L159.541 43.702L159.533 43.7048L159.876 44.6444ZM159.986 44.6053L159.659 43.6599L159.651 43.663L159.986 44.6053ZM160.029 44.5901L159.868 43.6032L159.784 43.617L159.703 43.6448L160.029 44.5901ZM160.064 44.5845L160.225 45.5715L160.253 45.5669L160.281 45.5607L160.064 44.5845ZM161.743 44.6635L162.739 44.754L162.817 43.8964L161.981 43.6921L161.743 44.6635ZM162.248 38.7985L161.252 38.7151L161.252 38.7154L162.248 38.7985ZM161.86 43.3021L161.485 44.2291L162.739 44.7366L162.856 43.3889L161.86 43.3021ZM161.826 43.2886L162.201 42.3616L162.183 42.3542L162.164 42.3474L161.826 43.2886ZM160.04 43.098L159.919 42.1053L159.918 42.1054L160.04 43.098ZM157.462 44.8398L158.35 45.2996L158.35 45.2994L157.462 44.8398ZM157.1 46.5289L156.101 46.5038L156.101 46.5039L157.1 46.5289ZM157.335 48.3257L158.251 47.9239L158.251 47.9236L157.335 48.3257ZM159.797 49.8801L159.835 48.8809L159.835 48.8809L159.797 49.8801ZM161.319 49.6217L162.315 49.7069L162.449 48.1475L160.978 48.6818L161.319 49.6217ZM161.071 52.5311L162.068 52.6109L162.068 52.6105L161.071 52.5311ZM160.581 58.7095L161.393 59.292L161.568 59.0486L161.58 58.7493L160.581 58.7095ZM160.482 58.8475L161.271 59.4612L161.283 59.4458L161.294 59.43L160.482 58.8475ZM160.469 58.8666L161.303 59.4189L159.956 58.0084L160.469 58.8666ZM160.428 58.928L159.579 58.4001L161.262 59.4803L160.428 58.928ZM160.383 58.9129L160.764 59.8372L160.81 59.8183L160.854 59.795L160.383 58.9129ZM160.022 59.0819L160.314 60.0385L160.315 60.0382L160.022 59.0819ZM158.887 59.267L159.045 60.2545L159.046 60.2543L158.887 59.267ZM156.15 59.6992L155.998 58.7108L155.997 58.7109L156.15 59.6992ZM150.81 60.4313L150.688 59.4388L150.688 59.4388L150.81 60.4313ZM141.234 61.4139L140.238 61.3224L140.129 62.5118L141.319 62.4103L141.234 61.4139ZM142.313 49.6919L143.011 48.975L141.509 47.5151L141.318 49.6002L142.313 49.6919ZM146.137 51.9983L146.283 51.009L146.283 51.009L146.137 51.9983ZM150.384 50.0205L149.547 49.4731L149.547 49.474L150.384 50.0205ZM150.879 47.6335L151.848 47.3879L151.848 47.3876L150.879 47.6335ZM149.68 45.5942L148.956 46.2843L148.956 46.2844L149.68 45.5942ZM147.566 44.4833L147.475 45.4792L147.475 45.4792L147.566 44.4833ZM145.082 44.9291L145.44 45.8628L145.441 45.8626L145.082 44.9291ZM142.773 46.2386L142.159 45.449L142.159 45.4493L142.773 46.2386ZM142.612 46.3798L141.616 46.2897L141.397 48.7071L143.255 47.1453L142.612 46.3798ZM143.022 41.7757L142.025 41.6912L142.025 41.6913L143.022 41.7757ZM143.434 36.1874L143.283 35.1989L142.434 35.3285L142.434 36.187L143.434 36.1874ZM152.983 34.2941L152.809 33.3094L152.809 33.3094L152.983 34.2941ZM162.519 32.8458L163.519 32.8073L163.477 31.7184L162.395 31.8535L162.519 32.8458ZM142.754 48.053L142.09 47.3052L140.452 48.7588L142.623 49.0444L142.754 48.053ZM144.768 46.6374L145.22 47.5294L145.22 47.5293L144.768 46.6374ZM148.092 46.1453L147.581 47.0046L147.581 47.0048L148.092 46.1453ZM149.33 48.9342L150.22 49.3904L150.22 49.3903L149.33 48.9342ZM146.469 50.4073L146.612 49.4175L146.612 49.4174L146.469 50.4073ZM143.299 48.3369L144.005 47.6288L144.005 47.6282L143.299 48.3369ZM136.411 24.0825L137.409 24.0273L137.404 23.9409L137.385 23.8567L136.411 24.0825ZM136.463 24.6847L135.472 24.8116L135.472 24.8122L136.463 24.6847ZM136.818 25.5332L137.572 24.877L137.572 24.8767L136.818 25.5332ZM137.97 25.885L138.265 26.8403L138.267 26.8398L137.97 25.885ZM138.871 25.0189L137.93 24.6802L137.93 24.682L138.871 25.0189ZM138.965 24.1815L137.975 24.0407L137.963 24.1234L137.966 24.2069L138.965 24.1815ZM139.003 23.6822L138.003 23.6607L138.003 23.6623L139.003 23.6822ZM138.63 21.8479L137.769 22.3557L137.769 22.3566L138.63 21.8479ZM137.703 21.1876L137.818 20.1942L137.818 20.1942L137.703 21.1876ZM136.694 21.7035L135.851 21.1651L135.825 21.2064L135.803 21.2501L136.694 21.7035ZM136.648 21.7945L137.418 22.4325L137.489 22.3469L137.539 22.2479L136.648 21.7945ZM136.425 22.1701L137.358 22.5294L137.359 22.5265L136.425 22.1701ZM136.29 23.2141L137.289 23.1813L137.289 23.1789L136.29 23.2141ZM154.854 22.8072L155.852 22.752L155.847 22.6656L155.828 22.5814L154.854 22.8072ZM154.906 23.4086L153.914 23.536L153.914 23.5361L154.906 23.4086ZM155.26 24.2579L154.506 24.9144L154.507 24.9152L155.26 24.2579ZM156.413 24.6096L156.708 25.5651L156.71 25.5645L156.413 24.6096ZM157.315 23.7435L156.374 23.4049L156.373 23.4066L157.315 23.7435ZM157.409 22.9053L156.419 22.7639L156.407 22.8469L156.409 22.9307L157.409 22.9053ZM157.446 22.4061L156.447 22.3846L156.446 22.3862L157.446 22.4061ZM157.075 20.5718L157.937 20.0647L157.936 20.064L157.075 20.5718ZM156.147 19.9114L156.262 18.9181L156.262 18.9181L156.147 19.9114ZM155.138 20.4274L154.296 19.889L154.269 19.9303L154.247 19.9739L155.138 20.4274ZM155.092 20.5183L155.862 21.1564L155.933 21.0708L155.983 20.9719L155.092 20.5183ZM154.869 20.894L155.803 21.2533L155.804 21.2504L154.869 20.894ZM154.734 21.9379L155.734 21.9107L155.733 21.9028L154.734 21.9379ZM144.552 30.2316L144.979 29.3273L144.979 29.3273L144.552 30.2316ZM147.221 30.636L147.326 31.6305L147.326 31.6305L147.221 30.636ZM149.391 29.8807L148.852 29.0383L148.851 29.0385L149.391 29.8807ZM151.094 27.9922L152.038 28.3211L152.038 28.321L151.094 27.9922ZM149.722 27.3254L148.927 26.7181L148.927 26.7181L149.722 27.3254ZM148.579 28.5473L148.05 27.6988L148.05 27.699L148.579 28.5473ZM146.889 29.1223L146.798 28.1265L146.798 28.1265L146.889 29.1223ZM144.945 28.9668L145.134 27.9848L145.133 27.9846L144.945 28.9668ZM143.937 28.6653L143.562 29.5923L143.562 29.5923L143.937 28.6653ZM142.911 28.4021L142.85 27.404L142.849 27.404L142.911 28.4021ZM142.664 28.6924L143.625 28.4138L143.624 28.4128L142.664 28.6924ZM164.136 30.6329C163.932 30.1519 163.474 29.7601 162.821 29.7332L162.739 31.7315C162.679 31.729 162.576 31.7069 162.473 31.6318C162.374 31.5599 162.32 31.4736 162.295 31.414L164.136 30.6329ZM162.821 29.7332C162.502 29.7203 162.183 29.722 161.902 29.7212L161.896 31.7212C162.201 31.722 162.469 31.7206 162.74 31.7315L162.821 29.7332ZM162.772 31.2087C164.664 27.8206 165.63 24.0088 165.355 20.0325L163.36 20.1702C163.605 23.7257 162.745 27.1539 161.026 30.2337L162.772 31.2087ZM165.355 20.0324C164.474 7.28104 151.433 -1.94484 136.622 -0.922054L136.76 1.07319C150.822 0.10217 162.577 8.84287 163.36 20.1703L165.355 20.0324ZM136.622 -0.922046C121.825 0.10157 110.165 11.0364 111.046 23.7879L113.042 23.65C112.258 12.3227 122.712 2.04497 136.76 1.07319L136.622 -0.922046ZM111.046 23.788C111.711 33.3998 119.331 41.0241 129.334 43.7361L129.858 41.8058C120.458 39.2574 113.634 32.2057 113.042 23.6499L111.046 23.788ZM128.868 42.0852C128.416 42.5647 127.965 43.0937 127.581 43.5235L129.071 44.8577C129.505 44.3719 129.892 43.9152 130.324 43.4567L128.868 42.0852ZM127.581 43.5234C126.639 44.5748 125.76 45.6746 124.924 46.7922L126.526 47.9899C127.336 46.9063 128.178 45.8544 129.07 44.8577L127.581 43.5234ZM124.924 46.7921C123.255 49.0234 121.769 51.3764 120.456 53.8278L122.219 54.7721C123.487 52.4049 124.92 50.1371 126.526 47.99L124.924 46.7921ZM120.456 53.8285C120.158 54.3863 120.24 54.9609 120.442 55.3788C120.637 55.78 120.968 56.1081 121.345 56.2999L122.252 54.5172C122.26 54.5213 122.256 54.5204 122.248 54.512C122.239 54.5037 122.239 54.4998 122.242 54.5067C122.245 54.5139 122.259 54.5444 122.26 54.5967C122.262 54.6543 122.248 54.7174 122.22 54.7714L120.456 53.8285ZM121.346 56.3002C122.319 56.7945 123.352 56.8164 124.257 56.7066C125.137 56.5999 126.055 56.3413 126.725 56.1868L126.276 54.2379C125.466 54.4248 124.756 54.6315 124.016 54.7212C123.302 54.8078 122.725 54.7572 122.251 54.5169L121.346 56.3002ZM126.726 56.1868C127.569 55.9923 128.404 55.7764 129.233 55.5468L128.699 53.6194C127.893 53.8428 127.085 54.0512 126.276 54.2379L126.726 56.1868ZM127.978 54.4278C127.954 54.5831 127.929 54.7382 127.905 54.8926C127.881 55.0472 127.857 55.2012 127.833 55.3553L129.809 55.6659C129.833 55.5106 129.857 55.3556 129.881 55.2011C129.906 55.0465 129.93 54.8925 129.954 54.7384L127.978 54.4278ZM127.833 55.3557L126.784 62.0413L128.76 62.3512L129.809 55.6656L127.833 55.3557ZM126.784 62.0413C126.478 63.9901 126.123 66.2165 127.008 68.4329L128.865 67.6913C128.214 66.0603 128.442 64.3772 128.76 62.3513L126.784 62.0413ZM127.008 68.433C127.59 69.8915 128.506 71.0787 129.607 72.0279L130.912 70.5131C130.025 69.7476 129.315 68.8166 128.865 67.6912L127.008 68.433ZM129.337 70.8858C128.631 72.5795 128.323 74.5423 127.972 76.1116L129.923 76.5483C130.317 74.7888 130.566 73.134 131.183 71.6552L129.337 70.8858ZM127.972 76.1115C127.554 77.9754 127.16 79.8441 126.79 81.7177L128.751 82.106C129.119 80.2487 129.51 78.3962 129.923 76.5485L127.972 76.1115ZM126.79 81.7175C126.428 83.5412 126.091 85.3687 125.776 87.1999L127.747 87.5387C128.059 85.7236 128.393 83.9128 128.751 82.1062L126.79 81.7175ZM125.776 87.2001C125.61 88.1658 125.45 89.1337 125.297 90.1036L127.272 90.4154C127.424 89.4554 127.583 88.4964 127.747 87.5385L125.776 87.2001ZM125.297 90.1039C125.156 91.0012 125.108 91.6816 124.949 92.4584L126.909 92.8586C127.072 92.0579 127.167 91.0874 127.273 90.4151L125.297 90.1039ZM126.116 91.6761C124.451 91.3598 122.521 91.2586 120.793 91.712L121.301 93.6464C122.637 93.2959 124.242 93.3559 125.742 93.6409L126.116 91.6761ZM120.793 91.712C120.055 91.9059 119.087 92.4055 118.423 93.1135C118.085 93.4739 117.765 93.9522 117.659 94.5349C117.545 95.1549 117.694 95.7809 118.104 96.341L119.717 95.1583C119.608 95.0098 119.618 94.936 119.626 94.8952C119.64 94.8172 119.701 94.674 119.881 94.4822C120.253 94.0858 120.874 93.7588 121.301 93.6464L120.793 91.712ZM118.105 96.3412C118.787 97.271 119.895 97.7086 120.883 97.8877C121.891 98.0704 122.965 98.0215 123.802 97.8037L123.299 95.868C122.753 96.0099 121.973 96.0528 121.24 95.9198C120.486 95.7833 119.966 95.498 119.717 95.1581L118.105 96.3412ZM123.802 97.8038C125.552 97.3493 126.94 96.1714 127.772 94.652L126.019 93.6907C125.426 94.7728 124.467 95.5648 123.299 95.868L123.802 97.8038ZM127.429 95.0172C127.797 94.7851 128.233 94.3167 128.235 93.6399L126.235 93.6326C126.236 93.5142 126.276 93.4292 126.305 93.3859C126.332 93.3453 126.355 93.3298 126.362 93.3255L127.429 95.0172ZM128.235 93.6379C128.238 91.8817 128.691 90.1045 129.01 88.1509L127.036 87.8286C126.756 89.5484 126.239 91.6647 126.235 93.6345L128.235 93.6379ZM129.01 88.1509C129.315 86.2832 129.643 84.4183 129.992 82.5578L128.026 82.1894C127.675 84.0645 127.344 85.9448 127.036 87.8286L129.01 88.1509ZM129.992 82.5582C130.332 80.7484 130.693 78.9434 131.076 77.1424L129.119 76.7266C128.733 78.5431 128.369 80.3637 128.026 82.189L129.992 82.5582ZM131.076 77.1427C131.393 75.6506 131.956 73.7956 132.156 72.0738L130.17 71.8421C129.981 73.4571 129.494 74.9661 129.12 76.7263L131.076 77.1427ZM130.6 72.7844C132.274 73.9244 134.24 74.6321 136.162 75.011L136.548 73.0488C134.822 72.7083 133.125 72.0841 131.726 71.1315L130.6 72.7844ZM136.161 75.011C138.234 75.4205 140.345 75.5333 142.413 75.4818L142.363 73.4824C140.398 73.5314 138.44 73.4225 136.549 73.0489L136.161 75.011ZM142.413 75.4818C144.328 75.4339 146.55 75.3027 148.527 74.4965L147.772 72.6445C146.166 73.2994 144.274 73.4346 142.363 73.4824L142.413 75.4818ZM148.527 74.4968C148.759 74.4022 148.971 74.293 149.146 74.2015L148.219 72.4292C148.046 72.5195 147.909 72.589 147.773 72.6443L148.527 74.4968ZM147.687 73.4079C147.837 75.0288 148.184 76.6537 148.465 78.1519L150.431 77.7827C150.136 76.2152 149.818 74.7234 149.678 73.2227L147.687 73.4079ZM148.465 78.152C148.822 80.0486 149.178 81.9441 149.534 83.8404L151.499 83.4717C151.144 81.5749 150.787 79.6789 150.431 77.7825L148.465 78.152ZM149.534 83.8406C150.233 87.5603 150.922 91.34 151.624 95.0672L153.59 94.6967C152.882 90.9431 152.206 87.2325 151.499 83.4714L149.534 83.8406ZM151.624 95.0659C151.671 95.3178 151.778 95.5853 151.945 95.8196C152.109 96.0509 152.391 96.3268 152.813 96.4377L153.321 94.5033C153.492 94.5481 153.565 94.6469 153.573 94.6591C153.581 94.6704 153.584 94.6766 153.584 94.6777C153.585 94.6787 153.587 94.6843 153.59 94.6981L151.624 95.0659ZM152.813 96.4377C154.818 96.9649 156.859 96.9856 158.885 96.3699L158.304 94.4563C156.666 94.954 155.004 94.9459 153.321 94.5034L152.813 96.4377ZM158.885 96.37C159.666 96.1329 160.716 95.7376 161.582 95.1088C162.451 94.4781 163.283 93.4931 163.234 92.0957L161.235 92.1653C161.251 92.6253 161.004 93.0568 160.407 93.4905C159.807 93.9262 159.005 94.2435 158.304 94.4562L158.885 96.37ZM163.234 92.0957C163.21 91.3966 162.99 90.7891 162.567 90.3189C162.154 89.8611 161.625 89.6178 161.125 89.4916C160.159 89.2479 159.064 89.3824 158.325 89.5185L158.687 91.4854C159.377 91.3583 160.112 91.2986 160.635 91.4308C160.88 91.4925 161.01 91.5796 161.08 91.6574C161.139 91.7227 161.224 91.8559 161.235 92.1653L163.234 92.0957ZM158.325 89.5184C156.449 89.8635 154.698 90.5866 153.114 91.599L154.191 93.2841C155.574 92.3999 157.085 91.7801 158.687 91.4855L158.325 89.5184ZM154.633 92.2426C154.014 89.1954 153.39 86.1559 152.777 83.1116L150.816 83.5065C151.43 86.5522 152.055 89.5994 152.672 92.6405L154.633 92.2426ZM152.777 83.1117C152.592 82.1908 152.406 81.2701 152.22 80.3496C152.035 79.429 151.849 78.5086 151.664 77.588L149.703 77.9829C149.888 78.9038 150.074 79.8244 150.26 80.7449C150.445 81.6655 150.631 82.5859 150.816 83.5065L152.777 83.1117ZM151.664 77.5881C151.335 75.9569 151.022 74.1709 150.478 72.477L148.574 73.0882C149.074 74.645 149.36 76.2788 149.703 77.9828L151.664 77.5881ZM150.127 73.5819C151.409 72.6185 152.33 71.2691 152.84 69.7529L150.945 69.1147C150.551 70.2845 149.854 71.2847 148.925 71.9833L150.127 73.5819ZM152.84 69.7532C153.658 67.3251 153.434 64.7919 153.259 62.5606L151.265 62.7172C151.447 65.0333 151.61 67.1418 150.945 69.1144L152.84 69.7532ZM153.259 62.5602C153.229 62.1825 153.095 61.8542 152.887 61.5875L151.31 62.8177C151.297 62.8012 151.284 62.7803 151.275 62.7573C151.266 62.7343 151.265 62.7192 151.265 62.7176L153.259 62.5602ZM152.221 63.1951C152.303 63.185 152.385 63.1755 152.473 63.1655C152.559 63.1556 152.651 63.1451 152.743 63.1336L152.498 61.1488C152.416 61.1589 152.334 61.1684 152.246 61.1784C152.159 61.1883 152.068 61.1988 151.975 61.2102L152.221 63.1951ZM152.744 63.1335C154.729 62.8857 156.728 62.6355 158.72 62.3409L158.428 60.3624C156.461 60.6532 154.484 60.9007 152.497 61.1489L152.744 63.1335ZM158.72 62.341C159.09 62.2864 159.783 62.2103 160.429 62.0621C161.051 61.9194 161.867 61.6638 162.432 61.1078L161.028 59.6831C160.886 59.8226 160.549 59.9825 159.982 60.1128C159.439 60.2374 158.906 60.2918 158.428 60.3624L158.72 62.341ZM161.945 61.372C162.672 61.2116 163.255 60.632 163.376 59.7714L161.396 59.493C161.392 59.5178 161.388 59.5236 161.392 59.5165C161.395 59.509 161.403 59.4941 161.419 59.4769C161.453 59.44 161.492 59.4238 161.514 59.4189L161.945 61.372ZM163.376 59.772C163.709 57.4173 163.793 54.9559 163.976 52.6893L161.982 52.5291C161.789 54.9265 161.718 57.2135 161.396 59.4925L163.376 59.772ZM163.976 52.6889C164.084 51.3281 164.181 49.9662 164.281 48.6119L162.286 48.4654C162.186 49.8259 162.09 51.1772 161.982 52.5295L163.976 52.6889ZM163.843 49.3672L163.93 49.309L162.81 47.652L162.723 47.7102L163.843 49.3672ZM163.934 49.3058C164.398 48.9882 164.612 48.4986 164.657 48.061C164.702 47.6289 164.596 47.1469 164.292 46.7594L162.718 47.9924C162.689 47.9555 162.677 47.924 162.672 47.9058C162.667 47.8876 162.666 47.8714 162.668 47.8551C162.671 47.8299 162.691 47.7327 162.805 47.6551L163.934 49.3058ZM164.155 46.6159L164.028 46.5075L162.728 48.0274L162.855 48.1358L164.155 46.6159ZM164.376 47.3395C164.396 47.06 164.417 46.7802 164.438 46.4983C164.46 46.2169 164.481 45.9334 164.502 45.6494L162.507 45.5055C162.487 45.7854 162.466 46.0653 162.444 46.3472C162.423 46.6285 162.401 46.9118 162.381 47.1954L164.376 47.3395ZM164.502 45.6496C164.668 43.3582 164.836 41.0677 165.011 38.7784L163.017 38.6257C162.841 40.919 162.673 43.2126 162.507 45.5053L164.502 45.6496ZM165.011 38.7786C165.188 36.475 165.37 34.0817 165.172 31.6701L163.179 31.8331C163.361 34.0615 163.196 36.2987 163.017 38.6254L165.011 38.7786ZM165.172 31.6683C165.124 31.0887 164.797 30.6479 164.424 30.3817C164.058 30.121 163.589 29.9814 163.117 30.0284L163.315 32.0186C163.291 32.0209 163.278 32.0177 163.276 32.017C163.273 32.0163 163.27 32.0151 163.263 32.0105C163.252 32.0023 163.189 31.9472 163.179 31.8349L165.172 31.6683ZM123.144 94.3461C122.773 94.4785 122.354 94.5205 121.933 94.4723L121.705 96.4592C122.398 96.5386 123.128 96.4754 123.816 96.2297L123.144 94.3461ZM121.934 94.4723C121.936 94.4726 121.93 94.4719 121.915 94.4697C121.901 94.4676 121.882 94.4648 121.859 94.461C121.812 94.4535 121.752 94.4431 121.683 94.4301C121.544 94.4037 121.378 94.3686 121.223 94.3276C121.057 94.2842 120.944 94.2447 120.887 94.2184C120.856 94.204 120.885 94.2131 120.937 94.2561C120.971 94.2841 121.169 94.4515 121.216 94.7769L119.236 95.0604C119.293 95.4595 119.543 95.6987 119.661 95.7959C119.796 95.9081 119.94 95.9837 120.046 96.0328C120.263 96.1333 120.51 96.2082 120.714 96.2619C121.129 96.3709 121.563 96.4428 121.705 96.4592L121.934 94.4723ZM121.216 94.7761C121.241 94.9487 121.206 95.0952 121.165 95.1956C121.126 95.2893 121.079 95.3461 121.06 95.3676C121.027 95.4048 121.02 95.4001 121.079 95.3639C121.187 95.2966 121.336 95.2325 121.421 95.1991L120.693 93.3366C120.576 93.3822 120.289 93.4995 120.022 93.6659C119.892 93.7465 119.713 93.8717 119.56 94.0456C119.419 94.2053 119.165 94.5644 119.236 95.0612L121.216 94.7761ZM121.418 95.2002C121.734 95.0777 122.117 95.0282 122.603 94.9971L122.475 93.0012C121.964 93.0339 121.317 93.0943 120.695 93.3355L121.418 95.2002ZM122.602 94.9971C123.387 94.9474 124.187 94.9997 125.016 95.1017L125.26 93.1167C124.364 93.0065 123.43 92.9407 122.476 93.0011L122.602 94.9971ZM124.365 93.4747C124.037 93.8737 123.623 94.1751 123.144 94.3461L123.816 96.2297C124.659 95.9286 125.369 95.4038 125.911 94.7436L124.365 93.4747ZM154.775 94.7608C155.735 94.0643 156.78 93.5249 157.899 93.1667L157.29 91.2618C155.957 91.6883 154.723 92.3278 153.601 93.1417L154.775 94.7608ZM157.9 93.1664C158.086 93.1068 158.974 92.8652 159.685 92.7962C159.858 92.7794 159.996 92.7754 160.097 92.781C160.213 92.7874 160.212 92.8032 160.153 92.7756C160.068 92.7361 159.844 92.5875 159.787 92.2748C159.742 92.0307 159.846 91.9056 159.797 91.9888L161.521 93.0027C161.668 92.7524 161.837 92.3638 161.754 91.9146C161.66 91.3968 161.296 91.1015 160.995 90.9618C160.72 90.834 160.429 90.7963 160.207 90.784C159.971 90.7709 159.724 90.783 159.492 90.8055C158.587 90.8933 157.551 91.1781 157.289 91.2621L157.9 93.1664ZM159.797 91.9887C159.69 92.1698 159.363 92.429 158.752 92.6805C158.187 92.913 157.554 93.0693 157.089 93.1579L157.463 95.1226C158.002 95.0198 158.779 94.8324 159.514 94.5298C160.203 94.2461 161.064 93.7788 161.521 93.0029L159.797 91.9887ZM157.088 93.158C156.122 93.3421 155.155 93.3272 154.177 93.1439L153.809 95.1095C155.007 95.3345 156.228 95.3579 157.463 95.1226L157.088 93.158ZM154.974 93.9306L154.96 93.8628L152.999 94.255L153.012 94.3228L154.974 93.9306ZM154.321 94.9987C154.446 94.9532 154.609 94.8821 154.779 94.758L153.597 93.1446C153.612 93.1337 153.625 93.1259 153.635 93.1209C153.644 93.1164 153.647 93.1158 153.638 93.1191L154.321 94.9987ZM114.925 23.52C114.216 13.2448 123.866 3.85885 136.89 2.95855L136.752 0.963307C123.009 1.91326 112.12 11.9327 112.93 23.6579L114.925 23.52ZM136.89 2.95854C137.558 2.9123 138.22 2.88993 138.878 2.88993V0.889931C138.175 0.889931 137.466 0.913849 136.752 0.963312L136.89 2.95854ZM138.878 2.88993C151.016 2.88993 160.801 10.5545 161.475 20.3012L163.471 20.1631C162.702 9.04662 151.711 0.889931 138.878 0.889931V2.88993ZM161.475 20.3011C161.721 23.8504 160.734 27.2661 158.806 30.2778L160.491 31.356C162.624 28.0226 163.749 24.1856 163.471 20.1632L161.475 20.3011ZM159.563 29.8205C157.161 30.0257 154.807 30.5176 152.509 31.097L152.998 33.0363C155.248 32.4688 157.485 32.0053 159.733 31.8133L159.563 29.8205ZM152.509 31.0969C150.823 31.5217 149.276 31.9504 147.62 32.3581L148.097 34.3001C149.714 33.9023 151.416 33.4346 152.998 33.0364L152.509 31.0969ZM147.62 32.358C146.84 32.5496 146.048 32.6869 145.186 32.8565C144.346 33.022 143.464 33.2143 142.608 33.5088L143.259 35.4C143.979 35.1522 144.75 34.9809 145.573 34.8188C146.375 34.6608 147.257 34.5066 148.097 34.3002L147.62 32.358ZM143.087 33.4663C142.561 33.3845 141.664 33.5716 141.41 34.5049L143.341 35.0291C143.297 35.1913 143.177 35.326 143.038 35.3952C142.922 35.4531 142.828 35.45 142.78 35.4425L143.087 33.4663ZM141.41 34.5049C141.35 34.7285 141.298 34.9506 141.251 35.1558L143.2 35.6033C143.247 35.3986 143.291 35.2108 143.341 35.0292L141.41 34.5049ZM141.652 34.5602C140.929 35.0665 140.924 35.9277 141.197 36.4698L142.983 35.5701C143.017 35.637 143.041 35.733 143.02 35.8507C142.997 35.9824 142.919 36.1146 142.799 36.1989L141.652 34.5602ZM141.108 35.8293C140.752 37.6619 140.63 39.5859 140.443 41.3156L142.431 41.5307C142.631 39.6779 142.737 37.9333 143.072 36.2106L141.108 35.8293ZM140.443 41.316C140.433 41.4024 140.425 41.4872 140.417 41.5671L142.407 41.7641C142.415 41.6829 142.423 41.6067 142.431 41.5304L140.443 41.316ZM141.279 40.6745C140.686 40.7543 140.101 40.8215 139.511 40.8617L139.647 42.8571C140.297 42.8128 140.929 42.7396 141.545 42.6567L141.279 40.6745ZM139.51 40.8618C136.954 41.039 134.472 40.8663 132.127 40.4008L131.737 42.3626C134.254 42.8621 136.914 43.0466 139.649 42.857L139.51 40.8618ZM132.542 40.5892C132.182 40.3119 131.679 40.1657 131.148 40.3069L131.663 42.2396C131.603 42.2554 131.536 42.2572 131.47 42.2424C131.407 42.2283 131.358 42.2017 131.322 42.1742L132.542 40.5892ZM131.619 40.2962C122.323 38.2684 115.486 31.6237 114.925 23.5199L112.93 23.658C113.569 32.8876 121.287 40.0895 131.192 42.2503L131.619 40.2962ZM139.414 51.8254C139.156 51.9748 138.88 52.1043 138.561 52.2506L139.395 54.0685C139.712 53.9229 140.065 53.7589 140.414 53.5574L139.414 51.8254ZM138.562 52.2501C138.207 52.4125 137.864 52.5967 137.542 52.7851L138.551 54.5117C138.832 54.3476 139.114 54.1968 139.394 54.069L138.562 52.2501ZM137.541 52.7854C137.414 52.8602 137.311 52.9103 137.117 53.0159C136.952 53.106 136.745 53.2249 136.547 53.3779L137.772 54.9589C137.84 54.9061 137.934 54.8483 138.075 54.7716C138.187 54.7103 138.395 54.6033 138.552 54.5114L137.541 52.7854ZM138.13 53.9282C138.147 53.9961 138.151 54.0587 138.148 54.109C138.146 54.1326 138.144 54.1512 138.141 54.1635C138.139 54.1756 138.138 54.1826 138.137 54.183C138.137 54.1833 138.138 54.1792 138.142 54.1688C138.145 54.1583 138.15 54.1446 138.157 54.1249C138.164 54.1034 138.171 54.0846 138.181 54.0551C138.191 54.0282 138.202 53.9968 138.213 53.9627L136.317 53.3261C136.3 53.3753 136.29 53.4035 136.268 53.4677C136.25 53.5196 136.224 53.5938 136.203 53.6753C136.158 53.8459 136.114 54.1056 136.189 54.4086L138.13 53.9282ZM138.214 53.9593C138.318 53.6475 138.428 53.3393 138.547 53.036L136.684 52.3085C136.552 52.6464 136.429 52.9873 136.316 53.3296L138.214 53.9593ZM138.547 53.0348C138.634 52.8103 138.734 52.607 138.866 52.3094C138.986 52.0384 139.122 51.712 139.212 51.3585L137.274 50.866C137.227 51.0493 137.148 51.2496 137.038 51.4979C136.939 51.7194 136.793 52.0278 136.683 52.3097L138.547 53.0348ZM138.674 52.0146C138.822 51.9439 139.177 51.7863 139.386 51.6832L138.499 49.8906C138.246 50.0155 138.128 50.059 137.812 50.2099L138.674 52.0146ZM139.384 51.6838C139.793 51.4824 140.544 51.1752 141.119 50.7862L139.997 49.1303C139.573 49.4176 139.124 49.5825 138.5 49.89L139.384 51.6838ZM139.563 49.8583C139.479 50.6918 139.396 51.5247 139.311 52.3576L141.301 52.5594C141.385 51.7255 141.469 50.8916 141.553 50.0582L139.563 49.8583ZM139.836 51.576C139.708 51.644 139.435 51.8136 139.414 51.8255L140.415 53.5573C140.651 53.4208 140.638 53.4149 140.776 53.341L139.836 51.576ZM139.226 53.2077C139.164 53.8218 139.102 54.4359 139.04 55.05C138.978 55.6641 138.917 56.2782 138.855 56.8923L140.845 57.0926C140.907 56.4785 140.968 55.8644 141.03 55.2503C141.092 54.6362 141.154 54.0221 141.216 53.408L139.226 53.2077ZM140.31 56.1047C140.197 56.046 140.151 56.0123 140.097 55.9575L138.671 57.3606C138.921 57.6137 139.161 57.7618 139.389 57.8801L140.31 56.1047ZM140.096 55.9567C139.88 55.7377 139.708 55.5286 139.448 55.24L137.962 56.5787C138.152 56.7894 138.416 57.1019 138.672 57.3614L140.096 55.9567ZM139.448 55.2399C139.111 54.8655 138.752 54.4949 138.429 54.1519L136.973 55.5231C137.322 55.8931 137.644 56.226 137.963 56.5789L139.448 55.2399ZM138.08 55.7628C138.37 55.6441 138.697 55.4616 138.858 55.3806L137.959 53.5942C137.66 53.7445 137.519 53.8316 137.322 53.9122L138.08 55.7628ZM138.861 55.3793C139.227 55.1936 139.609 54.9729 139.965 54.7163L138.795 53.0941C138.545 53.2746 138.257 53.4431 137.956 53.5956L138.861 55.3793ZM139.966 54.7156C140.259 54.504 140.51 54.3172 140.776 54.1392L139.665 52.4765C139.358 52.6813 139.06 52.9029 138.794 53.0948L139.966 54.7156ZM140.489 47.3336C139.912 47.3727 139.409 47.5804 139.012 47.7774C138.812 47.8769 138.618 47.9846 138.45 48.0777C138.275 48.175 138.127 48.2568 137.984 48.327L138.865 50.1221C139.06 50.0264 139.252 49.9201 139.42 49.8269C139.596 49.7296 139.749 49.6444 139.902 49.5685C140.212 49.4148 140.436 49.3417 140.624 49.329L140.489 47.3336ZM138 48.3192L137.961 48.3375L138.81 50.1483L138.849 50.13L138 48.3192ZM139.318 49.6047L139.374 49.4587L137.51 48.7352L137.453 48.8811L139.318 49.6047ZM139.366 49.4794C139.488 49.1856 139.613 48.8844 139.736 48.5835L137.884 47.8287C137.764 48.1228 137.642 48.4149 137.518 48.7145L139.366 49.4794ZM139.735 48.585C139.864 48.2713 139.986 47.9522 140.103 47.6528L138.24 46.9251C138.118 47.2382 138.005 47.5332 137.884 47.8272L139.735 48.585ZM139.492 48.2362C139.644 48.1849 139.88 48.1058 140.11 47.9844L139.173 46.2171C139.108 46.2519 139.02 46.2846 138.851 46.3417L139.492 48.2362ZM140.107 47.9859C140.346 47.8601 140.577 47.7276 140.8 47.5946L139.774 45.8779C139.572 45.9985 139.374 46.1117 139.176 46.2155L140.107 47.9859ZM140.801 47.5941C141.009 47.469 141.214 47.3386 141.416 47.2019L140.293 45.5466C140.123 45.6618 139.95 45.7722 139.773 45.8785L140.801 47.5941ZM141.442 47.1833L141.518 47.1283L140.343 45.5101L140.267 45.5651L141.442 47.1833ZM139.936 46.218C139.869 46.873 139.792 47.5783 139.726 48.2442L141.716 48.4439C141.784 47.7588 141.855 47.1148 141.925 46.4203L139.936 46.218ZM140.897 47.3597C140.82 47.3459 140.668 47.321 140.486 47.3338L140.627 49.3288C140.59 49.3314 140.563 49.3298 140.549 49.3285C140.536 49.3273 140.531 49.3261 140.544 49.3284L140.897 47.3597ZM139.832 44.9894C139.668 45.1104 139.5 45.2268 139.329 45.3384L140.42 47.0144C140.623 46.882 140.824 46.7432 141.021 46.5979L139.832 44.9894ZM139.327 45.3393C139.227 45.4047 139.138 45.4562 139.011 45.5324L140.036 47.2495C140.138 47.1885 140.278 47.1076 140.422 47.0135L139.327 45.3393ZM140.455 46.7546C140.657 46.2373 140.855 45.7184 141.049 45.1963L139.174 44.5008C138.985 45.0107 138.79 45.519 138.592 46.0273L140.455 46.7546ZM141.049 45.1955C141.162 44.8898 141.377 44.3848 141.491 43.9011L139.544 43.4433C139.468 43.7667 139.339 44.0529 139.173 44.5016L141.049 45.1955ZM140.616 44.6673C140.858 44.6432 141.097 44.616 141.333 44.5876L141.093 42.602C140.866 42.6294 140.642 42.6549 140.418 42.6771L140.616 44.6673ZM140.218 43.4933C140.152 44.1419 140.084 44.7836 140.016 45.4364L142.006 45.642C142.072 44.998 142.141 44.3445 142.208 43.6964L140.218 43.4933ZM141.063 44.5406C140.72 44.5227 140.439 44.6284 140.252 44.7221C140.071 44.8137 139.917 44.9273 139.835 44.9873L141.018 46.5999C141.059 46.5696 141.088 46.5492 141.113 46.5324C141.138 46.516 141.15 46.5096 141.152 46.5084C141.154 46.5072 141.139 46.5156 141.107 46.5238C141.075 46.5324 141.023 46.5412 140.959 46.5378L141.063 44.5406ZM137.527 44.8205C138.166 44.8205 138.807 44.7973 139.447 44.7598L139.329 42.7632C138.72 42.7991 138.118 42.8205 137.527 42.8205V44.8205ZM138.464 43.379C138.379 43.5843 138.256 43.9044 138.192 44.0634L140.045 44.8154C140.159 44.5342 140.209 44.3933 140.312 44.1441L138.464 43.379ZM138.191 44.0648C137.964 44.6263 137.742 45.1906 137.525 45.7604L139.395 46.4696C139.605 45.9165 139.823 45.3659 140.046 44.814L138.191 44.0648ZM137.526 45.7599C137.317 46.3084 137.093 46.884 136.884 47.4558L138.763 48.1414C138.966 47.5855 139.178 47.043 139.395 46.4701L137.526 45.7599ZM136.884 47.4562C136.78 47.7412 136.678 48.0259 136.577 48.3079L138.459 48.9832C138.56 48.7005 138.661 48.4205 138.763 48.1409L136.884 47.4562ZM136.577 48.306C136.559 48.3577 136.537 48.409 136.498 48.5035C136.465 48.5861 136.419 48.699 136.38 48.8218C136.304 49.0611 136.216 49.4421 136.327 49.8727L138.263 49.3723C138.289 49.4727 138.257 49.5188 138.286 49.4289C138.299 49.3871 138.318 49.3369 138.35 49.2591C138.377 49.1932 138.422 49.0869 138.458 48.9851L136.577 48.306ZM136.401 50.0698L136.452 50.1718L138.241 49.2773L138.19 49.1753L136.401 50.0698ZM136.925 48.8178C136.524 49.004 136.185 49.1706 135.819 49.3306L136.62 51.1633C137.013 50.9916 137.417 50.7945 137.768 50.6314L136.925 48.8178ZM135.818 49.3309C134.36 49.9695 132.872 50.5461 131.364 51.0577L132.007 52.9517C133.569 52.4217 135.109 51.8244 136.62 51.1631L135.818 49.3309ZM131.365 51.0574C131.035 51.169 130.756 51.2477 130.377 51.3689L130.986 53.2738C131.276 53.1812 131.671 53.0653 132.006 52.952L131.365 51.0574ZM131.671 52.466C131.818 51.4572 131.966 50.4495 132.114 49.441L130.135 49.1501C129.987 50.1593 129.84 51.1677 129.692 52.1766L131.671 52.466ZM132.114 49.4404C132.273 48.3555 132.438 47.2548 132.579 46.1508L130.595 45.8974C130.457 46.9786 130.296 48.0567 130.135 49.1507L132.114 49.4404ZM132.579 46.1509C132.605 45.9443 132.638 45.7322 132.674 45.5012C132.71 45.2751 132.748 45.0313 132.78 44.7847C132.843 44.2937 132.886 43.7433 132.827 43.1798L130.838 43.3893C130.873 43.727 130.851 44.1002 130.796 44.5306C130.768 44.7447 130.735 44.961 130.699 45.1914C130.663 45.4169 130.625 45.6577 130.595 45.8973L132.579 46.1509ZM131.646 44.2671C133.539 44.6261 135.508 44.8205 137.527 44.8205V42.8205C135.636 42.8205 133.792 42.6385 132.019 42.3021L131.646 44.2671ZM126.851 52.3731C126.076 52.5622 125.299 52.7361 124.52 52.8909L124.909 54.8526C125.72 54.6915 126.525 54.5113 127.325 54.316L126.851 52.3731ZM124.52 52.8909C124.044 52.9852 123.718 53.0536 123.408 53.0536V55.0536C123.96 55.0536 124.509 54.9321 124.909 54.8526L124.52 52.8909ZM124.28 54.5428C125.382 52.5787 126.59 50.6799 127.922 48.8725L126.311 47.6864C124.926 49.5668 123.674 51.536 122.536 53.5643L124.28 54.5428ZM127.922 48.8723C128.667 47.8605 129.456 46.8769 130.27 45.8973L128.731 44.6196C127.905 45.6146 127.088 46.6312 126.311 47.6867L127.922 48.8723ZM130.269 45.8978C130.624 45.4713 131.01 45.0612 131.431 44.5997L129.954 43.2519C129.563 43.6804 129.125 44.146 128.731 44.6191L130.269 45.8978ZM129.72 43.6952C129.585 44.2645 129.501 44.9215 129.419 45.3885L131.389 45.7346C131.498 45.1121 131.547 44.6573 131.666 44.1564L129.72 43.6952ZM129.419 45.3888C129.218 46.5359 129.036 47.6837 128.857 48.8244L130.833 49.135C131.012 47.9932 131.191 46.8617 131.389 45.7342L129.419 45.3888ZM128.857 48.8248C128.659 50.0866 128.461 51.348 128.263 52.6093L130.239 52.9202C130.437 51.6582 130.635 50.3962 130.833 49.1346L128.857 48.8248ZM128.973 51.804C128.266 52.0082 127.559 52.1992 126.85 52.3733L127.326 54.3158C128.066 54.1342 128.799 53.936 129.528 53.7255L128.973 51.804ZM147.188 71.0354C145.853 71.6164 144.227 71.7176 142.549 71.7923L142.638 73.7904C144.256 73.7183 146.256 73.6218 147.986 72.8694L147.188 71.0354ZM142.549 71.7923C140.782 71.8707 138.995 71.7699 137.256 71.4796L136.927 73.4523C138.81 73.7666 140.737 73.8747 142.638 73.7904L142.549 71.7923ZM137.256 71.4797C134.195 70.968 131.251 69.5567 130.218 66.8625L128.351 67.5788C129.775 71.2919 133.652 72.9049 136.926 73.4523L137.256 71.4797ZM130.218 66.8625C129.943 66.1469 129.884 65.3612 129.941 64.4881C130 63.5904 130.169 62.719 130.313 61.7393L128.334 61.449C128.207 62.3123 128.011 63.353 127.945 64.3572C127.878 65.386 127.934 66.492 128.351 67.5788L130.218 66.8625ZM130.313 61.7388C130.453 60.7787 130.594 59.8188 130.734 58.8587C130.875 57.8987 131.015 56.9386 131.156 55.9783L129.177 55.689C129.036 56.6491 128.896 57.609 128.755 58.569C128.615 59.529 128.474 60.4891 128.334 61.4495L130.313 61.7388ZM131.156 55.9782C131.197 55.6971 131.238 55.4162 131.279 55.1353C131.32 54.8544 131.361 54.5734 131.402 54.2922L129.423 54.0031C129.382 54.2841 129.341 54.565 129.3 54.846C129.259 55.1269 129.218 55.4079 129.177 55.6891L131.156 55.9782ZM130.705 55.1041C131.091 54.986 131.553 54.8557 131.98 54.7143L131.352 52.8154C130.95 52.9484 130.57 53.0541 130.121 53.1912L130.705 55.1041ZM131.98 54.7143C133.684 54.1511 135.363 53.5083 137.008 52.7884L136.206 50.9562C134.618 51.6511 132.998 52.2716 131.353 52.8154L131.98 54.7143ZM137.006 52.7894C137.071 52.7611 137.132 52.7318 137.175 52.7112C137.223 52.6881 137.252 52.6741 137.28 52.6621L136.477 50.8305C136.413 50.8584 136.353 50.8875 136.311 50.9074C136.264 50.9299 136.235 50.9437 136.208 50.9552L137.006 52.7894ZM135.963 51.3429C135.824 51.6593 135.686 52.021 135.589 52.258L137.44 53.0163C137.571 52.6966 137.665 52.441 137.793 52.1498L135.963 51.3429ZM135.589 52.2597C135.468 52.5543 135.225 53.0801 135.114 53.5931C134.994 54.152 134.984 54.8701 135.454 55.5431L137.094 54.3983C137.055 54.3424 137.017 54.2585 137.069 54.0154C137.132 53.7263 137.263 53.4497 137.441 53.0146L135.589 52.2597ZM135.454 55.5436C135.977 56.2918 136.697 56.9885 137.191 57.5268L138.664 56.1741C138.047 55.5018 137.515 55.0006 137.093 54.3978L135.454 55.5436ZM137.191 57.5269C137.398 57.7522 137.726 58.1404 138.082 58.4401C138.462 58.7596 138.981 59.0797 139.659 59.1308L139.809 57.1365C139.705 57.1287 139.573 57.0806 139.37 56.9101C139.144 56.7197 138.96 56.4958 138.664 56.1741L137.191 57.5269ZM138.739 58.0334C138.669 58.7302 138.599 59.4268 138.529 60.1232C138.459 60.8197 138.389 61.516 138.319 62.2125L140.309 62.4129C140.379 61.7161 140.449 61.0196 140.519 60.3232C140.589 59.6267 140.659 58.9304 140.729 58.2339L138.739 58.0334ZM138.319 62.2126C138.184 63.5551 139.315 64.4037 140.424 64.328L140.288 62.3327C140.248 62.3354 140.249 62.3204 140.271 62.341C140.282 62.3517 140.294 62.3684 140.302 62.3892C140.31 62.411 140.308 62.4219 140.309 62.4128L138.319 62.2126ZM140.425 64.328C143.869 64.09 147.305 63.7671 150.731 63.3699L150.501 61.3832C147.103 61.7771 143.699 62.097 140.287 62.3327L140.425 64.328ZM149.742 61.8909C149.563 62.2138 149.479 62.5933 149.522 63.0014L151.511 62.79C151.511 62.7869 151.512 62.7961 151.508 62.8138C151.505 62.8313 151.498 62.8482 151.49 62.8622L149.742 61.8909ZM149.522 62.9994C149.686 64.5708 149.807 66.3197 149.502 67.8374C149.204 69.3204 148.533 70.4505 147.189 71.0353L147.986 72.8694C150.128 71.9381 151.086 70.1114 151.463 68.2309C151.833 66.385 151.675 64.3637 151.511 62.792L149.522 62.9994ZM160.659 45.577C160.596 46.2975 160.535 47.0485 160.474 47.7609L162.466 47.9335C162.53 47.1912 162.587 46.486 162.652 45.7518L160.659 45.577ZM160.969 46.9818C160.624 47.1814 160.339 47.2953 160.075 47.3306L160.34 49.3129C160.971 49.2286 161.517 48.9756 161.971 48.7127L160.969 46.9818ZM160.079 47.33C160.048 47.3341 160.008 47.3373 159.944 47.341L160.06 49.3376C160.134 49.3333 160.231 49.327 160.336 49.3135L160.079 47.33ZM160.042 47.3401L159.881 47.3337L159.802 49.3321L159.963 49.3385L160.042 47.3401ZM159.927 47.3366C159.874 47.3321 159.822 47.3251 159.773 47.316L159.41 49.2828C159.525 49.304 159.641 49.3194 159.756 49.3293L159.927 47.3366ZM159.8 47.3214L159.692 47.2983L159.274 49.2543L159.383 49.2774L159.8 47.3214ZM159.823 47.3359L159.786 47.3224L159.106 49.2031L159.143 49.2166L159.823 47.3359ZM159.802 47.3284C159.715 47.2953 159.667 47.277 159.62 47.2564L158.812 49.0856C158.917 49.132 159.021 49.1711 159.089 49.1971L159.802 47.3284ZM159.659 47.2747L159.584 47.2372L158.697 49.0298L158.773 49.0673L159.659 47.2747ZM159.663 47.2811L159.638 47.2659L158.593 48.9708L158.617 48.986L159.663 47.2811ZM159.711 47.3153C159.607 47.2377 159.59 47.2266 159.565 47.2047L158.23 48.6939C158.345 48.7965 158.476 48.889 158.52 48.9215L159.711 47.3153ZM158.229 48.6923C158.242 48.7048 158.281 48.7396 158.326 48.7735C158.34 48.7835 158.364 48.8012 158.395 48.8209C158.414 48.8329 158.491 48.8815 158.599 48.9196C158.65 48.9373 158.775 48.9777 158.94 48.9761C159.118 48.9745 159.442 48.9186 159.692 48.6252C159.925 48.3527 159.937 48.0551 159.931 47.9274C159.924 47.791 159.891 47.6878 159.875 47.6429C159.841 47.5482 159.801 47.4802 159.789 47.4608C159.772 47.4316 159.756 47.4089 159.747 47.396C159.729 47.37 159.713 47.3494 159.705 47.339C159.687 47.3166 159.67 47.2963 159.659 47.2837C159.635 47.2568 159.609 47.2274 159.592 47.2086C159.565 47.1786 159.567 47.1798 159.573 47.1879L158.044 48.4762C158.063 48.4995 158.095 48.5347 158.104 48.5442C158.122 48.565 158.136 48.5806 158.145 48.591C158.15 48.597 158.147 48.5934 158.14 48.5841C158.137 48.5803 158.125 48.5653 158.11 48.5438C158.102 48.5332 158.088 48.5125 158.072 48.485C158.061 48.4673 158.021 48.4007 157.988 48.3071C157.973 48.2626 157.939 48.1599 157.933 48.0238C157.927 47.8965 157.939 47.5992 158.171 47.3268C158.421 47.0337 158.745 46.9779 158.922 46.9762C159.087 46.9747 159.212 47.0149 159.262 47.0325C159.369 47.0702 159.444 47.1181 159.462 47.1289C159.491 47.1475 159.513 47.1635 159.524 47.1716C159.558 47.1975 159.579 47.2174 159.567 47.2063L158.229 48.6923ZM159.641 47.2777L159.623 47.2514L157.959 48.3601L157.976 48.3864L159.641 47.2777ZM159.685 47.3585L159.642 47.2724L157.853 48.1668L157.897 48.253L159.685 47.3585ZM159.661 47.3114C159.658 47.3047 159.655 47.2985 159.652 47.2928C159.65 47.287 159.648 47.2823 159.646 47.2776C159.641 47.2682 159.639 47.2626 159.637 47.2586C159.635 47.2548 159.636 47.2548 159.636 47.2571C159.638 47.2598 159.64 47.2653 159.643 47.2729C159.645 47.2806 159.648 47.289 159.651 47.2977C159.654 47.3062 159.656 47.3132 159.657 47.318C159.658 47.3226 159.659 47.3247 159.658 47.3234C159.658 47.3219 159.657 47.3181 159.655 47.3107L157.7 47.7298C157.713 47.7887 157.731 47.8679 157.764 47.9604C157.779 48.0015 157.794 48.0363 157.805 48.0607C157.814 48.0817 157.827 48.1101 157.835 48.1278L159.661 47.3114ZM159.655 47.3099C159.645 47.2623 159.634 47.1899 159.626 47.1019C159.618 47.0165 159.615 46.9348 159.614 46.8754L157.614 46.9034C157.617 47.109 157.638 47.4412 157.7 47.7306L159.655 47.3099ZM159.614 46.8775C159.612 46.733 159.616 46.5495 159.63 46.3782C159.637 46.293 159.646 46.2187 159.656 46.1587C159.666 46.0945 159.675 46.068 159.674 46.0691L157.785 45.4145C157.692 45.6815 157.655 45.9888 157.636 46.2159C157.616 46.4633 157.612 46.7108 157.614 46.9013L159.614 46.8775ZM159.675 46.0681C159.694 46.0117 159.706 45.9772 159.716 45.9518C159.725 45.9279 159.727 45.9228 159.726 45.9263C159.723 45.9324 159.719 45.939 159.717 45.9419C159.717 45.9423 159.719 45.9402 159.722 45.9346C159.726 45.9289 159.732 45.9205 159.741 45.9081L158.111 44.7492C158.045 44.841 157.977 44.9437 157.914 45.0795C157.861 45.1937 157.819 45.3142 157.784 45.4155L159.675 46.0681ZM159.742 45.9069C159.777 45.8564 159.81 45.817 159.838 45.7885L158.4 44.3982C158.287 44.5149 158.191 44.6366 158.11 44.7504L159.742 45.9069ZM158.403 44.3952C158.395 44.403 158.383 44.4155 158.37 44.4302C158.363 44.4375 158.352 44.4497 158.339 44.465C158.331 44.475 158.302 44.5102 158.27 44.5587C158.256 44.5799 158.219 44.637 158.185 44.7166C158.168 44.7566 158.14 44.8303 158.122 44.927C158.106 45.0144 158.082 45.2013 158.155 45.4221C158.242 45.684 158.434 45.9017 158.69 46.0186C158.906 46.1173 159.099 46.1131 159.19 46.1054C159.365 46.0906 159.492 46.0315 159.516 46.0206C159.596 45.9847 159.653 45.9457 159.662 45.9397C159.683 45.926 159.699 45.9143 159.707 45.908C159.749 45.8767 159.797 45.8354 159.805 45.8281C159.874 45.7695 159.884 45.7604 159.874 45.7684L158.657 44.1807C158.609 44.2174 158.515 44.3 158.503 44.3098C158.472 44.3367 158.486 44.3238 158.512 44.3042C158.519 44.2994 158.533 44.2888 158.552 44.2761C158.56 44.271 158.616 44.2326 158.695 44.1971C158.719 44.1864 158.846 44.1274 159.021 44.1126C159.112 44.1049 159.304 44.1006 159.521 44.1994C159.776 44.3163 159.968 44.5339 160.055 44.7957C160.128 45.0165 160.104 45.2032 160.088 45.2905C160.07 45.3872 160.042 45.4607 160.025 45.5005C159.991 45.5798 159.955 45.6365 159.941 45.6572C159.91 45.7048 159.881 45.7387 159.874 45.7471C159.863 45.7607 159.854 45.7709 159.849 45.7758C159.844 45.7813 159.841 45.7854 159.839 45.7875C159.836 45.7897 159.835 45.7912 159.835 45.7916L158.403 44.3952ZM159.861 45.7779L159.954 45.7093L158.762 44.1026L158.67 44.1712L159.861 45.7779ZM159.921 45.7324L160.011 45.671L158.885 44.0181L158.795 44.0796L159.921 45.7324ZM159.918 45.7275L160.095 45.6334L159.156 43.8675L158.979 43.9616L159.918 45.7275ZM160.058 45.6518C160.114 45.6252 160.167 45.6025 160.218 45.5839L159.533 43.7048C159.413 43.7485 159.299 43.7976 159.192 43.849L160.058 45.6518ZM160.21 45.5867L160.32 45.5476L159.651 43.663L159.541 43.702L160.21 45.5867ZM160.312 45.5506L160.356 45.5354L159.703 43.6448L159.659 43.66L160.312 45.5506ZM160.191 45.5771L160.225 45.5715L159.903 43.5976L159.868 43.6032L160.191 45.5771ZM160.281 45.5607C160.619 45.4853 161.017 45.5155 161.506 45.6349L161.981 43.6921C161.353 43.5387 160.612 43.4381 159.847 43.6084L160.281 45.5607ZM160.747 44.573C160.717 44.9059 160.688 45.2514 160.66 45.5762L162.652 45.7526C162.682 45.4106 162.709 45.0878 162.739 44.754L160.747 44.573ZM161.252 38.7154C161.127 40.2147 160.995 41.7129 160.864 43.2153L162.856 43.3889C162.987 41.8895 163.119 40.3858 163.245 38.8816L161.252 38.7154ZM162.235 42.3752L162.201 42.3616L161.451 44.2155L161.485 44.2291L162.235 42.3752ZM162.164 42.3474C161.441 42.0875 160.66 42.0153 159.919 42.1053L160.16 44.0907C160.615 44.0355 161.079 44.0829 161.488 44.2297L162.164 42.3474ZM159.918 42.1054C158.536 42.2751 157.245 43.0834 156.574 44.3801L158.35 45.2994C158.691 44.6422 159.373 44.1873 160.162 44.0905L159.918 42.1054ZM156.574 44.3799C156.205 45.0926 156.116 45.8738 156.101 46.5038L158.1 46.554C158.113 46.0404 158.187 45.6157 158.35 45.2996L156.574 44.3799ZM156.101 46.5039C156.086 47.0956 156.071 47.9342 156.42 48.7279L158.251 47.9236C158.104 47.588 158.084 47.1729 158.1 46.5539L156.101 46.5039ZM156.42 48.7276C157.023 50.1028 158.446 50.8289 159.758 50.8794L159.835 48.8809C159.117 48.8532 158.483 48.4531 158.251 47.9239L156.42 48.7276ZM159.758 50.8794C160.454 50.9062 161.088 50.7695 161.66 50.5616L160.978 48.6818C160.588 48.8232 160.216 48.8955 159.835 48.8809L159.758 50.8794ZM160.323 49.5365C160.24 50.4994 160.152 51.4775 160.074 52.4516L162.068 52.6105C162.145 51.6435 162.232 50.6836 162.315 49.7069L160.323 49.5365ZM160.074 52.4512C159.914 54.4495 159.664 56.5864 159.581 58.6696L161.58 58.7493C161.661 56.7142 161.899 54.7151 162.068 52.6109L160.074 52.4512ZM159.768 58.1269L159.669 58.2649L161.294 59.43L161.393 59.292L159.768 58.1269ZM159.692 58.2337L159.675 58.2552L161.254 59.4828L161.271 59.4612L159.692 58.2337ZM160.978 59.7272L160.982 59.7248L159.956 58.0084L159.952 58.0108L160.978 59.7272ZM159.635 58.3144L159.595 58.3758L161.262 59.4803L161.303 59.4189L159.635 58.3144ZM161.278 59.456L161.314 59.3969L159.616 58.3411L159.579 58.4001L161.278 59.456ZM159.994 57.9868L159.912 58.0307L160.854 59.795L160.936 59.7512L159.994 57.9868ZM160.001 57.9885C159.934 58.0163 159.877 58.0446 159.834 58.0668C159.8 58.0845 159.749 58.112 159.737 58.1181C159.692 58.1425 159.702 58.1342 159.73 58.1257L160.315 60.0382C160.478 59.9882 160.607 59.9209 160.677 59.8838C160.723 59.8592 160.729 59.8554 160.753 59.8431C160.768 59.8353 160.77 59.8349 160.764 59.8372L160.001 57.9885ZM159.731 58.1254C159.634 58.1548 159.509 58.178 159.329 58.2015C159.184 58.2205 158.928 58.2477 158.729 58.2796L159.046 60.2543C159.215 60.2272 159.348 60.2161 159.589 60.1845C159.797 60.1573 160.055 60.1175 160.314 60.0384L159.731 58.1254ZM158.73 58.2794C157.816 58.4249 156.907 58.571 155.998 58.7108L156.301 60.6876C157.218 60.5467 158.134 60.3993 159.045 60.2545L158.73 58.2794ZM155.997 58.7109C154.233 58.9825 152.464 59.2212 150.688 59.4388L150.932 61.4239C152.723 61.2044 154.513 60.963 156.302 60.6876L155.997 58.7109ZM150.688 59.4388C147.519 59.8277 144.337 60.1456 141.149 60.4175L141.319 62.4103C144.526 62.1367 147.733 61.8165 150.932 61.4239L150.688 59.4388ZM142.23 61.5054C142.589 57.5984 142.949 53.6909 143.309 49.7836L141.318 49.6002C140.958 53.507 140.597 57.4152 140.238 61.3224L142.23 61.5054ZM141.616 50.4088C142.692 51.4549 144.112 52.7116 145.992 52.9877L146.283 51.009C145.1 50.8353 144.088 50.0232 143.011 48.975L141.616 50.4088ZM145.992 52.9876C148.024 53.2873 150.136 52.2299 151.222 50.567L149.547 49.474C148.855 50.5338 147.486 51.1863 146.283 51.009L145.992 52.9876ZM151.221 50.5678C151.789 49.699 152.15 48.5812 151.848 47.3879L149.909 47.879C150.035 48.3733 149.911 48.9176 149.547 49.4731L151.221 50.5678ZM151.848 47.3876C151.599 46.405 151.025 45.555 150.404 44.9041L148.956 46.2844C149.42 46.7707 149.769 47.3275 149.909 47.8793L151.848 47.3876ZM150.404 44.9042C149.72 44.1868 148.809 43.5921 147.656 43.4874L147.475 45.4792C148.007 45.5275 148.497 45.8022 148.956 46.2843L150.404 44.9042ZM147.657 43.4874C146.584 43.3897 145.568 43.6714 144.724 43.9955L145.441 45.8626C146.171 45.5822 146.849 45.4221 147.475 45.4792L147.657 43.4874ZM144.724 43.9954C143.803 44.3489 142.931 44.8493 142.159 45.449L143.386 47.0282C144.01 46.5433 144.711 46.1425 145.44 45.8628L144.724 43.9954ZM142.159 45.4493C142.097 45.4974 142.046 45.5437 142.017 45.5699C141.981 45.6031 141.976 45.608 141.968 45.6143L143.255 47.1453C143.281 47.1233 143.304 47.103 143.322 47.0868C143.338 47.0727 143.357 47.0546 143.365 47.0473C143.389 47.0256 143.391 47.0245 143.387 47.028L142.159 45.4493ZM143.608 46.4698C143.746 44.9376 143.888 43.399 144.018 41.86L142.025 41.6913C141.895 43.2228 141.755 44.7531 141.616 46.2897L143.608 46.4698ZM144.018 41.8601C144.168 40.0846 144.433 38.1067 144.434 36.1879L142.434 36.187C142.433 37.9942 142.187 39.779 142.025 41.6912L144.018 41.8601ZM143.585 37.176C145.218 36.9265 146.835 36.5886 148.424 36.2468C150.022 35.9032 151.587 35.5571 153.158 35.2788L152.809 33.3094C151.192 33.5958 149.583 33.9519 148.003 34.2915C146.415 34.633 144.851 34.9594 143.283 35.1989L143.585 37.176ZM153.158 35.2788C156.309 34.7208 159.471 34.2345 162.643 33.8381L162.395 31.8535C159.186 32.2546 155.99 32.7461 152.809 33.3094L153.158 35.2788ZM161.52 32.8843C161.594 34.798 161.419 36.7157 161.252 38.7151L163.245 38.882C163.409 36.9192 163.598 34.8684 163.519 32.8073L161.52 32.8843ZM143.417 48.8008C143.995 48.2877 144.605 47.8408 145.22 47.5294L144.316 45.7453C143.502 46.1581 142.749 46.7193 142.09 47.3052L143.417 48.8008ZM145.22 47.5293C145.662 47.3055 146.159 47.0814 146.631 46.9714C147.117 46.8581 147.411 46.9038 147.581 47.0046L148.604 45.286C147.788 44.8006 146.878 44.8602 146.177 45.0235C145.462 45.1901 144.79 45.5051 144.316 45.7454L145.22 47.5293ZM147.581 47.0048C147.847 47.1629 148.154 47.4738 148.336 47.8214C148.52 48.1746 148.49 48.3815 148.44 48.4782L150.22 49.3903C150.678 48.4957 150.457 47.5625 150.109 46.8962C149.758 46.2244 149.193 45.6365 148.603 45.2858L147.581 47.0048ZM148.44 48.4781C148.132 49.0792 147.28 49.5138 146.612 49.4175L146.327 51.397C147.829 51.6134 149.517 50.7624 150.22 49.3904L148.44 48.4781ZM146.612 49.4174C146.203 49.3587 145.781 49.1552 145.326 48.8213C144.869 48.4853 144.443 48.0659 144.005 47.6288L142.593 49.045C143.018 49.4692 143.545 49.9941 144.142 50.4325C144.74 50.8729 145.471 51.274 146.327 51.3971L146.612 49.4174ZM144.005 47.6282C143.683 47.3081 143.296 47.1158 142.884 47.0615L142.623 49.0444C142.614 49.0433 142.606 49.0414 142.598 49.0389C142.59 49.0364 142.583 49.0338 142.579 49.0317C142.575 49.0296 142.574 49.0286 142.576 49.0302C142.578 49.0317 142.584 49.0364 142.594 49.0456L144.005 47.6282ZM135.412 24.1378C135.424 24.3547 135.442 24.5811 135.472 24.8116L137.455 24.5577C137.434 24.3895 137.42 24.2139 137.409 24.0273L135.412 24.1378ZM135.472 24.8122C135.528 25.2529 135.696 25.7677 136.063 26.1897L137.572 24.8767C137.532 24.8314 137.477 24.7242 137.455 24.5571L135.472 24.8122ZM136.063 26.1895C136.569 26.771 137.434 27.0975 138.265 26.8403L137.674 24.9296C137.687 24.9259 137.677 24.9326 137.645 24.9226C137.631 24.9179 137.615 24.9108 137.601 24.9016C137.587 24.8925 137.578 24.8835 137.572 24.877L136.063 26.1895ZM138.267 26.8398C138.997 26.6127 139.556 26.073 139.813 25.3557L137.93 24.682C137.883 24.8116 137.799 24.8908 137.673 24.9301L138.267 26.8398ZM139.812 25.3575C139.978 24.8956 139.972 24.4445 139.965 24.156L137.966 24.2069C137.973 24.4831 137.959 24.6014 137.93 24.6802L139.812 25.3575ZM139.955 24.3222C139.987 24.1026 139.999 23.8895 140.003 23.7021L138.003 23.6623C138 23.7955 137.992 23.9238 137.975 24.0407L139.955 24.3222ZM140.003 23.7037C140.016 23.0531 139.944 22.1056 139.491 21.3392L137.769 22.3566C137.934 22.635 138.015 23.123 138.003 23.6607L140.003 23.7037ZM139.492 21.3401C139.18 20.8113 138.631 20.2886 137.818 20.1942L137.588 22.1809C137.605 22.1829 137.621 22.1877 137.646 22.2063C137.675 22.2285 137.721 22.2738 137.769 22.3557L139.492 21.3401ZM137.818 20.1942C136.964 20.0952 136.232 20.5694 135.851 21.1651L137.537 22.242C137.544 22.2298 137.554 22.2178 137.566 22.2071C137.577 22.1964 137.588 22.1892 137.596 22.1849C137.612 22.1763 137.608 22.1833 137.588 22.1809L137.818 20.1942ZM135.803 21.2501L135.756 21.341L137.539 22.2479L137.585 22.157L135.803 21.2501ZM135.878 21.1564C135.725 21.341 135.587 21.5605 135.491 21.8137L137.359 22.5265C137.368 22.5037 137.386 22.4713 137.418 22.4325L135.878 21.1564ZM135.492 21.8108C135.298 22.3154 135.276 22.8579 135.29 23.2492L137.289 23.1789C137.279 22.8891 137.307 22.6629 137.358 22.5294L135.492 21.8108ZM135.29 23.2468C135.302 23.6194 135.36 23.9768 135.437 24.3084L137.385 23.8567C137.329 23.6173 137.296 23.3925 137.289 23.1813L135.29 23.2468ZM153.855 22.8625C153.867 23.0793 153.885 23.3059 153.914 23.536L155.898 23.2811C155.877 23.1141 155.862 22.9387 155.852 22.752L153.855 22.8625ZM153.914 23.5361C153.971 23.9761 154.138 24.492 154.506 24.9144L156.015 23.6014C155.976 23.5565 155.92 23.4488 155.898 23.281L153.914 23.5361ZM154.507 24.9152C155.013 25.4954 155.876 25.822 156.708 25.5651L156.118 23.6541C156.13 23.6507 156.12 23.6572 156.089 23.6473C156.056 23.6368 156.028 23.617 156.014 23.6006L154.507 24.9152ZM156.71 25.5645C157.441 25.3374 158 24.7977 158.256 24.0804L156.373 23.4066C156.327 23.5363 156.243 23.6155 156.117 23.6547L156.71 25.5645ZM158.256 24.0821C158.422 23.6203 158.416 23.169 158.408 22.88L156.409 22.9307C156.416 23.2079 156.402 23.3261 156.374 23.4049L158.256 24.0821ZM158.399 23.0468C158.43 22.8272 158.442 22.613 158.446 22.426L156.446 22.3862C156.444 22.5198 156.435 22.6485 156.419 22.7639L158.399 23.0468ZM158.446 22.4276C158.46 21.7764 158.387 20.8309 157.937 20.0647L156.213 21.0789C156.378 21.359 156.458 21.8474 156.447 22.3846L158.446 22.4276ZM157.936 20.064C157.624 19.5353 157.076 19.0125 156.262 18.9181L156.032 20.9048C156.049 20.9068 156.065 20.9116 156.09 20.9301C156.12 20.9523 156.165 20.9977 156.213 21.0796L157.936 20.064ZM156.262 18.9181C155.408 18.8191 154.676 19.2933 154.296 19.889L155.981 20.9659C155.989 20.9537 155.999 20.9417 156.01 20.931C156.022 20.9203 156.032 20.9131 156.041 20.9087C156.057 20.9002 156.053 20.9072 156.032 20.9048L156.262 18.9181ZM154.247 19.9739L154.201 20.0648L155.983 20.9719L156.03 20.881L154.247 19.9739ZM154.322 19.8803C154.169 20.0649 154.032 20.2844 153.935 20.5375L155.804 21.2504C155.813 21.2276 155.83 21.1951 155.862 21.1564L154.322 19.8803ZM153.936 20.5347C153.742 21.0392 153.721 21.5818 153.735 21.973L155.733 21.9028C155.723 21.613 155.751 21.3867 155.803 21.2533L153.936 20.5347ZM153.734 21.9652C153.745 22.342 153.803 22.7016 153.879 23.0331L155.828 22.5814C155.772 22.3418 155.739 22.1193 155.734 21.9107L153.734 21.9652ZM144.125 31.136C145.149 31.6192 146.28 31.7405 147.326 31.6305L147.117 29.6414C146.357 29.7213 145.608 29.6241 144.979 29.3273L144.125 31.136ZM147.326 31.6305C148.235 31.5349 149.152 31.2206 149.93 30.7229L148.851 29.0385C148.343 29.3639 147.725 29.5775 147.117 29.6415L147.326 31.6305ZM149.929 30.7232C150.681 30.2422 151.647 29.4455 152.038 28.3211L150.15 27.6633C149.983 28.1418 149.489 28.6308 148.852 29.0383L149.929 30.7232ZM152.038 28.321C152.194 27.8748 152.176 27.4086 151.979 26.9986C151.789 26.6044 151.467 26.3304 151.125 26.1754C150.457 25.8723 149.512 25.9534 148.927 26.7181L150.516 27.9328C150.491 27.9655 150.444 27.9959 150.394 28.0061C150.354 28.0141 150.324 28.0082 150.299 27.9968C150.273 27.9853 150.217 27.9502 150.176 27.866C150.156 27.8231 150.145 27.7771 150.143 27.734C150.141 27.6912 150.149 27.6661 150.15 27.6633L152.038 28.321ZM148.927 26.7181C148.503 27.2731 148.369 27.5002 148.05 27.6988L149.109 29.3957C149.821 28.9515 150.226 28.3125 150.516 27.9328L148.927 26.7181ZM148.05 27.699C147.667 27.9379 147.235 28.0863 146.798 28.1265L146.981 30.1181C147.742 30.0482 148.472 29.7931 149.109 29.3955L148.05 27.699ZM146.798 28.1265C146.292 28.1729 145.749 28.1033 145.134 27.9848L144.756 29.9487C145.415 30.0758 146.185 30.1912 146.981 30.1181L146.798 28.1265ZM145.133 27.9846C144.859 27.9321 144.584 27.8484 144.312 27.7382L143.562 29.5923C143.941 29.7454 144.34 29.8691 144.757 29.9489L145.133 27.9846ZM144.312 27.7383C144.057 27.6352 143.507 27.3638 142.85 27.404L142.972 29.4002C143.008 29.398 143.055 29.4015 143.142 29.4286C143.255 29.4633 143.35 29.5066 143.562 29.5923L144.312 27.7383ZM142.849 27.404C142.551 27.4224 142.237 27.5479 142.001 27.7903C141.733 28.0638 141.566 28.4984 141.704 28.972L143.624 28.4128C143.714 28.7221 143.599 29.0159 143.431 29.1876C143.294 29.3281 143.128 29.3906 142.972 29.4002L142.849 27.404ZM141.704 28.971C141.911 29.6862 142.435 30.1575 142.87 30.4574C143.309 30.7604 143.808 30.9864 144.125 31.136L144.979 29.3273C144.613 29.1547 144.281 29.0014 144.005 28.8106C143.723 28.6166 143.644 28.4794 143.625 28.4138L141.704 28.971Z" fill="#242647" mask="url(#path-2-inside-1_102_59)"/>
</svg>
