<svg width="66" height="122" viewBox="0 0 66 122" fill="none" xmlns="http://www.w3.org/2000/svg">
<path d="M30.6083 30.1968C30.6223 30.4498 30.6423 30.7018 30.6743 30.9518C30.7233 31.3328 30.8633 31.7228 31.1183 32.0158C31.4653 32.4148 32.0493 32.6158 32.5633 32.4568C33.1003 32.2898 33.5033 31.9018 33.6933 31.3708C33.8153 31.0318 33.8203 30.6748 33.8113 30.3208C33.8413 30.1098 33.8543 29.8958 33.8583 29.6948C33.8743 28.9498 33.7783 28.0498 33.3913 27.3948C33.1343 26.9588 32.7453 26.6268 32.2283 26.5668C31.7193 26.5078 31.2323 26.7928 30.9633 27.2138L30.9053 27.3278C30.7893 27.4678 30.6923 27.6258 30.6263 27.7988C30.4723 28.1988 30.4413 28.6808 30.4563 29.1078C30.4683 29.4738 30.5253 29.8388 30.6083 30.1968Z" fill="#242647"/>
<path d="M53.7332 28.5977C53.7472 28.8507 53.7672 29.1027 53.7992 29.3517C53.8482 29.7327 53.9882 30.1237 54.2432 30.4167C54.5912 30.8157 55.1742 31.0167 55.6892 30.8577C56.2262 30.6907 56.6292 30.3027 56.8192 29.7717C56.9412 29.4327 56.9462 29.0757 56.9372 28.7207C56.9672 28.5107 56.9802 28.2957 56.9842 28.0947C57.0002 27.3497 56.9042 26.4507 56.5182 25.7947C56.2612 25.3587 55.8722 25.0267 55.3552 24.9667C54.8462 24.9077 54.3592 25.1927 54.0902 25.6137L54.0322 25.7277C53.9162 25.8677 53.8192 26.0257 53.7532 26.1987C53.5992 26.5987 53.5682 27.0807 53.5832 27.5077C53.5932 27.8747 53.6502 28.2397 53.7332 28.5977Z" fill="#242647"/>
<path d="M40.8163 37.9068C41.8523 38.3958 43.0313 38.5328 44.1633 38.4138C45.1143 38.3138 46.0773 37.9828 46.8833 37.4668C47.7543 36.9098 48.6693 36.1038 49.0193 35.0988C49.3933 34.0248 47.9413 33.4218 47.2983 34.2628C46.8503 34.8488 46.5123 35.3918 45.8663 35.7948C45.2273 36.1938 44.4983 36.4468 43.7473 36.5158C42.9313 36.5908 42.1083 36.4748 41.3093 36.3208C40.8763 36.2378 40.4533 36.1078 40.0453 35.9428C39.6153 35.7688 39.2323 35.5838 38.7583 35.6128C38.5793 35.6238 38.3893 35.7708 38.4493 35.9768C38.7333 36.9558 39.9603 37.5028 40.8163 37.9068Z" fill="#242647"/>
<path d="M64.2183 38.8997C64.1343 38.7017 63.9633 38.5468 63.6723 38.5348C63.3033 38.5198 62.9353 38.5218 62.5673 38.5208C64.8313 34.4658 65.9763 29.9267 65.6503 25.2047C64.6073 10.1087 49.0613 -1.15524 30.9593 0.094756C12.8753 1.34576 -0.988699 14.6448 0.0553008 29.7408C0.843301 41.1308 9.8983 50.3318 22.0633 53.6298C21.5093 54.2178 20.9843 54.8358 20.4703 55.4098C19.3203 56.6938 18.2413 58.0428 17.2093 59.4228C15.1563 62.1678 13.3263 65.0648 11.7083 68.0858C11.4223 68.6208 11.8163 69.2368 12.2863 69.4758C14.1003 70.3968 16.3253 69.6578 18.1823 69.2298C19.2183 68.9908 20.2483 68.7248 21.2733 68.4408C21.2123 68.8288 21.1523 69.2158 21.0913 69.6038L19.7763 77.9868C19.3853 80.4788 19.0193 82.9298 19.9823 85.3418C20.6293 86.9618 21.6483 88.2897 22.8953 89.3647C22.0663 91.3537 21.7173 93.6218 21.2503 95.7088C20.7293 98.0358 20.2373 100.369 19.7743 102.708C19.3233 104.984 18.9023 107.265 18.5093 109.551C18.3023 110.757 18.1023 111.965 17.9113 113.175C17.7563 114.159 17.6673 115.194 17.4653 116.183C15.4813 115.806 13.2643 115.705 11.3443 116.209C9.8823 116.593 7.3623 118.282 8.6653 120.059C9.8333 121.651 12.7483 121.872 14.4833 121.421C16.3123 120.946 17.7833 119.711 18.6773 118.08C18.9183 117.928 19.1023 117.684 19.1033 117.409C19.1073 115.073 19.7153 112.632 20.0913 110.329C20.4753 107.977 20.8883 105.629 21.3273 103.287C21.7553 101.008 22.2103 98.7348 22.6923 96.4668C23.1263 94.4278 23.7843 92.3187 24.0283 90.2267C25.9543 91.5387 28.2513 92.3738 30.5383 92.8248C33.0233 93.3158 35.5743 93.4548 38.1033 93.3918C40.5013 93.3318 43.0803 93.1647 45.3273 92.2487C45.5583 92.1547 45.7773 92.0428 45.9953 91.9288C46.1773 93.8858 46.5943 95.8398 46.9553 97.7617C47.4023 100.14 47.8493 102.517 48.2953 104.895C49.1763 109.585 50.0323 114.281 50.9163 118.971C50.9713 119.265 51.1773 119.626 51.4933 119.709C53.8053 120.317 56.1273 120.335 58.4243 119.637C60.2823 119.073 63.0693 117.85 62.9883 115.521C62.9003 112.992 60.1053 113.149 58.3133 113.479C56.1323 113.88 54.0873 114.722 52.2273 115.911C51.4523 112.094 50.6693 108.278 49.9003 104.46C49.4353 102.151 48.9693 99.8428 48.5043 97.5338C48.0833 95.4427 47.7073 93.2988 47.0533 91.2608C48.4393 90.2188 49.4533 88.7458 50.0203 87.0618C50.9503 84.3028 50.7073 81.3927 50.4833 78.5417C50.4653 78.3138 50.3883 78.1357 50.2783 77.9948C50.4963 77.9678 50.7153 77.9448 50.9333 77.9178C53.4233 77.6068 55.9163 77.2948 58.3983 76.9278C59.4623 76.7708 61.4703 76.6008 62.3553 75.7288C62.7543 75.6408 63.0993 75.3338 63.1783 74.7718C63.5883 71.8668 63.6863 68.8898 63.9213 65.9658C64.0573 64.2648 64.1783 62.5638 64.3033 60.8618L64.4113 60.7888C64.8513 60.4878 64.8953 59.8047 64.5813 59.4037L64.4223 59.2678C64.4733 58.5618 64.5293 57.8557 64.5803 57.1487C64.7883 54.2747 64.9993 51.4008 65.2193 48.5278C65.4423 45.6248 65.6603 42.7217 65.4223 39.8127C65.3733 39.2267 64.7613 38.8457 64.2183 38.8997ZM14.3943 119.48C13.7303 119.717 13.0103 119.783 12.3123 119.703C12.0783 119.676 10.3673 119.387 10.3143 119.017C10.2623 118.656 11.1033 118.3 11.3563 118.201C11.9443 117.973 12.5893 117.904 13.2143 117.864C14.3053 117.795 15.3923 117.869 16.4733 118.002C15.9283 118.666 15.2233 119.184 14.3943 119.48ZM52.8983 117.804C54.2043 116.857 55.6323 116.118 57.1703 115.626C57.7313 115.446 61.9963 114.306 61.0123 115.979C60.3063 117.179 58.0303 117.801 56.7703 118.041C55.3903 118.304 54.0183 118.28 52.6543 118.024L52.6373 117.939C52.7253 117.907 52.8123 117.867 52.8983 117.804ZM2.4173 29.5778C1.4643 15.7848 14.3413 3.61877 31.1223 2.45877C31.9893 2.39877 32.8483 2.36975 33.7023 2.36975C49.3573 2.36975 62.3823 12.2887 63.2873 25.3687C63.6153 30.1157 62.2913 34.6627 59.7453 38.6407C56.8293 38.8897 53.9513 39.4888 51.1003 40.2078C49.0513 40.7238 47.0143 41.2858 44.9623 41.7908C42.9313 42.2898 40.7633 42.5218 38.7873 43.2018C38.4913 43.1558 38.1753 43.2697 38.0873 43.5938C38.0183 43.8478 37.9583 44.1048 37.8993 44.3618C37.6263 44.5528 37.5933 44.8948 37.7293 45.1648C37.2963 47.3938 37.1533 49.6938 36.9103 51.9398C36.8993 52.0418 36.8893 52.1427 36.8793 52.2437C36.1213 52.3457 35.3583 52.4338 34.5813 52.4868C31.2643 52.7168 28.0403 52.4928 24.9923 51.8878C24.8143 51.7508 24.5803 51.6858 24.3323 51.7518C12.2943 49.1258 3.1693 40.4448 2.4173 29.5778ZM35.0013 66.0688C34.6203 66.2888 34.2263 66.4728 33.8273 66.6558C33.4293 66.8378 33.0373 67.0478 32.6593 67.2688C32.3023 67.4778 31.8803 67.6627 31.5473 67.9207C31.4983 67.7227 31.5873 67.5378 31.6793 67.2638C31.8153 66.8538 31.9613 66.4468 32.1183 66.0448C32.3653 65.4098 32.7343 64.7617 32.9053 64.0887C33.1963 63.9497 33.4933 63.8238 33.7823 63.6808C34.4293 63.3618 35.1823 63.0658 35.8083 62.6418C35.7033 63.6868 35.5983 64.7318 35.4923 65.7768C35.3253 65.8658 35.1623 65.9758 35.0013 66.0688ZM35.3853 66.8418C35.2303 68.3818 35.0753 69.9218 34.9203 71.4618C34.7063 71.3508 34.5263 71.2368 34.3363 71.0438C34.0403 70.7438 33.7673 70.4168 33.4853 70.1038C33.0743 69.6478 32.6473 69.2068 32.2263 68.7598C32.5313 68.6348 32.8253 68.4658 33.1133 68.3208C33.5313 68.1088 33.9513 67.8648 34.3313 67.5908C34.6813 67.3378 35.0263 67.0818 35.3853 66.8418ZM35.8063 60.6017C34.8483 60.6667 33.9803 61.3058 33.1333 61.7218L33.0843 61.7448L33.1553 61.5618C33.3093 61.1898 33.4643 60.8178 33.6163 60.4448C33.7723 60.0638 33.9203 59.6788 34.0703 59.2948C34.2713 59.2268 34.4743 59.1567 34.6593 59.0587C34.9333 58.9147 35.2023 58.7607 35.4683 58.6017C35.7103 58.4567 35.9473 58.3058 36.1803 58.1478L36.2753 58.0788C36.1893 58.9248 36.0973 59.7708 36.0123 60.6178C35.9453 60.6058 35.8773 60.5967 35.8063 60.6017ZM35.6433 57.4198C35.4173 57.5868 35.1863 57.7467 34.9513 57.8997C34.7983 57.9997 34.6553 58.0828 34.5113 58.1688C34.7623 57.5258 35.0083 56.8818 35.2483 56.2348C35.4233 55.7618 35.6383 55.2658 35.7573 54.7598C36.0493 54.7308 36.3393 54.6978 36.6293 54.6628C36.5463 55.4757 36.4603 56.2878 36.3763 57.1008C36.1073 57.0868 35.8573 57.2628 35.6433 57.4198ZM32.0083 54.9458C32.7793 54.9458 33.5583 54.9178 34.3413 54.8718C34.2233 55.1568 34.1153 55.4458 34.0033 55.7218C33.7213 56.4198 33.4453 57.1188 33.1783 57.8228C32.9113 58.5258 32.6373 59.2267 32.3793 59.9337C32.2503 60.2877 32.1233 60.6418 31.9963 60.9958C31.8573 61.3808 31.6103 61.8068 31.7173 62.2208L31.7813 62.3488C31.3103 62.5678 30.8443 62.7958 30.3683 63.0038C28.5063 63.8188 26.6083 64.5548 24.6833 65.2078C24.2663 65.3488 23.8433 65.4708 23.4243 65.6048C23.6093 64.3398 23.7943 63.0758 23.9803 61.8108C24.1803 60.4448 24.3843 59.0788 24.5593 57.7088C24.7023 56.5898 24.9863 55.4037 24.8673 54.2737C27.1663 54.7097 29.5563 54.9458 32.0083 54.9458ZM18.9183 66.8878C17.9313 67.1288 16.9393 67.3508 15.9423 67.5488C15.3933 67.6578 14.8443 67.7768 14.3043 67.7768C15.7083 65.2738 17.2513 62.8487 18.9543 60.5367C19.9083 59.2407 20.9153 57.9867 21.9433 56.7487C22.4123 56.1847 22.9293 55.6358 23.4383 55.0778C23.2793 55.7488 23.1963 56.4458 23.0763 57.1288C22.8263 58.5548 22.6003 59.9838 22.3753 61.4148C22.1273 62.9968 21.8793 64.5788 21.6303 66.1608C20.7303 66.4208 19.8273 66.6648 18.9183 66.8878ZM44.6223 90.2198C42.7003 91.0558 40.4273 91.1798 38.3603 91.2718C36.0613 91.3738 33.7323 91.2428 31.4613 90.8638C27.4893 90.1998 23.2133 88.3037 21.6723 84.2867C20.8053 82.0267 21.3823 79.5427 21.7213 77.2318C22.0733 74.8238 22.4263 72.4168 22.7783 70.0088C22.8813 69.3038 22.9843 68.5997 23.0873 67.8947C23.6113 67.7347 24.1393 67.5868 24.6593 67.4148C26.7593 66.7208 28.8273 65.9287 30.8543 65.0417C30.9693 64.9917 31.0803 64.9338 31.1943 64.8838C31.0263 65.2648 30.8813 65.6518 30.7383 66.0008C30.3653 66.9158 29.7983 68.0128 30.4363 68.9268C31.0283 69.7738 31.8133 70.5247 32.5103 71.2838C33.1403 71.9697 33.7953 72.8188 34.7753 72.8928C34.5993 74.6398 34.4243 76.3857 34.2483 78.1328C34.1693 78.9178 34.8073 79.4598 35.5553 79.4088C39.8533 79.1118 44.1413 78.7088 48.4203 78.2128C48.3203 78.3928 48.2683 78.6098 48.2953 78.8638C48.7063 82.8048 48.9943 88.3188 44.6223 90.2198ZM62.2623 57.2578C62.1823 58.1698 62.1083 59.0828 62.0293 59.9948C61.5283 60.2848 61.0073 60.5148 60.4463 60.5898C60.3613 60.6008 60.2753 60.6068 60.1893 60.6118L59.9873 60.6038C59.8823 60.5948 59.7773 60.5808 59.6743 60.5618L59.5383 60.5327L59.4913 60.5157C59.3943 60.4787 59.2983 60.4428 59.2033 60.4008L59.1083 60.3538L59.0773 60.3347C58.9843 60.2657 58.8913 60.2008 58.8043 60.1228C58.9353 60.2408 58.7243 60.0138 58.6923 59.9758L58.6703 59.9427L58.6163 59.8347C58.5613 59.7117 58.5523 59.6967 58.5283 59.5847C58.4743 59.3337 58.4513 59.0078 58.4483 58.7938C58.4433 58.3738 58.4693 57.7128 58.5933 57.3548C58.6903 57.0738 58.7163 57.0098 58.8393 56.8368C58.9123 56.7338 58.9933 56.6327 59.0813 56.5417C59.0023 56.6227 59.2183 56.4288 59.2653 56.3928L59.3813 56.3068L59.4943 56.2298L59.7163 56.1118C59.8183 56.0628 59.9233 56.0178 60.0303 55.9788L60.1683 55.9297L60.2233 55.9108L60.2663 55.9037C60.9583 55.7497 61.6723 55.8317 62.3723 56.0027C62.3343 56.4207 62.2993 56.8398 62.2623 57.2578ZM63.0053 48.6487C62.8483 50.5317 62.6823 52.4137 62.5183 54.2957L62.4763 54.2787C61.7663 54.0237 60.9853 53.9488 60.2363 54.0398C58.8753 54.2068 57.6383 54.9988 57.0043 56.2238C56.6703 56.8688 56.5683 57.6248 56.5503 58.3418C56.5313 59.1008 56.5343 59.8868 56.8453 60.5948C57.3693 61.7888 58.6583 62.4948 59.9313 62.5438C60.6063 62.5698 61.2373 62.4388 61.8403 62.2198C61.7363 63.4358 61.6263 64.6508 61.5293 65.8678C61.3233 68.4398 61.0173 71.0327 60.9143 73.6147L60.7903 73.7878L60.7693 73.8148L60.7743 73.8118L60.7233 73.8888L60.7693 73.8138L60.6663 73.8698C60.5113 73.9338 60.3843 74.0298 60.2143 74.0818C59.7683 74.2178 59.2523 74.2398 58.7913 74.3138C57.6473 74.4958 56.5033 74.6797 55.3583 74.8557C53.1313 75.1987 50.8993 75.4997 48.6633 75.7737C44.6703 76.2637 40.6653 76.6638 36.6563 77.0058C37.1063 72.1068 37.5583 67.2068 38.0093 62.3078C39.3593 63.6208 40.8843 64.9178 42.8043 65.1998C44.8323 65.4988 47.0153 64.4268 48.1293 62.7198C48.7133 61.8268 49.0173 60.7847 48.7493 59.7267C48.5053 58.7647 47.9263 57.8828 47.2463 57.1698C46.5293 56.4178 45.6513 55.8728 44.5953 55.7768C43.5303 55.6798 42.4683 55.9568 41.4813 56.3358C40.4463 56.7328 39.4603 57.2978 38.5853 57.9778C38.5133 58.0338 38.4523 58.0968 38.3833 58.1548C38.5573 56.2308 38.7343 54.3067 38.8973 52.3817C39.0933 50.0697 39.4133 47.7108 39.4143 45.3748C43.4283 44.7618 47.3913 43.7088 51.3883 43.0008C55.3583 42.2978 59.3443 41.6848 63.3453 41.1848C63.4413 43.6768 63.2133 46.1647 63.0053 48.6487ZM38.5613 60.2527C39.3373 59.5637 40.1913 58.9318 41.0873 58.4778C42.2353 57.8958 44.0203 57.1257 45.2553 57.8607C46.3283 58.4987 47.4443 60.1148 46.8073 61.3578C46.1733 62.5948 44.5813 63.4007 43.2203 63.2047C41.6353 62.9767 40.3283 61.6888 39.2453 60.6088C39.0253 60.3898 38.7893 60.2827 38.5613 60.2527Z" fill="#242647"/>
</svg>
