<svg width="279" height="99" viewBox="0 0 279 99" fill="none" xmlns="http://www.w3.org/2000/svg">
<path d="M277 97L2 97" stroke="#242647" stroke-width="3" stroke-linecap="round"/>
<mask id="path-2-inside-1_102_59" fill="white">
<path d="M163.216 31.0235C163.149 30.8656 163.012 30.7419 162.78 30.7324C162.486 30.7204 162.192 30.722 161.899 30.7212C163.704 27.4872 164.618 23.8673 164.358 20.1014C163.526 8.06196 151.128 -0.921334 136.691 0.0755701C122.268 1.07327 111.211 11.6795 112.044 23.7189C112.673 32.8027 119.894 40.1408 129.596 42.771C129.154 43.2399 128.735 43.7328 128.326 44.1906C127.408 45.2146 126.548 46.2905 125.725 47.391C124.088 49.5802 122.628 51.8907 121.338 54.3C121.11 54.7267 121.424 55.2179 121.799 55.4086C123.245 56.1431 125.02 55.5537 126.501 55.2124C127.327 55.0217 128.148 54.8096 128.966 54.5831C128.917 54.8925 128.869 55.2012 128.821 55.5106L127.772 62.1963C127.46 64.1837 127.168 66.1384 127.936 68.0621C128.452 69.354 129.265 70.4131 130.26 71.2705C129.598 72.8567 129.32 74.6656 128.948 76.33C128.532 78.1858 128.14 80.0464 127.77 81.9118C127.411 83.727 127.075 85.5461 126.762 87.3693C126.597 88.3311 126.437 89.2945 126.285 90.2595C126.161 91.0443 126.09 91.8697 125.929 92.6585C124.347 92.3578 122.579 92.2773 121.047 92.6792C119.881 92.9855 117.872 94.3325 118.911 95.7497C119.842 97.0193 122.167 97.1956 123.551 96.8359C125.009 96.4571 126.183 95.4721 126.896 94.1714C127.088 94.0501 127.235 93.8555 127.235 93.6362C127.239 91.7732 127.723 89.8265 128.023 87.9898C128.33 86.114 128.659 84.2414 129.009 82.3736C129.35 80.556 129.713 78.7433 130.098 76.9345C130.444 75.3084 130.969 73.6264 131.163 71.9579C132.699 73.0043 134.531 73.6702 136.355 74.0299C138.337 74.4215 140.371 74.5324 142.388 74.4821C144.301 74.4343 146.358 74.3011 148.15 73.5705C148.334 73.4956 148.508 73.4063 148.682 73.3153C148.827 74.8761 149.16 76.4344 149.448 77.9673C149.804 79.8638 150.161 81.7595 150.517 83.656C151.219 87.3964 151.902 91.1416 152.607 94.882C152.651 95.1164 152.815 95.4043 153.067 95.4705C154.911 95.9554 156.763 95.9698 158.595 95.4131C160.077 94.9633 162.299 93.9879 162.235 92.1305C162.164 90.1136 159.935 90.2388 158.506 90.502C156.767 90.8218 155.136 91.4933 153.652 92.4415C153.034 89.3974 152.41 86.354 151.797 83.3091C151.426 81.4676 151.054 79.6269 150.683 77.7854C150.348 76.1178 150.048 74.408 149.526 72.7826C150.631 71.9516 151.44 70.7768 151.892 69.4338C152.634 67.2334 152.44 64.9126 152.262 62.6389C152.247 62.457 152.186 62.3151 152.098 62.2026C152.272 62.1811 152.447 62.1628 152.621 62.1412C154.606 61.8932 156.595 61.6444 158.574 61.3517C159.423 61.2265 161.024 61.0909 161.73 60.3955C162.048 60.3253 162.323 60.0804 162.386 59.6322C162.713 57.3154 162.791 54.9412 162.979 52.6092C163.087 51.2526 163.184 49.8961 163.283 48.5387L163.37 48.4805C163.72 48.2404 163.756 47.6957 163.505 47.3759L163.378 47.2674C163.419 46.7044 163.464 46.1413 163.504 45.5775C163.67 43.2854 163.838 40.9933 164.014 38.702C164.192 36.3868 164.366 34.0716 164.176 31.7516C164.137 31.2842 163.649 30.9804 163.216 31.0235ZM123.48 95.2879C122.95 95.4769 122.376 95.5296 121.819 95.4657C121.633 95.4442 120.268 95.2137 120.226 94.9186C120.184 94.6307 120.855 94.3468 121.057 94.2679C121.526 94.086 122.04 94.031 122.539 93.9991C123.409 93.9441 124.276 94.0031 125.138 94.1092C124.703 94.6387 124.141 95.0518 123.48 95.2879ZM154.188 93.9513C155.229 93.196 156.368 92.6066 157.595 92.2142C158.042 92.0707 161.444 91.1615 160.659 92.4958C160.096 93.4528 158.281 93.9489 157.276 94.1403C156.175 94.35 155.081 94.3309 153.993 94.1267L153.979 94.0589C154.05 94.0334 154.119 94.0015 154.188 93.9513ZM113.928 23.589C113.168 12.5887 123.438 2.88605 136.821 1.96093C137.512 1.91307 138.197 1.88993 138.878 1.88993C151.364 1.88993 161.751 9.80056 162.473 20.2322C162.735 24.018 161.679 27.6444 159.648 30.8169C157.323 31.0155 155.027 31.4932 152.754 32.0666C151.12 32.4782 149.495 32.9264 147.858 33.3291C146.239 33.7271 144.51 33.9121 142.934 34.4544C142.698 34.4177 142.446 34.5086 142.376 34.767C142.32 34.9696 142.273 35.1746 142.226 35.3795C142.008 35.5319 141.982 35.8046 142.09 36.02C141.745 37.7976 141.631 39.6319 141.437 41.4232C141.428 41.5045 141.42 41.5851 141.412 41.6656C140.808 41.747 140.199 41.8171 139.579 41.8594C136.934 42.0428 134.363 41.8642 131.932 41.3817C131.79 41.2724 131.603 41.2206 131.406 41.2732C121.805 39.179 114.528 32.2556 113.928 23.589ZM139.914 52.6914C139.61 52.8668 139.296 53.0136 138.978 53.1595C138.661 53.3047 138.348 53.4722 138.047 53.6484C137.762 53.8151 137.425 53.9626 137.16 54.1684C137.121 54.0105 137.192 53.8629 137.265 53.6444C137.373 53.3174 137.49 52.9929 137.615 52.6722C137.812 52.1658 138.106 51.649 138.243 51.1123C138.475 51.0014 138.712 50.9009 138.942 50.7869C139.458 50.5325 140.059 50.2964 140.558 49.9583C140.474 50.7917 140.39 51.6251 140.306 52.4585C140.173 52.5295 140.043 52.6172 139.914 52.6914ZM140.221 53.3079C140.097 54.5361 139.973 55.7642 139.85 56.9924C139.679 56.9039 139.536 56.813 139.384 56.6591C139.148 56.4198 138.93 56.159 138.705 55.9094C138.378 55.5457 138.037 55.194 137.701 54.8375C137.944 54.7378 138.179 54.6031 138.409 54.4874C138.742 54.3183 139.077 54.1237 139.38 53.9052C139.659 53.7034 139.934 53.4993 140.221 53.3079ZM140.556 48.3313C139.792 48.3831 139.1 48.8928 138.425 49.2246L138.386 49.2429L138.442 49.0969C138.565 48.8003 138.689 48.5036 138.81 48.2061C138.934 47.9023 139.052 47.5952 139.172 47.289C139.332 47.2347 139.494 47.1789 139.642 47.1007C139.86 46.9859 140.075 46.8631 140.287 46.7363C140.48 46.6206 140.669 46.5002 140.855 46.3742L140.93 46.3192C140.862 46.9939 140.788 47.6686 140.721 48.3441C140.667 48.3345 140.613 48.3273 140.556 48.3313ZM140.426 45.7936C140.246 45.9268 140.062 46.0544 139.874 46.1764C139.752 46.2562 139.638 46.3224 139.524 46.3909C139.724 45.8781 139.92 45.3645 140.111 44.8485C140.251 44.4713 140.422 44.0757 140.517 43.6722C140.75 43.6491 140.981 43.6227 141.213 43.5948C141.147 44.2432 141.078 44.8908 141.011 45.5392C140.796 45.528 140.597 45.6684 140.426 45.7936ZM137.527 43.8205C138.142 43.8205 138.764 43.7982 139.388 43.7615C139.294 43.9888 139.208 44.2193 139.118 44.4394C138.894 44.9961 138.673 45.5535 138.46 46.115C138.248 46.6757 138.029 47.2347 137.823 47.7986C137.72 48.0809 137.619 48.3632 137.518 48.6455C137.407 48.9526 137.21 49.2923 137.295 49.6225L137.346 49.7246C136.971 49.8992 136.599 50.0811 136.219 50.247C134.734 50.8969 133.221 51.4839 131.686 52.0047C131.353 52.1172 131.016 52.2145 130.681 52.3213C130.829 51.3125 130.977 50.3044 131.125 49.2955C131.284 48.2061 131.447 47.1167 131.587 46.0241C131.701 45.1317 131.927 44.1858 131.832 43.2846C133.666 43.6323 135.572 43.8205 137.527 43.8205ZM127.088 53.3445C126.301 53.5368 125.509 53.7138 124.714 53.8717C124.277 53.9587 123.839 54.0536 123.408 54.0536C124.528 52.0574 125.758 50.1233 127.116 48.2795C127.877 47.2459 128.68 46.2458 129.5 45.2585C129.874 44.8087 130.287 44.3708 130.693 43.9258C130.566 44.4609 130.5 45.0168 130.404 45.5615C130.205 46.6988 130.024 47.8385 129.845 48.9797C129.647 50.2414 129.449 51.5031 129.251 52.7648C128.533 52.9721 127.813 53.1667 127.088 53.3445ZM147.587 71.9524C146.054 72.6191 144.242 72.718 142.593 72.7914C140.76 72.8727 138.902 72.7682 137.091 72.466C133.923 71.9364 130.513 70.4243 129.284 67.2206C128.593 65.4182 129.053 63.4372 129.323 61.5941C129.604 59.6737 129.885 57.7541 130.166 55.8336C130.248 55.2714 130.331 54.7099 130.413 54.1476C130.831 54.02 131.252 53.902 131.666 53.7649C133.341 53.2114 134.99 52.5797 136.607 51.8723C136.699 51.8324 136.787 51.7862 136.878 51.7463C136.744 52.0502 136.629 52.3588 136.515 52.6372C136.217 53.3669 135.765 54.2418 136.274 54.9707C136.746 55.6462 137.372 56.2451 137.928 56.8505C138.43 57.3976 138.953 58.0747 139.734 58.1337C139.594 59.527 139.454 60.9194 139.314 62.3127C139.251 62.9388 139.76 63.371 140.356 63.3303C143.784 63.0935 147.204 62.7721 150.616 62.3765C150.537 62.5201 150.495 62.6931 150.517 62.8957C150.844 66.0387 151.074 70.4363 147.587 71.9524ZM161.656 45.6644C161.592 46.3917 161.533 47.1199 161.47 47.8472C161.07 48.0785 160.655 48.2619 160.207 48.3217C160.14 48.3305 160.071 48.3353 160.002 48.3393L159.841 48.3329C159.758 48.3257 159.674 48.3146 159.592 48.2994L159.483 48.2763L159.446 48.2627C159.368 48.2332 159.292 48.2045 159.216 48.171L159.14 48.1335L159.116 48.1184C159.041 48.0633 158.967 48.0115 158.898 47.9493C159.002 48.0434 158.834 47.8624 158.808 47.8321L158.791 47.8057L158.748 47.7196C158.704 47.6215 158.697 47.6096 158.678 47.5202C158.635 47.3201 158.616 47.0601 158.614 46.8894C158.61 46.5544 158.631 46.0273 158.73 45.7418C158.807 45.5177 158.828 45.4666 158.926 45.3286C158.984 45.2465 159.049 45.1659 159.119 45.0934C159.056 45.158 159.228 45.0033 159.265 44.9745L159.358 44.906L159.448 44.8446L159.625 44.7504C159.706 44.7114 159.79 44.6755 159.876 44.6444L159.986 44.6053L160.029 44.5901L160.064 44.5845C160.616 44.4617 161.185 44.5271 161.743 44.6635C161.713 44.9969 161.685 45.331 161.656 45.6644ZM162.248 38.7985C162.123 40.3002 161.991 41.8012 161.86 43.3021L161.826 43.2886C161.26 43.0852 160.637 43.0254 160.04 43.098C158.954 43.2312 157.968 43.8628 157.462 44.8398C157.196 45.3542 157.115 45.9571 157.1 46.5289C157.085 47.1342 157.087 47.7611 157.335 48.3257C157.753 49.278 158.781 49.841 159.797 49.8801C160.335 49.9008 160.838 49.7964 161.319 49.6217C161.236 50.5915 161.148 51.5605 161.071 52.5311C160.907 54.5823 160.663 56.6503 160.581 58.7095L160.482 58.8475L160.465 58.869L160.469 58.8666L160.428 58.928L160.465 58.8682L160.383 58.9129C160.259 58.9639 160.158 59.0405 160.022 59.0819C159.667 59.1904 159.255 59.2079 158.887 59.267C157.975 59.4121 157.063 59.5588 156.15 59.6992C154.373 59.9728 152.593 60.2128 150.81 60.4313C147.626 60.8221 144.432 61.1411 141.234 61.4139C141.593 57.5068 141.954 53.599 142.313 49.6919C143.39 50.7391 144.606 51.7734 146.137 51.9983C147.755 52.2368 149.496 51.3818 150.384 50.0205C150.85 49.3083 151.092 48.4773 150.879 47.6335C150.684 46.8663 150.222 46.1629 149.68 45.5942C149.108 44.9945 148.408 44.5598 147.566 44.4833C146.716 44.4059 145.869 44.6268 145.082 44.9291C144.257 45.2457 143.471 45.6963 142.773 46.2386C142.715 46.2833 142.667 46.3335 142.612 46.3798C142.75 44.8453 142.892 43.3109 143.022 41.7757C143.178 39.9318 143.433 38.0504 143.434 36.1874C146.635 35.6985 149.796 34.8588 152.983 34.2941C156.15 33.7335 159.328 33.2446 162.519 32.8458C162.596 34.8332 162.414 36.8175 162.248 38.7985ZM142.754 48.053C143.372 47.5035 144.054 46.9995 144.768 46.6374C145.684 46.1732 147.107 45.5591 148.092 46.1453C148.948 46.6541 149.838 47.9429 149.33 48.9342C148.824 49.9208 147.555 50.5636 146.469 50.4073C145.205 50.2254 144.163 49.1982 143.299 48.3369C143.124 48.1622 142.935 48.0769 142.754 48.053Z"/>
</mask>
<path d="M163.216 31.0235C163.149 30.8656 163.012 30.7419 162.78 30.7324C162.486 30.7204 162.192 30.722 161.899 30.7212C163.704 27.4872 164.618 23.8673 164.358 20.1014C163.526 8.06196 151.128 -0.921334 136.691 0.0755701C122.268 1.07327 111.211 11.6795 112.044 23.7189C112.673 32.8027 119.894 40.1408 129.596 42.771C129.154 43.2399 128.735 43.7328 128.326 44.1906C127.408 45.2146 126.548 46.2905 125.725 47.391C124.088 49.5802 122.628 51.8907 121.338 54.3C121.11 54.7267 121.424 55.2179 121.799 55.4086C123.245 56.1431 125.02 55.5537 126.501 55.2124C127.327 55.0217 128.148 54.8096 128.966 54.5831C128.917 54.8925 128.869 55.2012 128.821 55.5106L127.772 62.1963C127.46 64.1837 127.168 66.1384 127.936 68.0621C128.452 69.354 129.265 70.4131 130.26 71.2705C129.598 72.8567 129.32 74.6656 128.948 76.33C128.532 78.1858 128.14 80.0464 127.77 81.9118C127.411 83.727 127.075 85.5461 126.762 87.3693C126.597 88.3311 126.437 89.2945 126.285 90.2595C126.161 91.0443 126.09 91.8697 125.929 92.6585C124.347 92.3578 122.579 92.2773 121.047 92.6792C119.881 92.9855 117.872 94.3325 118.911 95.7497C119.842 97.0193 122.167 97.1956 123.551 96.8359C125.009 96.4571 126.183 95.4721 126.896 94.1714C127.088 94.0501 127.235 93.8555 127.235 93.6362C127.239 91.7732 127.723 89.8265 128.023 87.9898C128.33 86.114 128.659 84.2414 129.009 82.3736C129.35 80.556 129.713 78.7433 130.098 76.9345C130.444 75.3084 130.969 73.6264 131.163 71.9579C132.699 73.0043 134.531 73.6702 136.355 74.0299C138.337 74.4215 140.371 74.5324 142.388 74.4821C144.301 74.4343 146.358 74.3011 148.15 73.5705C148.334 73.4956 148.508 73.4063 148.682 73.3153C148.827 74.8761 149.16 76.4344 149.448 77.9673C149.804 79.8638 150.161 81.7595 150.517 83.656C151.219 87.3964 151.902 91.1416 152.607 94.882C152.651 95.1164 152.815 95.4043 153.067 95.4705C154.911 95.9554 156.763 95.9698 158.595 95.4131C160.077 94.9633 162.299 93.9879 162.235 92.1305C162.164 90.1136 159.935 90.2388 158.506 90.502C156.767 90.8218 155.136 91.4933 153.652 92.4415C153.034 89.3974 152.41 86.354 151.797 83.3091C151.426 81.4676 151.054 79.6269 150.683 77.7854C150.348 76.1178 150.048 74.408 149.526 72.7826C150.631 71.9516 151.44 70.7768 151.892 69.4338C152.634 67.2334 152.44 64.9126 152.262 62.6389C152.247 62.457 152.186 62.3151 152.098 62.2026C152.272 62.1811 152.447 62.1628 152.621 62.1412C154.606 61.8932 156.595 61.6444 158.574 61.3517C159.423 61.2265 161.024 61.0909 161.73 60.3955C162.048 60.3253 162.323 60.0804 162.386 59.6322C162.713 57.3154 162.791 54.9412 162.979 52.6092C163.087 51.2526 163.184 49.8961 163.283 48.5387L163.37 48.4805C163.72 48.2404 163.756 47.6957 163.505 47.3759L163.378 47.2674C163.419 46.7044 163.464 46.1413 163.504 45.5775C163.67 43.2854 163.838 40.9933 164.014 38.702C164.192 36.3868 164.366 34.0716 164.176 31.7516C164.137 31.2842 163.649 30.9804 163.216 31.0235ZM123.48 95.2879C122.95 95.4769 122.376 95.5296 121.819 95.4657C121.633 95.4442 120.268 95.2137 120.226 94.9186C120.184 94.6307 120.855 94.3468 121.057 94.2679C121.526 94.086 122.04 94.031 122.539 93.9991C123.409 93.9441 124.276 94.0031 125.138 94.1092C124.703 94.6387 124.141 95.0518 123.48 95.2879ZM154.188 93.9513C155.229 93.196 156.368 92.6066 157.595 92.2142C158.042 92.0707 161.444 91.1615 160.659 92.4958C160.096 93.4528 158.281 93.9489 157.276 94.1403C156.175 94.35 155.081 94.3309 153.993 94.1267L153.979 94.0589C154.05 94.0334 154.119 94.0015 154.188 93.9513ZM113.928 23.589C113.168 12.5887 123.438 2.88605 136.821 1.96093C137.512 1.91307 138.197 1.88993 138.878 1.88993C151.364 1.88993 161.751 9.80056 162.473 20.2322C162.735 24.018 161.679 27.6444 159.648 30.8169C157.323 31.0155 155.027 31.4932 152.754 32.0666C151.12 32.4782 149.495 32.9264 147.858 33.3291C146.239 33.7271 144.51 33.9121 142.934 34.4544C142.698 34.4177 142.446 34.5086 142.376 34.767C142.32 34.9696 142.273 35.1746 142.226 35.3795C142.008 35.5319 141.982 35.8046 142.09 36.02C141.745 37.7976 141.631 39.6319 141.437 41.4232C141.428 41.5045 141.42 41.5851 141.412 41.6656C140.808 41.747 140.199 41.8171 139.579 41.8594C136.934 42.0428 134.363 41.8642 131.932 41.3817C131.79 41.2724 131.603 41.2206 131.406 41.2732C121.805 39.179 114.528 32.2556 113.928 23.589ZM139.914 52.6914C139.61 52.8668 139.296 53.0136 138.978 53.1595C138.661 53.3047 138.348 53.4722 138.047 53.6484C137.762 53.8151 137.425 53.9626 137.16 54.1684C137.121 54.0105 137.192 53.8629 137.265 53.6444C137.373 53.3174 137.49 52.9929 137.615 52.6722C137.812 52.1658 138.106 51.649 138.243 51.1123C138.475 51.0014 138.712 50.9009 138.942 50.7869C139.458 50.5325 140.059 50.2964 140.558 49.9583C140.474 50.7917 140.39 51.6251 140.306 52.4585C140.173 52.5295 140.043 52.6172 139.914 52.6914ZM140.221 53.3079C140.097 54.5361 139.973 55.7642 139.85 56.9924C139.679 56.9039 139.536 56.813 139.384 56.6591C139.148 56.4198 138.93 56.159 138.705 55.9094C138.378 55.5457 138.037 55.194 137.701 54.8375C137.944 54.7378 138.179 54.6031 138.409 54.4874C138.742 54.3183 139.077 54.1237 139.38 53.9052C139.659 53.7034 139.934 53.4993 140.221 53.3079ZM140.556 48.3313C139.792 48.3831 139.1 48.8928 138.425 49.2246L138.386 49.2429L138.442 49.0969C138.565 48.8003 138.689 48.5036 138.81 48.2061C138.934 47.9023 139.052 47.5952 139.172 47.289C139.332 47.2347 139.494 47.1789 139.642 47.1007C139.86 46.9859 140.075 46.8631 140.287 46.7363C140.48 46.6206 140.669 46.5002 140.855 46.3742L140.93 46.3192C140.862 46.9939 140.788 47.6686 140.721 48.3441C140.667 48.3345 140.613 48.3273 140.556 48.3313ZM140.426 45.7936C140.246 45.9268 140.062 46.0544 139.874 46.1764C139.752 46.2562 139.638 46.3224 139.524 46.3909C139.724 45.8781 139.92 45.3645 140.111 44.8485C140.251 44.4713 140.422 44.0757 140.517 43.6722C140.75 43.6491 140.981 43.6227 141.213 43.5948C141.147 44.2432 141.078 44.8908 141.011 45.5392C140.796 45.528 140.597 45.6684 140.426 45.7936ZM137.527 43.8205C138.142 43.8205 138.764 43.7982 139.388 43.7615C139.294 43.9888 139.208 44.2193 139.118 44.4394C138.894 44.9961 138.673 45.5535 138.46 46.115C138.248 46.6757 138.029 47.2347 137.823 47.7986C137.72 48.0809 137.619 48.3632 137.518 48.6455C137.407 48.9526 137.21 49.2923 137.295 49.6225L137.346 49.7246C136.971 49.8992 136.599 50.0811 136.219 50.247C134.734 50.8969 133.221 51.4839 131.686 52.0047C131.353 52.1172 131.016 52.2145 130.681 52.3213C130.829 51.3125 130.977 50.3044 131.125 49.2955C131.284 48.2061 131.447 47.1167 131.587 46.0241C131.701 45.1317 131.927 44.1858 131.832 43.2846C133.666 43.6323 135.572 43.8205 137.527 43.8205ZM127.088 53.3445C126.301 53.5368 125.509 53.7138 124.714 53.8717C124.277 53.9587 123.839 54.0536 123.408 54.0536C124.528 52.0574 125.758 50.1233 127.116 48.2795C127.877 47.2459 128.68 46.2458 129.5 45.2585C129.874 44.8087 130.287 44.3708 130.693 43.9258C130.566 44.4609 130.5 45.0168 130.404 45.5615C130.205 46.6988 130.024 47.8385 129.845 48.9797C129.647 50.2414 129.449 51.5031 129.251 52.7648C128.533 52.9721 127.813 53.1667 127.088 53.3445ZM147.587 71.9524C146.054 72.6191 144.242 72.718 142.593 72.7914C140.76 72.8727 138.902 72.7682 137.091 72.466C133.923 71.9364 130.513 70.4243 129.284 67.2206C128.593 65.4182 129.053 63.4372 129.323 61.5941C129.604 59.6737 129.885 57.7541 130.166 55.8336C130.248 55.2714 130.331 54.7099 130.413 54.1476C130.831 54.02 131.252 53.902 131.666 53.7649C133.341 53.2114 134.99 52.5797 136.607 51.8723C136.699 51.8324 136.787 51.7862 136.878 51.7463C136.744 52.0502 136.629 52.3588 136.515 52.6372C136.217 53.3669 135.765 54.2418 136.274 54.9707C136.746 55.6462 137.372 56.2451 137.928 56.8505C138.43 57.3976 138.953 58.0747 139.734 58.1337C139.594 59.527 139.454 60.9194 139.314 62.3127C139.251 62.9388 139.76 63.371 140.356 63.3303C143.784 63.0935 147.204 62.7721 150.616 62.3765C150.537 62.5201 150.495 62.6931 150.517 62.8957C150.844 66.0387 151.074 70.4363 147.587 71.9524ZM161.656 45.6644C161.592 46.3917 161.533 47.1199 161.47 47.8472C161.07 48.0785 160.655 48.2619 160.207 48.3217C160.14 48.3305 160.071 48.3353 160.002 48.3393L159.841 48.3329C159.758 48.3257 159.674 48.3146 159.592 48.2994L159.483 48.2763L159.446 48.2627C159.368 48.2332 159.292 48.2045 159.216 48.171L159.14 48.1335L159.116 48.1184C159.041 48.0633 158.967 48.0115 158.898 47.9493C159.002 48.0434 158.834 47.8624 158.808 47.8321L158.791 47.8057L158.748 47.7196C158.704 47.6215 158.697 47.6096 158.678 47.5202C158.635 47.3201 158.616 47.0601 158.614 46.8894C158.61 46.5544 158.631 46.0273 158.73 45.7418C158.807 45.5177 158.828 45.4666 158.926 45.3286C158.984 45.2465 159.049 45.1659 159.119 45.0934C159.056 45.158 159.228 45.0033 159.265 44.9745L159.358 44.906L159.448 44.8446L159.625 44.7504C159.706 44.7114 159.79 44.6755 159.876 44.6444L159.986 44.6053L160.029 44.5901L160.064 44.5845C160.616 44.4617 161.185 44.5271 161.743 44.6635C161.713 44.9969 161.685 45.331 161.656 45.6644ZM162.248 38.7985C162.123 40.3002 161.991 41.8012 161.86 43.3021L161.826 43.2886C161.26 43.0852 160.637 43.0254 160.04 43.098C158.954 43.2312 157.968 43.8628 157.462 44.8398C157.196 45.3542 157.115 45.9571 157.1 46.5289C157.085 47.1342 157.087 47.7611 157.335 48.3257C157.753 49.278 158.781 49.841 159.797 49.8801C160.335 49.9008 160.838 49.7964 161.319 49.6217C161.236 50.5915 161.148 51.5605 161.071 52.5311C160.907 54.5823 160.663 56.6503 160.581 58.7095L160.482 58.8475L160.465 58.869L160.469 58.8666L160.428 58.928L160.465 58.8682L160.383 58.9129C160.259 58.9639 160.158 59.0405 160.022 59.0819C159.667 59.1904 159.255 59.2079 158.887 59.267C157.975 59.4121 157.063 59.5588 156.15 59.6992C154.373 59.9728 152.593 60.2128 150.81 60.4313C147.626 60.8221 144.432 61.1411 141.234 61.4139C141.593 57.5068 141.954 53.599 142.313 49.6919C143.39 50.7391 144.606 51.7734 146.137 51.9983C147.755 52.2368 149.496 51.3818 150.384 50.0205C150.85 49.3083 151.092 48.4773 150.879 47.6335C150.684 46.8663 150.222 46.1629 149.68 45.5942C149.108 44.9945 148.408 44.5598 147.566 44.4833C146.716 44.4059 145.869 44.6268 145.082 44.9291C144.257 45.2457 143.471 45.6963 142.773 46.2386C142.715 46.2833 142.667 46.3335 142.612 46.3798C142.75 44.8453 142.892 43.3109 143.022 41.7757C143.178 39.9318 143.433 38.0504 143.434 36.1874C146.635 35.6985 149.796 34.8588 152.983 34.2941C156.15 33.7335 159.328 33.2446 162.519 32.8458C162.596 34.8332 162.414 36.8175 162.248 38.7985ZM142.754 48.053C143.372 47.5035 144.054 46.9995 144.768 46.6374C145.684 46.1732 147.107 45.5591 148.092 46.1453C148.948 46.6541 149.838 47.9429 149.33 48.9342C148.824 49.9208 147.555 50.5636 146.469 50.4073C145.205 50.2254 144.163 49.1982 143.299 48.3369C143.124 48.1622 142.935 48.0769 142.754 48.053Z" fill="#242647" stroke="#242647" stroke-width="2" mask="url(#path-2-inside-1_102_59)"/>
<path d="M136.908 24.0117L136.91 24.0549C136.921 24.2491 136.936 24.4374 136.959 24.6212C136.99 24.8565 137.073 25.0655 137.195 25.205L137.195 25.2051C137.357 25.3916 137.623 25.4688 137.822 25.4074C138.099 25.3211 138.301 25.1269 138.4 24.8504L138.401 24.8495C138.464 24.6749 138.473 24.4734 138.465 24.1942L138.464 24.1524L138.47 24.1111C138.491 23.9685 138.5 23.819 138.503 23.6723L138.503 23.6715C138.515 23.1055 138.436 22.5026 138.2 22.1022L138.2 22.1018C138.048 21.8446 137.857 21.7088 137.645 21.6842L136.908 24.0117ZM136.908 24.0117L136.898 23.9696M136.908 24.0117L136.898 23.9696M136.898 23.9696C136.837 23.7071 136.798 23.4492 136.789 23.1977L136.789 23.1965C136.778 22.8813 136.805 22.576 136.892 22.3497L136.892 22.3497L136.892 22.3483C136.923 22.2679 136.97 22.1887 137.033 22.1135L137.068 22.0707M136.898 23.9696L137.068 22.0707M137.068 22.0707L137.093 22.0212M137.068 22.0707L137.093 22.0212M137.093 22.0212L137.127 21.955M137.093 22.0212L137.127 21.955M137.127 21.955C137.259 21.7611 137.469 21.6638 137.645 21.6842L137.127 21.955ZM139.003 23.6822C139.016 23.088 138.939 22.3703 138.63 21.8479L138.871 25.0188C138.968 24.7485 138.972 24.4638 138.965 24.1815C138.989 24.0132 139 23.8425 139.003 23.6822Z" fill="#242647" stroke="#242647"/>
<path d="M155.35 22.7364L155.353 22.7796C155.364 22.9738 155.379 23.162 155.402 23.3448L155.35 22.7364ZM155.35 22.7364L155.341 22.6943M155.35 22.7364L155.341 22.6943M155.341 22.6943C155.28 22.4318 155.241 22.175 155.234 21.9243L155.234 21.9243L155.234 21.9204C155.223 21.6052 155.249 21.2999 155.336 21.0736L155.336 21.0736L155.337 21.0722C155.367 20.9918 155.415 20.9126 155.477 20.8373L155.512 20.7946L155.538 20.7451L155.571 20.6789M155.341 22.6943L155.571 20.6789M155.571 20.6789C155.704 20.4849 155.913 20.3877 156.089 20.4081L155.571 20.6789ZM156.844 23.5751L156.844 23.5742C156.907 23.3996 156.916 23.1982 156.909 22.918L156.908 22.8761L156.914 22.8346C156.934 22.6932 156.943 22.5431 156.946 22.3961L156.946 22.3953C156.959 21.8297 156.88 21.2271 156.644 20.8255C156.492 20.5684 156.301 20.4327 156.09 20.4081L156.844 23.5751ZM156.844 23.5751C156.745 23.8515 156.543 24.0457 156.266 24.132C156.066 24.1935 155.8 24.1164 155.637 23.9295M156.844 23.5751L155.637 23.9295M155.637 23.9295C155.516 23.7902 155.432 23.5805 155.402 23.3448L155.637 23.9295Z" fill="#242647" stroke="#242647"/>
<path d="M144.765 29.7795L144.765 29.7795C145.493 30.1229 146.338 30.2261 147.169 30.1387M144.765 29.7795L146.935 29.6202C147.615 29.5577 148.271 29.3293 148.844 28.9714C149.365 28.6467 149.686 28.2119 149.969 27.8289C150.02 27.7603 150.07 27.6934 150.119 27.6291C150.211 27.5084 150.365 27.4778 150.505 27.5414C150.572 27.5715 150.61 27.6137 150.627 27.6492C150.64 27.6768 150.656 27.7297 150.622 27.8277C150.399 28.4678 149.787 29.0336 149.121 29.4595L149.121 29.4596C148.545 29.8281 147.852 30.0669 147.169 30.1387M144.765 29.7795C144.744 29.7692 144.722 29.759 144.7 29.7488C144.366 29.5914 144.019 29.4278 143.721 29.2223C143.618 29.1512 143.528 29.08 143.451 29.0086M144.765 29.7795L146.89 29.1223C147.488 29.0672 148.07 28.8655 148.579 28.5473C149.013 28.277 149.272 27.9279 149.556 27.5458C149.61 27.4734 149.665 27.3999 149.722 27.3254C150.234 26.6547 151.392 27.1356 151.094 27.9922C150.815 28.7937 150.085 29.4365 149.391 29.8807C148.748 30.2922 147.98 30.5562 147.221 30.636M147.169 30.1387L147.221 30.636M147.169 30.1387L147.221 30.636M147.221 30.636C146.318 30.7309 145.378 30.6216 144.552 30.2316C144.528 30.2204 144.504 30.2091 144.48 30.1975C143.802 29.8786 142.883 29.446 142.664 28.6924C142.616 28.5281 142.768 28.4109 142.911 28.4021M142.911 28.4021L142.924 28.6168L142.924 28.6171L142.941 28.9012C142.941 28.9012 142.941 28.9012 142.941 28.9012M142.911 28.4021L142.924 28.6168L142.924 28.6171L142.941 28.9012M142.911 28.4021C143.248 28.3815 143.527 28.4967 143.827 28.6204C143.864 28.6353 143.9 28.6503 143.937 28.6653L143.451 29.0086M142.941 28.9012C143.109 28.8909 143.249 28.9301 143.451 29.0086M142.941 28.9012C142.984 28.8986 143.03 28.8831 143.074 28.8383C143.099 28.8126 143.127 28.772 143.143 28.7154C143.16 28.6563 143.158 28.5989 143.144 28.5531C143.189 28.7075 143.291 28.8587 143.451 29.0086M143.451 29.0086C143.511 29.0318 143.577 29.0584 143.65 29.0881C143.681 29.1011 143.715 29.1146 143.75 29.1288L143.75 29.1288C144.101 29.2711 144.47 29.3847 144.851 29.4577C145.499 29.5827 146.212 29.6866 146.935 29.6202L143.451 29.0086Z" fill="#242647" stroke="#242647"/>
</svg>
