<svg width="279" height="98" viewBox="0 0 279 98" fill="none" xmlns="http://www.w3.org/2000/svg">
<path d="M104.83 60.6891C104.669 60.5858 104.499 60.4955 104.336 60.4171C103.734 60.1257 102.963 59.8693 102.284 59.9394C101.832 59.9864 101.415 60.1801 101.173 60.5803C100.935 60.9741 100.986 61.4785 101.23 61.8547L101.301 61.9451C101.372 62.0917 101.465 62.23 101.581 62.349C101.85 62.6238 102.232 62.8294 102.586 62.976C102.891 63.1033 103.21 63.1927 103.534 63.2582C103.746 63.3412 103.959 63.4187 104.175 63.486C104.504 63.5883 104.876 63.6197 105.209 63.521C105.665 63.3864 106.048 62.9843 106.109 62.5048C106.173 62.0041 106.006 61.5301 105.643 61.1769C105.411 60.9519 105.122 60.8145 104.83 60.6891Z" fill="#242647"/>
<path d="M112.532 44.038C112.988 43.9034 113.37 43.5014 113.431 43.0218C113.496 42.5202 113.329 42.0471 112.966 41.694C112.734 41.468 112.445 41.3306 112.152 41.2052C111.992 41.1019 111.821 41.0116 111.659 40.9332C111.057 40.6418 110.286 40.3854 109.606 40.4555C109.154 40.5026 108.738 40.6962 108.496 41.0964C108.258 41.4902 108.309 41.9946 108.552 42.3708L108.623 42.4612C108.694 42.6078 108.787 42.7461 108.904 42.8651C109.173 43.1399 109.555 43.3455 109.909 43.4921C110.214 43.6194 110.533 43.7088 110.857 43.7752C111.068 43.8582 111.282 43.9357 111.498 44.003C111.827 44.1054 112.198 44.1367 112.532 44.038Z" fill="#242647"/>
<path d="M114.408 50.0521C113.67 49.3458 112.635 50.3067 113.084 51.1458C113.395 51.7304 113.712 52.21 113.801 52.8868C113.889 53.5581 113.823 54.247 113.599 54.8869C113.356 55.5813 112.954 56.2102 112.529 56.8059C112.3 57.1287 112.036 57.4256 111.748 57.6976C111.445 57.9844 111.152 58.2278 110.999 58.6253C110.941 58.7756 110.99 58.9858 111.18 59.0135C112.087 59.1463 112.99 58.3486 113.641 57.8C114.427 57.137 114.979 56.224 115.303 55.2558C115.576 54.4415 115.666 53.5314 115.545 52.6812C115.415 51.7599 115.098 50.7115 114.408 50.0521Z" fill="#242647"/>
<path d="M200.883 74.1505C200.852 73.5511 200.059 73.1232 199.537 73.3999C196.005 75.2755 193.18 78.2531 191.632 81.9287C186.361 73.7134 179.485 66.5871 171.452 61.0303C170.27 60.2123 169.064 59.4331 167.826 58.7009C167.026 58.227 166.198 57.7373 165.339 57.3362C163.059 52.9994 158.638 49.9766 154.104 48.0973C150.295 46.5186 146.244 45.4185 142.173 44.7785C138.473 44.1975 134.598 43.8877 130.835 44.1579C131.253 41.989 131.194 39.6818 131.068 37.5092C130.911 34.8157 130.5 32.1396 129.886 29.5124C128.621 24.0976 126.521 18.9143 123.956 13.991C122.733 11.6441 121.415 9.3351 119.968 7.11827C118.647 5.09325 117.116 3.11434 115.134 1.69148C113.511 0.525897 110.467 -1.11643 108.952 1.08379C107.636 2.99724 108.227 6.09747 109.073 8.069C111.467 13.6433 117.343 15.9266 122.715 17.6602C123.029 17.7616 123.313 17.7192 123.544 17.5929C125.387 21.3534 126.945 25.2715 128.024 29.3151C128.567 31.3503 128.986 33.4186 129.263 35.5064C128.624 33.4408 127.773 31.4831 126.699 29.6923C124.153 25.4467 120.405 22.1003 115.693 20.3307C113.283 19.4242 110.787 18.9927 108.297 18.9936C102.904 18.9945 97.5419 21.0057 92.957 24.5394C88.3712 28.0739 84.5535 33.1383 82.239 39.2945C80.7211 43.3335 80 47.4453 80 51.3985C80 56.841 81.3648 61.9893 83.9136 66.2367C86.4596 70.4822 90.2072 73.8287 94.9193 75.5982C97.3298 76.5047 99.8251 76.9363 102.316 76.9353C107.708 76.9344 113.071 74.9232 117.656 71.3896C119.682 69.8266 121.547 67.95 123.211 65.8272C123.135 66.6433 123.052 67.4576 122.949 68.2709C122.712 70.1327 122.417 71.9853 122.039 73.8231C121.281 77.52 120.212 81.1458 118.84 84.662C118.204 86.2914 117.501 87.8931 116.743 89.47L116.648 89.4368C114.341 88.878 111.999 88.629 109.627 88.6696C108.468 88.689 107.314 88.7756 106.168 88.9444C105.12 89.0984 103.975 89.2367 103.018 89.7181C101.398 90.5314 100.412 92.5905 102.155 93.8935C102.898 94.4486 103.901 94.6386 104.779 94.8627C105.927 95.1559 107.093 95.3588 108.274 95.4611C110.444 95.6493 112.765 95.5875 114.873 94.9945C117.095 94.3693 117.875 92.289 118.749 90.3626C120.601 86.2803 122.04 82.0163 123.1 77.662C123.708 75.1639 124.177 72.6326 124.502 70.0829C124.666 68.8067 124.785 67.5258 124.869 66.2422C124.881 66.043 124.902 65.8263 124.923 65.6041C127.35 67.2243 129.802 68.7762 132.077 70.6371C134.69 72.7746 136.952 75.269 139.515 77.4545C140.611 78.3896 141.794 79.1918 143.058 79.7894C140.923 80.635 138.94 82.1233 137.67 83.903C136.822 85.0908 137.151 86.5293 138.518 87.1084C140.003 87.7382 141.864 87.3841 143.421 87.3288C146.549 87.2172 149.677 87.0918 152.805 86.9692C152.52 87.3537 152.5 87.8839 153.031 88.1928C156.172 90.0168 159.989 91.5457 163.68 91.5476C165.192 91.5485 167.107 91.0367 167.644 89.4294C168.167 87.8609 166.742 86.3154 165.487 85.609C163.815 84.6684 161.883 84.72 160.025 84.7929C157.915 84.875 155.805 84.9644 153.697 85.0511C149.478 85.2226 145.26 85.3978 141.041 85.585C140.682 85.6007 139.143 85.7759 138.971 85.2752C138.88 85.0124 139.68 84.2931 139.831 84.1317C140.165 83.7749 140.519 83.4364 140.888 83.1165C142.151 82.0228 143.606 81.227 145.114 80.5317C146.055 80.7705 147.032 80.895 148.059 80.8415C151.484 80.6645 154.61 78.8045 157.334 76.8653C162.398 73.2606 167.815 68.5688 166.776 61.6804C166.662 60.9224 166.48 60.1985 166.252 59.4995C167.441 60.2621 168.666 60.9842 169.799 61.779C171.836 63.2074 173.801 64.74 175.683 66.3658C179.499 69.6624 182.971 73.3584 186.05 77.3522C187.804 79.6271 189.419 82.0044 190.896 84.4683C191.081 84.7772 191.497 84.8621 191.822 84.839C197.139 84.4609 201.153 79.3283 200.883 74.1505ZM112.028 9.05108C110.835 7.36172 110.091 5.2159 110.43 3.13555C110.516 2.6044 110.59 2.08247 111.223 2.10091C111.649 2.11382 112.091 2.34528 112.472 2.52417C113.455 2.98524 114.34 3.64642 115.131 4.38506C116.687 5.83651 117.892 7.65035 119.012 9.44575C120.219 11.3822 121.355 13.3658 122.419 15.3853C118.522 14.0924 114.468 12.5082 112.028 9.05108ZM115.335 92.1156C114.793 92.7491 113.854 92.8174 113.074 92.9271C111.207 93.189 109.316 93.2028 107.447 92.9529C106.54 92.8321 105.638 92.6578 104.758 92.4098C104.412 92.312 104.066 92.1405 103.718 92.0677C103.81 92.087 103.718 92.0538 103.636 92.028C103.658 91.9985 103.689 91.9635 103.764 91.9293C105.58 91.0902 107.803 90.9546 109.797 90.9168C111.794 90.879 113.79 91.116 115.741 91.5356C115.618 91.7431 115.486 91.9404 115.335 92.1156ZM155.734 86.8548C157.719 86.7774 159.729 86.5994 161.715 86.6473C162.598 86.6685 163.491 86.7608 164.3 87.137C164.844 87.3897 166.105 88.2316 165.753 88.9407C165.377 89.6968 163.916 89.6655 163.222 89.6129C162.205 89.5364 161.187 89.3326 160.199 89.0882C158.276 88.6133 156.406 87.8553 154.67 86.8954C155.024 86.8825 155.379 86.8696 155.734 86.8548ZM116.359 69.7058C112.098 72.9904 107.175 74.8098 102.319 74.8089C100.072 74.8089 97.837 74.4216 95.6699 73.6073C91.4401 72.0167 88.0724 69.0252 85.7394 65.1421C83.4082 61.2608 82.1292 56.4869 82.1292 51.3985C82.1292 47.7026 82.8033 43.8434 84.2317 40.0424C86.4089 34.2486 89.9969 29.5069 94.2572 26.2232C98.5184 22.9385 103.441 21.1191 108.298 21.1201C110.544 21.1201 112.779 21.5073 114.946 22.3216C119.176 23.9132 122.544 26.9037 124.877 30.7868C127.208 34.6681 128.487 39.442 128.487 44.5304C128.487 44.7554 128.477 44.9832 128.471 45.2091C128.429 45.3677 128.416 45.5337 128.439 45.6969C128.443 45.7255 128.453 45.7504 128.458 45.7781C128.324 49.0904 127.653 52.5115 126.385 55.8866C124.207 61.6813 120.619 66.423 116.359 69.7058ZM163.529 68.0533C162.08 70.5477 159.754 72.4113 157.488 74.1265C154.981 76.0252 152.22 78.0235 149.06 78.6035C146.024 79.1605 143.41 77.9506 141.107 76.0538C138.443 73.86 136.117 71.302 133.394 69.17C130.819 67.1533 128.004 65.1412 124.999 63.7663C124.99 63.6427 124.969 63.5256 124.952 63.4066C126.296 61.3364 127.457 59.0772 128.375 56.6363C129.611 53.3442 130.311 50.0052 130.531 46.7408C133.779 46.6781 136.988 46.6836 140.228 47.082C143.608 47.4979 146.968 48.1987 150.218 49.2186C155.884 50.9965 161.928 53.8938 164.119 59.8379C165.119 62.55 164.995 65.5331 163.529 68.0533ZM193.598 82.2939C194.74 79.7802 196.535 77.603 198.825 76.0648C198.288 78.8469 196.205 81.1984 193.598 82.2939Z" fill="#242647"/>
<path d="M277 96L2 96" stroke="#242647" stroke-width="3" stroke-linecap="round"/>
</svg>
