<svg width="80" height="140" viewBox="0 0 80 140" fill="none" xmlns="http://www.w3.org/2000/svg">
<path d="M67.4 9.578C60.23 3.639 50.384 0.002 39.535 0C28.686 0.002 18.84 3.639 11.67 9.578C4.50298 15.509 -0.00199933 23.797 6.65654e-07 32.982C-0.00199933 42.167 4.50398 50.455 11.67 56.387C13.843 58.187 16.266 59.772 18.884 61.112C17.751 63.275 16.94 65.65 16.159 67.944C15.284 70.511 14.529 73.12 13.867 75.75C12.484 81.247 11.584 86.861 11.111 92.509C10.642 98.112 10.647 103.753 11.148 109.354C11.337 111.469 11.408 114.024 12.982 115.654C14.374 117.096 16.547 116.826 17.713 115.248C19.163 113.286 19.061 110.278 18.513 108.024C17.863 105.347 16.425 102.991 14.35 101.184C13.734 100.648 13.026 100.984 12.72 101.549C12.543 93.065 13.454 84.6 15.48 76.345C16.121 73.731 16.882 71.149 17.736 68.597C18.196 67.223 18.735 65.869 19.255 64.511C18.49 67.508 17.94 70.563 17.454 73.613C16.74 78.095 16.276 82.619 16.036 87.151C15.829 91.056 15.443 95.303 16.467 99.126C17.41 102.645 19.728 105.261 23.059 106.712C24.373 107.285 25.755 107.678 27.167 107.959C26.996 108.727 27.109 109.598 27.123 110.36C27.146 111.669 27.245 112.979 27.324 114.286C27.478 116.827 27.652 119.366 27.817 121.906C28.072 125.833 28.349 129.769 28.543 133.703C26.17 132.814 23.632 132.438 21.09 132.63C18.922 132.793 15.62 133.632 15.623 136.381C15.626 139.227 19.058 139.719 21.216 139.784C24.23 139.875 27.598 139.489 30.296 138.056C30.769 137.804 31.043 137.367 30.983 136.823C30.43 131.775 30.071 126.693 29.673 121.631C29.479 119.169 29.293 116.706 29.092 114.244C28.986 112.943 28.894 111.636 28.741 110.34C28.659 109.652 28.634 108.876 28.436 108.182C30.303 108.466 32.202 108.585 34.053 108.676C37.847 108.863 41.665 108.741 45.448 108.363C45.379 109.023 45.459 109.729 45.47 110.359C45.493 111.668 45.592 112.978 45.672 114.285C45.826 116.826 46 119.365 46.165 121.905C46.42 125.832 46.697 129.768 46.891 133.702C44.518 132.813 41.98 132.437 39.439 132.629C37.271 132.792 33.969 133.631 33.972 136.38C33.975 139.226 37.406 139.718 39.565 139.783C42.579 139.874 45.947 139.488 48.645 138.055C49.118 137.803 49.392 137.366 49.333 136.822C48.78 131.774 48.421 126.692 48.023 121.63C47.829 119.168 47.643 116.705 47.442 114.243C47.336 112.942 47.244 111.635 47.09 110.339C47.01 109.664 46.985 108.905 46.797 108.222C47.018 108.196 47.241 108.18 47.461 108.153C50.949 107.715 54.841 106.875 56.896 103.716C59.039 100.421 58.939 96.053 59.008 92.271C59.098 87.307 58.814 82.372 58.161 77.486C59.323 81.568 60.228 85.718 60.821 89.921C61.263 93.058 61.552 96.225 61.705 99.396C58.65 102.624 56.459 107.663 56.616 112.09C56.678 113.853 57.484 115.904 59.463 116.175C61.833 116.5 63.286 114.294 63.634 112.244C64.08 109.615 63.969 106.781 63.949 104.122C63.928 101.385 63.809 98.65 63.541 95.926C63.011 90.537 62.033 85.185 60.667 79.946C59.915 77.06 59.036 74.208 58.025 71.402C57.367 69.577 56.711 67.651 55.871 65.841C55.649 64.986 55.41 64.133 55.166 63.282C59.751 61.635 63.895 59.288 67.398 56.387C74.565 50.456 79.07 42.168 79.068 32.982C79.072 23.797 74.567 15.509 67.4 9.578ZM12.977 102.985C14.537 104.294 15.674 106.02 16.265 107.972C16.787 109.695 17.122 112.226 16.109 113.841C14.827 115.886 13.671 112.919 13.478 111.812C13.084 109.553 12.969 107.204 12.844 104.918C12.804 104.195 12.788 103.473 12.765 102.75C12.823 102.832 12.89 102.912 12.977 102.985ZM23.306 137.23C22.2 137.305 21.093 137.268 19.992 137.145C19.518 137.092 18.204 137.007 18.047 136.399C17.699 135.048 21.773 134.89 22.434 134.883C24.567 134.857 26.641 135.318 28.59 136.154C26.852 136.649 25.141 137.105 23.306 137.23ZM41.654 137.23C40.548 137.305 39.441 137.268 38.34 137.145C37.866 137.092 36.552 137.007 36.395 136.399C36.047 135.048 40.121 134.89 40.782 134.883C42.915 134.857 44.989 135.318 46.938 136.154C45.2 136.649 43.489 137.105 41.654 137.23ZM61.837 103.862C61.846 106.219 61.793 108.59 61.602 110.94C61.529 111.832 61.46 112.958 60.76 113.612C60.014 114.308 59.252 113.999 58.96 113.106C58.314 111.132 59.169 108.487 59.85 106.633C60.355 105.258 61.039 104.028 61.815 102.846C61.82 103.185 61.836 103.524 61.837 103.862ZM56.546 87.754C56.648 91.551 56.704 95.601 55.924 99.337C55.581 100.979 54.886 102.57 53.529 103.615C52.27 104.585 50.686 105.023 49.146 105.307C45.14 106.044 40.967 106.252 36.901 106.204C33.369 106.162 29.68 106.076 26.239 105.193C23.057 104.377 20.261 102.644 19.062 99.461C17.777 96.052 18.129 92.04 18.258 88.474C18.424 83.865 18.84 79.27 19.474 74.703C20.047 70.572 20.916 66.501 21.663 62.402C27.039 64.678 33.109 65.964 39.537 65.965C44.175 65.964 48.628 65.294 52.769 64.069C55.077 71.748 56.33 79.739 56.546 87.754ZM65.728 54.368C59.064 59.892 49.797 63.345 39.535 63.343C29.273 63.344 20.007 59.892 13.342 54.368C6.67398 48.836 2.622 41.288 2.621 32.982C2.623 24.676 6.67398 17.128 13.342 11.596C20.006 6.072 29.273 2.619 39.535 2.621C49.796 2.62 59.063 6.072 65.728 11.596C72.396 17.128 76.448 24.676 76.449 32.982C76.447 41.289 72.396 48.837 65.728 54.368Z" fill="#242647"/>
<path d="M46.7761 45.034L46.6971 44.902C46.3381 44.417 45.7291 44.115 45.1211 44.229C44.5031 44.344 44.0631 44.776 43.7901 45.322C43.3801 46.143 43.3391 47.233 43.4201 48.129C43.4421 48.37 43.4741 48.627 43.5281 48.878C43.5471 49.306 43.5831 49.734 43.7581 50.132C44.0311 50.755 44.5471 51.189 45.2081 51.345C45.8401 51.494 46.5261 51.204 46.9111 50.694C47.1931 50.32 47.3291 49.839 47.3571 49.376C47.3751 49.073 47.3781 48.768 47.3741 48.463C47.4441 48.025 47.4821 47.582 47.4661 47.138C47.4481 46.623 47.3711 46.046 47.1521 45.578C47.0561 45.374 46.9271 45.192 46.7761 45.034Z" fill="#242647"/>
<path d="M20.5649 43.286L20.4859 43.154C20.1279 42.669 19.5179 42.367 18.9099 42.481C18.2919 42.596 17.8519 43.028 17.5789 43.574C17.1689 44.395 17.1279 45.485 17.2089 46.381C17.2309 46.622 17.2629 46.879 17.3169 47.13C17.3359 47.557 17.3719 47.986 17.5469 48.384C17.8199 49.007 18.3359 49.441 18.9969 49.597C19.6289 49.746 20.3149 49.456 20.6999 48.946C20.9819 48.572 21.1179 48.091 21.1459 47.628C21.1639 47.325 21.1659 47.02 21.1619 46.715C21.2319 46.277 21.2699 45.834 21.2549 45.39C21.2379 44.875 21.1599 44.298 20.9409 43.83C20.8449 43.627 20.7159 43.445 20.5649 43.286Z" fill="#242647"/>
<path d="M35.5811 54.642C35.2611 54.415 34.9051 54.208 34.5441 54.054C33.8721 53.767 33.1341 53.587 32.4061 53.525C31.6981 53.464 30.9661 53.501 30.2721 53.659C29.5721 53.819 28.6571 54.065 28.2681 54.724C28.0911 55.023 28.1821 55.526 28.6131 55.542C29.2281 55.566 29.7951 55.295 30.3961 55.189C31.0001 55.083 31.5471 55.077 32.1531 55.162C32.7411 55.245 33.2131 55.388 33.7731 55.656C34.3501 55.932 34.8161 56.357 35.5221 56.435C35.9071 56.477 36.3631 56.113 36.2521 55.687C36.1381 55.246 35.9621 54.913 35.5811 54.642Z" fill="#242647"/>
</svg>
