<svg width="279" height="99" viewBox="0 0 279 99" fill="none" xmlns="http://www.w3.org/2000/svg">
<path d="M159.767 6.64585C154.792 2.52498 147.96 0.00138773 140.432 0C132.904 0.00138773 126.072 2.52498 121.097 6.64585C116.124 10.7612 112.999 16.5119 113 22.8851C112.999 29.2582 116.125 35.009 121.097 39.125C122.605 40.374 124.286 41.4737 126.103 42.4035C125.317 43.9043 124.754 45.5523 124.212 47.144C123.605 48.9251 123.081 50.7354 122.622 52.5603C121.662 56.3745 121.038 60.2699 120.71 64.1888C120.384 68.0765 120.388 71.9906 120.735 75.877C120.866 77.3445 120.916 79.1173 122.008 80.2483C122.974 81.2489 124.481 81.0615 125.29 79.9666C126.297 78.6052 126.226 76.5181 125.846 74.9541C125.395 73.0966 124.397 71.4619 122.957 70.2081C122.53 69.8362 122.038 70.0693 121.826 70.4614C121.703 64.5746 122.335 58.701 123.741 52.9732C124.186 51.1594 124.714 49.3678 125.306 47.5971C125.626 46.6437 126 45.7042 126.36 44.762C125.83 46.8415 125.448 48.9612 125.111 51.0775C124.615 54.1874 124.293 57.3265 124.127 60.4711C123.983 63.1806 123.715 66.1275 124.426 68.7801C125.08 71.2218 126.689 73.037 129 74.0438C129.912 74.4414 130.871 74.714 131.85 74.909C131.732 75.4419 131.81 76.0463 131.82 76.575C131.836 77.4833 131.904 78.3922 131.959 79.2991C132.066 81.0622 132.187 82.824 132.301 84.5864C132.478 87.3112 132.67 90.0422 132.805 92.7719C131.158 92.1551 129.397 91.8942 127.634 92.0274C126.129 92.1405 123.838 92.7226 123.84 94.6301C123.842 96.6048 126.224 96.9462 127.721 96.9913C129.812 97.0544 132.149 96.7866 134.021 95.7923C134.35 95.6174 134.54 95.3142 134.498 94.9368C134.114 91.4341 133.865 87.9079 133.589 84.3955C133.454 82.6873 133.325 80.9783 133.186 79.27C133.112 78.3673 133.049 77.4604 132.942 76.5611C132.885 76.0837 132.868 75.5453 132.731 75.0638C134.026 75.2608 135.344 75.3434 136.628 75.4065C139.261 75.5363 141.91 75.4516 144.535 75.1893C144.487 75.6473 144.542 76.1372 144.55 76.5743C144.566 77.4826 144.635 78.3915 144.69 79.2984C144.797 81.0615 144.918 82.8233 145.032 84.5857C145.209 87.3105 145.401 90.0415 145.536 92.7712C143.889 92.1544 142.128 91.8935 140.365 92.0267C138.861 92.1398 136.57 92.7219 136.572 94.6294C136.574 96.6041 138.955 96.9455 140.453 96.9906C142.544 97.0537 144.881 96.7859 146.753 95.7916C147.081 95.6167 147.271 95.3135 147.23 94.9361C146.847 91.4334 146.598 87.9072 146.321 84.3949C146.187 82.6866 146.058 80.9776 145.918 79.2693C145.845 78.3666 145.781 77.4597 145.674 76.5604C145.619 76.0921 145.601 75.5654 145.471 75.0915C145.624 75.0735 145.779 75.0624 145.932 75.0436C148.352 74.7397 151.052 74.1569 152.478 71.965C153.965 69.6787 153.896 66.6479 153.944 64.0237C154.006 60.5793 153.809 57.1551 153.356 53.7649C154.162 56.5972 154.79 59.4768 155.202 62.3931C155.508 64.5697 155.709 66.7672 155.815 68.9675C153.695 71.2073 152.175 74.7036 152.284 77.7754C152.327 78.9987 152.886 80.4218 154.259 80.6098C155.904 80.8353 156.912 79.3047 157.153 77.8822C157.463 76.0581 157.386 74.0917 157.372 72.2467C157.357 70.3476 157.275 68.4498 157.089 66.5597C156.721 62.8205 156.043 59.1069 155.095 55.4718C154.573 53.4693 153.963 51.4904 153.262 49.5434C152.805 48.2771 152.35 46.9407 151.767 45.6848C151.613 45.0915 151.447 44.4997 151.278 43.9092C154.459 42.7664 157.335 41.1379 159.765 39.125C164.738 35.0097 167.864 29.2589 167.863 22.8851C167.865 16.5119 164.739 10.7612 159.767 6.64585ZM122.004 71.4577C123.087 72.366 123.876 73.5636 124.286 74.918C124.648 76.1136 124.88 77.8697 124.177 78.9903C123.288 80.4093 122.486 78.3506 122.352 77.5825C122.079 76.015 121.999 74.3852 121.912 72.799C121.884 72.2973 121.873 71.7963 121.857 71.2947C121.897 71.3516 121.944 71.4071 122.004 71.4577ZM129.171 95.2192C128.404 95.2712 127.636 95.2455 126.872 95.1602C126.543 95.1234 125.631 95.0644 125.522 94.6426C125.281 93.7051 128.108 93.5955 128.566 93.5907C130.046 93.5726 131.485 93.8925 132.838 94.4726C131.632 94.816 130.444 95.1324 129.171 95.2192ZM141.902 95.2192C141.135 95.2712 140.367 95.2455 139.603 95.1602C139.274 95.1234 138.362 95.0644 138.253 94.6426C138.012 93.7051 140.839 93.5955 141.297 93.5907C142.777 93.5726 144.216 93.8925 145.569 94.4726C144.363 94.816 143.176 95.1324 141.902 95.2192ZM155.907 72.0663C155.913 73.7017 155.876 75.3469 155.743 76.9774C155.693 77.5964 155.645 78.3777 155.159 78.8314C154.642 79.3144 154.113 79.1 153.91 78.4804C153.462 77.1107 154.055 75.2754 154.528 73.989C154.878 73.0349 155.353 72.1814 155.891 71.3613C155.895 71.5965 155.906 71.8317 155.907 72.0663ZM152.235 60.8895C152.306 63.5241 152.345 66.3342 151.804 68.9265C151.566 70.0658 151.083 71.1698 150.142 71.8949C149.268 72.5679 148.169 72.8718 147.101 73.0689C144.321 73.5803 141.426 73.7246 138.604 73.6913C136.154 73.6622 133.594 73.6025 131.206 72.9898C128.998 72.4236 127.058 71.2211 126.226 69.0126C125.335 66.6472 125.579 63.8634 125.669 61.3891C125.784 58.191 126.072 55.0027 126.512 51.8338C126.91 48.9675 127.513 46.1428 128.031 43.2986C131.761 44.8778 135.973 45.7701 140.433 45.7708C143.651 45.7701 146.741 45.3053 149.615 44.4553C151.216 49.7835 152.085 55.3281 152.235 60.8895ZM158.606 37.7241C153.982 41.557 147.552 43.9529 140.432 43.9515C133.312 43.9522 126.882 41.557 122.258 37.7241C117.631 33.8856 114.819 28.6483 114.819 22.8851C114.82 17.1218 117.631 11.8845 122.258 8.04606C126.881 4.21315 133.312 1.81724 140.432 1.81862C147.552 1.81793 153.982 4.21315 158.606 8.04606C163.233 11.8845 166.045 17.1218 166.045 22.8851C166.044 28.649 163.233 33.8863 158.606 37.7241Z" fill="#242647"/>
<path d="M145.456 31.2474L145.401 31.1558C145.152 30.8193 144.73 30.6097 144.308 30.6888C143.879 30.7686 143.574 31.0684 143.384 31.4472C143.1 32.0169 143.071 32.7732 143.128 33.3949C143.143 33.5621 143.165 33.7404 143.203 33.9146C143.216 34.2116 143.241 34.5085 143.362 34.7847C143.552 35.217 143.91 35.5181 144.368 35.6264C144.807 35.7297 145.283 35.5285 145.55 35.1747C145.746 34.9152 145.84 34.5814 145.859 34.2601C145.872 34.0499 145.874 33.8383 145.871 33.6266C145.92 33.3227 145.946 33.0153 145.935 32.7073C145.923 32.3499 145.869 31.9496 145.717 31.6248C145.651 31.4833 145.561 31.357 145.456 31.2474Z" fill="#242647"/>
<path d="M127.269 30.0347L127.215 29.9431C126.966 29.6066 126.543 29.3971 126.121 29.4762C125.692 29.556 125.387 29.8557 125.198 30.2346C124.913 30.8042 124.885 31.5605 124.941 32.1822C124.956 32.3495 124.978 32.5278 125.016 32.702C125.029 32.9982 125.054 33.2959 125.175 33.5721C125.365 34.0043 125.723 34.3055 126.181 34.4137C126.62 34.5171 127.096 34.3159 127.363 33.962C127.559 33.7025 127.653 33.3688 127.673 33.0475C127.685 32.8373 127.686 32.6256 127.684 32.414C127.732 32.1101 127.759 31.8027 127.748 31.4946C127.736 31.1373 127.682 30.7369 127.53 30.4122C127.464 30.2713 127.374 30.1451 127.269 30.0347Z" fill="#242647"/>
<path d="M137.688 37.9142C137.466 37.7567 137.219 37.6131 136.969 37.5062C136.503 37.3071 135.991 37.1822 135.485 37.1392C134.994 37.0969 134.486 37.1225 134.005 37.2321C133.519 37.3432 132.884 37.5139 132.614 37.9711C132.491 38.1786 132.555 38.5276 132.854 38.5387C133.28 38.5554 133.674 38.3673 134.091 38.2938C134.51 38.2202 134.889 38.2161 135.31 38.275C135.718 38.3326 136.045 38.4318 136.434 38.6178C136.834 38.8093 137.158 39.1042 137.647 39.1583C137.915 39.1875 138.231 38.9349 138.154 38.6393C138.075 38.3333 137.953 38.1023 137.688 37.9142Z" fill="#242647"/>
<path d="M277 97L2 97" stroke="black" stroke-opacity="0.5" stroke-width="3" stroke-linecap="round"/>
</svg>
