<svg width="117" height="142" viewBox="0 0 117 142" fill="none" xmlns="http://www.w3.org/2000/svg">
<path d="M74.3643 38.9941C74.3836 39.4278 74.4202 39.8635 74.5979 40.2677C74.8752 40.9005 75.3992 41.3413 76.0706 41.4997C76.7125 41.6511 77.4092 41.3565 77.8003 40.8385C78.0867 40.4587 78.2248 39.9702 78.2532 39.4999C78.2715 39.1922 78.2735 38.8824 78.2695 38.5726C78.3406 38.1278 78.3792 37.6778 78.3639 37.2269C78.3467 36.7038 78.2675 36.1178 78.045 35.6424C77.9485 35.4363 77.8175 35.2514 77.6642 35.0909L77.5829 34.9569C77.2193 34.4643 76.5997 34.1576 75.9822 34.2733C75.3546 34.3901 74.9077 34.8289 74.6304 35.3834C74.214 36.2173 74.1723 37.3244 74.2546 38.2344C74.2769 38.4782 74.3095 38.7392 74.3643 38.9941Z" fill="#EFF0F3"/>
<path d="M49.2664 35.0898L49.1862 34.9558C48.8216 34.4632 48.203 34.1565 47.5855 34.2722C46.9578 34.389 46.5109 34.8278 46.2337 35.3823C45.8172 36.2162 45.7756 37.3233 45.8579 38.2333C45.8802 38.4781 45.9127 38.7401 45.9676 38.994C45.9869 39.4277 46.0234 39.8634 46.2012 40.2676C46.4784 40.9004 47.0025 41.3412 47.6739 41.4996C48.3158 41.651 49.0125 41.3564 49.4025 40.8385C49.6889 40.4586 49.8271 39.9701 49.8555 39.4998C49.8738 39.1921 49.8768 38.8823 49.8728 38.5725C49.9439 38.1277 49.9825 37.6777 49.9662 37.2268C49.9489 36.7037 49.8697 36.1177 49.6473 35.6424C49.5518 35.4362 49.4208 35.2513 49.2664 35.0898Z" fill="#EFF0F3"/>
<path d="M62.3967 49.76C63.7892 49.8097 65.2203 49.5436 66.4441 48.8581C67.4567 48.2913 68.9091 47.5195 69.1742 46.2986C69.2301 46.0417 68.9863 45.8781 68.7659 45.8802C68.185 45.8852 67.733 46.1432 67.2211 46.3931C66.7366 46.6297 66.2298 46.8237 65.7078 46.9618C64.7439 47.2168 63.7486 47.4291 62.7441 47.4067C61.8199 47.3854 60.9078 47.1386 60.0932 46.7049C59.2706 46.2661 58.8105 45.6324 58.2143 44.9539C57.3581 43.9799 55.6345 44.8391 56.182 46.1209C56.6938 47.3194 57.8801 48.2264 58.9923 48.8337C60.0221 49.3954 61.2267 49.7183 62.3967 49.76Z" fill="#EFF0F3"/>
<path d="M116.804 29.0965C116.208 26.4111 113.476 24.6672 110.868 26.0282C107.477 27.7985 106.643 32.4279 105.951 35.7968C105.492 38.0312 105.173 40.3002 104.98 42.5732C104.783 44.8767 104.543 47.3803 104.973 49.6665C100.522 55.1531 95.0694 59.8394 88.9847 63.3881C86.1845 65.0212 83.2432 66.4157 80.2195 67.5827C77.4732 68.642 74.6395 69.3591 71.8282 70.1909C71.4748 68.8462 71.1965 67.4791 71.0319 66.0785C70.9913 65.7292 70.8593 65.459 70.6754 65.2538C76.5662 63.6044 81.8588 60.855 86.1865 57.2698C93.4657 51.2459 98.0412 42.8281 98.0392 33.4994C98.0412 24.1706 93.4657 15.7528 86.1865 9.72795C78.9043 3.69597 68.9041 0.00203131 57.8853 0C46.8664 0.00203131 36.8663 3.69597 29.5841 9.72795C22.3049 15.7518 17.7293 24.1695 17.7314 33.4994C17.7293 42.8281 22.3049 51.2459 29.5841 57.2698C31.784 59.0919 34.2358 60.6966 36.8856 62.0545C36.3382 63.3637 35.7918 64.6729 35.2636 65.9892C33.2486 64.5957 31.1299 63.3525 29.1179 61.9519C26.9464 60.4406 24.8399 58.8349 22.8137 57.1337C18.7846 53.7505 15.0846 49.9652 11.8761 45.7919L11.7969 45.6852L11.802 45.6425C11.869 41.911 11.8091 38.1846 11.5054 34.4632C11.2403 31.2212 11.0839 27.702 9.93317 24.6266C9.11963 22.4521 7.52505 20.2654 4.9849 20.24C1.99278 20.2095 0.058971 23.1143 0.00209428 25.8667C-0.0608763 28.9198 1.30823 32.0927 2.48537 34.8604C3.65439 37.6097 5.07123 40.2484 6.66378 42.7754C9.84989 47.8313 13.8089 52.3387 18.225 56.3526C20.691 58.5942 23.3012 60.6773 26.0171 62.6091C28.7055 64.5215 31.5097 66.4756 34.51 67.8742C33.3735 70.7444 32.2644 73.6249 31.1451 76.5012C30.0899 79.216 29.0437 81.9349 27.9671 84.6416C26.9809 87.1198 25.9318 89.5849 25.2208 92.1606C23.9269 96.8498 24.0559 101.547 26.658 105.758C28.0017 107.934 29.8481 109.778 31.9516 111.258C31.3056 111.972 30.7267 112.742 30.0381 113.421C29.1006 114.347 28.0017 115.15 26.8286 115.746C24.6734 116.843 22.2348 117.363 19.8236 117.064C17.4703 116.773 15.2928 115.755 13.4646 114.261C11.4831 112.641 10.4745 110.693 9.46292 108.408C8.9683 107.29 8.24922 106.269 7.05074 105.843C5.94977 105.452 4.71474 105.708 3.94792 106.613C3.13133 107.577 2.89163 109.125 2.63975 110.325C2.32591 111.822 2.15021 113.351 2.12786 114.881C2.09028 117.438 2.22028 120.4 3.52337 122.676C4.58879 124.537 6.75315 125.774 8.77532 124.504C11.0677 123.065 11.1845 119.777 11.1306 117.379C11.1174 116.768 11.0677 116.158 11.0016 115.553C11.1316 115.677 11.2525 115.81 11.3866 115.93C14.4884 118.693 18.8354 120.036 22.9478 119.438C25.2624 119.102 27.4776 118.191 29.3952 116.857C31.0436 115.711 32.7031 114.133 33.4334 112.221C34.3678 112.773 35.3367 113.259 36.326 113.671C41.129 115.671 46.4277 116.005 51.5679 115.909C54.3173 115.857 57.1266 115.783 59.9105 115.549C61.6879 116.925 63.5374 118.21 65.2315 119.702C67.4883 121.689 69.608 123.825 71.5509 126.119C75.4053 130.672 78.4594 135.738 80.7589 141.238C81.0229 141.87 81.8009 142.17 82.4266 141.901C85.8321 140.433 88.8293 138.219 91.2252 135.386C92.9376 133.361 96.0241 129.474 94.2275 126.702C92.0407 123.331 87.4327 126.985 85.505 128.791C84.1704 130.041 82.9913 131.448 82.0416 133.013C81.6029 133.735 81.092 134.546 80.7274 135.392C78.6321 131.527 76.1183 127.872 73.2664 124.556C71.296 122.266 69.1591 120.105 66.8566 118.148C65.6774 117.146 64.4474 116.12 63.1576 115.186C64.0534 115.061 64.9461 114.918 65.8267 114.741C70.0762 113.88 74.2018 112.102 76.9573 108.629C79.6051 105.294 80.4897 100.998 80.3871 96.8224C80.1657 87.8166 74.9513 80.2611 72.334 71.9328C75.1677 71.5986 77.9678 70.719 80.638 69.7694C83.6941 68.6827 86.6415 67.3085 89.461 65.7048C95.0969 62.4994 100.193 58.4337 104.57 53.65C108.938 48.8754 112.543 43.3736 115.111 37.431C116.219 34.8634 117.439 31.9545 116.804 29.0965ZM4.18964 32.2775C3.29079 29.9507 1.7216 26.6274 2.95054 24.1899C3.40555 23.288 4.28714 22.4988 5.36272 22.7019C6.32353 22.8827 6.98066 23.811 7.40318 24.6205C8.00546 25.7763 8.27867 27.0388 8.47469 28.3155C8.76009 30.1792 8.98556 32.0541 9.15924 33.931C9.42636 36.8053 9.57566 39.6948 9.57668 42.5834C7.41841 39.3536 5.59226 35.9105 4.18964 32.2775ZM7.54943 122.316C5.82281 123.557 5.01232 119.583 4.86708 118.632C4.48215 116.107 4.5441 113.527 5.06717 111.025C5.17279 110.523 5.50288 108.238 6.11532 108.276L6.31642 108.346C6.29712 108.544 6.33064 108.759 6.44744 108.988C7.62966 111.307 8.365 113.775 8.58438 116.372C8.71235 117.898 9.04752 121.239 7.54943 122.316ZM83.8241 134.833C84.4954 133.627 85.3313 132.498 86.2627 131.48C86.8619 130.824 92.1108 126.228 92.2429 128.481C92.3079 129.595 91.4537 130.768 90.8727 131.639C90.1049 132.79 89.2325 133.882 88.2605 134.867C86.5958 136.554 84.6407 137.939 82.5322 139.016C82.3991 138.726 82.2742 138.434 82.1371 138.146C82.9161 137.201 83.2249 135.911 83.8241 134.833ZM20.3934 33.4984C20.3954 25.0613 24.5099 17.3961 31.2822 11.7775C38.0506 6.16707 47.4626 2.66 57.8853 2.66203C68.3079 2.66102 77.719 6.16707 84.4883 11.7775C91.2607 17.3961 95.3762 25.0623 95.3772 33.4984C95.3751 41.9344 91.2607 49.6005 84.4883 55.2191C77.72 60.8296 68.3079 64.3367 57.8853 64.3347C47.4626 64.3357 38.0516 60.8296 31.2822 55.2191C24.5109 49.6016 20.3954 41.9354 20.3934 33.4984ZM76.7511 92.383C77.4986 96.0627 77.6682 100.055 76.2869 103.612C74.862 107.284 71.8688 109.681 68.2094 110.948C64.2758 112.31 59.9755 112.457 55.856 112.69C50.8905 112.97 45.8315 113.136 40.9472 112.023C37.0837 111.142 33.3156 109.238 30.6322 106.272C27.7254 103.058 26.6458 99.133 27.3892 94.8622C27.8818 92.0336 28.9625 89.3269 29.9477 86.6425C30.9765 83.8383 32.0298 81.0432 33.08 78.2471C34.9914 73.1587 36.9364 68.0794 38.7158 62.9422C44.4197 65.5311 50.9494 66.9967 57.8853 66.9977C61.368 66.9967 64.7471 66.626 67.9728 65.9302C67.925 66.1131 67.9047 66.3132 67.9311 66.5366C69.027 75.7669 74.9239 83.3894 76.7511 92.383ZM112.147 38.3146C110.795 41.1737 109.184 43.9088 107.363 46.4987C107.349 45.7045 107.333 44.9103 107.363 44.118C107.433 42.2492 107.599 40.3875 107.885 38.539C108.164 36.7312 108.532 34.9325 109.005 33.1652C109.378 31.7728 109.84 30.3945 110.733 29.2397C111.398 28.3794 112.511 27.4643 113.627 28.1458C114.453 28.6496 114.614 29.7932 114.619 30.6758C114.633 33.3257 113.253 35.9766 112.147 38.3146Z" fill="#EFF0F3"/>
</svg>
