<svg width="114" height="142" viewBox="0 0 114 142" fill="none" xmlns="http://www.w3.org/2000/svg">
<path d="M57.8056 39.8361C57.8254 40.2783 57.8627 40.7216 58.0436 41.1335C58.326 41.7787 58.8592 42.2268 59.5429 42.3878C60.1963 42.5418 60.9057 42.2419 61.3036 41.7146C61.5953 41.3284 61.7364 40.8302 61.7644 40.3518C61.7831 40.0391 61.7854 39.7229 61.7808 39.4067C61.8531 38.954 61.8928 38.4954 61.8764 38.0357C61.8578 37.5037 61.7784 36.9063 61.5521 36.4221C61.4541 36.2121 61.3199 36.0242 61.1635 35.8609L61.0807 35.7243C60.7097 35.2226 60.0796 34.9111 59.4507 35.0278C58.8113 35.1468 58.3563 35.5937 58.0739 36.1584C57.6492 37.0078 57.6072 38.1361 57.6912 39.0613C57.7157 39.311 57.7496 39.577 57.8056 39.8361Z" fill="#EFF0F3"/>
<path d="M32.3827 41.7146C32.6744 41.3284 32.8156 40.8302 32.8436 40.3518C32.8623 40.0391 32.8646 39.7229 32.8611 39.4067C32.9334 38.954 32.9731 38.4954 32.9568 38.0357C32.9393 37.5037 32.8588 36.9063 32.6324 36.4221C32.5344 36.2121 32.4002 36.0242 32.2439 35.8609L32.161 35.7243C31.79 35.2226 31.1599 34.9111 30.531 35.0278C29.8916 35.1468 29.4366 35.5937 29.1542 36.1584C28.7295 37.0078 28.6875 38.1361 28.7715 39.0613C28.7937 39.311 28.8276 39.577 28.8836 39.8361C28.9034 40.2783 28.9407 40.7216 29.1216 41.1335C29.4039 41.7787 29.9383 42.2268 30.6209 42.3878C31.2754 42.5418 31.9848 42.2419 32.3827 41.7146Z" fill="#EFF0F3"/>
<path d="M42.1498 49.8575C43.1976 50.4304 44.425 50.7594 45.6163 50.8026C47.0351 50.8539 48.4912 50.5821 49.7385 49.8832C50.7688 49.3056 52.2494 48.5203 52.5189 47.2766C52.5761 47.0152 52.3276 46.8484 52.1035 46.8507C51.512 46.8554 51.0511 47.1191 50.5307 47.3722C50.0372 47.6126 49.5215 47.811 48.9894 47.9521C48.007 48.2123 46.9931 48.4282 45.971 48.4049C45.0294 48.3838 44.1006 48.1318 43.2711 47.6896C42.4333 47.2427 41.9654 46.5975 41.3564 45.9056C40.4836 44.9139 38.7288 45.7889 39.2865 47.0934C39.8092 48.315 41.0169 49.2379 42.1498 49.8575Z" fill="#EFF0F3"/>
<path d="M112.804 64.4211C111.688 63.3127 110.047 63.2812 108.592 63.5321L108.363 63.5764C108.334 63.4819 108.305 63.3874 108.279 63.2952C108.195 62.9872 108.108 62.6803 108.011 62.3758C107.971 62.2498 107.936 62.1191 107.883 61.9977C107.834 61.8857 107.77 61.7795 107.722 61.6675C107.631 61.4563 107.554 61.2358 107.473 61.02C107.934 60.4763 107.827 59.4962 106.945 59.4962C106.011 59.4962 105.665 60.6221 106.124 61.1285L106.113 61.2988C106.14 61.5649 106.18 61.8332 106.194 62.1016C106.201 62.2264 106.193 62.3513 106.199 62.4761C106.206 62.6091 106.234 62.7433 106.255 62.8752C106.296 63.1307 106.342 63.3839 106.394 63.6371C106.415 63.7397 106.434 63.8424 106.454 63.9463C106.187 63.9999 105.92 64.0466 105.653 64.1014C105.518 63.7526 105.384 63.4037 105.251 63.0548C105.168 62.8378 105.061 62.6255 104.956 62.4178L104.855 62.2556C105.289 61.629 105.139 60.6314 104.192 60.6314C102.955 60.6314 102.629 62.3734 103.614 62.6896L103.622 62.797C103.67 63.0817 103.739 63.3675 103.821 63.6441C103.898 63.9077 103.976 64.1714 104.053 64.4351C103.73 64.5028 103.407 64.5716 103.083 64.637L103.006 64.3768C102.949 64.1808 102.894 63.9824 102.833 63.7876C102.771 63.5927 102.705 63.4002 102.642 63.2054L102.55 63.0187C103.087 62.3104 102.921 61.1145 101.819 61.1145C100.89 61.1145 100.41 61.9849 100.511 62.6803L100.457 62.5893L100.26 62.3944C100.105 62.2766 99.9296 62.2054 99.7359 62.1809C99.5889 62.1576 99.4465 62.1716 99.31 62.2229C99.1712 62.2498 99.0475 62.3093 98.9367 62.4026C98.82 62.4866 98.7313 62.5928 98.6718 62.7211C98.589 62.8413 98.5411 62.9755 98.5283 63.1237C98.5295 63.2205 98.5306 63.3174 98.5318 63.4142C98.561 63.6021 98.6333 63.7724 98.75 63.9229L98.8631 64.0349C98.9296 64.3453 99.0498 64.6475 99.1665 64.9427C99.2214 65.0827 99.2774 65.2227 99.3322 65.3627C99.002 65.4281 98.6706 65.4876 98.3416 65.5576C98.2273 65.3499 98.1176 65.1399 98.0347 64.9182C97.9857 64.7887 97.9356 64.6592 97.8912 64.5285C98.0044 64.4188 98.1001 64.2951 98.1619 64.1458C98.2284 63.9988 98.2541 63.8482 98.2389 63.6919C98.2506 63.539 98.2226 63.3909 98.1549 63.2497C98.0744 63.0653 97.9542 62.9113 97.7944 62.7876L97.6555 62.7013C97.561 62.6465 97.4665 62.5928 97.372 62.538C97.2623 62.5088 97.1538 62.4808 97.0442 62.4528C96.931 62.4539 96.8178 62.4551 96.7058 62.4563C96.6008 62.4866 96.4958 62.5158 96.3908 62.5461C96.2986 62.601 96.2052 62.6558 96.1131 62.7106L95.8855 62.9405L95.7222 63.224C95.6499 63.3839 95.6219 63.5496 95.6382 63.7211C95.6254 63.8342 95.6405 63.9428 95.6849 64.0478C95.7012 64.1574 95.7444 64.2566 95.812 64.3441C95.8564 64.4456 95.9217 64.5296 96.0092 64.5962L96.2099 64.7478L96.2087 64.791C96.2134 64.8832 96.2251 64.9765 96.2367 65.0687C96.2694 65.3266 96.3429 65.5739 96.4199 65.8213L96.4864 65.9951C95.1668 66.3685 93.9114 67.156 93.7527 68.5223C92.5474 69.0462 91.3748 69.7066 90.1987 70.2083C88.0997 71.1044 86.0543 72.1335 83.9938 73.1159C80.0151 75.012 75.908 76.6128 71.913 78.4574C70.2002 79.2485 68.4885 80.0442 66.778 80.84C66.7698 80.8178 66.771 80.7933 66.7617 80.7711C66.6765 80.5751 66.5155 80.4059 66.3848 80.2391C66.1491 79.9392 65.9099 79.6429 65.6789 79.3407C65.2297 78.755 64.826 78.1272 64.4048 77.5217C63.9953 76.9325 63.5846 76.3432 63.175 75.7528C62.958 75.4402 62.7526 75.1146 62.51 74.8218C62.4236 74.7179 62.3361 74.6141 62.2451 74.5184C62.3303 74.4717 62.4131 74.4215 62.4995 74.376C63.6242 73.7705 64.7665 73.0903 65.3429 71.8932C66.3778 69.7405 64.9427 67.8678 62.8051 67.3917C60.9873 66.9857 58.9396 67.2331 57.0611 67.7791C57.0483 67.6904 57.0494 67.6018 57.0156 67.5142C56.8126 66.9974 56.5711 66.498 56.2957 66.0173C61.4225 64.2998 66.0488 61.7481 69.9201 58.5429C77.3572 52.3894 82.0383 43.7821 82.0359 34.239C82.0371 24.6971 77.356 16.0887 69.9201 9.93509C62.4796 3.77218 52.268 0.00116677 41.018 0C29.7679 0.00116677 19.5563 3.77335 12.1158 9.93509C4.67994 16.0887 -0.00233268 24.6971 8.71841e-07 34.239C-0.0011659 43.7809 4.67994 52.3894 12.1158 58.5429C15.797 61.5917 20.1595 64.0536 24.9876 65.7641C24.2631 65.8831 23.5408 66.0056 22.8198 66.1234C20.4512 66.5085 18.0885 66.932 15.7246 67.3439C14.8122 67.5026 14.3945 68.5503 14.9441 69.2947C17.9345 73.34 21.2971 77.1086 24.9643 80.5518C24.9246 80.854 24.8955 81.1585 24.9176 81.4514C24.2747 81.6801 23.6377 81.9438 23.0146 82.2716C12.2593 87.9258 17.2064 103.78 24.3681 110.348C26.4006 112.212 28.8858 113.568 31.5379 114.288C30.8869 118.278 30.6313 122.348 30.0794 126.357C29.7096 129.044 29.2709 131.721 28.7843 134.388C27.4017 133.7 25.6842 133.43 24.2234 133.337C22.3251 133.215 20.2447 133.366 18.4747 134.115C16.9976 134.74 15.7713 136.009 15.7188 137.682C15.6651 139.369 16.9497 140.552 18.4245 141.119C20.1829 141.796 22.1582 142.019 24.0286 141.999C25.0518 141.988 26.0541 141.894 27.0563 141.681C27.8521 141.512 29.076 141.355 29.7353 140.836C30.4342 140.286 30.4167 138.944 30.5695 138.145C30.7935 136.978 31.0047 135.808 31.2054 134.636C31.5811 132.45 31.916 130.255 32.2135 128.057C32.7887 123.787 33.4013 119.397 33.3511 115.066C39.0683 116.189 45.4155 117.319 51.0172 115.166C51.5761 118.934 52.5865 122.644 53.3438 126.373C54.1932 130.557 54.9049 134.764 55.4976 138.992C55.5735 139.532 56.0484 140.008 56.5967 140.064C59.208 140.326 61.8227 139.974 64.2274 138.902C66.2646 137.994 68.7755 136.481 69.0754 134.038C69.3904 131.464 67.3311 130.203 65.0244 130.242C62.2183 130.29 59.4682 131.085 57.0366 132.474L56.9444 132.54C56.5244 130.288 56.0764 128.04 55.5921 125.8C54.7707 122.004 53.9645 118.107 52.534 114.479C54.8069 113.309 56.6667 111.56 57.8429 109.265C58.4157 108.147 58.8008 106.878 58.9128 105.625C58.9991 104.657 59.0318 103.348 58.6036 102.374C58.8299 102.368 59.0575 102.36 59.2815 102.354C62.3244 102.275 65.6906 102.183 67.9915 99.8981C69.9458 97.9566 70.059 95.028 67.8374 93.2416C65.12 91.0563 61.6512 92.3467 58.6246 91.2535L58.6176 91.2511L58.5779 91.2091L58.4647 91.0936L58.3061 90.9723C58.9863 90.6596 59.67 90.3539 60.3502 90.04C63.1003 88.7682 65.8283 87.4521 68.5527 86.1255C69.1326 87.3191 69.9166 88.3517 70.8302 89.3213C71.64 90.18 72.6737 91.544 73.9513 91.6326C75.4098 91.7342 76.3257 90.3445 77.1565 89.3668C78.1144 88.2373 79.035 87.0752 79.9521 85.9131C80.4106 85.3321 80.8668 84.7475 81.3195 84.1618C81.7676 83.5831 82.2611 82.9927 82.4945 82.2868C82.8387 81.246 82.4011 80.2344 81.498 79.7829C82.1619 79.4597 82.8235 79.133 83.4886 78.8121C87.5349 76.8601 91.5743 74.8859 95.5658 72.8242C96.5074 75.3176 99.4804 76.5731 101.999 75.397C103.474 74.7086 104.144 73.3353 105.137 72.1463C106.199 70.8757 107.805 70.7824 109.317 70.458C110.814 70.136 112.315 69.5724 113.143 68.1991C113.882 66.9775 113.842 65.4537 112.804 64.4211ZM27.9151 138.87C26.0833 139.371 24.1452 139.557 22.2586 139.364C21.3671 139.273 17.9275 139.011 18.2122 137.489C18.5225 135.83 21.6985 135.671 22.9621 135.627C23.9994 135.59 25.0635 135.696 26.0786 135.915C26.8626 136.084 27.6071 136.381 28.376 136.59C28.2289 137.35 28.0726 138.11 27.9151 138.87ZM58.026 134.766C59.5954 133.851 61.2662 133.18 63.0607 132.869C63.9089 132.722 64.9859 132.511 65.8481 132.676C66.7699 132.852 66.7348 133.724 66.2891 134.382C65.4444 135.629 63.6091 136.397 62.2474 136.874C60.8251 137.373 59.3247 137.593 57.823 137.577C57.6772 136.691 57.5162 135.808 57.361 134.923C57.5663 134.946 57.7892 134.904 58.026 134.766ZM100.539 63.7922C100.621 63.6721 100.669 63.5379 100.682 63.3897L100.679 63.1248C100.801 63.3045 100.987 63.441 101.242 63.4994L101.248 63.6032C101.284 63.8051 101.317 64.0069 101.355 64.2088C101.394 64.4106 101.439 64.6101 101.481 64.8108L101.506 64.9415C101.302 64.98 101.098 65.0209 100.893 65.0594L100.841 64.9427C100.747 64.7432 100.654 64.5436 100.561 64.3441C100.504 64.2216 100.446 64.0979 100.387 63.9743L100.539 63.7922ZM70.9201 80.4689C74.9186 78.6149 78.8051 76.5311 82.8153 74.6946C85.0392 73.676 87.2911 72.7157 89.5044 71.6738C90.6864 71.1172 91.8532 70.5374 93.0421 69.9925C93.356 69.849 93.6722 69.709 93.9872 69.5666L94.2089 69.6646C93.5508 69.8373 92.9628 70.192 92.3432 70.5234C91.362 71.0484 90.3865 71.5781 89.4193 72.1265C87.4848 73.2244 85.5094 74.229 83.5247 75.2336C79.7082 77.1635 75.8474 79.0105 71.9912 80.861C64.2041 84.597 56.3435 88.1662 48.4725 91.7202C44.5043 93.5112 40.3121 95.0618 36.4419 97.0897C36.3275 96.8388 36.2167 96.5868 36.0977 96.3383C43.7237 93.153 51.2144 89.606 58.7098 86.1301C62.7795 84.2435 66.8492 82.3556 70.9201 80.4689ZM41.13 89.4181C40.2806 89.0693 39.4685 88.592 38.6786 88.0786C40.1289 87.4148 42.0004 86.7415 43.1018 88.0273C43.4554 88.4404 43.7681 89.0949 43.299 89.5418C42.7565 90.061 41.6912 89.648 41.13 89.4181ZM63.0933 78.3816C63.476 78.9907 63.8821 79.5904 64.2438 80.2123C64.504 80.6591 64.7163 81.2215 65.0512 81.6451C63.9906 82.1374 62.93 82.6298 61.8682 83.1222L61.7691 83.1269C60.3176 83.5049 58.9163 82.7733 58.3177 81.4059C57.6678 79.9217 58.1766 78.2124 59.1111 76.9733C59.6724 76.2301 60.3818 75.67 61.1448 75.1788C61.2977 75.6548 61.6757 76.125 61.9067 76.4937C62.3023 77.1226 62.6978 77.7515 63.0933 78.3816ZM59.138 69.3122C60.3537 69.1151 62.1062 68.8631 63.2789 69.4021C65.5027 70.4254 62.6663 72.368 61.6535 72.8977C60.4518 73.5278 59.3153 74.201 58.3539 75.173C56.6236 76.922 55.7112 79.5379 56.6586 81.9146C57.1288 83.093 58.0937 83.9413 59.2197 84.3485C55.3868 86.1255 51.5493 87.8931 47.7211 89.683C46.9802 90.0295 46.2404 90.3807 45.4995 90.7284C45.8811 90.0983 46.0444 89.3399 45.9161 88.5629C45.6722 87.0846 44.5545 85.7486 43.1625 85.2142C41.0506 84.4021 38.6937 85.3694 36.8036 86.3075C36.6589 86.3787 36.5457 86.4697 36.4489 86.57C35.0289 85.6086 33.6381 84.6063 32.2823 83.5562C31.8716 83.2389 31.4702 82.9098 31.0665 82.5843C35.0861 82.1678 39.213 82.3369 43.0587 80.8516C45.4599 79.9241 47.4002 78.3979 48.9964 76.3946C50.764 74.1742 52.3555 72.0693 54.9318 70.7252C56.2525 70.0356 57.6678 69.5503 59.138 69.3122ZM28.649 80.56C28.2908 80.2473 27.9408 79.9276 27.5884 79.609C27.6386 79.1563 27.6829 78.7036 27.7436 78.2533C27.9559 76.6828 28.2324 75.1205 28.572 73.5733C28.9138 72.0157 29.3059 70.4674 29.7621 68.94C29.9208 68.4115 30.1203 67.8573 30.3011 67.2926C33.721 68.0626 37.3123 68.4803 41.0203 68.4815C45.6944 68.4803 50.1841 67.8211 54.3752 66.6182C54.5164 66.981 54.6494 67.3451 54.7602 67.7184C54.7964 67.8549 54.8326 67.9926 54.8641 68.1303C54.8968 68.275 54.9458 68.4022 55.0111 68.52C54.9621 68.541 54.9096 68.5609 54.8606 68.5819C52.2248 69.7521 50.1631 71.6248 48.4176 73.886C47.5542 75.0049 46.7247 76.167 45.6349 77.0818C44.4144 78.1074 42.9338 78.7608 41.4088 79.1902C37.2784 80.3499 32.8622 79.9544 28.649 80.56ZM14.006 56.2677C7.13133 50.5645 2.96128 42.7915 2.96011 34.239C2.96128 25.6877 7.1325 17.9147 14.006 12.2115C20.8759 6.51644 30.4353 2.95428 41.0226 2.95545C51.6099 2.95428 61.1682 6.51644 68.0393 12.2115C74.9139 17.9147 79.084 25.6877 79.0851 34.239C79.0828 42.7903 74.9128 50.5634 68.0393 56.2677C61.1693 61.9627 51.6111 65.5249 41.0226 65.5237C37.4115 65.5249 33.924 65.1014 30.6173 64.329C30.4797 64.1971 30.2766 64.1481 30.0958 64.2064C23.92 62.685 18.4082 59.9174 14.006 56.2677ZM18.0943 69.3963C19.7885 69.0987 21.4827 68.8012 23.1733 68.4827C24.815 68.1735 26.4905 67.9144 28.1146 67.4862C27.9956 67.8199 27.8836 68.149 27.7727 68.4582C27.2442 69.947 26.7856 71.4544 26.3936 72.9864C26.0062 74.4986 25.6795 76.0247 25.4124 77.5625C22.7976 75.0084 20.3497 72.2829 18.0943 69.3963ZM55.3915 108.634C54.255 110.786 52.261 112.281 50.036 113.179C46.8448 114.468 43.474 114.49 40.0927 114.277C42.1766 113.673 44.1029 112.616 45.6816 111.103C47.4586 109.4 48.812 107.337 50.4898 105.549C51.5084 104.461 52.6799 103.526 54.094 103.013C54.7206 102.787 55.3751 102.66 56.0355 102.568C56.0157 103.533 56.4066 104.485 56.326 105.482C56.2385 106.587 55.9095 107.652 55.3915 108.634ZM65.6346 94.5321C68.4617 95.8074 66.7652 98.5119 64.5541 99.331C61.9989 100.278 59.1006 99.8561 56.4369 100.093C53.926 100.316 51.6368 101.186 49.7513 102.88C46.2906 105.991 44.3304 110.476 39.5665 111.902C34.8609 113.31 29.7516 111.835 26.1311 108.648C22.4546 105.41 20.2295 100.57 19.4921 95.7817C19.0966 93.2113 19.1258 90.4052 20.3439 88.0425C21.5153 85.7684 23.7345 84.3788 26.0961 83.5807C26.6631 83.3894 27.2372 83.2365 27.8147 83.1047C28.733 83.8899 29.6617 84.6623 30.6127 85.4067C33.4596 87.6329 36.5515 90.0703 39.8477 91.5941C40.5839 91.9348 41.4205 92.1974 42.2547 92.2557C40.0484 93.3023 37.8502 94.3641 35.6706 95.4667C35.568 95.2776 35.4676 95.0886 35.3591 94.902C35.1643 94.5683 34.9776 94.1832 34.7162 93.8939C34.295 93.4248 33.6533 93.2638 33.0932 93.5963C32.5658 93.909 32.3208 94.5869 32.5752 95.1633C32.7455 95.5472 32.8949 95.7899 33.0489 96.0291C33.2087 97.0092 33.5378 97.9519 33.9485 98.8597C34.4444 99.9541 34.9426 101.049 35.4373 102.144C35.687 102.696 36.2972 102.985 36.8782 102.821C37.4418 102.661 37.8513 102.087 37.7487 101.487C37.6763 101.065 37.5713 100.651 37.4698 100.235C41.235 98.8293 44.8847 97.0791 48.5448 95.4258C51.3661 94.1517 54.1803 92.8613 56.9946 91.572L56.9853 91.5988L56.9841 91.607L56.9864 91.8427L57.0483 92.062L57.0763 92.1087C56.9363 92.6139 57.1008 93.1798 57.739 93.405C60.2907 94.3011 63.1855 93.4271 65.6346 94.5321ZM75.5778 88.1627C75.2873 88.5162 74.5336 89.809 73.9887 89.662C73.5721 89.5488 73.0903 88.9187 72.7881 88.6259C72.4135 88.2618 72.0577 87.8815 71.6983 87.5046C71.0577 86.8349 70.4207 86.1768 69.7486 85.5444C71.1919 84.8385 72.6364 84.1338 74.0774 83.4232C73.6363 84.5503 73.7063 85.8688 74.5161 86.8244C74.8848 87.2596 75.3736 87.5851 75.9034 87.7706C75.796 87.9013 75.6852 88.0308 75.5778 88.1627ZM79.665 83.2109C79.0081 84.0241 78.3454 84.8338 77.678 85.6389C77.5147 85.6249 77.3362 85.6529 77.1471 85.7486C76.7014 85.9761 76.1776 85.7533 75.929 85.3181C75.6035 84.7463 75.8789 84.0066 76.2196 83.5119C76.7073 82.8048 77.4762 82.3743 78.2439 82.0324C78.6196 81.8644 79.0035 81.7162 79.3873 81.5692C79.6965 81.4514 80.3453 81.1072 80.6825 81.3219C81.1923 81.6462 79.8984 82.9203 79.665 83.2109ZM111.079 67.8234C109.925 68.7604 108.189 68.7207 106.811 69.0847C105.445 69.4453 104.369 70.1138 103.478 71.2211C102.647 72.2525 101.924 73.7227 100.427 73.8312C98.974 73.9362 97.8457 72.9106 97.5377 71.5501C97.2752 70.3857 95.7572 70.3973 95.392 71.2783C89.6328 74.2092 83.9028 77.1891 78.1249 80.0804C77.7784 80.2216 77.4447 80.3709 77.1401 80.5098C76.7866 80.6696 76.4529 80.8598 76.1297 81.0663C75.0434 81.6042 73.9595 82.1479 72.8697 82.6777C65.1655 86.4195 57.3645 90.0062 49.5658 93.545C45.4435 95.4153 41.221 97.1328 37.1781 99.1735C37.0603 98.7885 36.9471 98.4011 36.8082 98.0219C40.4334 96.7956 43.9489 95.0525 47.4399 93.5333C51.4349 91.7948 55.4008 89.9875 59.3562 88.1603C67.2692 84.5048 75.1146 80.7128 82.9122 76.8181C85.0334 75.7587 87.1441 74.6386 89.3178 73.697C90.4787 73.1941 91.6163 72.6376 92.7516 72.0763C93.7118 71.6026 94.7071 71.2223 95.3675 70.3472C95.6487 69.975 95.3138 69.5468 94.9031 69.5608L94.7024 69.5911C94.8553 69.5036 94.979 69.3612 95.0116 69.1512L95.0396 69.0497C95.4235 68.8444 95.7992 68.6227 96.1457 68.3532C96.2904 68.24 96.2729 68.0405 96.1726 67.9145C96.4211 67.8164 96.6801 67.7418 96.9275 67.6846C97.8095 67.4816 98.7068 67.3311 99.5947 67.1549C101.323 66.8118 103.052 66.47 104.78 66.127C106.408 65.8038 108.127 65.2776 109.79 65.2052C110.471 65.176 111.436 65.3149 111.756 66.0289C112.049 66.6823 111.574 67.4232 111.079 67.8234Z" fill="#EFF0F3"/>
</svg>
