<svg width="78" height="142" viewBox="0 0 78 142" fill="none" xmlns="http://www.w3.org/2000/svg">
<path d="M16.8045 29.8706C16.2115 29.7582 15.6165 30.0568 15.2665 30.5355L15.1885 30.6661C15.0405 30.8229 14.9145 31.0021 14.8225 31.2025C14.6085 31.665 14.5335 32.2348 14.5165 32.7429C14.5015 33.1811 14.5385 33.6193 14.6065 34.0515C14.6025 34.3531 14.6055 34.6547 14.6225 34.9533C14.6495 35.4097 14.7815 35.8854 15.0575 36.2548C15.4335 36.7578 16.1025 37.0442 16.7185 36.8975C17.3635 36.7436 17.8665 36.3155 18.1325 35.7002C18.3025 35.3075 18.3385 34.8834 18.3565 34.4614C18.4095 34.2134 18.4415 33.9604 18.4625 33.7216C18.5415 32.838 18.5015 31.7611 18.1015 30.9505C17.8365 30.411 17.4075 29.985 16.8045 29.8706Z" fill="#EFF0F3"/>
<path d="M41.9016 34.9533C41.9286 35.4097 42.0606 35.8854 42.3366 36.2548C42.7126 36.7578 43.3816 37.0442 43.9976 36.8975C44.6426 36.7436 45.1456 36.3155 45.4116 35.7002C45.5816 35.3075 45.6176 34.8834 45.6356 34.4614C45.6886 34.2134 45.7206 33.9604 45.7416 33.7215C45.8206 32.838 45.7806 31.7611 45.3806 30.9505C45.1146 30.411 44.6846 29.9849 44.0826 29.8716C43.4896 29.7592 42.8946 30.0578 42.5446 30.5365L42.4666 30.6671C42.3196 30.8239 42.1926 31.0031 42.1006 31.2035C41.8866 31.666 41.8116 32.2358 41.7946 32.7439C41.7796 33.1821 41.8166 33.6203 41.8846 34.0525C41.8816 34.3531 41.8836 34.6547 41.9016 34.9533Z" fill="#EFF0F3"/>
<path d="M33.8716 40.2556C33.2976 40.9155 32.8566 41.5319 32.0666 41.959C31.2836 42.381 30.4086 42.6209 29.5196 42.6411C28.5556 42.6634 27.5995 42.4569 26.6725 42.2089C26.1715 42.0743 25.6845 41.8851 25.2185 41.6553C24.7275 41.4124 24.2925 41.1614 23.7355 41.1574C23.5245 41.1554 23.2895 41.3143 23.3435 41.5643C23.5985 42.7514 24.9935 43.5014 25.9655 44.052C27.1415 44.7189 28.5155 44.978 29.8535 44.9294C30.9785 44.889 32.1355 44.5742 33.1235 44.0277C34.1915 43.4366 35.3315 42.5551 35.8225 41.3902C36.3495 40.1443 34.6946 39.3093 33.8716 40.2556Z" fill="#EFF0F3"/>
<path d="M66.1925 70.1556C65.2445 68.345 64.2875 66.5354 63.2765 64.7592C62.3725 63.1723 61.4785 61.2898 60.2195 59.9316C62.4785 58.6978 64.5835 57.2769 66.4885 55.6798C73.4805 49.8229 77.8755 41.6392 77.8745 32.5689C77.8765 23.4986 73.4805 15.3149 66.4885 9.45793C59.4925 3.59391 49.8875 0.00202417 39.3025 0C28.7175 0.00101208 19.1115 3.59391 12.1155 9.45793C5.12349 15.3149 0.728506 23.4986 0.729506 32.5689C0.728506 41.6392 5.12349 49.8229 12.1155 55.6798C18.5695 61.0904 27.2485 64.5588 36.8655 65.0659C36.1765 65.745 35.5455 66.5091 34.9305 67.2145C33.8675 68.4341 32.8375 69.683 31.7995 70.9248C30.8075 72.112 29.8145 73.2992 28.8225 74.4874C27.9585 75.5207 27.1265 76.6735 26.1745 77.6511C23.9665 75.716 21.7015 73.8416 19.4555 71.9521C18.2675 70.9532 17.0795 69.9542 15.8915 68.9553C15.2435 68.4098 14.5955 67.8653 13.9475 67.3208C13.4335 66.8886 12.9525 66.3988 12.3525 66.1194C12.3375 65.8249 12.3045 65.5294 12.2835 65.244C12.2305 64.5527 12.1245 63.8625 11.9875 63.1834C11.7345 61.9284 11.3505 60.6927 10.7195 59.5763C9.5545 57.5147 7.59951 55.8559 5.16051 55.8043C2.72151 55.7537 0.650505 57.2344 0.121505 59.6826C-0.389495 62.0509 0.765503 64.3858 2.5695 65.8523C4.9585 67.7955 8.10949 68.174 11.0585 68.4149C11.2545 68.431 11.4155 68.3825 11.5585 68.3096C12.3415 69.1314 13.4045 69.8136 14.2055 70.4896C15.4455 71.5372 16.6855 72.5836 17.9255 73.6311C20.4575 75.7686 22.9665 77.9457 25.5565 80.0123C25.9765 80.3473 26.7905 80.3149 27.0845 79.8038C27.8825 78.4142 29.0385 77.2028 30.0405 75.96C31.0555 74.7009 32.0705 73.4429 33.0855 72.1839C34.0565 70.9805 35.0395 69.7852 35.9875 68.5636C36.3345 68.1163 36.6995 67.6609 37.0585 67.1983C36.8215 68.6628 36.6525 70.1445 36.4635 71.6039C36.1535 73.9965 35.8445 76.3881 35.5345 78.7806C34.9325 83.4352 34.1955 88.1141 33.7795 92.7889C33.4345 96.6672 33.7915 100.763 36.5495 103.731C37.8105 105.087 39.3705 106.116 41.0655 106.831C39.0365 111.399 37.4865 116.239 35.7485 120.917C34.2255 125.017 32.7005 129.117 31.1755 133.216C28.0285 130.911 23.8165 129.906 20.0275 130.94C18.4335 131.376 16.6835 132.464 16.2875 134.202C15.8665 136.049 17.2135 137.514 18.8475 138.068C20.9485 138.78 23.3665 138.8 25.5575 138.756C26.7095 138.732 27.8545 138.632 28.9955 138.462C29.9595 138.318 31.5605 138.318 32.0815 137.345C32.6595 136.263 32.9515 134.894 33.3615 133.735C33.7885 132.531 34.2155 131.328 34.6435 130.126C35.5225 127.653 36.4015 125.18 37.2805 122.707C38.2545 119.966 39.2295 117.227 40.1985 114.485C41.0315 112.128 41.9135 109.781 42.6255 107.382C43.6785 107.693 44.7615 107.901 45.8475 107.978C49.3435 108.227 52.8815 107.397 56.1965 106.119C56.6725 108.711 57.4485 111.248 58.1795 113.774C59.0095 116.645 59.8705 119.505 60.7625 122.356C62.2025 126.963 63.7365 131.537 65.3255 136.092C63.0685 134.822 60.5215 134.146 57.9155 134.163C55.5615 134.179 50.7415 134.694 50.3845 137.807C49.9915 141.231 55.4245 141.806 57.7015 141.956C61.2265 142.189 64.7245 141.498 67.8925 139.913C68.4345 139.641 68.6805 139.047 68.4605 138.467C66.3695 132.957 64.4235 127.388 62.5795 121.788C61.6685 119.021 60.7865 116.245 59.9305 113.461C59.1255 110.841 58.4165 108.174 57.4365 105.613C58.2545 105.266 59.0615 104.903 59.8415 104.518C60.5395 105.663 61.5965 106.52 63.0485 106.594C66.8155 106.786 68.5755 103.035 68.5545 99.6741C68.6985 99.6549 68.8495 99.6063 69.0065 99.5132C71.7845 97.8594 73.3895 95.0276 73.8155 91.8223C74.3075 88.1161 73.0685 84.4392 71.5825 81.1064C69.9275 77.3931 68.0785 73.7556 66.1925 70.1556ZM10.7875 66.4585C8.70249 66.3259 6.54851 66.1326 4.68751 65.1104C3.11551 64.2471 1.80251 62.727 1.78151 60.8394C1.76151 59.0389 2.98549 57.7313 4.73949 57.5896C6.63949 57.4358 8.25351 58.7515 9.21251 60.2969C9.81751 61.2726 10.1935 62.3919 10.4395 63.5103C10.5815 64.158 10.6765 64.8139 10.7865 65.4687C10.8335 65.746 10.8655 66.0233 10.9115 66.2945L10.7875 66.4585ZM30.1865 135.877C27.8495 136.307 25.4655 136.502 23.0925 136.371C22.2705 136.326 17.4365 136.205 18.6465 134.318C19.6865 132.695 22.5295 132.656 24.1895 132.803C26.4435 133.001 28.5335 133.848 30.3145 135.254L30.3985 135.308C30.3275 135.498 30.2575 135.688 30.1865 135.877ZM59.5105 139.69C58.2085 139.715 56.8965 139.58 55.6205 139.32C55.1525 139.225 52.6705 138.829 52.6895 138.095C52.7095 137.304 54.7395 136.893 55.2805 136.771C56.4395 136.508 57.6325 136.398 58.8185 136.47C61.1205 136.613 63.3125 137.355 65.2255 138.64C63.3895 139.289 61.4625 139.651 59.5105 139.69ZM3.28749 32.5699C3.28949 24.3679 7.24251 16.915 13.7475 11.4528C20.2495 5.99762 29.2905 2.5889 39.3025 2.58991C49.3145 2.5889 58.3555 5.99762 64.8575 11.4528C71.3635 16.915 75.3165 24.3679 75.3175 32.5699C75.3155 40.7718 71.3625 48.2248 64.8575 53.687C58.3555 59.1421 49.3145 62.5508 39.3025 62.5488C29.2905 62.5498 20.2495 59.1411 13.7475 53.687C7.24151 48.2258 3.28849 40.7718 3.28749 32.5699ZM47.3615 105.746C44.1615 105.81 40.7405 104.76 38.4405 102.429C35.7085 99.6609 35.6175 95.7715 35.9335 92.1088C36.3055 87.8023 36.8755 83.5162 37.3415 79.2199L38.1455 71.8134C38.3855 69.6 38.6755 67.3572 38.7025 65.1246C38.9025 65.1276 39.1005 65.1377 39.3015 65.1377C43.9105 65.1367 48.3325 64.4546 52.4355 63.2016C52.2485 65.8351 53.0045 68.6628 53.4355 71.2406C53.8825 73.9105 54.3705 76.5723 54.8435 79.2381C55.8135 84.7084 56.7845 90.1797 57.7545 95.65C58.1525 97.8959 58.4245 100.229 59.0125 102.439C55.2555 104.016 51.5035 105.663 47.3615 105.746ZM65.9665 102.402C65.2535 103.939 63.0645 105.236 61.8175 103.488C60.7925 102.05 60.7285 99.7389 60.4185 98.0588C60.0545 96.0812 59.6895 94.1046 59.3255 92.127C62.3975 92.3972 65.1485 94.6198 66.1435 97.5841C66.6635 99.1347 66.6615 100.905 65.9665 102.402ZM68.1645 97.0943C66.9775 93.1563 63.5515 89.9925 59.4075 89.6889C59.2145 89.6747 59.0415 89.701 58.8885 89.7577C58.1585 85.7984 57.4285 81.8392 56.6995 77.8799C56.2345 75.3578 55.7775 72.8336 55.2885 70.3155C54.8175 67.8906 54.5425 65.1276 53.4745 62.8859C53.4705 62.8788 53.4645 62.8737 53.4605 62.8666C55.3235 62.2462 57.1175 61.5084 58.8275 60.6603C59.3105 62.2695 60.3175 63.8008 61.0895 65.2693C61.9135 66.836 62.7585 68.3916 63.5735 69.9633C65.2965 73.2901 66.9475 76.6552 68.5175 80.0589C69.9675 83.2014 71.5475 86.597 71.4785 90.1463C71.4285 92.7423 70.4225 95.644 68.1645 97.0943Z" fill="#EFF0F3"/>
</svg>
