<svg width="123" height="143" viewBox="0 0 123 143" fill="none" xmlns="http://www.w3.org/2000/svg">
<path d="M76.9688 38.393C76.9878 38.82 77.0238 39.249 77.1988 39.647C77.4718 40.27 77.9878 40.704 78.6488 40.86C79.2808 41.009 79.9668 40.719 80.3508 40.209C80.6328 39.835 80.7688 39.354 80.7968 38.891C80.8148 38.588 80.8168 38.283 80.8128 37.978C80.8828 37.54 80.9208 37.097 80.9058 36.653C80.8888 36.138 80.8108 35.561 80.5918 35.093C80.4968 34.89 80.3678 34.708 80.2168 34.55L80.1368 34.418C79.7788 33.933 79.1688 33.631 78.5608 33.745C77.9428 33.86 77.5028 34.292 77.2298 34.838C76.8198 35.659 76.7788 36.749 76.8598 37.645C76.8818 37.885 76.9138 38.142 76.9688 38.393Z" fill="#EFF0F3"/>
<path d="M52.2578 34.549L52.1778 34.417C51.8188 33.932 51.2098 33.63 50.6018 33.744C49.9838 33.859 49.5438 34.291 49.2708 34.837C48.8608 35.658 48.8198 36.748 48.9008 37.644C48.9228 37.885 48.9548 38.142 49.0098 38.393C49.0288 38.82 49.0648 39.249 49.2398 39.647C49.5128 40.27 50.0288 40.704 50.6898 40.86C51.3218 41.009 52.0078 40.719 52.3928 40.209C52.6748 39.835 52.8108 39.354 52.8388 38.891C52.8568 38.588 52.8598 38.283 52.8558 37.978C52.9258 37.54 52.9638 37.097 52.9478 36.653C52.9308 36.138 52.8528 35.561 52.6338 35.093C52.5378 34.89 52.4088 34.708 52.2578 34.549Z" fill="#EFF0F3"/>
<path d="M65.1848 48.994C66.5558 49.043 67.9648 48.78 69.1698 48.106C70.1658 47.548 71.5968 46.788 71.8578 45.586C71.9128 45.333 71.6728 45.172 71.4558 45.174C70.8838 45.179 70.4388 45.433 69.9348 45.679C69.4578 45.912 68.9588 46.103 68.4448 46.24C67.4958 46.491 66.5158 46.7 65.5268 46.678C64.6168 46.657 63.7188 46.414 62.9168 45.987C62.1068 45.555 61.6538 44.931 61.0668 44.263C60.2238 43.304 58.5268 44.15 59.0658 45.412C59.5698 46.591 60.7378 47.485 61.8328 48.083C62.8468 48.634 64.0328 48.952 65.1848 48.994Z" fill="#EFF0F3"/>
<path d="M121.887 99.859C121.348 97.484 118.848 95.398 116.329 96.315C113.43 97.37 113.788 101.476 113.554 103.952C113.469 104.852 113.383 105.753 113.298 106.653C113.265 107.006 113.197 107.387 113.189 107.757C108.95 107.21 104.731 106.536 100.539 105.661C97.3848 105.002 94.2488 104.252 91.1408 103.4C89.6028 102.979 88.0718 102.532 86.5408 102.087C85.4978 101.784 84.4338 101.4 83.3578 101.137C85.5488 99.036 86.9288 96.322 87.1498 93.051C87.5198 87.577 85.0548 82.675 82.6558 77.931C81.1788 75.011 79.6388 71.766 79.1178 68.457C81.0308 69.034 83.1488 69.164 85.0918 69.16C87.3968 69.156 89.7538 68.825 91.8298 67.768C96.6428 65.317 98.6618 59.673 100.964 55.136C102.152 52.795 103.339 50.454 104.527 48.114C104.711 48.21 104.925 48.267 105.174 48.254C110.477 47.985 116.967 47.166 119.445 41.669C121.316 37.518 118.353 31.479 113.276 32.412C110.868 32.855 109.087 34.78 107.818 36.751C106.225 39.227 105.026 41.975 103.698 44.598C102.134 47.686 100.57 50.774 99.0068 53.862C97.5818 56.676 96.3118 59.688 94.5168 62.29C92.7088 64.911 90.2588 66.44 87.1028 66.852C84.3638 67.21 81.6588 66.566 78.9428 66.611C78.8948 65.064 79.1038 63.514 79.6988 61.986C79.7068 61.965 79.7088 61.945 79.7168 61.924C82.9848 60.431 85.9768 58.566 88.6068 56.387C95.7738 50.456 100.279 42.168 100.277 32.983C100.279 23.798 95.7738 15.51 88.6068 9.578C81.4368 3.639 71.5908 0.002 60.7418 0C49.8928 0.001 40.0468 3.639 32.8768 9.578C25.7098 15.509 21.2048 23.797 21.2068 32.983C21.2048 42.168 25.7108 50.456 32.8768 56.387C34.6168 57.828 36.5168 59.13 38.5478 60.282C37.7278 61.602 36.9348 62.948 36.1888 64.325C30.6078 60.74 24.2498 58.358 17.8098 56.869C14.7618 56.164 11.3798 55.725 8.96583 58.157C7.92083 59.21 7.23383 60.536 6.59783 61.862C5.81683 63.491 5.10083 65.15 4.44683 66.833C3.15083 70.171 2.10983 73.606 1.31083 77.096C0.907826 78.856 0.570822 80.632 0.303822 82.418C0.0458221 84.137 -0.167174 85.945 0.185826 87.667C0.742826 90.393 2.93182 92.994 5.93482 92.781C8.73882 92.583 10.7088 89.904 11.4638 87.42C13.1768 81.782 10.4878 75.085 5.10483 72.517L4.88483 72.437C5.42483 70.764 6.01483 69.117 6.64083 67.52C7.15383 66.212 7.70483 64.92 8.29383 63.645C8.87083 62.397 9.43783 61.061 10.3548 60.018C12.3018 57.804 15.4168 58.65 17.9108 59.243C24.0158 60.697 29.7298 63.17 35.2978 66.01C34.2918 67.981 33.3558 69.987 32.5278 72.009C30.7538 76.339 29.4498 80.956 29.3478 85.659C29.1688 93.874 32.3088 102.375 39.7188 106.622C41.3788 107.573 43.1378 108.272 44.9548 108.783C45.9978 109.407 47.1148 109.931 48.1798 110.474C49.8318 111.316 51.4858 112.155 53.1388 112.996C54.9188 113.901 56.6978 114.808 58.4788 115.71C59.5228 116.239 62.2128 117.047 62.0728 118.541C61.9968 119.347 61.4018 120.16 61.0218 120.861C60.5508 121.728 60.0748 122.594 59.6008 123.46C58.6868 125.13 57.7578 126.791 56.8148 128.444C54.8758 131.84 52.8668 135.196 50.8048 138.519C50.4038 139.164 50.5018 140.137 51.3218 140.429C54.6898 141.631 58.1888 142.307 61.7698 142.292C64.6508 142.28 68.9178 141.93 69.3788 138.275C69.7758 135.132 66.3618 133.937 63.8708 133.677C61.2498 133.404 58.5858 133.701 56.0958 134.539C57.2118 132.645 58.3098 130.74 59.3878 128.823C60.4238 126.981 61.4488 125.131 62.4408 123.265C63.3008 121.646 64.6888 119.735 64.3708 117.803C64.0978 116.145 62.6368 115.259 61.2598 114.563C59.3528 113.598 57.4258 112.672 55.5078 111.728C54.2238 111.096 52.9398 110.465 51.6558 109.833C56.6378 110.079 61.7588 109.316 66.4158 108.255C71.1128 107.185 76.0738 105.793 80.2898 103.404C80.7978 103.116 81.2828 102.806 81.7448 102.476C82.9858 103.172 84.3958 103.589 85.7368 104.039C87.3108 104.567 88.9008 105.045 90.4978 105.502C93.5908 106.387 96.7108 107.184 99.8498 107.89C106.263 109.331 112.781 110.417 119.329 111.012C120.151 111.087 120.851 110.404 120.737 109.569C120.284 106.259 122.652 103.23 121.887 99.859ZM109.182 38.996C110.178 37.251 111.697 34.917 113.902 34.693C115.954 34.484 117.426 36.346 117.688 38.223C118.04 40.746 116.063 42.957 114.004 44.104C111.492 45.504 108.512 45.707 105.676 45.838C106.818 43.547 107.915 41.215 109.182 38.996ZM9.71583 85.468C9.39383 87.436 8.18383 90.256 5.90783 90.536C2.94383 90.9 2.17083 87.025 2.31383 84.88C2.54783 81.365 3.28883 77.806 4.29883 74.345L4.34082 74.374C8.21682 76.524 10.4318 81.086 9.71583 85.468ZM62.2588 135.997C63.3308 136.003 67.7388 136.165 66.8668 138.228C66.4248 139.274 65.0678 139.527 64.0708 139.636C62.7548 139.78 61.4168 139.768 60.0978 139.684C57.9168 139.547 55.7678 139.171 53.6768 138.559C53.8118 138.337 53.9448 138.113 54.0788 137.89C54.3218 137.955 54.5988 137.937 54.8968 137.79C57.1948 136.656 59.6828 135.983 62.2588 135.997ZM23.8288 32.983C23.8308 24.676 27.8818 17.129 34.5498 11.597C41.2138 6.07302 50.4808 2.62001 60.7428 2.62201C71.0048 2.62101 80.2708 6.07302 86.9358 11.597C93.6038 17.129 97.6558 24.677 97.6568 32.983C97.6548 41.289 93.6038 48.837 86.9358 54.369C80.2718 59.893 71.0048 63.346 60.7428 63.344C50.4808 63.345 41.2148 59.893 34.5498 54.369C27.8828 48.837 23.8308 41.289 23.8288 32.983ZM70.4218 104.47C65.9298 105.84 61.2408 106.752 56.5568 107.105C52.5028 107.411 48.2738 107.227 44.3948 105.915C40.5978 104.631 37.3988 102.268 35.2118 98.895C33.1628 95.733 32.1788 91.943 31.9208 88.215C31.5898 83.44 32.6408 78.671 34.2818 74.21C35.9388 69.704 38.3088 65.566 40.3888 61.266C46.3438 64.253 53.3078 65.964 60.7438 65.965C66.3078 65.964 71.6038 65.001 76.4148 63.268C74.6438 71.777 81.3938 79.211 83.7818 87.064C84.9428 90.881 85.0028 95.476 82.2168 98.621C79.3488 101.858 74.4098 103.254 70.4218 104.47ZM119.279 103.551C118.836 105.16 118.298 106.711 118.187 108.341C117.514 108.271 116.842 108.198 116.171 108.121L116.172 108.12C116.28 107.7 116.019 107.389 115.676 107.242C115.844 105.271 115.952 103.292 116.088 101.32C116.143 100.53 116.059 99.346 116.596 98.695C117.054 98.141 117.866 98.293 118.431 98.612C120.138 99.576 119.709 101.99 119.279 103.551Z" fill="#EFF0F3"/>
</svg>
