<svg width="79" height="142" viewBox="0 0 79 142" fill="none" xmlns="http://www.w3.org/2000/svg">
<path d="M29.4495 33.5965C28.8443 33.4832 28.2372 33.7843 27.88 34.2669L27.8004 34.3986C27.6494 34.5567 27.5208 34.7373 27.427 34.9394C27.2086 35.4057 27.1321 35.9802 27.1147 36.4925C27.0994 36.9343 27.1372 37.3762 27.2066 37.8119C27.2025 38.116 27.2055 38.42 27.2229 38.7211C27.2504 39.1813 27.3851 39.6609 27.6668 40.0334C28.0494 40.5405 28.7331 40.8293 29.3617 40.6813C30.0199 40.5262 30.5331 40.0946 30.8046 39.4742C30.978 39.0782 31.0148 38.6517 31.0332 38.2252C31.0872 37.9751 31.1199 37.7201 31.1413 37.4792C31.2219 36.5884 31.1811 35.5027 30.7729 34.6853C30.5025 34.1414 30.0648 33.7108 29.4495 33.5965Z" fill="#EFF0F3"/>
<path d="M55.0591 38.7211C55.0867 39.1814 55.2214 39.661 55.503 40.0334C55.8856 40.5406 56.5693 40.8294 57.1979 40.6814C57.8561 40.5263 58.3694 40.0946 58.6408 39.4742C58.8143 39.0783 58.851 38.6518 58.8694 38.2252C58.9235 37.9752 58.9561 37.7201 58.9775 37.4793C59.0582 36.5885 59.0173 35.5027 58.6092 34.6854C58.3377 34.1415 57.899 33.7119 57.2847 33.5976C56.6795 33.4843 56.0724 33.7854 55.7152 34.268L55.6356 34.3997C55.4846 34.5578 55.356 34.7384 55.2622 34.9405C55.0448 35.4068 54.9673 35.9813 54.9499 36.4936C54.9346 36.9354 54.9724 37.3773 55.0418 37.813C55.0387 38.116 55.0407 38.4201 55.0591 38.7211Z" fill="#EFF0F3"/>
<path d="M46.1028 47.8692C47.1926 47.2743 48.3559 46.3845 48.8569 45.21C49.3936 43.9539 47.7048 43.112 46.865 44.0661C46.2793 44.7314 45.8293 45.3529 45.0232 45.7825C44.2242 46.208 43.3313 46.4498 42.4251 46.4702C41.4415 46.4927 40.4659 46.2845 39.52 46.0345C39.0088 45.8988 38.5118 45.708 38.0373 45.4763C37.5363 45.2314 37.0924 44.9784 36.523 44.9743C36.3077 44.9723 36.0679 45.1325 36.123 45.3845C36.3832 46.5815 37.8067 47.3376 38.7985 47.8927C39.9986 48.5652 41.4006 48.8264 42.766 48.7774C43.9129 48.7376 45.0936 48.4203 46.1028 47.8692Z" fill="#EFF0F3"/>
<path d="M62.7695 72.7696C61.2531 69.1043 59.9021 65.2665 58.0541 61.7439C61.3848 60.2429 64.4297 58.351 67.1012 56.1387C74.236 50.2335 78.7208 41.9824 78.7198 32.8373C78.7218 23.6922 74.236 15.4411 67.1012 9.53588C59.9623 3.62353 50.1611 0.00204085 39.3599 0C28.5587 0.00102043 18.7565 3.62353 11.6186 9.53588C4.48376 15.4411 -0.00101973 23.6922 6.96083e-07 32.8373C-0.00204016 41.9824 4.48376 50.2335 11.6186 56.1387C17.5422 61.0449 25.3035 64.3654 33.9445 65.3573C33.7639 65.8614 33.5904 66.3685 33.4261 66.8787C33.0394 67.6124 32.7638 68.4012 32.4455 69.1686C31.9648 70.3288 31.4567 71.4757 30.9801 72.637C30.074 74.8452 29.0781 77.0167 27.9974 79.1453C25.8188 83.4362 23.282 87.5403 20.431 91.4179C19.0279 93.3261 17.5034 95.1231 16.0125 96.9609C14.7411 98.5283 13.4625 100.543 13.7747 102.658C14.337 106.463 19.1983 107.129 21.8228 105.002C26.1301 101.51 23.8719 95.3792 25.4974 90.8394C25.7964 90.0036 25.127 89.3587 24.4525 89.3046C26.3994 86.2658 28.178 83.1157 29.7495 79.8688C30.076 79.1943 30.3791 78.5085 30.6883 77.8259C29.7577 82.1484 28.9015 86.527 28.4413 90.9251C28.0311 94.8466 28.1862 99.0242 30.4934 102.382C32.6016 105.452 36.1527 107.195 39.7344 107.861C40.3374 107.973 40.9477 108.049 41.5609 108.097C40.9956 109.487 40.5303 110.917 40.0293 112.337C39.3109 114.369 38.5721 116.396 37.815 118.414C36.2751 122.518 34.6557 126.592 32.9587 130.633C32.3404 132.105 31.7761 133.778 30.8087 135.094C27.5546 132.782 23.0177 131.509 19.1381 132.633C17.5279 133.099 15.8176 134.352 16.0503 136.239C16.3095 138.345 18.5534 139.09 20.332 139.456C24.2606 140.262 28.9648 140.687 31.9659 137.472C33.5496 135.775 34.2628 133.404 35.1027 131.292C36.0802 128.835 37.0282 126.366 37.9476 123.886C39.0129 121.014 40.0385 118.128 41.0252 115.228C41.815 112.907 42.7099 110.564 43.2518 108.162C44.4549 108.159 45.66 108.063 46.8416 107.906C48.1682 107.73 49.4835 107.471 50.7876 107.173C50.9162 107.144 51.0499 107.116 51.1805 107.088C51.7295 109.573 52.6458 112.023 53.4356 114.43C54.355 117.231 55.3367 120.012 56.2877 122.802C57.6459 126.783 58.9776 130.775 60.3011 134.768C58.3204 133.904 56.1459 133.57 53.9601 133.823C51.7417 134.079 47.6059 135.263 47.2672 137.96C46.8549 141.247 51.8774 141.819 54.1346 141.962C57.4041 142.169 60.6317 141.535 63.5634 140.072C64.2287 139.74 64.5083 139.041 64.2532 138.339C62.2858 132.941 60.3327 127.536 58.4235 122.116C57.4929 119.474 56.5694 116.828 55.6306 114.187C54.751 111.711 53.9132 109.109 52.7683 106.724C53.454 106.548 54.1265 106.331 54.7408 106.011C54.8255 105.967 54.8826 105.908 54.9499 105.855C55.4969 109.628 56.8377 113.435 60.8317 114.68C65.343 116.086 69.2951 111.891 69.09 107.518C68.9849 105.278 68.1022 103.426 66.7787 101.897C67.8747 101.549 68.8053 100.448 69.3706 99.5385C70.1349 98.3109 70.59 96.8803 70.6839 95.4364C70.9359 91.5537 69.0155 87.8516 67.5696 84.3658C65.9655 80.5014 64.3685 76.635 62.7695 72.7696ZM22.5147 96.4833C22.4463 98.2915 22.3228 100.212 21.4361 101.833C20.7177 103.145 19.4371 104.064 17.8901 103.878C16.0207 103.654 15.7758 101.94 16.4778 100.443C17.3156 98.6548 18.8381 97.167 20.033 95.616C21.0565 94.2864 22.032 92.919 22.979 91.5332C22.6239 93.1516 22.5779 94.8058 22.5147 96.4833ZM26.0158 137.443C24.33 137.557 22.6126 137.29 20.9606 136.984C20.2146 136.846 17.3228 136.306 18.9024 135.215C20.3657 134.202 22.8167 134.457 24.4596 134.749C26.128 135.046 27.6862 135.7 29.0883 136.623C28.1597 137.132 27.0862 137.371 26.0158 137.443ZM61.2929 137.764C61.3297 137.875 61.3664 137.986 61.4031 138.097C59.6664 138.759 57.8398 139.157 55.9745 139.226C54.851 139.268 53.7163 139.173 52.6101 138.978C52.2581 138.916 49.8499 138.576 49.8254 138.085C49.805 137.684 51.5346 136.98 51.8744 136.837C52.8122 136.442 53.7959 136.217 54.8081 136.127C56.8959 135.941 59.0286 136.45 60.7929 137.582C60.9592 137.687 61.1276 137.743 61.2929 137.764ZM2.60821 32.8383C2.61025 24.5688 6.64399 17.0544 13.2819 11.5471C19.9167 6.04702 29.1424 2.61024 39.3589 2.61126C49.5754 2.61024 58.801 6.04702 65.4358 11.5471C72.0747 17.0544 76.1085 24.5688 76.1095 32.8383C76.1085 41.1079 72.0737 48.6223 65.4358 54.1295C58.801 59.6296 49.5754 63.0664 39.3589 63.0654C29.1424 63.0664 19.9167 59.6296 13.2819 54.1295C6.64399 48.6223 2.61025 41.1079 2.60821 32.8383ZM60.1194 111.442C58.4051 110.072 57.7204 107.904 57.3878 105.814C57.0265 103.542 56.9143 101.22 56.7143 98.9293L56.7092 98.865C56.8143 98.9436 56.9337 99.014 57.0826 99.064C60.849 100.315 65.3675 102.254 66.4022 106.54C67.3012 110.264 63.6368 114.252 60.1194 111.442ZM67.5767 97.1231C67.3277 97.7242 66.9808 98.314 66.5155 98.7762C66.0165 99.2701 65.3563 99.5252 64.991 100.151L64.9695 100.198C62.9327 98.5966 60.4225 97.4528 58.0786 96.6507C57.4265 96.4272 56.8786 96.7089 56.5632 97.1507C56.1816 92.7006 55.8143 88.2495 55.3887 83.8045C54.8377 78.0432 54.1367 72.3207 53.3969 66.5889C53.3315 66.0828 52.6162 66.2165 52.6305 66.7022C52.7999 72.7258 53.0183 78.7351 53.3867 84.7576C53.754 90.7547 54.2163 96.7466 54.6306 102.741C54.6591 103.158 54.6948 103.588 54.7336 104.021C54.5591 103.937 54.3642 103.876 54.1336 103.883C52.0019 103.947 49.8243 104.837 47.7172 105.199C45.6661 105.551 43.5763 105.749 41.4987 105.554C38.2701 105.251 34.8986 103.969 32.8138 101.383C30.3934 98.3803 30.4128 94.3037 30.7934 90.6577C31.222 86.5566 31.9108 82.4627 32.674 78.4116C33.4883 74.089 34.6118 69.8288 35.4414 65.5134C36.7302 65.6195 38.0364 65.6756 39.3578 65.6756C45.4437 65.6746 51.2111 64.5246 56.3643 62.4633C57.3755 65.8032 58.8235 69.0328 60.1102 72.2666C61.497 75.7523 62.8848 79.2371 64.2715 82.7229C65.5746 86.0005 67.3471 89.4067 67.9308 92.9078C68.1696 94.3323 68.1359 95.7752 67.5767 97.1231Z" fill="#EFF0F3"/>
</svg>
