<svg width="279" height="101" viewBox="0 0 279 101" fill="none" xmlns="http://www.w3.org/2000/svg">
<path d="M277 99L2 99" stroke="black" stroke-opacity="0.5" stroke-width="3" stroke-linecap="round"/>
<path d="M133.957 13.5372C133.612 13.4732 133.266 13.6442 133.062 13.92L133.017 13.9953C132.932 14.0853 132.858 14.1888 132.804 14.3035C132.68 14.5694 132.636 14.8973 132.626 15.19C132.618 15.4419 132.639 15.6938 132.679 15.9428C132.677 16.1159 132.678 16.2897 132.688 16.4614C132.704 16.7238 132.781 16.9975 132.941 17.21C133.16 17.4992 133.549 17.6645 133.908 17.5794C134.283 17.4907 134.577 17.2445 134.731 16.8906C134.831 16.6647 134.851 16.4213 134.862 16.1785C134.893 16.0364 134.911 15.89 134.923 15.7528C134.969 15.2442 134.947 14.625 134.713 14.1585C134.558 13.8482 134.309 13.6027 133.957 13.5372Z" fill="#242647"/>
<path d="M148.57 16.4615C148.585 16.724 148.662 16.9977 148.823 17.2101C149.042 17.4993 149.431 17.6647 149.79 17.5795C150.165 17.4909 150.459 17.2446 150.613 16.8907C150.713 16.6649 150.733 16.4214 150.744 16.1787C150.775 16.0366 150.794 15.8902 150.806 15.753C150.852 15.2443 150.829 14.6251 150.596 14.1587C150.441 13.8484 150.191 13.6028 149.84 13.5381C149.495 13.4741 149.149 13.645 148.945 13.9208L148.9 13.9961C148.814 14.0862 148.741 14.1896 148.687 14.3043C148.563 14.5703 148.519 14.8981 148.509 15.1908C148.501 15.4427 148.522 15.6946 148.562 15.9437C148.558 16.1161 148.56 16.2891 148.57 16.4615Z" fill="#242647"/>
<path d="M143.459 21.6806C144.081 21.3408 144.745 20.8335 145.031 20.1637C145.337 19.4467 144.373 18.9662 143.895 19.5115C143.561 19.8914 143.304 20.246 142.844 20.4909C142.388 20.7336 141.878 20.8715 141.361 20.8835C140.8 20.8961 140.243 20.7779 139.704 20.6351C139.412 20.5577 139.129 20.4486 138.857 20.3171C138.572 20.1778 138.318 20.0335 137.993 20.0307C137.87 20.03 137.734 20.1215 137.765 20.265C137.913 20.9475 138.726 21.3795 139.291 21.6961C139.976 22.0796 140.776 22.2287 141.555 22.2006C142.21 22.176 142.884 21.9951 143.459 21.6806Z" fill="#242647"/>
<path d="M165.091 8.05915C164.134 6.08276 163.05 3.82212 161.113 2.62671C160.242 2.08917 159.133 1.724 158.105 1.95197C157.004 2.19611 156.404 3.19029 156.638 4.28649C156.869 5.3658 157.601 6.39656 158.188 7.31263C158.813 8.2857 159.508 9.21233 160.265 10.0862C161.041 10.9819 161.884 11.8255 162.779 12.6037C163.68 13.3882 164.529 14.072 165.708 14.3408C165.781 14.357 165.845 14.3514 165.905 14.3366C166.853 18.0797 166.696 21.9192 165.306 25.5835C163.747 29.6925 160.981 33.2076 157.697 36.0839C156.086 37.4939 154.36 38.7745 152.581 39.9635C151.671 40.5714 150.744 41.1505 149.809 41.7204C149.173 42.1088 148.527 42.4733 147.951 42.9299C147.688 42.2488 147.419 41.5698 147.143 40.893C150.793 40.0065 154.067 38.3734 156.704 36.1895C160.788 32.8101 163.358 28.0834 163.357 22.843C163.358 17.6027 160.788 12.8759 156.704 9.49659C152.618 6.11231 147.01 4.04164 140.832 4.04023C134.654 4.04094 129.047 6.11231 124.961 9.49659C120.877 12.8759 118.306 17.6027 118.307 22.843C118.307 28.0834 120.877 32.8101 124.961 36.1895C126.509 37.4714 128.275 38.5634 130.207 39.4274C129.843 40.4828 129.489 41.5466 129.158 42.6217C128.749 42.1412 128.292 41.7 127.84 41.2469C127.067 40.4722 126.304 39.6898 125.564 38.8835C124.117 37.3068 122.743 35.654 121.513 33.9021C119.004 30.3292 117.15 26.2583 116.609 21.8974C116.127 18.0086 116.885 14.2409 118.693 10.8292C118.748 10.858 118.809 10.8791 118.883 10.8798C120.093 10.8981 121.08 10.4345 122.141 9.88638C123.195 9.3425 124.214 8.72264 125.181 8.03664C126.124 7.36752 127.019 6.63226 127.856 5.83439C128.643 5.08366 129.599 4.25553 130.079 3.26135C130.567 2.2524 130.22 1.14424 129.207 0.646099C128.263 0.181025 127.1 0.273194 126.126 0.589107C123.959 1.29129 122.371 3.2311 120.973 4.92394C117.899 8.64594 115.437 12.9533 115.06 17.8553C114.68 22.7846 116.139 27.7337 118.588 31.9806C119.942 34.3278 121.558 36.5096 123.359 38.5317C124.281 39.5681 125.245 40.5665 126.231 41.5417C127.029 42.3304 127.84 43.2162 128.808 43.8059C127.748 47.4237 126.915 51.1274 126.513 54.8438C126.23 57.4605 126.231 60.1517 126.955 62.7001C127.59 64.934 128.752 67.0849 131.162 67.6886C132.108 67.9257 133.093 67.9447 134.07 67.9531C133.815 68.6504 133.891 69.4258 133.892 70.1645C133.894 71.1475 133.91 72.1304 133.92 73.1133C133.938 74.9898 133.97 76.8662 133.968 78.7427C133.964 82.2586 134.299 85.8976 133.712 89.3803C133.208 92.3671 131.244 95.8175 132.929 98.7543C133.513 99.7724 134.522 100.652 135.762 100.586C136.977 100.522 137.869 99.6092 138.213 98.4905C138.653 97.0657 138.412 95.5347 138.08 94.1141C137.65 92.2742 136.956 90.5166 136.008 88.8829C135.844 88.6008 135.574 88.4861 135.31 88.4868C135.337 88.2567 135.368 88.0273 135.386 87.7944C135.416 87.3927 135.438 86.9902 135.454 86.5871C135.497 86.6251 135.53 86.6715 135.579 86.7046C136.59 87.3772 137.93 87.088 138.838 86.3809C140.027 85.455 140.817 83.9465 141.663 82.7286L144.839 78.1587C144.986 77.9484 144.994 77.7296 144.923 77.5424C146.318 76.8121 147.719 76.093 149.091 75.3183C151.365 74.035 153.549 72.6018 155.427 70.7745C155.651 70.5571 155.785 70.1645 155.535 69.8993C154.372 68.6701 153.11 67.4712 151.697 66.5178C152.246 66.0717 152.721 65.5328 153.059 64.8644C154.205 62.5995 153.162 59.7528 152.582 57.4731C151.414 52.8913 150.007 48.3743 148.345 43.9501C149.394 43.5997 150.366 42.951 151.305 42.3881C152.494 41.6747 153.666 40.9324 154.808 40.1444C157.037 38.6063 159.124 36.8698 160.996 34.9103C164.381 31.3649 166.972 26.9028 167.771 22.0233C168.566 17.1721 167.195 12.4038 165.091 8.05915ZM163.585 11.1634C162.707 10.4007 161.891 9.57046 161.143 8.68042C160.398 7.79671 159.717 6.85952 159.11 5.8759C158.799 5.37142 158.459 4.84022 158.242 4.28578C158.025 3.73276 158.131 3.40207 158.762 3.40066C160.759 3.39574 162.133 5.58672 162.96 7.12337C163.919 8.90346 164.76 10.7631 165.408 12.6803C164.835 12.1435 164.19 11.689 163.585 11.1634ZM123.264 4.51867C124.432 3.22125 126.285 1.41864 128.226 1.89638C128.838 2.04766 128.863 2.39382 128.521 2.88001C128.178 3.36689 127.722 3.80242 127.301 4.21894C126.479 5.03089 125.594 5.78021 124.662 6.46199C123.723 7.1487 122.734 7.76223 121.7 8.29485C120.987 8.66213 120.253 8.9506 119.57 9.33687C120.654 7.62855 121.912 6.02084 123.264 4.51867ZM119.931 22.8416C119.932 18.1459 122.222 13.8772 125.997 10.7448C129.77 7.61729 135.019 5.66131 140.833 5.66201C146.647 5.66131 151.896 7.61729 155.669 10.7448C159.444 13.8772 161.734 18.1459 161.735 22.8416C161.734 27.5374 159.444 31.8061 155.669 34.9385C153.113 37.0577 149.877 38.6366 146.248 39.4358C145.958 39.3423 145.624 39.4211 145.38 39.6089C143.917 39.8763 142.396 40.0219 140.833 40.0219C135.019 40.0226 129.77 38.0667 125.997 34.9392C122.222 31.8068 119.932 27.5381 119.931 22.8416ZM136.368 93.3683C136.742 94.5721 137.105 95.9399 136.99 97.212C136.916 98.0289 136.561 99.2651 135.498 99.1209C134.444 98.978 133.865 97.5885 133.772 96.6745C133.618 95.1547 134.134 93.6124 134.544 92.1715C134.73 91.5186 134.893 90.8649 135.03 90.2078C135.571 91.2181 136.027 92.2714 136.368 93.3683ZM139.04 84.1168C138.736 84.5453 138.42 84.9843 138 85.3079C137.645 85.5823 136.845 85.9686 136.41 85.6189C136.13 85.3938 136.286 84.5579 136.367 84.2244C136.509 83.644 136.804 83.1113 137.172 82.6456C137.921 81.6985 138.955 81.009 139.956 80.3575C140.894 79.7468 141.865 79.1881 142.846 78.6506C141.583 80.4764 140.326 82.3071 139.04 84.1168ZM154.151 70.2539C150.298 73.7071 145.417 75.63 140.981 78.1989C138.974 79.3619 136.505 80.6938 135.443 82.8763C135.392 81.3995 135.306 79.9241 135.244 78.4592C135.168 76.6735 135.12 74.8863 135.059 73.0999C135.028 72.162 134.999 71.2234 134.964 70.2863C134.935 69.5165 134.987 68.6807 134.692 67.9602C134.75 67.9609 134.807 67.9616 134.864 67.9623C136.297 67.9876 137.73 68.0129 139.163 68.0383C141.904 68.0868 144.719 68.3232 147.454 68.0896C148.555 67.9954 149.674 67.7181 150.654 67.2109C151.859 68.1832 153.058 69.1471 154.151 70.2539ZM151.053 58.3421C151.35 59.5185 151.691 60.7097 151.824 61.9184C151.941 62.9787 151.784 64.0229 151.054 64.8398C150.784 65.1416 150.456 65.3836 150.106 65.5919C150.096 65.587 150.085 65.5806 150.075 65.575C149.771 65.428 149.517 65.6489 149.465 65.9134C149.156 66.0408 148.843 66.1505 148.524 66.2237C147.369 66.489 146.174 66.4819 144.997 66.4629C143.702 66.4418 142.408 66.4179 141.114 66.3961C138.515 66.3511 135.912 66.3433 133.314 66.2582C132.296 66.2244 131.192 66.1512 130.354 65.5053C129.515 64.8587 129.058 63.8223 128.714 62.8507C127.914 60.5964 127.828 58.1387 128.011 55.7747C128.429 50.3521 130.055 45.1511 131.331 39.8939C134.222 41.0175 137.44 41.6451 140.832 41.6458C142.384 41.6458 143.901 41.5143 145.366 41.2645C147.177 45.664 148.769 50.1544 150.083 54.7277C150.428 55.9259 150.749 57.1319 151.053 58.3421Z" fill="#242647"/>
</svg>
