<svg width="279" height="95" viewBox="0 0 279 95" fill="none" xmlns="http://www.w3.org/2000/svg">
<path d="M163.375 6.44286C158.551 2.44817 151.929 0.000650072 144.63 0C137.332 0.00130014 130.709 2.44817 125.885 6.44286C121.064 10.433 118.034 16.008 118.035 22.1869C118.034 28.3659 121.064 33.9409 125.885 37.931C126.961 38.8216 128.131 39.631 129.373 40.3578C126.917 41.4161 124.508 42.6213 122.084 43.7355C121.04 44.2153 119.868 44.6502 119.071 45.5154C118.215 46.445 118.077 47.7114 118.281 48.9146C118.521 50.3298 119.034 51.7256 119.431 53.1024C119.639 53.8266 119.853 54.5488 120.057 55.2743C120.122 55.5051 120.188 55.7423 120.238 55.9822C117.699 55.3881 114.512 55.7326 112.698 57.6523C111.854 58.5461 111.666 59.9581 112.751 60.7544C113.737 61.4773 115.143 61.2712 116.266 61.1171C117.557 60.9397 118.888 60.6328 119.95 59.8599C119.166 61.437 118.553 63.0882 118.524 64.8453C118.484 67.3409 119.783 69.4621 121.662 71.0158C122.45 71.6671 123.312 72.2334 124.225 72.7196C124.252 72.8763 124.284 73.0329 124.312 73.1857C124.447 73.9157 124.626 74.6406 124.795 75.3635C125.148 76.8645 125.551 78.3538 125.982 79.834C126.531 81.7179 127.146 83.5804 127.812 85.4253C126.872 84.9403 125.845 84.6127 124.817 84.4911C123.297 84.3123 121.497 84.8643 121.317 86.6234C121.151 88.2472 122.472 89.5428 123.968 89.8529C125.985 90.2716 127.856 89.1664 129.849 89.1268C130.349 89.117 130.606 88.4806 130.433 88.0789C129.236 85.3024 128.166 82.4726 127.24 79.5948C126.771 78.1386 126.344 76.6701 125.942 75.1938C125.771 74.5665 125.616 73.9346 125.452 73.3053C128.897 74.807 132.906 75.2841 136.535 74.9188C136.482 75.3102 136.581 75.7294 136.654 76.1247C136.79 76.8547 136.968 77.5796 137.137 78.3024C137.49 79.8034 137.893 81.2928 138.324 82.773C138.873 84.6569 139.488 86.5193 140.154 88.3642C139.213 87.8793 138.187 87.551 137.16 87.4301C135.64 87.2513 133.84 87.8032 133.66 89.5623C133.493 91.1862 134.815 92.4818 136.31 92.7919C138.327 93.2105 140.199 92.1054 142.191 92.0657C142.691 92.0553 142.948 91.4196 142.776 91.0178C141.579 88.2414 140.509 85.4116 139.582 82.5337C139.114 81.0776 138.686 79.6091 138.284 78.1328C138.089 77.4131 137.914 76.6877 137.722 75.9667C137.624 75.5981 137.544 75.1684 137.354 74.8232C139.655 74.5054 142.083 73.7799 143.827 72.1794C145.792 70.3761 146.319 67.8772 146.246 65.301C146.227 64.6035 146.185 63.9046 146.133 63.2052C146.27 63.4327 146.427 63.6563 146.608 63.8734C147.282 64.6821 148.12 65.3706 148.954 66.0089C149.779 66.6401 150.753 67.22 151.827 67.1856C153.701 67.1251 155.135 65.0202 153.705 63.4847C152.902 62.6227 151.656 62.0805 150.619 61.5611C149.44 60.9702 148.222 60.4658 146.978 60.0309C147.115 59.5999 147.331 59.1858 147.596 58.8087C148.824 57.0542 150.805 55.9965 151.913 54.1373C152.066 53.8805 152.105 53.5757 151.908 53.326C150.608 51.6774 149.307 50.0302 148.009 48.3796C147.375 47.5735 146.742 46.7675 146.108 45.962C145.696 45.4368 145.291 44.8777 144.839 44.3706C152.055 44.3232 158.598 41.8887 163.375 37.9323C168.196 33.9422 171.227 28.3672 171.225 22.1882C171.227 16.008 168.196 10.433 163.375 6.44286ZM125.86 88.2999C124.782 88.4722 123.102 88.4371 122.868 87.0537C122.643 85.7159 124.545 85.9291 125.335 86.0916C126.583 86.3477 127.661 86.9464 128.635 87.7343C127.706 87.8819 126.805 88.1491 125.86 88.2999ZM138.203 91.2389C137.125 91.4111 135.445 91.376 135.211 89.9927C134.986 88.6555 136.888 88.8681 137.678 89.0306C138.926 89.2867 140.004 89.8854 140.978 90.6733C140.048 90.8209 139.148 91.0874 138.203 91.2389ZM120.114 50.6718C119.69 49.2247 118.905 47.2823 120.243 46.0862C120.893 45.5044 121.765 45.1715 122.541 44.7964C123.503 44.331 124.466 43.8655 125.428 43.4001C127.102 42.5901 128.816 41.8263 130.468 40.9649L130.47 40.9662C128.98 43.2857 127.721 45.7741 126.39 48.1801C124.83 50.9994 123.271 53.8194 121.712 56.6394L121.672 56.7122C121.678 56.3677 121.64 56.0134 121.559 55.652C121.179 53.9741 120.598 52.3223 120.114 50.6718ZM117.2 59.5479C116.26 59.7513 114.655 60.1849 113.726 59.7039C112.267 58.9478 115.442 57.5365 115.984 57.3714C117.366 56.9508 118.846 56.9515 120.232 57.3344L120.224 57.3656C119.799 58.6475 118.42 59.2846 117.2 59.5479ZM143.943 69.4517C142.958 71.4195 140.78 72.4713 138.733 72.9705C133.861 74.1589 128.088 73.4158 123.8 70.7505C121.93 69.5889 120.228 67.8928 119.951 65.6098C119.618 62.8652 121.276 60.2291 122.534 57.9227C124.122 55.0097 125.71 52.0967 127.299 49.1838C128.69 46.6296 130.208 44.0944 131.426 41.4453C134.744 43.0315 138.504 44.0339 142.512 44.2972C142.489 44.3901 142.477 44.4896 142.489 44.6014C143.108 50.4287 143.726 56.2552 144.343 62.0825C144.598 64.4845 145.074 67.1953 143.943 69.4517ZM149.374 62.4504C150.383 62.9178 151.499 63.4067 152.383 64.0899C152.776 64.3929 153.151 64.8193 152.796 65.2964C152.553 65.6241 152.105 65.8009 151.707 65.8009C150.643 65.8009 149.638 64.8076 148.88 64.1705C148.126 63.5361 147.333 62.8138 146.981 61.866C146.928 61.723 146.89 61.5793 146.864 61.4363C147.714 61.7412 148.555 62.0701 149.374 62.4504ZM147.077 49.1071C148.24 50.651 149.4 52.1969 150.56 53.7427C149.322 55.4199 147.425 56.501 146.305 58.2848C146.068 58.6625 145.895 59.0506 145.761 59.4413C145.596 58.0222 145.418 56.605 145.273 55.195C144.937 51.9271 144.602 48.6592 144.267 45.3913C144.578 45.821 144.914 46.235 145.226 46.6498C145.843 47.4695 146.46 48.288 147.077 49.1071ZM162.25 36.5737C157.767 40.2895 151.533 42.6122 144.631 42.6109C137.728 42.6122 131.494 40.2895 127.011 36.5737C122.526 32.8527 119.8 27.775 119.799 22.1869C119.801 16.5996 122.526 11.5219 127.011 7.80086C131.494 4.08505 137.728 1.76234 144.631 1.76364C151.534 1.76234 157.767 4.08505 162.25 7.80086C166.736 11.5219 169.462 16.5996 169.462 22.1869C169.461 27.775 166.736 32.852 162.25 36.5737Z" fill="#242647"/>
<path d="M132.645 25.0504C132.236 24.9743 131.826 25.1772 131.585 25.5035L131.531 25.5926C131.43 25.6992 131.343 25.8214 131.279 25.9579C131.132 26.2725 131.08 26.6613 131.068 27.0078C131.058 27.3061 131.083 27.6045 131.131 27.899C131.128 28.1044 131.13 28.3099 131.142 28.5133C131.16 28.8247 131.252 29.1484 131.441 29.4C131.7 29.7426 132.162 29.9376 132.587 29.8375C133.032 29.7329 133.379 29.441 133.562 29.0217C133.68 28.7539 133.704 28.4659 133.717 28.1779C133.753 28.0089 133.775 27.8366 133.79 27.6741C133.844 27.0721 133.817 26.3388 133.541 25.7863C133.357 25.4177 133.06 25.1278 132.645 25.0504Z" fill="#242647"/>
<path d="M150.277 27.9889C149.868 27.9128 149.458 28.1156 149.217 28.442L149.164 28.531C149.062 28.6376 148.975 28.7599 148.912 28.8964C148.765 29.211 148.712 29.5998 148.7 29.9462C148.69 30.2453 148.716 30.543 148.763 30.8375C148.76 31.0429 148.762 31.2483 148.774 31.4518C148.792 31.7632 148.884 32.0869 149.073 32.3385C149.332 32.6811 149.794 32.8768 150.219 32.776C150.663 32.6713 151.011 32.3795 151.194 31.9602C151.312 31.6923 151.336 31.4044 151.349 31.1164C151.385 30.948 151.407 30.7751 151.421 30.6126C151.476 30.0106 151.449 29.2773 151.173 28.7248C150.989 28.3568 150.693 28.0662 150.277 27.9889Z" fill="#242647"/>
<path d="M142.161 33.9111C142.265 33.8968 142.026 33.9156 142.043 33.915C141.88 33.9208 141.752 33.9696 141.618 34.058C141.54 34.1087 141.397 34.216 141.36 34.2374C141.155 34.3583 140.895 34.4682 140.687 34.528C140.481 34.5878 140.199 34.6301 139.962 34.6333C139.837 34.6353 139.448 34.5891 139.351 34.5651C138.895 34.4526 138.499 34.2387 138.149 33.9429C137.973 33.7941 137.814 33.6244 137.651 33.4612C137.561 33.3715 137.485 33.2649 137.386 33.1863C137.332 33.1434 137.274 33.1063 137.208 33.0842C137.178 33.0744 136.955 33.0348 137.026 33.051C136.909 33.0237 136.808 33.1154 136.757 33.2084C136.444 33.7837 137.026 34.4948 137.429 34.8875C137.858 35.3061 138.385 35.6351 138.963 35.8008C139.616 35.9874 140.31 36.0245 140.974 35.8645C141.299 35.7865 141.619 35.6825 141.915 35.5252C142.088 35.4329 142.263 35.3354 142.42 35.2177C142.541 35.1274 142.644 35.024 142.703 34.881C142.72 34.8199 142.735 34.7588 142.751 34.6983C142.768 34.6333 142.768 34.6223 142.751 34.6652C142.863 34.2732 142.612 33.8493 142.161 33.9111Z" fill="#242647"/>
<path d="M277 93.0002L2 93.0002" stroke="black" stroke-opacity="0.5" stroke-width="3" stroke-linecap="round"/>
</svg>
