<svg width="279" height="67" viewBox="0 0 279 67" fill="none" xmlns="http://www.w3.org/2000/svg">
<path d="M277 65.5L2 65.5" stroke="black" stroke-opacity="0.5" stroke-width="3" stroke-linecap="round"/>
<path d="M141.263 16.1672C141.271 16.347 141.286 16.5277 141.36 16.6953C141.475 16.9576 141.692 17.1404 141.97 17.2061C142.237 17.2689 142.525 17.1467 142.688 16.932C142.806 16.7745 142.864 16.5719 142.875 16.3769C142.883 16.2493 142.884 16.1209 142.882 15.9924C142.912 15.808 142.928 15.6214 142.921 15.4345C142.914 15.2176 142.881 14.9746 142.789 14.7775C142.749 14.692 142.694 14.6154 142.631 14.5488L142.597 14.4933C142.447 14.289 142.19 14.1618 141.934 14.2098C141.674 14.2583 141.488 14.4402 141.373 14.6701C141.201 15.0159 141.183 15.4749 141.217 15.8522C141.226 15.9537 141.24 16.0615 141.263 16.1672Z" fill="black" fill-opacity="0.5"/>
<path d="M141.761 16.1031L141.762 16.145C141.77 16.3218 141.785 16.4193 141.818 16.494L141.818 16.4946C141.87 16.6148 141.962 16.6903 142.085 16.7195C142.137 16.7315 142.232 16.706 142.289 16.6307L142.688 16.932M141.761 16.1031L142.336 14.9894C142.386 15.0964 142.415 15.2602 142.421 15.451L142.421 15.4525C142.427 15.5994 142.414 15.7526 142.388 15.9135L142.382 15.956L142.382 15.999C142.384 16.1215 142.383 16.2364 142.376 16.347C142.369 16.4736 142.332 16.5729 142.288 16.6309L142.688 16.932M141.761 16.1031L141.752 16.062M141.761 16.1031L141.752 16.062M142.688 16.932C142.806 16.7745 142.864 16.5719 142.875 16.3769L141.97 17.2061C142.237 17.2689 142.525 17.1467 142.688 16.932ZM141.752 16.062C141.735 15.9827 141.723 15.8966 141.716 15.8088L141.716 15.8088L141.715 15.8072C141.684 15.4581 141.711 15.113 141.821 14.8935C141.889 14.7575 141.964 14.7129 142.025 14.7014L142.025 14.7014L142.026 14.7013C142.043 14.698 142.069 14.699 142.101 14.7136C142.131 14.7267 142.16 14.7486 142.184 14.7764L142.202 14.8056L142.231 14.8537M141.752 16.062L142.231 14.8537M142.231 14.8537L142.269 14.8943M142.231 14.8537L142.269 14.8943M142.269 14.8943C142.299 14.9252 142.321 14.9575 142.336 14.9894L142.269 14.8943Z" stroke="black" stroke-opacity="0.5"/>
<path d="M129.489 16.1672C129.497 16.347 129.512 16.5277 129.586 16.6953C129.701 16.9576 129.918 17.1404 130.196 17.2061C130.463 17.2689 130.751 17.1467 130.914 16.932C131.032 16.7745 131.09 16.5719 131.101 16.3769C131.109 16.2493 131.11 16.1209 131.108 15.9924C131.138 15.808 131.154 15.6214 131.147 15.4345C131.14 15.2176 131.107 14.9746 131.015 14.7775C130.975 14.692 130.921 14.6154 130.857 14.5488L130.824 14.4933C130.673 14.289 130.416 14.1618 130.16 14.2098C129.9 14.2583 129.715 14.4402 129.6 14.6701C129.427 15.0159 129.41 15.4749 129.444 15.8522C129.452 15.9537 129.466 16.0615 129.489 16.1672Z" fill="black" fill-opacity="0.5"/>
<path d="M129.987 16.1031L129.988 16.145C129.996 16.3217 130.011 16.4193 130.043 16.494L130.044 16.4946C130.096 16.6148 130.188 16.6903 130.311 16.7195C130.363 16.7315 130.458 16.706 130.514 16.6307L130.914 16.932M129.987 16.1031L130.562 14.9894C130.612 15.0964 130.641 15.2602 130.648 15.451L130.648 15.4513C130.653 15.599 130.64 15.7526 130.614 15.9135L130.608 15.956L130.608 15.999C130.61 16.1215 130.609 16.2365 130.602 16.347C130.595 16.4736 130.558 16.5729 130.514 16.6309L130.914 16.932M129.987 16.1031L129.978 16.062M129.987 16.1031L129.978 16.062M130.914 16.932C131.032 16.7745 131.09 16.5719 131.101 16.3769L130.196 17.2061C130.463 17.2689 130.751 17.1467 130.914 16.932ZM129.978 16.062C129.961 15.9828 129.949 15.8972 129.942 15.8109L129.942 15.8109L129.942 15.8072C129.91 15.4581 129.937 15.113 130.047 14.8935C130.115 14.7575 130.19 14.7129 130.252 14.7014L130.252 14.7013C130.27 14.698 130.295 14.699 130.328 14.7136C130.357 14.7267 130.387 14.7486 130.411 14.7765L130.428 14.8057L130.457 14.8538M129.978 16.062L130.457 14.8538M130.457 14.8538L130.496 14.8943M130.457 14.8538L130.496 14.8943M130.496 14.8943C130.525 14.9252 130.547 14.9575 130.562 14.9894L130.496 14.8943Z" stroke="black" stroke-opacity="0.5"/>
<path d="M134.889 20.247C135.316 20.4799 135.815 20.6142 136.301 20.6315C136.878 20.6521 137.472 20.5414 137.979 20.2575C138.399 20.0225 139.001 19.7025 139.111 19.1963C139.134 19.0898 139.033 19.022 138.942 19.0228C138.701 19.0249 138.513 19.1319 138.301 19.2355C138.1 19.3336 137.89 19.414 137.674 19.4713C137.274 19.577 136.861 19.665 136.445 19.6558C136.062 19.6469 135.684 19.5446 135.346 19.3648C135.005 19.1828 134.814 18.9201 134.567 18.6388C134.212 18.2349 133.497 18.5912 133.724 19.1226C133.936 19.6187 134.428 19.9952 134.889 20.247Z" fill="black" fill-opacity="0.5"/>
<path d="M134.839 19.6315C134.567 19.4472 134.344 19.2331 134.221 19.0028C134.242 19.0278 134.264 19.0538 134.287 19.0807C134.432 19.2514 134.605 19.4552 134.839 19.6315ZM134.18 18.9202C134.18 18.9225 134.18 18.9249 134.18 18.9275C134.18 18.9276 134.18 18.9277 134.18 18.9278L134.184 18.9262C134.181 18.9186 134.18 18.915 134.18 18.915C134.18 18.915 134.18 18.9168 134.18 18.9202ZM138.622 19.0901L138.622 19.0902L138.622 19.0901Z" stroke="black" stroke-opacity="0.5"/>
<mask id="path-8-inside-1_16_117" fill="white">
<path d="M161.264 30.628C161.071 29.8481 160.351 29.1444 159.528 29.6397C159.09 29.9029 158.85 30.3969 158.669 30.855C158.428 31.4657 158.238 32.0961 158.083 32.7336C157.923 33.3885 157.812 34.0547 157.748 34.7255C157.689 35.3496 157.613 36.05 157.735 36.6762C157.176 36.9225 156.567 37.0981 155.949 37.2443C153.802 37.7521 151.645 38.2213 149.493 38.7093C148.247 38.9919 147.004 39.2884 145.76 39.5798C145.168 39.7183 144.574 39.851 143.983 39.9959C143.464 40.1235 142.93 40.2342 142.456 40.4801C142.654 39.7154 142.549 38.9271 142.237 38.1408C141.774 36.976 141.146 35.8613 140.593 34.7373C139.504 32.5239 138.42 30.3084 137.334 28.0937C137.473 28.1119 137.613 28.1258 137.75 28.1392C138.204 28.1826 138.657 28.2272 139.112 28.2592C139.991 28.3207 140.87 28.3801 141.751 28.4239C143.512 28.5119 145.275 28.5721 147.037 28.6096C147.861 28.6273 148.689 28.6631 149.513 28.6383C150.144 28.6193 150.804 28.4866 151.262 28.0192C151.74 27.5316 151.821 26.8632 151.751 26.2109C151.664 25.402 151.459 24.5926 151.314 23.792C150.98 21.9614 150.684 20.1266 150.404 18.2876C150.867 17.9919 151.254 17.5767 151.582 17.1392C152.021 16.5538 152.363 15.8859 152.567 15.1826C152.731 14.6154 153.073 13.5066 152.31 13.2198C151.731 13.0021 151.35 13.4211 151.08 13.902C151.08 13.8978 151.08 13.8936 151.08 13.8898C151.081 10.0218 149.184 6.53157 146.166 4.03349C143.146 1.53246 139 0.00084224 134.431 0C129.862 0.00042112 125.716 1.53246 122.697 4.03349C119.678 6.53115 117.781 10.0214 117.782 13.8898C117.782 14.4465 117.825 14.9944 117.902 15.5338C117.355 15.568 117 16.1255 116.893 16.6144C116.603 17.9346 117.367 19.1673 117.543 20.4441C117.757 22.0073 116.266 23.0529 115.295 24.056C113.898 25.4988 112.497 26.9386 111.11 28.3915C110.81 28.7061 111.174 29.3015 111.589 29.2026C113.836 28.669 116.059 28.0516 118.261 27.3538C119.354 27.0073 120.439 26.6405 121.516 26.2446C122.48 25.89 123.476 25.5456 124.403 25.0924C123.575 26.8468 122.892 28.6804 122.268 30.5135C121.598 32.4822 121.064 34.5158 120.75 36.5726C120.215 40.0742 120.116 44.4484 123.324 46.7498C124.57 47.6434 126.014 48.0927 127.511 48.233C127.523 48.2944 127.555 48.3551 127.62 48.406C128.533 49.1274 129.063 50.0787 129.203 51.2364C129.361 52.5414 129.173 53.9231 128.984 55.2164C128.658 57.4365 128.047 59.5994 127.185 61.6667C127.117 61.7429 127.085 61.8288 127.081 61.9164C126.961 62.1981 126.836 62.4782 126.706 62.7561C126.6 62.9844 126.734 63.2813 126.963 63.3714C128.428 63.9496 130 64.1496 131.559 63.8847C132.62 63.7045 134.299 63.168 134.241 61.8061C134.183 60.432 132.509 60.242 131.457 60.2572C130.419 60.2719 129.415 60.5052 128.482 60.9209C129.211 58.9265 129.717 56.8503 129.971 54.7414C130.14 53.3424 130.297 51.839 129.943 50.4565C129.733 49.6353 129.308 48.7909 128.622 48.2789C130.195 48.2755 131.787 47.9778 133.233 47.5314C134.988 46.9902 136.653 46.1686 138.166 45.1289C138.932 44.6021 139.658 44.0146 140.331 43.3724C140.981 42.7521 141.654 42.0918 142.112 41.3123C142.176 41.2032 142.229 41.0933 142.279 40.983C142.317 41.0162 142.362 41.0402 142.413 41.0461C143.036 41.1181 143.679 40.9345 144.288 40.8061C144.942 40.6684 145.595 40.5244 146.248 40.3837C147.554 40.102 148.862 39.8224 150.167 39.5309C151.472 39.2395 152.777 38.9485 154.082 38.6571C155.182 38.412 156.296 38.2002 157.373 37.865C158.299 37.5765 159.232 37.1445 159.921 36.4467C160.673 35.687 161.056 34.6969 161.222 33.6551C161.371 32.7109 161.496 31.5667 161.264 30.628ZM130.976 61.2325C131.429 61.1828 133.431 61.0093 133.289 61.9088C133.228 62.2904 132.707 62.5472 132.392 62.674C131.884 62.8782 131.307 62.9553 130.765 63.002C129.764 63.088 128.736 62.965 127.777 62.6593C127.822 62.5565 127.869 62.4538 127.913 62.3506C128.829 61.74 129.881 61.3534 130.976 61.2325ZM150.694 25.0777C150.797 25.6942 151.016 26.5103 150.749 27.1121C150.487 27.7034 149.712 27.7017 149.159 27.7008C148.339 27.7 147.517 27.6785 146.697 27.6596C145.085 27.6221 143.475 27.5636 141.866 27.4869C140.985 27.4452 140.103 27.4065 139.222 27.3581C139.025 27.3471 138.827 27.3404 138.629 27.3319C141.517 26.7066 144.104 25.4521 146.165 23.7448C147.639 22.5249 148.843 21.0669 149.692 19.4452C149.906 20.5435 150.114 21.6422 150.305 22.7451C150.439 23.5221 150.565 24.3003 150.694 25.0777ZM151.35 15.0555C151.443 14.8415 151.541 14.6293 151.642 14.4191C151.711 14.2764 151.773 14.113 151.88 13.9938C151.916 13.9538 152.023 13.8738 152.048 13.9007C152.122 13.9829 152.026 14.3143 152.011 14.409C151.893 15.1216 151.625 15.8168 151.235 16.4249C151.045 16.7197 150.824 16.9817 150.59 17.2318C150.645 17.0452 150.699 16.8583 150.744 16.6688C150.925 16.123 151.12 15.5823 151.35 15.0555ZM123.4 4.88289C126.206 2.55662 130.109 1.10249 134.43 1.10334C138.752 1.10291 142.654 2.55662 145.461 4.88289C148.269 7.21252 149.975 10.3911 149.975 13.889C149.975 17.3872 148.269 20.5654 145.461 22.895C142.654 25.2213 138.752 26.6754 134.43 26.6746C130.109 26.6754 126.207 25.2213 123.4 22.895C120.592 20.5654 118.885 17.3868 118.885 13.889C118.885 10.3907 120.592 7.21252 123.4 4.88289ZM117.721 16.7092C117.752 16.5799 117.796 16.3845 117.948 16.4102C118.012 16.4207 118.056 16.4788 118.09 16.5521C118.266 17.3063 118.512 18.0387 118.826 18.7428C119.096 19.5867 119.347 20.4374 119.567 21.2939C119.244 21.2518 118.936 21.1406 118.659 20.9473C118.582 20.8934 118.504 20.8699 118.428 20.8652C118.43 20.3241 118.311 19.7728 118.144 19.2144C117.978 18.6577 117.778 18.1069 117.706 17.527C117.673 17.26 117.657 16.9737 117.721 16.7092ZM121.449 25.423C120.354 25.773 119.255 26.1124 118.152 26.4383C116.463 26.9378 114.76 27.3926 113.048 27.8116C113.737 27.0835 114.426 26.3558 115.114 25.6277C115.637 25.0756 116.158 24.5235 116.678 23.9689C117.124 23.4922 117.618 23.0281 117.969 22.4726C118.115 22.2406 118.216 22.0056 118.29 21.7685C118.865 22.1084 119.491 22.2423 120.166 22.132C120.369 22.0991 120.578 21.8797 120.517 21.6595C120.497 21.5853 120.476 21.5121 120.455 21.4379C121.105 22.2743 121.855 23.0496 122.696 23.7453C123.07 24.0552 123.461 24.3496 123.868 24.6288C123.055 24.8692 122.254 25.1661 121.449 25.423ZM140.249 41.8471C139.683 42.4573 139.064 43.0191 138.411 43.5354C137.083 44.5861 135.607 45.4317 134.031 46.052C131.177 47.1755 127.577 47.7874 124.697 46.4163C121.319 44.8076 121.197 40.7686 121.581 37.5289C121.844 35.3109 122.408 33.1577 123.079 31.0319C123.68 29.1246 124.443 27.2721 125.061 25.3716C127.735 26.8923 130.96 27.7779 134.43 27.7783C134.999 27.7783 135.561 27.7543 136.115 27.708C136.037 27.8398 136.017 28.0066 136.109 28.1919C137.054 30.1113 137.999 32.0312 138.944 33.9507C139.403 34.883 139.861 35.8162 140.318 36.749C140.747 37.6224 141.383 38.5868 141.441 39.5819C141.496 40.4961 140.83 41.2209 140.249 41.8471ZM160.386 31.7575C160.344 32.6418 160.288 33.5405 159.994 34.3832C159.722 35.1652 159.255 35.727 158.675 36.1472C158.672 35.8811 158.661 35.6145 158.669 35.3467C158.686 34.7853 158.736 34.2253 158.82 33.6702C158.965 32.7126 159.171 31.6556 159.605 30.7813C159.752 30.4853 160.11 30.0869 160.31 30.5518C160.469 30.9216 160.404 31.3688 160.386 31.7575Z"/>
</mask>
<path d="M161.264 30.628C161.071 29.8481 160.351 29.1444 159.528 29.6397C159.09 29.9029 158.85 30.3969 158.669 30.855C158.428 31.4657 158.238 32.0961 158.083 32.7336C157.923 33.3885 157.812 34.0547 157.748 34.7255C157.689 35.3496 157.613 36.05 157.735 36.6762C157.176 36.9225 156.567 37.0981 155.949 37.2443C153.802 37.7521 151.645 38.2213 149.493 38.7093C148.247 38.9919 147.004 39.2884 145.76 39.5798C145.168 39.7183 144.574 39.851 143.983 39.9959C143.464 40.1235 142.93 40.2342 142.456 40.4801C142.654 39.7154 142.549 38.9271 142.237 38.1408C141.774 36.976 141.146 35.8613 140.593 34.7373C139.504 32.5239 138.42 30.3084 137.334 28.0937C137.473 28.1119 137.613 28.1258 137.75 28.1392C138.204 28.1826 138.657 28.2272 139.112 28.2592C139.991 28.3207 140.87 28.3801 141.751 28.4239C143.512 28.5119 145.275 28.5721 147.037 28.6096C147.861 28.6273 148.689 28.6631 149.513 28.6383C150.144 28.6193 150.804 28.4866 151.262 28.0192C151.74 27.5316 151.821 26.8632 151.751 26.2109C151.664 25.402 151.459 24.5926 151.314 23.792C150.98 21.9614 150.684 20.1266 150.404 18.2876C150.867 17.9919 151.254 17.5767 151.582 17.1392C152.021 16.5538 152.363 15.8859 152.567 15.1826C152.731 14.6154 153.073 13.5066 152.31 13.2198C151.731 13.0021 151.35 13.4211 151.08 13.902C151.08 13.8978 151.08 13.8936 151.08 13.8898C151.081 10.0218 149.184 6.53157 146.166 4.03349C143.146 1.53246 139 0.00084224 134.431 0C129.862 0.00042112 125.716 1.53246 122.697 4.03349C119.678 6.53115 117.781 10.0214 117.782 13.8898C117.782 14.4465 117.825 14.9944 117.902 15.5338C117.355 15.568 117 16.1255 116.893 16.6144C116.603 17.9346 117.367 19.1673 117.543 20.4441C117.757 22.0073 116.266 23.0529 115.295 24.056C113.898 25.4988 112.497 26.9386 111.11 28.3915C110.81 28.7061 111.174 29.3015 111.589 29.2026C113.836 28.669 116.059 28.0516 118.261 27.3538C119.354 27.0073 120.439 26.6405 121.516 26.2446C122.48 25.89 123.476 25.5456 124.403 25.0924C123.575 26.8468 122.892 28.6804 122.268 30.5135C121.598 32.4822 121.064 34.5158 120.75 36.5726C120.215 40.0742 120.116 44.4484 123.324 46.7498C124.57 47.6434 126.014 48.0927 127.511 48.233C127.523 48.2944 127.555 48.3551 127.62 48.406C128.533 49.1274 129.063 50.0787 129.203 51.2364C129.361 52.5414 129.173 53.9231 128.984 55.2164C128.658 57.4365 128.047 59.5994 127.185 61.6667C127.117 61.7429 127.085 61.8288 127.081 61.9164C126.961 62.1981 126.836 62.4782 126.706 62.7561C126.6 62.9844 126.734 63.2813 126.963 63.3714C128.428 63.9496 130 64.1496 131.559 63.8847C132.62 63.7045 134.299 63.168 134.241 61.8061C134.183 60.432 132.509 60.242 131.457 60.2572C130.419 60.2719 129.415 60.5052 128.482 60.9209C129.211 58.9265 129.717 56.8503 129.971 54.7414C130.14 53.3424 130.297 51.839 129.943 50.4565C129.733 49.6353 129.308 48.7909 128.622 48.2789C130.195 48.2755 131.787 47.9778 133.233 47.5314C134.988 46.9902 136.653 46.1686 138.166 45.1289C138.932 44.6021 139.658 44.0146 140.331 43.3724C140.981 42.7521 141.654 42.0918 142.112 41.3123C142.176 41.2032 142.229 41.0933 142.279 40.983C142.317 41.0162 142.362 41.0402 142.413 41.0461C143.036 41.1181 143.679 40.9345 144.288 40.8061C144.942 40.6684 145.595 40.5244 146.248 40.3837C147.554 40.102 148.862 39.8224 150.167 39.5309C151.472 39.2395 152.777 38.9485 154.082 38.6571C155.182 38.412 156.296 38.2002 157.373 37.865C158.299 37.5765 159.232 37.1445 159.921 36.4467C160.673 35.687 161.056 34.6969 161.222 33.6551C161.371 32.7109 161.496 31.5667 161.264 30.628ZM130.976 61.2325C131.429 61.1828 133.431 61.0093 133.289 61.9088C133.228 62.2904 132.707 62.5472 132.392 62.674C131.884 62.8782 131.307 62.9553 130.765 63.002C129.764 63.088 128.736 62.965 127.777 62.6593C127.822 62.5565 127.869 62.4538 127.913 62.3506C128.829 61.74 129.881 61.3534 130.976 61.2325ZM150.694 25.0777C150.797 25.6942 151.016 26.5103 150.749 27.1121C150.487 27.7034 149.712 27.7017 149.159 27.7008C148.339 27.7 147.517 27.6785 146.697 27.6596C145.085 27.6221 143.475 27.5636 141.866 27.4869C140.985 27.4452 140.103 27.4065 139.222 27.3581C139.025 27.3471 138.827 27.3404 138.629 27.3319C141.517 26.7066 144.104 25.4521 146.165 23.7448C147.639 22.5249 148.843 21.0669 149.692 19.4452C149.906 20.5435 150.114 21.6422 150.305 22.7451C150.439 23.5221 150.565 24.3003 150.694 25.0777ZM151.35 15.0555C151.443 14.8415 151.541 14.6293 151.642 14.4191C151.711 14.2764 151.773 14.113 151.88 13.9938C151.916 13.9538 152.023 13.8738 152.048 13.9007C152.122 13.9829 152.026 14.3143 152.011 14.409C151.893 15.1216 151.625 15.8168 151.235 16.4249C151.045 16.7197 150.824 16.9817 150.59 17.2318C150.645 17.0452 150.699 16.8583 150.744 16.6688C150.925 16.123 151.12 15.5823 151.35 15.0555ZM123.4 4.88289C126.206 2.55662 130.109 1.10249 134.43 1.10334C138.752 1.10291 142.654 2.55662 145.461 4.88289C148.269 7.21252 149.975 10.3911 149.975 13.889C149.975 17.3872 148.269 20.5654 145.461 22.895C142.654 25.2213 138.752 26.6754 134.43 26.6746C130.109 26.6754 126.207 25.2213 123.4 22.895C120.592 20.5654 118.885 17.3868 118.885 13.889C118.885 10.3907 120.592 7.21252 123.4 4.88289ZM117.721 16.7092C117.752 16.5799 117.796 16.3845 117.948 16.4102C118.012 16.4207 118.056 16.4788 118.09 16.5521C118.266 17.3063 118.512 18.0387 118.826 18.7428C119.096 19.5867 119.347 20.4374 119.567 21.2939C119.244 21.2518 118.936 21.1406 118.659 20.9473C118.582 20.8934 118.504 20.8699 118.428 20.8652C118.43 20.3241 118.311 19.7728 118.144 19.2144C117.978 18.6577 117.778 18.1069 117.706 17.527C117.673 17.26 117.657 16.9737 117.721 16.7092ZM121.449 25.423C120.354 25.773 119.255 26.1124 118.152 26.4383C116.463 26.9378 114.76 27.3926 113.048 27.8116C113.737 27.0835 114.426 26.3558 115.114 25.6277C115.637 25.0756 116.158 24.5235 116.678 23.9689C117.124 23.4922 117.618 23.0281 117.969 22.4726C118.115 22.2406 118.216 22.0056 118.29 21.7685C118.865 22.1084 119.491 22.2423 120.166 22.132C120.369 22.0991 120.578 21.8797 120.517 21.6595C120.497 21.5853 120.476 21.5121 120.455 21.4379C121.105 22.2743 121.855 23.0496 122.696 23.7453C123.07 24.0552 123.461 24.3496 123.868 24.6288C123.055 24.8692 122.254 25.1661 121.449 25.423ZM140.249 41.8471C139.683 42.4573 139.064 43.0191 138.411 43.5354C137.083 44.5861 135.607 45.4317 134.031 46.052C131.177 47.1755 127.577 47.7874 124.697 46.4163C121.319 44.8076 121.197 40.7686 121.581 37.5289C121.844 35.3109 122.408 33.1577 123.079 31.0319C123.68 29.1246 124.443 27.2721 125.061 25.3716C127.735 26.8923 130.96 27.7779 134.43 27.7783C134.999 27.7783 135.561 27.7543 136.115 27.708C136.037 27.8398 136.017 28.0066 136.109 28.1919C137.054 30.1113 137.999 32.0312 138.944 33.9507C139.403 34.883 139.861 35.8162 140.318 36.749C140.747 37.6224 141.383 38.5868 141.441 39.5819C141.496 40.4961 140.83 41.2209 140.249 41.8471ZM160.386 31.7575C160.344 32.6418 160.288 33.5405 159.994 34.3832C159.722 35.1652 159.255 35.727 158.675 36.1472C158.672 35.8811 158.661 35.6145 158.669 35.3467C158.686 34.7853 158.736 34.2253 158.82 33.6702C158.965 32.7126 159.171 31.6556 159.605 30.7813C159.752 30.4853 160.11 30.0869 160.31 30.5518C160.469 30.9216 160.404 31.3688 160.386 31.7575Z" fill="black" fill-opacity="0.5" stroke="black" stroke-opacity="0.5" stroke-width="2" mask="url(#path-8-inside-1_16_117)"/>
</svg>
