<svg width="49" height="476" viewBox="0 0 49 476" fill="none" xmlns="http://www.w3.org/2000/svg">
<path d="M48.4999 0.797999L38.9449 35H30.8599L24.4409 10.647L17.7279 35L9.69186 35.049L0.479856 0.797999H7.82986L13.8569 27.356L20.8149 0.797999H28.4589L35.0249 27.209L41.1009 0.797999H48.4999ZM27.9222 63.798V98H21.0622V63.798H27.9222ZM24.7603 413.343C22.3756 413.343 20.2196 412.935 18.2923 412.118C16.3976 411.301 14.895 410.125 13.7843 408.59C12.6736 407.055 12.102 405.242 12.0693 403.151H19.4193C19.5173 404.556 20.0073 405.666 20.8893 406.483C21.804 407.3 23.0453 407.708 24.6133 407.708C26.214 407.708 27.4716 407.332 28.3863 406.581C29.301 405.797 29.7583 404.784 29.7583 403.543C29.7583 402.53 29.448 401.697 28.8273 401.044C28.2066 400.391 27.4226 399.884 26.4753 399.525C25.5606 399.133 24.2866 398.708 22.6533 398.251C20.432 397.598 18.619 396.961 17.2143 396.34C15.8423 395.687 14.65 394.723 13.6373 393.449C12.6573 392.142 12.1673 390.411 12.1673 388.255C12.1673 386.23 12.6736 384.466 13.6863 382.963C14.699 381.46 16.12 380.317 17.9493 379.533C19.7786 378.716 21.8693 378.308 24.2213 378.308C27.7493 378.308 30.6076 379.174 32.7963 380.905C35.0176 382.604 36.2426 384.988 36.4713 388.059H28.9253C28.86 386.883 28.3536 385.919 27.4063 385.168C26.4916 384.384 25.2666 383.992 23.7313 383.992C22.392 383.992 21.314 384.335 20.4973 385.021C19.7133 385.707 19.3213 386.703 19.3213 388.01C19.3213 388.925 19.6153 389.692 20.2033 390.313C20.824 390.901 21.5753 391.391 22.4573 391.783C23.372 392.142 24.646 392.567 26.2793 393.057C28.5006 393.71 30.3136 394.364 31.7183 395.017C33.123 395.67 34.3316 396.65 35.3443 397.957C36.357 399.264 36.8633 400.979 36.8633 403.102C36.8633 404.931 36.3896 406.63 35.4423 408.198C34.495 409.766 33.1066 411.024 31.2773 411.971C29.448 412.886 27.2756 413.343 24.7603 413.343ZM37.0159 441.798V447.335H27.9019V476H21.0419V447.335H11.9279V441.798H37.0159Z" fill="black"/>
<path d="M24.7226 161.343C22.4686 161.343 20.4433 160.951 18.6466 160.167C16.8826 159.35 15.4943 158.24 14.4816 156.835C13.4689 155.398 12.9463 153.748 12.9136 151.886H17.6666C17.8299 153.487 18.4833 154.842 19.6266 155.953C20.8026 157.031 22.5013 157.57 24.7226 157.57C26.8459 157.57 28.5119 157.047 29.7206 156.002C30.9619 154.924 31.5826 153.552 31.5826 151.886C31.5826 150.579 31.2233 149.518 30.5046 148.701C29.7859 147.884 28.8876 147.264 27.8096 146.839C26.7316 146.414 25.2779 145.957 23.4486 145.467C21.1946 144.879 19.3816 144.291 18.0096 143.703C16.6703 143.115 15.5106 142.2 14.5306 140.959C13.5833 139.685 13.1096 137.986 13.1096 135.863C13.1096 134.001 13.5833 132.351 14.5306 130.914C15.4779 129.477 16.8009 128.366 18.4996 127.582C20.2309 126.798 22.2073 126.406 24.4286 126.406C27.6299 126.406 30.2433 127.206 32.2686 128.807C34.3266 130.408 35.4863 132.531 35.7476 135.177H30.8476C30.6843 133.87 29.9983 132.727 28.7896 131.747C27.5809 130.734 25.9803 130.228 23.9876 130.228C22.1256 130.228 20.6066 130.718 19.4306 131.698C18.2546 132.645 17.6666 133.985 17.6666 135.716C17.6666 136.957 18.0096 137.97 18.6956 138.754C19.4143 139.538 20.2799 140.142 21.2926 140.567C22.3379 140.959 23.7916 141.416 25.6536 141.939C27.9076 142.56 29.7206 143.18 31.0926 143.801C32.4646 144.389 33.6406 145.32 34.6206 146.594C35.6006 147.835 36.0906 149.534 36.0906 151.69C36.0906 153.356 35.6496 154.924 34.7676 156.394C33.8856 157.864 32.5789 159.056 30.8476 159.971C29.1163 160.886 27.0746 161.343 24.7226 161.343ZM37.6226 189.847V224H33.1636V208.516H15.7686V224H11.3096V189.847H15.7686V204.841H33.1636V189.847H37.6226ZM22.1568 283.374H34.1128V287H17.6978V252.847H22.1568V283.374ZM26.7027 315.847V350H22.2437V315.847H26.7027Z" fill="black" fill-opacity="0.3"/>
</svg>
